<?xml version="1.0" encoding="utf-8"?>
<!-- Generator: Adobe Illustrator 15.1.0, SVG Export Plug-In . SVG Version: 6.00 Build 0)  -->
<!DOCTYPE svg PUBLIC "-//W3C//DTD SVG 1.1//EN" "http://www.w3.org/Graphics/SVG/1.1/DTD/svg11.dtd">
<svg version="1.1" xmlns="http://www.w3.org/2000/svg" xmlns:xlink="http://www.w3.org/1999/xlink" x="0px" y="0px" width="467.5px"
	 height="219.5px" viewBox="62.5 25 467.5 219.5" enable-background="new 62.5 25 467.5 219.5" xml:space="preserve">
<metadata>
<x:xmpmeta xmlns:x="adobe:ns:meta/" x:xmptk="Adobe XMP Core 5.0-c060 61.134777, 2010/02/12-17:32:00">
   <rdf:RDF xmlns:rdf="http://www.w3.org/1999/02/22-rdf-syntax-ns#">
      <rdf:Description rdf:about=""
            xmlns:dc="http://purl.org/dc/elements/1.1/">
         <dc:format>image/svg+xml</dc:format>
         <dc:title>
            <rdf:Alt>
               <rdf:li xml:lang="x-default">Konstruktionsstrahlen an der Konvexlinse</rdf:li>
            </rdf:Alt>
         </dc:title>
         <dc:creator>
            <rdf:Seq>
               <rdf:li>Stefan Richtberg (stefan@richtberg.org)</rdf:li>
            </rdf:Seq>
         </dc:creator>
         <dc:rights>
            <rdf:Alt>
               <rdf:li xml:lang="x-default">© Stefan Richtberg für www.leifiphysik.de</rdf:li>
            </rdf:Alt>
         </dc:rights>
                  <dc:description>
            <rdf:Alt>
               <rdf:li xml:lang="x-default">Konstruktionsstrahlen an der Konvexlinse</rdf:li>
            </rdf:Alt>
         </dc:description>
      </rdf:Description>
      <rdf:Description rdf:about=""
            xmlns:Iptc4xmpCore="http://iptc.org/std/Iptc4xmpCore/1.0/xmlns/">
         <Iptc4xmpCore:CreatorContactInfo rdf:parseType="Resource">
            <Iptc4xmpCore:CiAdrExtadr>Trautmannstr. 7</Iptc4xmpCore:CiAdrExtadr>
            <Iptc4xmpCore:CiAdrCity>München</Iptc4xmpCore:CiAdrCity>
            <Iptc4xmpCore:CiAdrPcode>81373</Iptc4xmpCore:CiAdrPcode>
            <Iptc4xmpCore:CiAdrCtry>Germany</Iptc4xmpCore:CiAdrCtry>
            <Iptc4xmpCore:CiEmailWork>stefan@richtberg.org</Iptc4xmpCore:CiEmailWork>
            <Iptc4xmpCore:CiUrlWork>www.richtberg.org</Iptc4xmpCore:CiUrlWork>
         </Iptc4xmpCore:CreatorContactInfo>
      </rdf:Description>
   </rdf:RDF>
</x:xmpmeta>
</metadata>
<g id="Sonstige_Strahlen" display="none">
	
		<line display="inline" fill="none" stroke="#FFFF00" stroke-width="0.5" stroke-miterlimit="10" stroke-dasharray="8" x1="111.5" y1="75.5" x2="111.5" y2="244.5"/>
	
		<line display="inline" fill="none" stroke="#FFFF00" stroke-width="0.5" stroke-miterlimit="10" stroke-dasharray="8" x1="111.5" y1="75.5" x2="190.775" y2="244.5"/>
	
		<line display="inline" fill="none" stroke="#FFFF00" stroke-width="0.5" stroke-miterlimit="10" stroke-dasharray="8" x1="111.5" y1="75.5" x2="35.5" y2="228.85"/>
	
		<line display="inline" fill="none" stroke="#FFFF00" stroke-width="0.5" stroke-miterlimit="10" stroke-dasharray="8" x1="111.5" y1="75.5" x2="35.5" y2="142.834"/>
	
		<line display="inline" fill="none" stroke="#FFFF00" stroke-width="0.5" stroke-miterlimit="10" stroke-dasharray="8" x1="111.5" y1="75.5" x2="35.5" y2="85.167"/>
	
		<line display="inline" fill="none" stroke="#FFFF00" stroke-width="0.5" stroke-miterlimit="10" stroke-dasharray="8" x1="111.5" y1="75.5" x2="35.5" y2="43.834"/>
	
		<line display="inline" fill="none" stroke="#FFFF00" stroke-width="0.5" stroke-miterlimit="10" stroke-dasharray="8" x1="111.5" y1="75.5" x2="88.166" y2="25"/>
	
		<line display="inline" fill="none" stroke="#FFFF00" stroke-width="0.5" stroke-miterlimit="10" stroke-dasharray="8" x1="111.5" y1="75.5" x2="147.166" y2="25"/>
	
		<line display="inline" fill="none" stroke="#FFFF00" stroke-width="0.5" stroke-miterlimit="10" stroke-dasharray="8" x1="111.5" y1="75.5" x2="198.166" y2="25"/>
</g>
<g id="Ebene_1">
	<polyline display="none" fill="#FFFF00" points="270.05,48 432.04,164.515 270,192 	"/>
	<polyline display="none" fill="#FFFF00" points="270.05,48 270,192 111.5,75.5 	"/>
	<g transform="matrix( 1, 0, 0, 1, 270,119.55) ">
		<g transform="matrix( 1, 0, 0, 1, 0,0) ">
			<g>
				<g id="Symbol_1_0_Layer0_0_FILL">
					<path fill="#009FFF" d="M0.05-71.55L0-71.5c-9.033,21.866-13.55,45.866-13.55,72c0,26.1,4.517,50.083,13.55,71.95l0.05,0.05
						v-0.05C9.117,50.583,13.65,26.6,13.65,0.5c0-26.134-4.533-50.134-13.601-72V-71.55z"/>
				</g>
			</g>
			<g>
				<path id="Symbol_1_0_Layer0_0_1_STROKES" fill="none" stroke="#009FFF" stroke-linecap="round" stroke-linejoin="round" d="
					M0.05-71.55v0.05C9.117-49.634,13.65-25.634,13.65,0.5c0,26.1-4.533,50.083-13.601,71.95v0.05L0,72.45
					C-9.033,50.583-13.55,26.6-13.55,0.5c0-26.134,4.517-50.134,13.55-72L0.05-71.55z"/>
			</g>
		</g>
	</g>
	<g enable-background="new    ">
		<path fill="#FF00FF" d="M219.821,228.85v-12.885h1.705v11.364h6.346v1.521H219.821z"/>
		<path fill="#FF00FF" d="M229.709,217.784v-1.819h1.582v1.819H229.709z M229.709,228.85v-9.334h1.582v9.334H229.709z"/>
		<path fill="#FF00FF" d="M233.699,228.85v-9.334h1.424v1.327c0.686-1.025,1.676-1.538,2.971-1.538c0.563,0,1.08,0.102,1.551,0.303
			c0.472,0.203,0.825,0.468,1.059,0.796s0.398,0.718,0.492,1.169c0.059,0.293,0.088,0.806,0.088,1.538v5.739h-1.582v-5.678
			c0-0.645-0.062-1.126-0.185-1.445s-0.341-0.574-0.655-0.766c-0.313-0.189-0.681-0.285-1.103-0.285
			c-0.674,0-1.255,0.214-1.745,0.642s-0.734,1.239-0.734,2.435v5.098H233.699z"/>
		<path fill="#FF00FF" d="M243.077,226.064l1.564-0.246c0.088,0.627,0.333,1.107,0.734,1.441s0.962,0.501,1.683,0.501
			c0.727,0,1.266-0.147,1.617-0.443s0.527-0.644,0.527-1.042c0-0.357-0.155-0.639-0.466-0.844c-0.217-0.141-0.756-0.319-1.617-0.536
			c-1.16-0.293-1.964-0.546-2.413-0.76s-0.788-0.51-1.02-0.889c-0.231-0.377-0.347-0.795-0.347-1.252
			c0-0.416,0.095-0.801,0.286-1.156c0.19-0.354,0.45-0.648,0.778-0.883c0.246-0.182,0.582-0.335,1.006-0.461s0.88-0.189,1.367-0.189
			c0.732,0,1.375,0.105,1.929,0.316s0.962,0.496,1.226,0.857c0.264,0.359,0.445,0.842,0.545,1.445l-1.547,0.211
			c-0.07-0.48-0.274-0.855-0.611-1.125s-0.813-0.404-1.428-0.404c-0.727,0-1.245,0.12-1.556,0.36s-0.466,0.521-0.466,0.844
			c0,0.205,0.064,0.39,0.193,0.554c0.129,0.17,0.331,0.311,0.606,0.422c0.158,0.059,0.624,0.193,1.397,0.404
			c1.119,0.299,1.9,0.544,2.342,0.734s0.79,0.467,1.042,0.83s0.378,0.814,0.378,1.354c0,0.527-0.154,1.023-0.461,1.49
			c-0.308,0.465-0.751,0.826-1.332,1.08c-0.58,0.256-1.236,0.383-1.969,0.383c-1.213,0-2.137-0.252-2.773-0.756
			S243.253,227.054,243.077,226.064z"/>
		<path fill="#FF00FF" d="M259.099,225.844l1.635,0.202c-0.258,0.955-0.735,1.696-1.433,2.224s-1.588,0.791-2.672,0.791
			c-1.365,0-2.448-0.42-3.248-1.262c-0.8-0.84-1.2-2.02-1.2-3.537c0-1.57,0.404-2.789,1.213-3.656s1.857-1.301,3.146-1.301
			c1.248,0,2.268,0.425,3.059,1.274s1.187,2.045,1.187,3.586c0,0.094-0.003,0.234-0.009,0.422h-6.961
			c0.059,1.025,0.349,1.811,0.87,2.355s1.172,0.817,1.951,0.817c0.58,0,1.075-0.152,1.485-0.457S258.859,226.512,259.099,225.844z
			 M253.905,223.286h5.212c-0.07-0.785-0.27-1.374-0.598-1.767c-0.504-0.609-1.157-0.914-1.96-0.914
			c-0.727,0-1.337,0.243-1.833,0.729S253.958,222.472,253.905,223.286z"/>
		<path fill="#FF00FF" d="M262.72,228.85v-9.334h1.424v1.327c0.686-1.025,1.676-1.538,2.971-1.538c0.563,0,1.08,0.102,1.551,0.303
			c0.473,0.203,0.825,0.468,1.06,0.796s0.398,0.718,0.492,1.169c0.059,0.293,0.088,0.806,0.088,1.538v5.739h-1.582v-5.678
			c0-0.645-0.062-1.126-0.185-1.445s-0.342-0.574-0.654-0.766c-0.314-0.189-0.682-0.285-1.104-0.285
			c-0.674,0-1.256,0.214-1.745,0.642c-0.489,0.428-0.734,1.239-0.734,2.435v5.098H262.72z"/>
		<path fill="#FF00FF" d="M279.121,225.844l1.635,0.202c-0.258,0.955-0.735,1.696-1.433,2.224s-1.588,0.791-2.672,0.791
			c-1.365,0-2.448-0.42-3.247-1.262c-0.801-0.84-1.2-2.02-1.2-3.537c0-1.57,0.404-2.789,1.213-3.656s1.857-1.301,3.146-1.301
			c1.248,0,2.268,0.425,3.059,1.274s1.187,2.045,1.187,3.586c0,0.094-0.003,0.234-0.009,0.422h-6.961
			c0.059,1.025,0.349,1.811,0.87,2.355s1.172,0.817,1.951,0.817c0.58,0,1.075-0.152,1.485-0.457S278.881,226.512,279.121,225.844z
			 M273.927,223.286h5.212c-0.07-0.785-0.27-1.374-0.598-1.767c-0.504-0.609-1.157-0.914-1.96-0.914
			c-0.727,0-1.337,0.243-1.833,0.729C274.254,221.822,273.979,222.472,273.927,223.286z"/>
		<path fill="#FF00FF" d="M284.201,228.85h-1.468v-12.885h1.582v4.597c0.668-0.838,1.521-1.257,2.558-1.257
			c0.574,0,1.117,0.116,1.631,0.348c0.512,0.231,0.934,0.557,1.266,0.975c0.33,0.42,0.59,0.925,0.777,1.517s0.281,1.225,0.281,1.898
			c0,1.6-0.396,2.836-1.187,3.709s-1.74,1.31-2.848,1.31c-1.102,0-1.966-0.46-2.593-1.38V228.85z M284.183,224.113
			c0,1.119,0.152,1.928,0.457,2.426c0.498,0.814,1.172,1.222,2.021,1.222c0.691,0,1.289-0.3,1.793-0.9s0.756-1.496,0.756-2.686
			c0-1.219-0.242-2.118-0.725-2.698c-0.484-0.58-1.068-0.87-1.754-0.87c-0.691,0-1.289,0.301-1.793,0.9
			C284.435,222.108,284.183,222.976,284.183,224.113z"/>
		<path fill="#FF00FF" d="M299.142,225.844l1.635,0.202c-0.258,0.955-0.735,1.696-1.433,2.224s-1.588,0.791-2.672,0.791
			c-1.365,0-2.448-0.42-3.247-1.262c-0.801-0.84-1.2-2.02-1.2-3.537c0-1.57,0.404-2.789,1.213-3.656s1.857-1.301,3.146-1.301
			c1.248,0,2.268,0.425,3.059,1.274s1.187,2.045,1.187,3.586c0,0.094-0.003,0.234-0.009,0.422h-6.961
			c0.059,1.025,0.349,1.811,0.87,2.355s1.172,0.817,1.951,0.817c0.58,0,1.075-0.152,1.485-0.457S298.902,226.512,299.142,225.844z
			 M293.948,223.286h5.212c-0.07-0.785-0.27-1.374-0.598-1.767c-0.504-0.609-1.157-0.914-1.96-0.914
			c-0.727,0-1.337,0.243-1.833,0.729C294.275,221.822,294.001,222.472,293.948,223.286z"/>
		<path fill="#FF00FF" d="M302.763,228.85v-9.334h1.424v1.327c0.686-1.025,1.676-1.538,2.971-1.538c0.563,0,1.08,0.102,1.551,0.303
			c0.473,0.203,0.825,0.468,1.06,0.796s0.398,0.718,0.492,1.169c0.059,0.293,0.088,0.806,0.088,1.538v5.739h-1.582v-5.678
			c0-0.645-0.062-1.126-0.185-1.445s-0.342-0.574-0.654-0.766c-0.314-0.189-0.682-0.285-1.104-0.285
			c-0.674,0-1.256,0.214-1.744,0.642c-0.49,0.428-0.734,1.239-0.734,2.435v5.098H302.763z"/>
		<path fill="#FF00FF" d="M319.164,225.844l1.635,0.202c-0.258,0.955-0.735,1.696-1.433,2.224s-1.588,0.791-2.672,0.791
			c-1.365,0-2.448-0.42-3.247-1.262c-0.801-0.84-1.2-2.02-1.2-3.537c0-1.57,0.404-2.789,1.213-3.656s1.857-1.301,3.146-1.301
			c1.248,0,2.268,0.425,3.059,1.274s1.187,2.045,1.187,3.586c0,0.094-0.003,0.234-0.009,0.422h-6.961
			c0.059,1.025,0.349,1.811,0.87,2.355s1.172,0.817,1.951,0.817c0.58,0,1.075-0.152,1.485-0.457S318.924,226.512,319.164,225.844z
			 M313.969,223.286h5.212c-0.07-0.785-0.27-1.374-0.598-1.767c-0.504-0.609-1.157-0.914-1.96-0.914
			c-0.727,0-1.337,0.243-1.833,0.729C314.297,221.822,314.022,222.472,313.969,223.286z"/>
	</g>
	<g>
		<path d="M404.097,107.833c0-1.729,0.48-3.009,1.441-3.841c0.803-0.691,1.781-1.037,2.936-1.037c1.283,0,2.332,0.42,3.146,1.261
			s1.223,2.002,1.223,3.485c0,1.201-0.181,2.146-0.541,2.834s-0.885,1.223-1.573,1.604s-1.44,0.571-2.255,0.571
			c-1.307,0-2.362-0.419-3.168-1.257S404.097,109.409,404.097,107.833z M405.724,107.833c0,1.195,0.26,2.09,0.781,2.685
			s1.178,0.892,1.969,0.892c0.785,0,1.439-0.299,1.961-0.896s0.781-1.509,0.781-2.733c0-1.154-0.262-2.029-0.786-2.624
			s-1.177-0.892-1.956-0.892c-0.791,0-1.447,0.296-1.969,0.888S405.724,106.638,405.724,107.833z"/>
		<path d="M414.697,116.077v-12.911h1.441v1.213c0.34-0.475,0.725-0.831,1.152-1.068s0.945-0.356,1.555-0.356
			c0.797,0,1.5,0.205,2.109,0.615s1.07,0.989,1.381,1.736s0.465,1.566,0.465,2.457c0,0.955-0.171,1.815-0.514,2.58
			s-0.841,1.351-1.494,1.758s-1.34,0.611-2.061,0.611c-0.527,0-1.001-0.111-1.42-0.334s-0.764-0.504-1.033-0.844v4.544H414.697z
			 M416.131,107.886c0,1.201,0.242,2.089,0.729,2.663s1.076,0.861,1.768,0.861c0.703,0,1.305-0.297,1.806-0.892
			s0.751-1.516,0.751-2.764c0-1.189-0.244-2.08-0.733-2.672s-1.073-0.888-1.753-0.888c-0.674,0-1.271,0.315-1.789,0.945
			S416.131,106.685,416.131,107.886z"/>
		<path d="M428.162,111.085l0.229,1.397c-0.445,0.094-0.844,0.141-1.195,0.141c-0.574,0-1.02-0.091-1.336-0.272
			s-0.539-0.42-0.668-0.716s-0.193-0.918-0.193-1.868v-5.37h-1.16v-1.23h1.16v-2.312l1.574-0.949v3.261h1.59v1.23h-1.59v5.458
			c0,0.451,0.027,0.741,0.083,0.87s0.146,0.231,0.272,0.308s0.307,0.114,0.541,0.114
			C427.644,111.147,427.875,111.126,428.162,111.085z"/>
		<path d="M429.719,101.435v-1.819h1.582v1.819H429.719z M429.719,112.5v-9.334h1.582v9.334H429.719z"/>
		<path d="M433.076,109.714l1.564-0.246c0.088,0.627,0.332,1.107,0.733,1.441s0.962,0.501,1.683,0.501
			c0.727,0,1.266-0.148,1.617-0.444s0.527-0.643,0.527-1.042c0-0.357-0.154-0.639-0.465-0.844c-0.217-0.141-0.756-0.319-1.617-0.536
			c-1.16-0.293-1.965-0.546-2.413-0.76s-0.788-0.51-1.02-0.888s-0.347-0.795-0.347-1.252c0-0.416,0.095-0.801,0.285-1.156
			s0.449-0.649,0.777-0.883c0.246-0.182,0.582-0.335,1.007-0.461s0.88-0.189,1.366-0.189c0.732,0,1.376,0.105,1.93,0.316
			s0.963,0.497,1.227,0.857s0.445,0.842,0.545,1.446l-1.547,0.211c-0.07-0.48-0.274-0.855-0.611-1.125s-0.813-0.404-1.428-0.404
			c-0.727,0-1.246,0.12-1.557,0.36s-0.465,0.521-0.465,0.844c0,0.205,0.064,0.39,0.193,0.554c0.129,0.17,0.33,0.311,0.605,0.422
			c0.158,0.059,0.625,0.193,1.398,0.404c1.119,0.299,1.899,0.543,2.342,0.734s0.789,0.467,1.041,0.831s0.379,0.814,0.379,1.354
			c0,0.527-0.154,1.024-0.462,1.49s-0.751,0.826-1.331,1.081s-1.236,0.382-1.969,0.382c-1.213,0-2.138-0.252-2.773-0.756
			S433.252,110.704,433.076,109.714z"/>
		<path d="M448.799,109.081l1.557,0.202c-0.17,1.072-0.605,1.912-1.306,2.518s-1.56,0.91-2.579,0.91
			c-1.277,0-2.305-0.417-3.081-1.252s-1.165-2.032-1.165-3.59c0-1.008,0.168-1.89,0.502-2.646s0.842-1.323,1.524-1.701
			s1.425-0.567,2.228-0.567c1.014,0,1.844,0.256,2.488,0.769s1.057,1.241,1.238,2.184l-1.537,0.237
			c-0.146-0.627-0.406-1.099-0.778-1.415s-0.821-0.475-1.349-0.475c-0.797,0-1.445,0.286-1.943,0.857s-0.746,1.475-0.746,2.711
			c0,1.254,0.24,2.165,0.721,2.733s1.107,0.853,1.881,0.853c0.621,0,1.139-0.19,1.555-0.571S448.687,109.872,448.799,109.081z"/>
		<path d="M451.709,112.5V99.615h1.582v4.623c0.738-0.855,1.67-1.283,2.795-1.283c0.691,0,1.291,0.136,1.801,0.409
			s0.875,0.649,1.095,1.129s0.329,1.178,0.329,2.092v5.915h-1.582v-5.915c0-0.791-0.171-1.367-0.514-1.727s-0.828-0.541-1.455-0.541
			c-0.469,0-0.909,0.122-1.322,0.365s-0.707,0.573-0.883,0.989s-0.264,0.99-0.264,1.723v5.106H451.709z"/>
		<path d="M468.109,109.494l1.635,0.202c-0.258,0.955-0.736,1.696-1.434,2.224s-1.588,0.791-2.672,0.791
			c-1.365,0-2.447-0.42-3.247-1.261s-1.2-2.02-1.2-3.538c0-1.57,0.404-2.789,1.213-3.656s1.857-1.301,3.146-1.301
			c1.248,0,2.268,0.425,3.059,1.274s1.188,2.045,1.188,3.586c0,0.094-0.004,0.234-0.01,0.422h-6.961
			c0.059,1.025,0.35,1.811,0.871,2.355s1.172,0.817,1.951,0.817c0.58,0,1.074-0.152,1.484-0.457S467.869,110.162,468.109,109.494z
			 M462.914,106.937h5.213c-0.07-0.785-0.27-1.374-0.598-1.767c-0.504-0.609-1.158-0.914-1.961-0.914
			c-0.727,0-1.337,0.243-1.832,0.729S462.967,106.122,462.914,106.937z"/>
		<path d="M474.525,112.5l4.947-12.885h1.838l5.273,12.885h-1.943l-1.502-3.902h-5.389l-1.414,3.902H474.525z M478.242,107.209
			h4.369l-1.346-3.568c-0.41-1.084-0.715-1.975-0.914-2.672c-0.164,0.826-0.395,1.646-0.693,2.461L478.242,107.209z"/>
		<path d="M493.834,109.081l1.557,0.202c-0.17,1.072-0.605,1.912-1.306,2.518s-1.56,0.91-2.579,0.91
			c-1.277,0-2.305-0.417-3.081-1.252s-1.165-2.032-1.165-3.59c0-1.008,0.168-1.89,0.502-2.646s0.842-1.323,1.524-1.701
			s1.425-0.567,2.228-0.567c1.014,0,1.844,0.256,2.488,0.769s1.057,1.241,1.238,2.184l-1.537,0.237
			c-0.146-0.627-0.406-1.099-0.778-1.415s-0.821-0.475-1.349-0.475c-0.797,0-1.445,0.286-1.943,0.857s-0.746,1.475-0.746,2.711
			c0,1.254,0.24,2.165,0.721,2.733s1.107,0.853,1.881,0.853c0.621,0,1.139-0.19,1.555-0.571S493.722,109.872,493.834,109.081z"/>
		<path d="M496.744,112.5V99.615h1.582v4.623c0.738-0.855,1.67-1.283,2.795-1.283c0.691,0,1.291,0.136,1.801,0.409
			s0.875,0.649,1.095,1.129s0.329,1.178,0.329,2.092v5.915h-1.582v-5.915c0-0.791-0.171-1.367-0.514-1.727s-0.828-0.541-1.455-0.541
			c-0.469,0-0.909,0.122-1.322,0.365s-0.707,0.573-0.883,0.989s-0.264,0.99-0.264,1.723v5.106H496.744z"/>
		<path d="M506.121,109.714l1.564-0.246c0.088,0.627,0.333,1.107,0.734,1.441s0.963,0.501,1.684,0.501
			c0.727,0,1.266-0.148,1.617-0.444s0.527-0.643,0.527-1.042c0-0.357-0.156-0.639-0.467-0.844c-0.217-0.141-0.756-0.319-1.617-0.536
			c-1.16-0.293-1.964-0.546-2.412-0.76s-0.788-0.51-1.02-0.888s-0.348-0.795-0.348-1.252c0-0.416,0.096-0.801,0.286-1.156
			s0.45-0.649,0.778-0.883c0.246-0.182,0.581-0.335,1.006-0.461s0.881-0.189,1.367-0.189c0.732,0,1.375,0.105,1.929,0.316
			s0.962,0.497,1.226,0.857s0.445,0.842,0.545,1.446l-1.547,0.211c-0.07-0.48-0.273-0.855-0.61-1.125s-0.813-0.404-1.429-0.404
			c-0.727,0-1.244,0.12-1.555,0.36s-0.467,0.521-0.467,0.844c0,0.205,0.064,0.39,0.193,0.554c0.129,0.17,0.332,0.311,0.607,0.422
			c0.158,0.059,0.623,0.193,1.396,0.404c1.119,0.299,1.9,0.543,2.343,0.734s0.79,0.467,1.042,0.831s0.377,0.814,0.377,1.354
			c0,0.527-0.153,1.024-0.461,1.49s-0.752,0.826-1.332,1.081s-1.236,0.382-1.969,0.382c-1.213,0-2.137-0.252-2.772-0.756
			S506.297,110.704,506.121,109.714z"/>
		<path d="M522.144,109.494l1.635,0.202c-0.258,0.955-0.736,1.696-1.434,2.224s-1.588,0.791-2.672,0.791
			c-1.365,0-2.447-0.42-3.247-1.261s-1.2-2.02-1.2-3.538c0-1.57,0.404-2.789,1.213-3.656s1.857-1.301,3.146-1.301
			c1.248,0,2.268,0.425,3.059,1.274s1.188,2.045,1.188,3.586c0,0.094-0.004,0.234-0.01,0.422h-6.961
			c0.059,1.025,0.35,1.811,0.871,2.355s1.172,0.817,1.951,0.817c0.58,0,1.074-0.152,1.484-0.457S521.904,110.162,522.144,109.494z
			 M516.949,106.937h5.213c-0.07-0.785-0.27-1.374-0.598-1.767c-0.504-0.609-1.158-0.914-1.961-0.914
			c-0.727,0-1.337,0.243-1.832,0.729S517.002,106.122,516.949,106.937z"/>
	</g>
	
		<line fill="none" stroke="#FF00FF" stroke-width="2" stroke-linecap="round" stroke-linejoin="round" x1="270.051" y1="208.601" x2="270.051" y2="36.75"/>
	<g transform="matrix( 1, 0, 0, 1, 335.2,248) ">
		<g enable-background="new    ">
			<path d="M7.905-144.832v-12.885h8.692v1.521H9.61v3.99h6.047v1.521H9.61v5.854H7.905z"/>
			<path d="M22.64-140.832h-1.23v-7.841c-0.297,0.282-0.685,0.565-1.166,0.848c-0.48,0.282-0.912,0.494-1.295,0.636v-1.189
				c0.688-0.323,1.289-0.716,1.805-1.176s0.879-0.907,1.094-1.34h0.793V-140.832z"/>
		</g>
		
			<line fill="none" stroke="#000000" stroke-width="1.7178" stroke-miterlimit="10" x1="14.951" y1="-135.5" x2="14.951" y2="-120.5"/>
		
			<line fill="none" stroke="#000000" stroke-width="1.7178" stroke-miterlimit="10" x1="-145.249" y1="-135.5" x2="-145.249" y2="-120.5"/>
		<g enable-background="new    ">
			<path d="M-149.713-100.25v-12.885h8.692v1.521h-6.987v3.99h6.047v1.521h-6.047v5.854H-149.713z"/>
			<path d="M-133.146-97.432v1.183h-6.624c-0.009-0.296,0.039-0.581,0.144-0.854c0.168-0.451,0.438-0.896,0.81-1.333
				s0.908-0.943,1.61-1.518c1.089-0.894,1.825-1.601,2.208-2.123c0.383-0.521,0.574-1.015,0.574-1.479
				c0-0.487-0.174-0.899-0.523-1.233c-0.349-0.336-0.803-0.503-1.364-0.503c-0.592,0-1.066,0.178-1.422,0.533
				s-0.536,0.848-0.54,1.477l-1.265-0.13c0.086-0.943,0.413-1.662,0.978-2.156c0.565-0.495,1.324-0.742,2.276-0.742
				c0.961,0,1.723,0.267,2.283,0.8s0.841,1.194,0.841,1.982c0,0.401-0.082,0.795-0.246,1.183s-0.437,0.795-0.817,1.224
				s-1.013,1.017-1.897,1.764c-0.738,0.62-1.212,1.04-1.422,1.261c-0.209,0.222-0.383,0.443-0.52,0.667H-133.146z"/>
		</g>
	</g>
	
		<line fill="none" stroke="#000000" stroke-width="1.5" stroke-linecap="round" stroke-linejoin="round" stroke-dasharray="10" x1="26" y1="120" x2="549" y2="120"/>
	<g>
		<path d="M106.309,65V52.115h4.175c1.582,0,2.613,0.064,3.094,0.193c0.738,0.193,1.356,0.614,1.854,1.261s0.747,1.484,0.747,2.509
			c0,0.791-0.144,1.456-0.431,1.995s-0.652,0.962-1.094,1.27s-0.892,0.511-1.349,0.611c-0.621,0.123-1.521,0.185-2.698,0.185h-1.696
			V65H106.309z M108.911,54.295v3.656h1.424c1.025,0,1.711-0.067,2.057-0.202s0.617-0.346,0.813-0.633s0.294-0.621,0.294-1.002
			c0-0.469-0.138-0.855-0.413-1.16s-0.624-0.495-1.046-0.571c-0.311-0.059-0.935-0.088-1.872-0.088H108.911z"/>
	</g>
	<g>
		<path d="M425.643,205.5v-12.885h4.175c1.582,0,2.613,0.064,3.094,0.193c0.738,0.193,1.356,0.614,1.854,1.262
			s0.747,1.483,0.747,2.509c0,0.791-0.144,1.456-0.431,1.995s-0.652,0.963-1.095,1.27c-0.442,0.309-0.892,0.512-1.349,0.611
			c-0.621,0.123-1.521,0.185-2.698,0.185h-1.696v4.86H425.643z M428.245,194.795v3.656h1.424c1.025,0,1.711-0.067,2.057-0.202
			s0.616-0.346,0.813-0.633c0.195-0.287,0.294-0.621,0.294-1.002c0-0.469-0.138-0.855-0.413-1.16s-0.624-0.495-1.046-0.571
			c-0.311-0.059-0.935-0.088-1.872-0.088H428.245z"/>
		<path d="M440.69,195.024h-1.556l-2.426-2.628h2.769L440.69,195.024z"/>
	</g>
	<path fill="none" stroke="#000000" stroke-width="0.25" stroke-miterlimit="10" d="M432.18,164.321"/>
	<path fill="none" stroke="#000000" stroke-width="0.25" stroke-miterlimit="10" d="M270.05,48"/>
	<polyline display="none" fill="#FFFF00" points="432.027,164.425 530,147.75 530,234.5 432.18,164.321 	"/>
	<g>
		<g>
			<line fill="none" stroke="#000000" stroke-miterlimit="10" x1="432.027" y1="177.895" x2="432.027" y2="188.167"/>
			<g>
				<polygon points="432.027,170.834 427.962,180.783 432.027,178.422 436.092,180.783 				"/>
			</g>
		</g>
	</g>
</g>
<g id="Hauptstrahlen">
	<g>
		<g>
			<g>
				
					<line fill="none" stroke="#FF0000" stroke-width="2" stroke-miterlimit="10" x1="111.832" y1="75.459" x2="255.929" y2="75.459"/>
				<g>
					<polygon fill="#FF0000" points="270.05,75.459 250.151,83.59 254.873,75.459 250.151,67.33 					"/>
				</g>
			</g>
		</g>
		<g>
			<g>
				
					<line fill="none" stroke="#FF0000" stroke-width="2" stroke-miterlimit="10" x1="270.05" y1="75.459" x2="517.621" y2="211.371"/>
				<g>
					<polygon fill="#FF0000" points="530,218.167 508.644,215.719 516.696,210.864 516.469,201.466 					"/>
				</g>
			</g>
		</g>
	</g>
	<g>
		<g>
			<g>
				
					<line fill="none" stroke="#0000FF" stroke-width="2" stroke-miterlimit="10" x1="111.832" y1="75.458" x2="516.397" y2="188.256"/>
				<g>
					<polygon fill="#0000FF" points="530,192.049 508.648,194.537 515.381,187.973 513.015,178.874 					"/>
				</g>
			</g>
		</g>
		<g>
			<g>
				
					<line fill="none" stroke="#0000FF" stroke-width="2" stroke-miterlimit="10" x1="111.832" y1="75.458" x2="256.448" y2="115.78"/>
				<g>
					<polygon fill="#0000FF" points="270.051,119.572 248.7,122.06 255.431,115.496 253.066,106.398 					"/>
				</g>
			</g>
		</g>
	</g>
	<g>
		<g>
			<g>
				
					<line fill="none" stroke="#00A600" stroke-width="2" stroke-miterlimit="10" x1="270.301" y1="164.321" x2="516.129" y2="164.321"/>
				<g>
					<polygon fill="#00A600" points="530.25,164.321 510.351,172.451 515.073,164.321 510.351,156.192 					"/>
				</g>
			</g>
		</g>
		<g>
			<g>
				
					<line fill="none" stroke="#00A600" stroke-width="2" stroke-miterlimit="10" x1="111.832" y1="75.458" x2="257.984" y2="157.414"/>
				<g>
					<polygon fill="#00A600" points="270.301,164.321 248.968,161.68 257.063,156.898 256.921,147.498 					"/>
				</g>
			</g>
		</g>
	</g>
	<circle cx="432.04" cy="164.515" r="2.5"/>
	<circle cx="111.832" cy="75.459" r="2.5"/>
</g>
</svg>
