<?xml version="1.0" encoding="utf-8" standalone="no"?>
<!DOCTYPE svg PUBLIC "-//W3C//DTD SVG 1.1//EN"
  "http://www.w3.org/Graphics/SVG/1.1/DTD/svg11.dtd">
<svg xmlns:xlink="http://www.w3.org/1999/xlink" width="921.6pt" height="633.6pt" viewBox="0 0 921.6 633.6" xmlns="http://www.w3.org/2000/svg" version="1.1">
 <metadata>
  <rdf:RDF xmlns:dc="http://purl.org/dc/elements/1.1/" xmlns:cc="http://creativecommons.org/ns#" xmlns:rdf="http://www.w3.org/1999/02/22-rdf-syntax-ns#">
   <cc:Work>
    <dc:type rdf:resource="http://purl.org/dc/dcmitype/StillImage"/>
    <dc:date>2024-05-25T17:22:18.530710</dc:date>
    <dc:format>image/svg+xml</dc:format>
    <dc:creator>
     <cc:Agent>
      <dc:title>Matplotlib v3.8.0, https://matplotlib.org/</dc:title>
     </cc:Agent>
    </dc:creator>
   </cc:Work>
  </rdf:RDF>
 </metadata>
 <defs>
  <style type="text/css">*{stroke-linejoin: round; stroke-linecap: butt}</style>
 </defs>
 <g id="figure_1">
  <g id="patch_1">
   <path d="M 0 633.6 
L 921.6 633.6 
L 921.6 0 
L 0 0 
z
" style="fill: #ffffff"/>
  </g>
  <g id="axes_1">
   <g id="patch_2">
    <path d="M 70.36 289.135323 
L 905.715 289.135323 
L 905.715 26.76 
L 70.36 26.76 
z
" style="fill: #ffffff"/>
   </g>
   <g id="matplotlib.axis_1">
    <g id="xtick_1">
     <g id="line2d_1">
      <path d="M 70.36 289.135323 
L 70.36 26.76 
" clip-path="url(#p9a567c62ef)" style="fill: none; stroke: #b0b0b0; stroke-width: 1.6; stroke-linecap: square"/>
     </g>
     <g id="line2d_2">
      <defs>
       <path id="m77bddbcdf8" d="M 0 0 
L 0 3.5 
" style="stroke: #000000; stroke-width: 1.6"/>
      </defs>
      <g>
       <use xlink:href="#m77bddbcdf8" x="70.36" y="289.135323" style="stroke: #000000; stroke-width: 1.6"/>
      </g>
     </g>
    </g>
    <g id="xtick_2">
     <g id="line2d_3">
      <path d="M 209.585833 289.135323 
L 209.585833 26.76 
" clip-path="url(#p9a567c62ef)" style="fill: none; stroke: #b0b0b0; stroke-width: 1.6; stroke-linecap: square"/>
     </g>
     <g id="line2d_4">
      <g>
       <use xlink:href="#m77bddbcdf8" x="209.585833" y="289.135323" style="stroke: #000000; stroke-width: 1.6"/>
      </g>
     </g>
    </g>
    <g id="xtick_3">
     <g id="line2d_5">
      <path d="M 348.811667 289.135323 
L 348.811667 26.76 
" clip-path="url(#p9a567c62ef)" style="fill: none; stroke: #b0b0b0; stroke-width: 1.6; stroke-linecap: square"/>
     </g>
     <g id="line2d_6">
      <g>
       <use xlink:href="#m77bddbcdf8" x="348.811667" y="289.135323" style="stroke: #000000; stroke-width: 1.6"/>
      </g>
     </g>
    </g>
    <g id="xtick_4">
     <g id="line2d_7">
      <path d="M 488.0375 289.135323 
L 488.0375 26.76 
" clip-path="url(#p9a567c62ef)" style="fill: none; stroke: #b0b0b0; stroke-width: 1.6; stroke-linecap: square"/>
     </g>
     <g id="line2d_8">
      <g>
       <use xlink:href="#m77bddbcdf8" x="488.0375" y="289.135323" style="stroke: #000000; stroke-width: 1.6"/>
      </g>
     </g>
    </g>
    <g id="xtick_5">
     <g id="line2d_9">
      <path d="M 627.263333 289.135323 
L 627.263333 26.76 
" clip-path="url(#p9a567c62ef)" style="fill: none; stroke: #b0b0b0; stroke-width: 1.6; stroke-linecap: square"/>
     </g>
     <g id="line2d_10">
      <g>
       <use xlink:href="#m77bddbcdf8" x="627.263333" y="289.135323" style="stroke: #000000; stroke-width: 1.6"/>
      </g>
     </g>
    </g>
    <g id="xtick_6">
     <g id="line2d_11">
      <path d="M 766.489167 289.135323 
L 766.489167 26.76 
" clip-path="url(#p9a567c62ef)" style="fill: none; stroke: #b0b0b0; stroke-width: 1.6; stroke-linecap: square"/>
     </g>
     <g id="line2d_12">
      <g>
       <use xlink:href="#m77bddbcdf8" x="766.489167" y="289.135323" style="stroke: #000000; stroke-width: 1.6"/>
      </g>
     </g>
    </g>
    <g id="xtick_7">
     <g id="line2d_13">
      <path d="M 905.715 289.135323 
L 905.715 26.76 
" clip-path="url(#p9a567c62ef)" style="fill: none; stroke: #b0b0b0; stroke-width: 1.6; stroke-linecap: square"/>
     </g>
     <g id="line2d_14">
      <g>
       <use xlink:href="#m77bddbcdf8" x="905.715" y="289.135323" style="stroke: #000000; stroke-width: 1.6"/>
      </g>
     </g>
    </g>
   </g>
   <g id="matplotlib.axis_2">
    <g id="ytick_1">
     <g id="line2d_15">
      <path d="M 70.36 286.614449 
L 905.715 286.614449 
" clip-path="url(#p9a567c62ef)" style="fill: none; stroke: #b0b0b0; stroke-width: 1.6; stroke-linecap: square"/>
     </g>
     <g id="line2d_16">
      <defs>
       <path id="mdc8c2c1f4f" d="M 0 0 
L -3.5 0 
" style="stroke: #000000; stroke-width: 1.6"/>
      </defs>
      <g>
       <use xlink:href="#mdc8c2c1f4f" x="70.36" y="286.614449" style="stroke: #000000; stroke-width: 1.6"/>
      </g>
     </g>
     <g id="text_1">
      <!-- 2 -->
      <g transform="translate(45.48 292.693199) scale(0.16 -0.16)">
       <defs>
        <path id="DejaVuSans-32" d="M 1228 531 
L 3431 531 
L 3431 0 
L 469 0 
L 469 531 
Q 828 903 1448 1529 
Q 2069 2156 2228 2338 
Q 2531 2678 2651 2914 
Q 2772 3150 2772 3378 
Q 2772 3750 2511 3984 
Q 2250 4219 1831 4219 
Q 1534 4219 1204 4116 
Q 875 4013 500 3803 
L 500 4441 
Q 881 4594 1212 4672 
Q 1544 4750 1819 4750 
Q 2544 4750 2975 4387 
Q 3406 4025 3406 3419 
Q 3406 3131 3298 2873 
Q 3191 2616 2906 2266 
Q 2828 2175 2409 1742 
Q 1991 1309 1228 531 
z
" transform="scale(0.015625)"/>
       </defs>
       <use xlink:href="#DejaVuSans-32"/>
      </g>
     </g>
    </g>
    <g id="ytick_2">
     <g id="line2d_17">
      <path d="M 70.36 241.624792 
L 905.715 241.624792 
" clip-path="url(#p9a567c62ef)" style="fill: none; stroke: #b0b0b0; stroke-width: 1.6; stroke-linecap: square"/>
     </g>
     <g id="line2d_18">
      <g>
       <use xlink:href="#mdc8c2c1f4f" x="70.36" y="241.624792" style="stroke: #000000; stroke-width: 1.6"/>
      </g>
     </g>
     <g id="text_2">
      <!-- 3 -->
      <g transform="translate(45.48 247.703542) scale(0.16 -0.16)">
       <defs>
        <path id="DejaVuSans-33" d="M 2597 2516 
Q 3050 2419 3304 2112 
Q 3559 1806 3559 1356 
Q 3559 666 3084 287 
Q 2609 -91 1734 -91 
Q 1441 -91 1130 -33 
Q 819 25 488 141 
L 488 750 
Q 750 597 1062 519 
Q 1375 441 1716 441 
Q 2309 441 2620 675 
Q 2931 909 2931 1356 
Q 2931 1769 2642 2001 
Q 2353 2234 1838 2234 
L 1294 2234 
L 1294 2753 
L 1863 2753 
Q 2328 2753 2575 2939 
Q 2822 3125 2822 3475 
Q 2822 3834 2567 4026 
Q 2313 4219 1838 4219 
Q 1578 4219 1281 4162 
Q 984 4106 628 3988 
L 628 4550 
Q 988 4650 1302 4700 
Q 1616 4750 1894 4750 
Q 2613 4750 3031 4423 
Q 3450 4097 3450 3541 
Q 3450 3153 3228 2886 
Q 3006 2619 2597 2516 
z
" transform="scale(0.015625)"/>
       </defs>
       <use xlink:href="#DejaVuSans-33"/>
      </g>
     </g>
    </g>
    <g id="ytick_3">
     <g id="line2d_19">
      <path d="M 70.36 196.635134 
L 905.715 196.635134 
" clip-path="url(#p9a567c62ef)" style="fill: none; stroke: #b0b0b0; stroke-width: 1.6; stroke-linecap: square"/>
     </g>
     <g id="line2d_20">
      <g>
       <use xlink:href="#mdc8c2c1f4f" x="70.36" y="196.635134" style="stroke: #000000; stroke-width: 1.6"/>
      </g>
     </g>
     <g id="text_3">
      <!-- 4 -->
      <g transform="translate(45.48 202.713884) scale(0.16 -0.16)">
       <defs>
        <path id="DejaVuSans-34" d="M 2419 4116 
L 825 1625 
L 2419 1625 
L 2419 4116 
z
M 2253 4666 
L 3047 4666 
L 3047 1625 
L 3713 1625 
L 3713 1100 
L 3047 1100 
L 3047 0 
L 2419 0 
L 2419 1100 
L 313 1100 
L 313 1709 
L 2253 4666 
z
" transform="scale(0.015625)"/>
       </defs>
       <use xlink:href="#DejaVuSans-34"/>
      </g>
     </g>
    </g>
    <g id="ytick_4">
     <g id="line2d_21">
      <path d="M 70.36 151.645476 
L 905.715 151.645476 
" clip-path="url(#p9a567c62ef)" style="fill: none; stroke: #b0b0b0; stroke-width: 1.6; stroke-linecap: square"/>
     </g>
     <g id="line2d_22">
      <g>
       <use xlink:href="#mdc8c2c1f4f" x="70.36" y="151.645476" style="stroke: #000000; stroke-width: 1.6"/>
      </g>
     </g>
     <g id="text_4">
      <!-- 5 -->
      <g transform="translate(45.48 157.724226) scale(0.16 -0.16)">
       <defs>
        <path id="DejaVuSans-35" d="M 691 4666 
L 3169 4666 
L 3169 4134 
L 1269 4134 
L 1269 2991 
Q 1406 3038 1543 3061 
Q 1681 3084 1819 3084 
Q 2600 3084 3056 2656 
Q 3513 2228 3513 1497 
Q 3513 744 3044 326 
Q 2575 -91 1722 -91 
Q 1428 -91 1123 -41 
Q 819 9 494 109 
L 494 744 
Q 775 591 1075 516 
Q 1375 441 1709 441 
Q 2250 441 2565 725 
Q 2881 1009 2881 1497 
Q 2881 1984 2565 2268 
Q 2250 2553 1709 2553 
Q 1456 2553 1204 2497 
Q 953 2441 691 2322 
L 691 4666 
z
" transform="scale(0.015625)"/>
       </defs>
       <use xlink:href="#DejaVuSans-35"/>
      </g>
     </g>
    </g>
    <g id="ytick_5">
     <g id="line2d_23">
      <path d="M 70.36 106.655819 
L 905.715 106.655819 
" clip-path="url(#p9a567c62ef)" style="fill: none; stroke: #b0b0b0; stroke-width: 1.6; stroke-linecap: square"/>
     </g>
     <g id="line2d_24">
      <g>
       <use xlink:href="#mdc8c2c1f4f" x="70.36" y="106.655819" style="stroke: #000000; stroke-width: 1.6"/>
      </g>
     </g>
     <g id="text_5">
      <!-- 6 -->
      <g transform="translate(45.48 112.734569) scale(0.16 -0.16)">
       <defs>
        <path id="DejaVuSans-36" d="M 2113 2584 
Q 1688 2584 1439 2293 
Q 1191 2003 1191 1497 
Q 1191 994 1439 701 
Q 1688 409 2113 409 
Q 2538 409 2786 701 
Q 3034 994 3034 1497 
Q 3034 2003 2786 2293 
Q 2538 2584 2113 2584 
z
M 3366 4563 
L 3366 3988 
Q 3128 4100 2886 4159 
Q 2644 4219 2406 4219 
Q 1781 4219 1451 3797 
Q 1122 3375 1075 2522 
Q 1259 2794 1537 2939 
Q 1816 3084 2150 3084 
Q 2853 3084 3261 2657 
Q 3669 2231 3669 1497 
Q 3669 778 3244 343 
Q 2819 -91 2113 -91 
Q 1303 -91 875 529 
Q 447 1150 447 2328 
Q 447 3434 972 4092 
Q 1497 4750 2381 4750 
Q 2619 4750 2861 4703 
Q 3103 4656 3366 4563 
z
" transform="scale(0.015625)"/>
       </defs>
       <use xlink:href="#DejaVuSans-36"/>
      </g>
     </g>
    </g>
    <g id="ytick_6">
     <g id="line2d_25">
      <path d="M 70.36 61.666161 
L 905.715 61.666161 
" clip-path="url(#p9a567c62ef)" style="fill: none; stroke: #b0b0b0; stroke-width: 1.6; stroke-linecap: square"/>
     </g>
     <g id="line2d_26">
      <g>
       <use xlink:href="#mdc8c2c1f4f" x="70.36" y="61.666161" style="stroke: #000000; stroke-width: 1.6"/>
      </g>
     </g>
     <g id="text_6">
      <!-- 7 -->
      <g transform="translate(45.48 67.744911) scale(0.16 -0.16)">
       <defs>
        <path id="DejaVuSans-37" d="M 525 4666 
L 3525 4666 
L 3525 4397 
L 1831 0 
L 1172 0 
L 2766 4134 
L 525 4134 
L 525 4666 
z
" transform="scale(0.015625)"/>
       </defs>
       <use xlink:href="#DejaVuSans-37"/>
      </g>
     </g>
    </g>
    <g id="text_7">
     <!-- $\Delta E$ in eV -->
     <g transform="translate(37.81975 194.643662) rotate(-90) scale(0.176 -0.176)">
      <defs>
       <path id="DejaVuSans-394" d="M 2188 4044 
L 906 525 
L 3472 525 
L 2188 4044 
z
M 50 0 
L 1831 4666 
L 2547 4666 
L 4325 0 
L 50 0 
z
" transform="scale(0.015625)"/>
       <path id="DejaVuSans-Oblique-45" d="M 1081 4666 
L 4031 4666 
L 3928 4134 
L 1606 4134 
L 1338 2753 
L 3566 2753 
L 3463 2222 
L 1234 2222 
L 909 531 
L 3284 531 
L 3181 0 
L 172 0 
L 1081 4666 
z
" transform="scale(0.015625)"/>
       <path id="DejaVuSans-20" transform="scale(0.015625)"/>
       <path id="DejaVuSans-69" d="M 603 3500 
L 1178 3500 
L 1178 0 
L 603 0 
L 603 3500 
z
M 603 4863 
L 1178 4863 
L 1178 4134 
L 603 4134 
L 603 4863 
z
" transform="scale(0.015625)"/>
       <path id="DejaVuSans-6e" d="M 3513 2113 
L 3513 0 
L 2938 0 
L 2938 2094 
Q 2938 2591 2744 2837 
Q 2550 3084 2163 3084 
Q 1697 3084 1428 2787 
Q 1159 2491 1159 1978 
L 1159 0 
L 581 0 
L 581 3500 
L 1159 3500 
L 1159 2956 
Q 1366 3272 1645 3428 
Q 1925 3584 2291 3584 
Q 2894 3584 3203 3211 
Q 3513 2838 3513 2113 
z
" transform="scale(0.015625)"/>
       <path id="DejaVuSans-65" d="M 3597 1894 
L 3597 1613 
L 953 1613 
Q 991 1019 1311 708 
Q 1631 397 2203 397 
Q 2534 397 2845 478 
Q 3156 559 3463 722 
L 3463 178 
Q 3153 47 2828 -22 
Q 2503 -91 2169 -91 
Q 1331 -91 842 396 
Q 353 884 353 1716 
Q 353 2575 817 3079 
Q 1281 3584 2069 3584 
Q 2775 3584 3186 3129 
Q 3597 2675 3597 1894 
z
M 3022 2063 
Q 3016 2534 2758 2815 
Q 2500 3097 2075 3097 
Q 1594 3097 1305 2825 
Q 1016 2553 972 2059 
L 3022 2063 
z
" transform="scale(0.015625)"/>
       <path id="DejaVuSans-56" d="M 1831 0 
L 50 4666 
L 709 4666 
L 2188 738 
L 3669 4666 
L 4325 4666 
L 2547 0 
L 1831 0 
z
" transform="scale(0.015625)"/>
      </defs>
      <use xlink:href="#DejaVuSans-394" transform="translate(0 0.015625)"/>
      <use xlink:href="#DejaVuSans-Oblique-45" transform="translate(68.408203 0.015625)"/>
      <use xlink:href="#DejaVuSans-20" transform="translate(131.591797 0.015625)"/>
      <use xlink:href="#DejaVuSans-69" transform="translate(163.378906 0.015625)"/>
      <use xlink:href="#DejaVuSans-6e" transform="translate(191.162109 0.015625)"/>
      <use xlink:href="#DejaVuSans-20" transform="translate(254.541016 0.015625)"/>
      <use xlink:href="#DejaVuSans-65" transform="translate(286.328125 0.015625)"/>
      <use xlink:href="#DejaVuSans-56" transform="translate(347.851562 0.015625)"/>
     </g>
    </g>
    <g id="text_8">
     <!-- 1e−5 -->
     <g transform="translate(70.36 23.76) scale(0.16 -0.16)">
      <defs>
       <path id="DejaVuSans-31" d="M 794 531 
L 1825 531 
L 1825 4091 
L 703 3866 
L 703 4441 
L 1819 4666 
L 2450 4666 
L 2450 531 
L 3481 531 
L 3481 0 
L 794 0 
L 794 531 
z
" transform="scale(0.015625)"/>
       <path id="DejaVuSans-2212" d="M 678 2272 
L 4684 2272 
L 4684 1741 
L 678 1741 
L 678 2272 
z
" transform="scale(0.015625)"/>
      </defs>
      <use xlink:href="#DejaVuSans-31"/>
      <use xlink:href="#DejaVuSans-65" x="63.623047"/>
      <use xlink:href="#DejaVuSans-2212" x="125.146484"/>
      <use xlink:href="#DejaVuSans-35" x="208.935547"/>
     </g>
    </g>
   </g>
   <g id="LineCollection_1">
    <path d="M 209.585833 245.43896 
L 209.585833 243.990798 
" clip-path="url(#p9a567c62ef)" style="fill: none; stroke: #1f77b4; stroke-width: 2.8"/>
    <path d="M 348.811667 203.192584 
L 348.811667 201.610216 
" clip-path="url(#p9a567c62ef)" style="fill: none; stroke: #1f77b4; stroke-width: 2.8"/>
    <path d="M 488.0375 159.273885 
L 488.0375 157.735385 
" clip-path="url(#p9a567c62ef)" style="fill: none; stroke: #1f77b4; stroke-width: 2.8"/>
    <path d="M 627.263333 115.113056 
L 627.263333 113.163285 
" clip-path="url(#p9a567c62ef)" style="fill: none; stroke: #1f77b4; stroke-width: 2.8"/>
    <path d="M 766.489167 70.583052 
L 766.489167 67.912493 
" clip-path="url(#p9a567c62ef)" style="fill: none; stroke: #1f77b4; stroke-width: 2.8"/>
   </g>
   <g id="line2d_27">
    <path d="M 70.36 289.135323 
L 209.585833 245.406103 
L 348.811667 201.676882 
L 488.0375 157.947662 
L 627.263333 114.218441 
L 766.489167 70.489221 
L 905.715 26.76 
" clip-path="url(#p9a567c62ef)" style="fill: none; stroke: #ff7f0e; stroke-width: 2.8; stroke-linecap: square"/>
   </g>
   <g id="line2d_28">
    <defs>
     <path id="m6663dd6601" d="M 0 5.6 
C 1.485137 5.6 2.909647 5.009949 3.959798 3.959798 
C 5.009949 2.909647 5.6 1.485137 5.6 0 
C 5.6 -1.485137 5.009949 -2.909647 3.959798 -3.959798 
C 2.909647 -5.009949 1.485137 -5.6 0 -5.6 
C -1.485137 -5.6 -2.909647 -5.009949 -3.959798 -3.959798 
C -5.009949 -2.909647 -5.6 -1.485137 -5.6 0 
C -5.6 1.485137 -5.009949 2.909647 -3.959798 3.959798 
C -2.909647 5.009949 -1.485137 5.6 0 5.6 
z
"/>
    </defs>
    <g clip-path="url(#p9a567c62ef)">
     <use xlink:href="#m6663dd6601" x="209.585833" y="244.714879" style="fill: #1f77b4"/>
     <use xlink:href="#m6663dd6601" x="348.811667" y="202.4014" style="fill: #1f77b4"/>
     <use xlink:href="#m6663dd6601" x="488.0375" y="158.504635" style="fill: #1f77b4"/>
     <use xlink:href="#m6663dd6601" x="627.263333" y="114.13817" style="fill: #1f77b4"/>
     <use xlink:href="#m6663dd6601" x="766.489167" y="69.247772" style="fill: #1f77b4"/>
    </g>
   </g>
   <g id="patch_3">
    <path d="M 70.36 289.135323 
L 70.36 26.76 
" style="fill: none; stroke: #000000; stroke-width: 0.8; stroke-linejoin: miter; stroke-linecap: square"/>
   </g>
   <g id="patch_4">
    <path d="M 905.715 289.135323 
L 905.715 26.76 
" style="fill: none; stroke: #000000; stroke-width: 0.8; stroke-linejoin: miter; stroke-linecap: square"/>
   </g>
   <g id="patch_5">
    <path d="M 70.36 289.135323 
L 905.715 289.135323 
" style="fill: none; stroke: #000000; stroke-width: 0.8; stroke-linejoin: miter; stroke-linecap: square"/>
   </g>
   <g id="patch_6">
    <path d="M 70.36 26.76 
L 905.715 26.76 
" style="fill: none; stroke: #000000; stroke-width: 0.8; stroke-linejoin: miter; stroke-linecap: square"/>
   </g>
  </g>
  <g id="axes_2">
   <g id="patch_7">
    <path d="M 70.36 570.26 
L 905.715 570.26 
L 905.715 307.884677 
L 70.36 307.884677 
z
" style="fill: #ffffff"/>
   </g>
   <g id="matplotlib.axis_3">
    <g id="xtick_8">
     <g id="line2d_29">
      <g>
       <use xlink:href="#m77bddbcdf8" x="70.36" y="570.26" style="stroke: #000000; stroke-width: 1.6"/>
      </g>
     </g>
     <g id="text_9">
      <!-- 1 -->
      <g transform="translate(65.27 597.1175) scale(0.16 -0.16)">
       <use xlink:href="#DejaVuSans-31"/>
      </g>
     </g>
    </g>
    <g id="xtick_9">
     <g id="line2d_30">
      <g>
       <use xlink:href="#m77bddbcdf8" x="209.585833" y="570.26" style="stroke: #000000; stroke-width: 1.6"/>
      </g>
     </g>
     <g id="text_10">
      <!-- 2 -->
      <g transform="translate(204.495833 597.1175) scale(0.16 -0.16)">
       <use xlink:href="#DejaVuSans-32"/>
      </g>
     </g>
    </g>
    <g id="xtick_10">
     <g id="line2d_31">
      <g>
       <use xlink:href="#m77bddbcdf8" x="348.811667" y="570.26" style="stroke: #000000; stroke-width: 1.6"/>
      </g>
     </g>
     <g id="text_11">
      <!-- 3 -->
      <g transform="translate(343.721667 597.1175) scale(0.16 -0.16)">
       <use xlink:href="#DejaVuSans-33"/>
      </g>
     </g>
    </g>
    <g id="xtick_11">
     <g id="line2d_32">
      <g>
       <use xlink:href="#m77bddbcdf8" x="488.0375" y="570.26" style="stroke: #000000; stroke-width: 1.6"/>
      </g>
     </g>
     <g id="text_12">
      <!-- 4 -->
      <g transform="translate(482.9475 597.1175) scale(0.16 -0.16)">
       <use xlink:href="#DejaVuSans-34"/>
      </g>
     </g>
    </g>
    <g id="xtick_12">
     <g id="line2d_33">
      <g>
       <use xlink:href="#m77bddbcdf8" x="627.263333" y="570.26" style="stroke: #000000; stroke-width: 1.6"/>
      </g>
     </g>
     <g id="text_13">
      <!-- 5 -->
      <g transform="translate(622.173333 597.1175) scale(0.16 -0.16)">
       <use xlink:href="#DejaVuSans-35"/>
      </g>
     </g>
    </g>
    <g id="xtick_13">
     <g id="line2d_34">
      <g>
       <use xlink:href="#m77bddbcdf8" x="766.489167" y="570.26" style="stroke: #000000; stroke-width: 1.6"/>
      </g>
     </g>
     <g id="text_14">
      <!-- 6 -->
      <g transform="translate(761.399167 597.1175) scale(0.16 -0.16)">
       <use xlink:href="#DejaVuSans-36"/>
      </g>
     </g>
    </g>
    <g id="xtick_14">
     <g id="line2d_35">
      <g>
       <use xlink:href="#m77bddbcdf8" x="905.715" y="570.26" style="stroke: #000000; stroke-width: 1.6"/>
      </g>
     </g>
     <g id="text_15">
      <!-- 7 -->
      <g transform="translate(900.625 597.1175) scale(0.16 -0.16)">
       <use xlink:href="#DejaVuSans-37"/>
      </g>
     </g>
    </g>
    <g id="text_16">
     <!-- $f$ in 1 -->
     <g transform="translate(465.6855 617.81825) scale(0.176 -0.176)">
      <defs>
       <path id="DejaVuSans-Oblique-66" d="M 3059 4863 
L 2969 4384 
L 2419 4384 
Q 2106 4384 1964 4261 
Q 1822 4138 1753 3809 
L 1691 3500 
L 2638 3500 
L 2553 3053 
L 1606 3053 
L 1013 0 
L 434 0 
L 1031 3053 
L 481 3053 
L 563 3500 
L 1113 3500 
L 1159 3744 
Q 1278 4363 1576 4613 
Q 1875 4863 2516 4863 
L 3059 4863 
z
" transform="scale(0.015625)"/>
      </defs>
      <use xlink:href="#DejaVuSans-Oblique-66" transform="translate(0 0.015625)"/>
      <use xlink:href="#DejaVuSans-20" transform="translate(35.205078 0.015625)"/>
      <use xlink:href="#DejaVuSans-69" transform="translate(66.992188 0.015625)"/>
      <use xlink:href="#DejaVuSans-6e" transform="translate(94.775391 0.015625)"/>
      <use xlink:href="#DejaVuSans-20" transform="translate(158.154297 0.015625)"/>
      <use xlink:href="#DejaVuSans-31" transform="translate(189.941406 0.015625)"/>
     </g>
    </g>
   </g>
   <g id="matplotlib.axis_4">
    <g id="ytick_7">
     <g id="line2d_36">
      <g>
       <use xlink:href="#mdc8c2c1f4f" x="70.36" y="563.526743" style="stroke: #000000; stroke-width: 1.6"/>
      </g>
     </g>
     <g id="text_17">
      <!-- −2 -->
      <g transform="translate(32.0725 569.605493) scale(0.16 -0.16)">
       <use xlink:href="#DejaVuSans-2212"/>
       <use xlink:href="#DejaVuSans-32" x="83.789062"/>
      </g>
     </g>
    </g>
    <g id="ytick_8">
     <g id="line2d_37">
      <g>
       <use xlink:href="#mdc8c2c1f4f" x="70.36" y="501.898627" style="stroke: #000000; stroke-width: 1.6"/>
      </g>
     </g>
     <g id="text_18">
      <!-- −1 -->
      <g transform="translate(32.0725 507.977377) scale(0.16 -0.16)">
       <use xlink:href="#DejaVuSans-2212"/>
       <use xlink:href="#DejaVuSans-31" x="83.789062"/>
      </g>
     </g>
    </g>
    <g id="ytick_9">
     <g id="line2d_38">
      <g>
       <use xlink:href="#mdc8c2c1f4f" x="70.36" y="440.270512" style="stroke: #000000; stroke-width: 1.6"/>
      </g>
     </g>
     <g id="text_19">
      <!-- 0 -->
      <g transform="translate(45.48 446.349262) scale(0.16 -0.16)">
       <defs>
        <path id="DejaVuSans-30" d="M 2034 4250 
Q 1547 4250 1301 3770 
Q 1056 3291 1056 2328 
Q 1056 1369 1301 889 
Q 1547 409 2034 409 
Q 2525 409 2770 889 
Q 3016 1369 3016 2328 
Q 3016 3291 2770 3770 
Q 2525 4250 2034 4250 
z
M 2034 4750 
Q 2819 4750 3233 4129 
Q 3647 3509 3647 2328 
Q 3647 1150 3233 529 
Q 2819 -91 2034 -91 
Q 1250 -91 836 529 
Q 422 1150 422 2328 
Q 422 3509 836 4129 
Q 1250 4750 2034 4750 
z
" transform="scale(0.015625)"/>
       </defs>
       <use xlink:href="#DejaVuSans-30"/>
      </g>
     </g>
    </g>
    <g id="ytick_10">
     <g id="line2d_39">
      <g>
       <use xlink:href="#mdc8c2c1f4f" x="70.36" y="378.642396" style="stroke: #000000; stroke-width: 1.6"/>
      </g>
     </g>
     <g id="text_20">
      <!-- 1 -->
      <g transform="translate(45.48 384.721146) scale(0.16 -0.16)">
       <use xlink:href="#DejaVuSans-31"/>
      </g>
     </g>
    </g>
    <g id="ytick_11">
     <g id="line2d_40">
      <g>
       <use xlink:href="#mdc8c2c1f4f" x="70.36" y="317.014281" style="stroke: #000000; stroke-width: 1.6"/>
      </g>
     </g>
     <g id="text_21">
      <!-- 2 -->
      <g transform="translate(45.48 323.093031) scale(0.16 -0.16)">
       <use xlink:href="#DejaVuSans-32"/>
      </g>
     </g>
    </g>
    <g id="text_22">
     <!-- $\Delta$ in $\sigma$ -->
     <g transform="translate(24.41225 464.328338) rotate(-90) scale(0.176 -0.176)">
      <defs>
       <path id="DejaVuSans-Oblique-3c3" d="M 2219 3044 
Q 1744 3044 1422 2700 
Q 1081 2341 969 1747 
Q 844 1119 1044 756 
Q 1241 397 1706 397 
Q 2166 397 2503 759 
Q 2844 1122 2966 1747 
Q 3075 2319 2881 2700 
Q 2700 3044 2219 3044 
z
M 2309 3503 
L 4219 3500 
L 4106 2925 
L 3463 2925 
Q 3706 2438 3575 1747 
Q 3406 888 2884 400 
Q 2359 -91 1609 -91 
Q 856 -91 525 400 
Q 194 888 363 1747 
Q 528 2609 1050 3097 
Q 1484 3503 2309 3503 
z
" transform="scale(0.015625)"/>
      </defs>
      <use xlink:href="#DejaVuSans-394" transform="translate(0 0.015625)"/>
      <use xlink:href="#DejaVuSans-20" transform="translate(68.408203 0.015625)"/>
      <use xlink:href="#DejaVuSans-69" transform="translate(100.195312 0.015625)"/>
      <use xlink:href="#DejaVuSans-6e" transform="translate(127.978516 0.015625)"/>
      <use xlink:href="#DejaVuSans-20" transform="translate(191.357422 0.015625)"/>
      <use xlink:href="#DejaVuSans-Oblique-3c3" transform="translate(223.144531 0.015625)"/>
     </g>
    </g>
   </g>
   <g id="LineCollection_2">
    <path d="M 209.585833 443.067059 
L 209.585833 319.810828 
" clip-path="url(#p6f86c4cb77)" style="fill: none; stroke: #1f77b4; stroke-width: 2.8"/>
    <path d="M 348.811667 558.333849 
L 348.811667 435.077618 
" clip-path="url(#p6f86c4cb77)" style="fill: none; stroke: #1f77b4; stroke-width: 2.8"/>
    <path d="M 488.0375 546.520265 
L 488.0375 423.264034 
" clip-path="url(#p6f86c4cb77)" style="fill: none; stroke: #1f77b4; stroke-width: 2.8"/>
    <path d="M 627.263333 496.824259 
L 627.263333 373.568028 
" clip-path="url(#p6f86c4cb77)" style="fill: none; stroke: #1f77b4; stroke-width: 2.8"/>
    <path d="M 766.489167 444.601184 
L 766.489167 321.344953 
" clip-path="url(#p6f86c4cb77)" style="fill: none; stroke: #1f77b4; stroke-width: 2.8"/>
   </g>
   <g id="line2d_41">
    <path d="M 70.36 440.270512 
L 905.715 440.270512 
" clip-path="url(#p6f86c4cb77)" style="fill: none; stroke-dasharray: 10.36,4.48; stroke-dashoffset: 0; stroke: #ff0000; stroke-width: 2.8"/>
   </g>
   <g id="line2d_42">
    <g clip-path="url(#p6f86c4cb77)">
     <use xlink:href="#m6663dd6601" x="209.585833" y="381.438943" style="fill: #1f77b4"/>
     <use xlink:href="#m6663dd6601" x="348.811667" y="496.705734" style="fill: #1f77b4"/>
     <use xlink:href="#m6663dd6601" x="488.0375" y="484.89215" style="fill: #1f77b4"/>
     <use xlink:href="#m6663dd6601" x="627.263333" y="435.196144" style="fill: #1f77b4"/>
     <use xlink:href="#m6663dd6601" x="766.489167" y="382.973069" style="fill: #1f77b4"/>
    </g>
   </g>
   <g id="patch_8">
    <path d="M 70.36 570.26 
L 70.36 307.884677 
" style="fill: none; stroke: #000000; stroke-width: 0.8; stroke-linejoin: miter; stroke-linecap: square"/>
   </g>
   <g id="patch_9">
    <path d="M 905.715 570.26 
L 905.715 307.884677 
" style="fill: none; stroke: #000000; stroke-width: 0.8; stroke-linejoin: miter; stroke-linecap: square"/>
   </g>
   <g id="patch_10">
    <path d="M 70.36 570.26 
L 905.715 570.26 
" style="fill: none; stroke: #000000; stroke-width: 0.8; stroke-linejoin: miter; stroke-linecap: square"/>
   </g>
   <g id="patch_11">
    <path d="M 70.36 307.884677 
L 905.715 307.884677 
" style="fill: none; stroke: #000000; stroke-width: 0.8; stroke-linejoin: miter; stroke-linecap: square"/>
   </g>
  </g>
 </g>
 <defs>
  <clipPath id="p9a567c62ef">
   <rect x="70.36" y="26.76" width="835.355" height="262.375323"/>
  </clipPath>
  <clipPath id="p6f86c4cb77">
   <rect x="70.36" y="307.884677" width="835.355" height="262.375323"/>
  </clipPath>
 </defs>
</svg>
