<?xml version="1.0" encoding="utf-8" standalone="no"?>
<!DOCTYPE svg PUBLIC "-//W3C//DTD SVG 1.1//EN"
  "http://www.w3.org/Graphics/SVG/1.1/DTD/svg11.dtd">
<svg xmlns:xlink="http://www.w3.org/1999/xlink" width="921.6pt" height="633.6pt" viewBox="0 0 921.6 633.6" xmlns="http://www.w3.org/2000/svg" version="1.1">
 <metadata>
  <rdf:RDF xmlns:dc="http://purl.org/dc/elements/1.1/" xmlns:cc="http://creativecommons.org/ns#" xmlns:rdf="http://www.w3.org/1999/02/22-rdf-syntax-ns#">
   <cc:Work>
    <dc:type rdf:resource="http://purl.org/dc/dcmitype/StillImage"/>
    <dc:date>2024-05-25T13:57:15.659643</dc:date>
    <dc:format>image/svg+xml</dc:format>
    <dc:creator>
     <cc:Agent>
      <dc:title>Matplotlib v3.8.0, https://matplotlib.org/</dc:title>
     </cc:Agent>
    </dc:creator>
   </cc:Work>
  </rdf:RDF>
 </metadata>
 <defs>
  <style type="text/css">*{stroke-linejoin: round; stroke-linecap: butt}</style>
 </defs>
 <g id="figure_1">
  <g id="patch_1">
   <path d="M 0 633.6 
L 921.6 633.6 
L 921.6 0 
L 0 0 
z
" style="fill: #f0f0f0"/>
  </g>
  <g id="axes_1">
   <g id="patch_2">
    <path d="M 73.728 589.248 
L 875.52 589.248 
L 875.52 76.032 
L 73.728 76.032 
z
" style="fill: #ffffff"/>
   </g>
   <g id="matplotlib.axis_1">
    <g id="xtick_1">
     <g id="line2d_1">
      <defs>
       <path id="mc0676943d3" d="M 0 0 
L 0 6 
" style="stroke: #262626; stroke-width: 1.6"/>
      </defs>
      <g>
       <use xlink:href="#mc0676943d3" x="73.728" y="589.248" style="fill: #262626; stroke: #262626; stroke-width: 1.6"/>
      </g>
     </g>
     <g id="text_1">
      <!-- 0 -->
      <g style="fill: #262626" transform="translate(69.27925 617.9005) scale(0.16 -0.16)">
       <defs>
        <path id="ArialMT-30" d="M 266 2259 
Q 266 3072 433 3567 
Q 600 4063 929 4331 
Q 1259 4600 1759 4600 
Q 2128 4600 2406 4451 
Q 2684 4303 2865 4023 
Q 3047 3744 3150 3342 
Q 3253 2941 3253 2259 
Q 3253 1453 3087 958 
Q 2922 463 2592 192 
Q 2263 -78 1759 -78 
Q 1097 -78 719 397 
Q 266 969 266 2259 
z
M 844 2259 
Q 844 1131 1108 757 
Q 1372 384 1759 384 
Q 2147 384 2411 759 
Q 2675 1134 2675 2259 
Q 2675 3391 2411 3762 
Q 2147 4134 1753 4134 
Q 1366 4134 1134 3806 
Q 844 3388 844 2259 
z
" transform="scale(0.015625)"/>
       </defs>
       <use xlink:href="#ArialMT-30"/>
      </g>
     </g>
    </g>
    <g id="xtick_2">
     <g id="line2d_2">
      <g>
       <use xlink:href="#mc0676943d3" x="188.269714" y="589.248" style="fill: #262626; stroke: #262626; stroke-width: 1.6"/>
      </g>
     </g>
     <g id="text_2">
      <!-- 1 -->
      <g style="fill: #262626" transform="translate(183.820964 617.9005) scale(0.16 -0.16)">
       <defs>
        <path id="ArialMT-31" d="M 2384 0 
L 1822 0 
L 1822 3584 
Q 1619 3391 1289 3197 
Q 959 3003 697 2906 
L 697 3450 
Q 1169 3672 1522 3987 
Q 1875 4303 2022 4600 
L 2384 4600 
L 2384 0 
z
" transform="scale(0.015625)"/>
       </defs>
       <use xlink:href="#ArialMT-31"/>
      </g>
     </g>
    </g>
    <g id="xtick_3">
     <g id="line2d_3">
      <g>
       <use xlink:href="#mc0676943d3" x="302.811429" y="589.248" style="fill: #262626; stroke: #262626; stroke-width: 1.6"/>
      </g>
     </g>
     <g id="text_3">
      <!-- 2 -->
      <g style="fill: #262626" transform="translate(298.362679 617.9005) scale(0.16 -0.16)">
       <defs>
        <path id="ArialMT-32" d="M 3222 541 
L 3222 0 
L 194 0 
Q 188 203 259 391 
Q 375 700 629 1000 
Q 884 1300 1366 1694 
Q 2113 2306 2375 2664 
Q 2638 3022 2638 3341 
Q 2638 3675 2398 3904 
Q 2159 4134 1775 4134 
Q 1369 4134 1125 3890 
Q 881 3647 878 3216 
L 300 3275 
Q 359 3922 746 4261 
Q 1134 4600 1788 4600 
Q 2447 4600 2831 4234 
Q 3216 3869 3216 3328 
Q 3216 3053 3103 2787 
Q 2991 2522 2730 2228 
Q 2469 1934 1863 1422 
Q 1356 997 1212 845 
Q 1069 694 975 541 
L 3222 541 
z
" transform="scale(0.015625)"/>
       </defs>
       <use xlink:href="#ArialMT-32"/>
      </g>
     </g>
    </g>
    <g id="xtick_4">
     <g id="line2d_4">
      <g>
       <use xlink:href="#mc0676943d3" x="417.353143" y="589.248" style="fill: #262626; stroke: #262626; stroke-width: 1.6"/>
      </g>
     </g>
     <g id="text_4">
      <!-- 3 -->
      <g style="fill: #262626" transform="translate(412.904393 617.9005) scale(0.16 -0.16)">
       <defs>
        <path id="ArialMT-33" d="M 269 1209 
L 831 1284 
Q 928 806 1161 595 
Q 1394 384 1728 384 
Q 2125 384 2398 659 
Q 2672 934 2672 1341 
Q 2672 1728 2419 1979 
Q 2166 2231 1775 2231 
Q 1616 2231 1378 2169 
L 1441 2663 
Q 1497 2656 1531 2656 
Q 1891 2656 2178 2843 
Q 2466 3031 2466 3422 
Q 2466 3731 2256 3934 
Q 2047 4138 1716 4138 
Q 1388 4138 1169 3931 
Q 950 3725 888 3313 
L 325 3413 
Q 428 3978 793 4289 
Q 1159 4600 1703 4600 
Q 2078 4600 2393 4439 
Q 2709 4278 2876 4000 
Q 3044 3722 3044 3409 
Q 3044 3113 2884 2869 
Q 2725 2625 2413 2481 
Q 2819 2388 3044 2092 
Q 3269 1797 3269 1353 
Q 3269 753 2831 336 
Q 2394 -81 1725 -81 
Q 1122 -81 723 278 
Q 325 638 269 1209 
z
" transform="scale(0.015625)"/>
       </defs>
       <use xlink:href="#ArialMT-33"/>
      </g>
     </g>
    </g>
    <g id="xtick_5">
     <g id="line2d_5">
      <g>
       <use xlink:href="#mc0676943d3" x="531.894857" y="589.248" style="fill: #262626; stroke: #262626; stroke-width: 1.6"/>
      </g>
     </g>
     <g id="text_5">
      <!-- 4 -->
      <g style="fill: #262626" transform="translate(527.446107 617.9005) scale(0.16 -0.16)">
       <defs>
        <path id="ArialMT-34" d="M 2069 0 
L 2069 1097 
L 81 1097 
L 81 1613 
L 2172 4581 
L 2631 4581 
L 2631 1613 
L 3250 1613 
L 3250 1097 
L 2631 1097 
L 2631 0 
L 2069 0 
z
M 2069 1613 
L 2069 3678 
L 634 1613 
L 2069 1613 
z
" transform="scale(0.015625)"/>
       </defs>
       <use xlink:href="#ArialMT-34"/>
      </g>
     </g>
    </g>
    <g id="xtick_6">
     <g id="line2d_6">
      <g>
       <use xlink:href="#mc0676943d3" x="646.436571" y="589.248" style="fill: #262626; stroke: #262626; stroke-width: 1.6"/>
      </g>
     </g>
     <g id="text_6">
      <!-- 5 -->
      <g style="fill: #262626" transform="translate(641.987821 617.9005) scale(0.16 -0.16)">
       <defs>
        <path id="ArialMT-35" d="M 266 1200 
L 856 1250 
Q 922 819 1161 601 
Q 1400 384 1738 384 
Q 2144 384 2425 690 
Q 2706 997 2706 1503 
Q 2706 1984 2436 2262 
Q 2166 2541 1728 2541 
Q 1456 2541 1237 2417 
Q 1019 2294 894 2097 
L 366 2166 
L 809 4519 
L 3088 4519 
L 3088 3981 
L 1259 3981 
L 1013 2750 
Q 1425 3038 1878 3038 
Q 2478 3038 2890 2622 
Q 3303 2206 3303 1553 
Q 3303 931 2941 478 
Q 2500 -78 1738 -78 
Q 1113 -78 717 272 
Q 322 622 266 1200 
z
" transform="scale(0.015625)"/>
       </defs>
       <use xlink:href="#ArialMT-35"/>
      </g>
     </g>
    </g>
    <g id="xtick_7">
     <g id="line2d_7">
      <g>
       <use xlink:href="#mc0676943d3" x="760.978286" y="589.248" style="fill: #262626; stroke: #262626; stroke-width: 1.6"/>
      </g>
     </g>
     <g id="text_7">
      <!-- 6 -->
      <g style="fill: #262626" transform="translate(756.529536 617.9005) scale(0.16 -0.16)">
       <defs>
        <path id="ArialMT-36" d="M 3184 3459 
L 2625 3416 
Q 2550 3747 2413 3897 
Q 2184 4138 1850 4138 
Q 1581 4138 1378 3988 
Q 1113 3794 959 3422 
Q 806 3050 800 2363 
Q 1003 2672 1297 2822 
Q 1591 2972 1913 2972 
Q 2475 2972 2870 2558 
Q 3266 2144 3266 1488 
Q 3266 1056 3080 686 
Q 2894 316 2569 119 
Q 2244 -78 1831 -78 
Q 1128 -78 684 439 
Q 241 956 241 2144 
Q 241 3472 731 4075 
Q 1159 4600 1884 4600 
Q 2425 4600 2770 4297 
Q 3116 3994 3184 3459 
z
M 888 1484 
Q 888 1194 1011 928 
Q 1134 663 1356 523 
Q 1578 384 1822 384 
Q 2178 384 2434 671 
Q 2691 959 2691 1453 
Q 2691 1928 2437 2201 
Q 2184 2475 1800 2475 
Q 1419 2475 1153 2201 
Q 888 1928 888 1484 
z
" transform="scale(0.015625)"/>
       </defs>
       <use xlink:href="#ArialMT-36"/>
      </g>
     </g>
    </g>
    <g id="xtick_8">
     <g id="line2d_8">
      <g>
       <use xlink:href="#mc0676943d3" x="875.52" y="589.248" style="fill: #262626; stroke: #262626; stroke-width: 1.6"/>
      </g>
     </g>
     <g id="text_8">
      <!-- 7 -->
      <g style="fill: #262626" transform="translate(871.07125 617.9005) scale(0.16 -0.16)">
       <defs>
        <path id="ArialMT-37" d="M 303 3981 
L 303 4522 
L 3269 4522 
L 3269 4084 
Q 2831 3619 2401 2847 
Q 1972 2075 1738 1259 
Q 1569 684 1522 0 
L 944 0 
Q 953 541 1156 1306 
Q 1359 2072 1739 2783 
Q 2119 3494 2547 3981 
L 303 3981 
z
" transform="scale(0.015625)"/>
       </defs>
       <use xlink:href="#ArialMT-37"/>
      </g>
     </g>
    </g>
   </g>
   <g id="matplotlib.axis_2">
    <g id="ytick_1">
     <g id="line2d_9">
      <defs>
       <path id="m4a7723ffda" d="M 0 0 
L -6 0 
" style="stroke: #262626; stroke-width: 1.6"/>
      </defs>
      <g>
       <use xlink:href="#m4a7723ffda" x="73.728" y="589.248" style="fill: #262626; stroke: #262626; stroke-width: 1.6"/>
      </g>
     </g>
     <g id="text_9">
      <!-- 0 -->
      <g style="fill: #262626" transform="translate(47.6305 594.97425) scale(0.16 -0.16)">
       <use xlink:href="#ArialMT-30"/>
      </g>
     </g>
    </g>
    <g id="ytick_2">
     <g id="line2d_10">
      <g>
       <use xlink:href="#m4a7723ffda" x="73.728" y="523.24679" style="fill: #262626; stroke: #262626; stroke-width: 1.6"/>
      </g>
     </g>
     <g id="text_10">
      <!-- 1 -->
      <g style="fill: #262626" transform="translate(47.6305 528.97304) scale(0.16 -0.16)">
       <use xlink:href="#ArialMT-31"/>
      </g>
     </g>
    </g>
    <g id="ytick_3">
     <g id="line2d_11">
      <g>
       <use xlink:href="#m4a7723ffda" x="73.728" y="457.24558" style="fill: #262626; stroke: #262626; stroke-width: 1.6"/>
      </g>
     </g>
     <g id="text_11">
      <!-- 2 -->
      <g style="fill: #262626" transform="translate(47.6305 462.97183) scale(0.16 -0.16)">
       <use xlink:href="#ArialMT-32"/>
      </g>
     </g>
    </g>
    <g id="ytick_4">
     <g id="line2d_12">
      <g>
       <use xlink:href="#m4a7723ffda" x="73.728" y="391.24437" style="fill: #262626; stroke: #262626; stroke-width: 1.6"/>
      </g>
     </g>
     <g id="text_12">
      <!-- 3 -->
      <g style="fill: #262626" transform="translate(47.6305 396.97062) scale(0.16 -0.16)">
       <use xlink:href="#ArialMT-33"/>
      </g>
     </g>
    </g>
    <g id="ytick_5">
     <g id="line2d_13">
      <g>
       <use xlink:href="#m4a7723ffda" x="73.728" y="325.24316" style="fill: #262626; stroke: #262626; stroke-width: 1.6"/>
      </g>
     </g>
     <g id="text_13">
      <!-- 4 -->
      <g style="fill: #262626" transform="translate(47.6305 330.96941) scale(0.16 -0.16)">
       <use xlink:href="#ArialMT-34"/>
      </g>
     </g>
    </g>
    <g id="ytick_6">
     <g id="line2d_14">
      <g>
       <use xlink:href="#m4a7723ffda" x="73.728" y="259.24195" style="fill: #262626; stroke: #262626; stroke-width: 1.6"/>
      </g>
     </g>
     <g id="text_14">
      <!-- 5 -->
      <g style="fill: #262626" transform="translate(47.6305 264.9682) scale(0.16 -0.16)">
       <use xlink:href="#ArialMT-35"/>
      </g>
     </g>
    </g>
    <g id="ytick_7">
     <g id="line2d_15">
      <g>
       <use xlink:href="#m4a7723ffda" x="73.728" y="193.24074" style="fill: #262626; stroke: #262626; stroke-width: 1.6"/>
      </g>
     </g>
     <g id="text_15">
      <!-- 6 -->
      <g style="fill: #262626" transform="translate(47.6305 198.96699) scale(0.16 -0.16)">
       <use xlink:href="#ArialMT-36"/>
      </g>
     </g>
    </g>
    <g id="ytick_8">
     <g id="line2d_16">
      <g>
       <use xlink:href="#m4a7723ffda" x="73.728" y="127.23953" style="fill: #262626; stroke: #262626; stroke-width: 1.6"/>
      </g>
     </g>
     <g id="text_16">
      <!-- 7 -->
      <g style="fill: #262626" transform="translate(47.6305 132.96578) scale(0.16 -0.16)">
       <use xlink:href="#ArialMT-37"/>
      </g>
     </g>
    </g>
    <g id="text_17">
     <!-- 1e−5 -->
     <g style="fill: #262626" transform="translate(73.728 73.032) scale(0.16 -0.16)">
      <defs>
       <path id="ArialMT-65" d="M 2694 1069 
L 3275 997 
Q 3138 488 2766 206 
Q 2394 -75 1816 -75 
Q 1088 -75 661 373 
Q 234 822 234 1631 
Q 234 2469 665 2931 
Q 1097 3394 1784 3394 
Q 2450 3394 2872 2941 
Q 3294 2488 3294 1666 
Q 3294 1616 3291 1516 
L 816 1516 
Q 847 969 1125 678 
Q 1403 388 1819 388 
Q 2128 388 2347 550 
Q 2566 713 2694 1069 
z
M 847 1978 
L 2700 1978 
Q 2663 2397 2488 2606 
Q 2219 2931 1791 2931 
Q 1403 2931 1139 2672 
Q 875 2413 847 1978 
z
" transform="scale(0.015625)"/>
       <path id="ArialMT-2212" d="M 3381 1997 
L 356 1997 
L 356 2522 
L 3381 2522 
L 3381 1997 
z
" transform="scale(0.015625)"/>
      </defs>
      <use xlink:href="#ArialMT-31"/>
      <use xlink:href="#ArialMT-65" x="55.615234"/>
      <use xlink:href="#ArialMT-2212" x="111.230469"/>
      <use xlink:href="#ArialMT-35" x="169.628906"/>
     </g>
    </g>
   </g>
   <g id="LineCollection_1">
    <path d="M 302.811429 396.839872 
L 302.811429 394.715374 
" clip-path="url(#p545a8caf98)" style="fill: none; stroke: #92c6ff; stroke-width: 2.8"/>
    <path d="M 417.353143 334.863141 
L 417.353143 332.541758 
" clip-path="url(#p545a8caf98)" style="fill: none; stroke: #92c6ff; stroke-width: 2.8"/>
    <path d="M 531.894857 270.43306 
L 531.894857 268.176033 
" clip-path="url(#p545a8caf98)" style="fill: none; stroke: #92c6ff; stroke-width: 2.8"/>
    <path d="M 646.436571 205.647767 
L 646.436571 202.787394 
" clip-path="url(#p545a8caf98)" style="fill: none; stroke: #92c6ff; stroke-width: 2.8"/>
    <path d="M 760.978286 140.320883 
L 760.978286 136.403091 
" clip-path="url(#p545a8caf98)" style="fill: none; stroke: #92c6ff; stroke-width: 2.8"/>
   </g>
   <g id="line2d_17">
    <path d="M -1 566.947999 
L 73.728 525.094794 
L 188.269714 460.942967 
L 302.811429 396.791139 
L 417.353143 332.639311 
L 531.894857 268.487483 
L 646.436571 204.335656 
L 760.978286 140.183828 
L 875.52 76.032 
" clip-path="url(#p545a8caf98)" style="fill: none; stroke: #97f0aa; stroke-width: 2.8; stroke-linecap: round"/>
   </g>
   <g id="line2d_18">
    <defs>
     <path id="mb0e5febb59" d="M 0 5.6 
C 1.485137 5.6 2.909647 5.009949 3.959798 3.959798 
C 5.009949 2.909647 5.6 1.485137 5.6 0 
C 5.6 -1.485137 5.009949 -2.909647 3.959798 -3.959798 
C 2.909647 -5.009949 1.485137 -5.6 0 -5.6 
C -1.485137 -5.6 -2.909647 -5.009949 -3.959798 -3.959798 
C -5.009949 -2.909647 -5.6 -1.485137 -5.6 0 
C -5.6 1.485137 -5.009949 2.909647 -3.959798 3.959798 
C -2.909647 5.009949 -1.485137 5.6 0 5.6 
z
"/>
    </defs>
    <g clip-path="url(#p545a8caf98)">
     <use xlink:href="#mb0e5febb59" x="302.811429" y="395.777623" style="fill: #92c6ff"/>
     <use xlink:href="#mb0e5febb59" x="417.353143" y="333.70245" style="fill: #92c6ff"/>
     <use xlink:href="#mb0e5febb59" x="531.894857" y="269.304546" style="fill: #92c6ff"/>
     <use xlink:href="#mb0e5febb59" x="646.436571" y="204.21758" style="fill: #92c6ff"/>
     <use xlink:href="#mb0e5febb59" x="760.978286" y="138.361987" style="fill: #92c6ff"/>
    </g>
   </g>
   <g id="patch_3">
    <path d="M 73.728 589.248 
L 73.728 76.032 
" style="fill: none; stroke: #262626; stroke-width: 1.25; stroke-linejoin: miter; stroke-linecap: square"/>
   </g>
   <g id="patch_4">
    <path d="M 875.52 589.248 
L 875.52 76.032 
" style="fill: none; stroke: #262626; stroke-width: 1.25; stroke-linejoin: miter; stroke-linecap: square"/>
   </g>
   <g id="patch_5">
    <path d="M 73.728 589.248 
L 875.52 589.248 
" style="fill: none; stroke: #262626; stroke-width: 1.25; stroke-linejoin: miter; stroke-linecap: square"/>
   </g>
   <g id="patch_6">
    <path d="M 73.728 76.032 
L 875.52 76.032 
" style="fill: none; stroke: #262626; stroke-width: 1.25; stroke-linejoin: miter; stroke-linecap: square"/>
   </g>
  </g>
 </g>
 <defs>
  <clipPath id="p545a8caf98">
   <rect x="73.728" y="76.032" width="801.792" height="513.216"/>
  </clipPath>
 </defs>
</svg>
