<?xml version="1.0" encoding="UTF-8" standalone="no"?>
<svg
   width="600"
   height="170"
   version="1.1"
   id="svg16"
   sodipodi:docname="Gluon_coupling.svg"
   inkscape:version="1.4 (86a8ad7, 2024-10-11)"
   xmlns:inkscape="http://www.inkscape.org/namespaces/inkscape"
   xmlns:sodipodi="http://sodipodi.sourceforge.net/DTD/sodipodi-0.dtd"
   xmlns:xlink="http://www.w3.org/1999/xlink"
   xmlns="http://www.w3.org/2000/svg"
   xmlns:svg="http://www.w3.org/2000/svg">
  <defs
     id="defs16" />
  <sodipodi:namedview
     id="namedview16"
     pagecolor="#ffffff"
     bordercolor="#000000"
     borderopacity="0.25"
     inkscape:showpageshadow="2"
     inkscape:pageopacity="0.0"
     inkscape:pagecheckerboard="0"
     inkscape:deskcolor="#d1d1d1"
     inkscape:zoom="2.6216667"
     inkscape:cx="85.060394"
     inkscape:cy="84.869676"
     inkscape:window-width="1720"
     inkscape:window-height="1051"
     inkscape:window-x="-9"
     inkscape:window-y="-9"
     inkscape:window-maximized="1"
     inkscape:current-layer="g16" />
  <g
     transform="translate(.49082 2.5906)"
     id="g16">
    <path
       id="a"
       d="m134.79 1.7817c-0.798-0.50203-1.6055-0.85791-2.3322-1.0107-0.7266-0.15279-1.3705-0.10105-1.8628 0.15848s-0.8312 0.7276-0.9878 1.3538c-0.1566 0.62621-0.1296 1.4102 0.063 2.261 0.1923 0.85084 0.55 1.7672 1.0124 2.6415 0.4624 0.87437 1.0287 1.7047 1.6115 2.3952 0.5829 0.69056 1.1808 1.2392 1.7027 1.5869 0.5219 0.34777 0.9661 0.49301 1.2618 0.42919 0.2957-0.0638 0.4411-0.3375 0.4047-0.77354-0.036-0.43604-0.2559-1.0341-0.6429-1.705-0.3871-0.67096-0.9419-1.4134-1.6059-2.1203-0.664-0.70681-1.4365-1.3759-2.2309-1.9101-0.7944-0.53423-1.6093-0.93131-2.3534-1.1298-0.7441-0.19848-1.4153-0.19657-1.9415 0.0155-0.5261 0.21204-0.9052 0.63508-1.1032 1.2245-0.1979 0.58943-0.2134 1.345-0.059 2.1794 0.1542 0.83444 0.4784 1.7464 0.9161 2.6291 0.4377 0.88263 0.9882 1.7339 1.5662 2.4552 0.578 0.72138 1.182 1.3106 1.7202 1.7036 0.5383 0.393 1.0087 0.58794 1.3375 0.57184s0.514-0.24413 0.5188-0.64243c0-0.39834-0.172-0.96673-0.5206-1.6199-0.3485-0.65319-0.8691-1.3899-1.5074-2.1036-0.6383-0.71367-1.3938-1.4023-2.1821-1.9662-0.7884-0.56388-1.6082-1.0008-2.3673-1.2439-0.7591-0.24322-1.4558-0.29077-2.0142-0.12668-0.5585 0.1641-0.9769 0.5409-1.2158 1.0917-0.239 0.55084-0.2972 1.2756-0.182 2.0909 0.1153 0.81533 0.4044 1.7201 0.8155 2.6081 0.411 0.88806 0.9435 1.7575 1.5142 2.5073 0.5706 0.74989 1.1782 1.3779 1.7303 1.815 0.5522 0.43711 1.047 0.68133 1.4073 0.71334 0.3603 0.032 0.5842-0.14922 0.6298-0.50817 0.046-0.35886-0.088-0.89531-0.3976-1.528-0.3091-0.63277-0.7939-1.3607-1.4047-2.0783-0.6107-0.71766-1.3469-1.423-2.1266-2.0142-0.7799-0.5912-1.6019-1.066-2.3738-1.3526-0.7719-0.28667-1.4918-0.38328-2.0809-0.26742-0.5892 0.11586-1.0457 0.44537-1.3252 0.95594s-0.3807 1.2022-0.3052 1.9958c0.076 0.7936 0.3282 1.6881 0.7107 2.5786 0.3826 0.89055 0.8945 1.7753 1.4555 2.5513 0.5609 0.77598 1.1694 1.4409 1.7331 1.9209 0.5637 0.47994 1.0807 0.7729 1.4708 0.85319 0.3901 0.0803 0.6515-0.0532 0.7374-0.37096 0.086-0.31781-0.01-0.81999-0.2742-1.4298-0.269-0.60976-0.7167-1.326-1.298-2.0447-0.5813-0.7187-1.2959-1.438-2.0647-2.0541-0.7688-0.61606-1.5906-1.1267-2.3728-1.4555s-1.5232-0.47384-2.1413-0.40626c-0.618 0.0675-1.1114 0.34886-1.4308 0.81761-0.3195 0.46875-0.4636 1.125-0.4286 1.8944s0.25 1.6506 0.6023 2.5408c0.3522 0.89019 0.8415 1.7874 1.3903 2.587 0.5487 0.7996 1.1557 1.4993 1.7285 2.0207s1.1097 0.86227 1.5279 0.99093c0.4181 0.12864 0.7157 0.0437 0.8411-0.23157 0.1255-0.27531 0.077-0.74114-0.151-1.3254-0.2283-0.58421-0.6376-1.2858-1.1878-2.0027-0.5501-0.71687-1.241-1.4472-1.9965-2.0856s-1.5743-1.1827-2.3645-1.5522-1.5498-0.56199-2.195-0.54273c-0.6452 0.0193-1.174 0.25172-1.5326 0.67728-0.3586 0.42555-0.5455 1.0445-0.5515 1.787-0.01 0.74257 0.1701 1.6078 0.4905 2.4948 0.3203 0.8869 0.7848 1.7936 1.319 2.6143 0.5342 0.82066 1.137 1.553 1.7165 2.1142s1.1339 0.9492 1.5782 1.126c0.4444 0.17681 0.7766 0.14104 0.9408-0.0904 0.1642-0.23146 0.1588-0.65895-0.028-1.2152-0.1873-0.55626-0.557-1.2405-1.0745-1.9526-0.5175-0.71215-1.1825-1.4505-1.9222-2.1087-0.7398-0.65817-1.5532-1.2339-2.3488-1.6424-0.7956-0.40846-1.5717-0.64756-2.242-0.6763-0.6704-0.0287-1.2331 0.15429-1.63 0.53544s-0.6263 0.96079-0.6735 1.6742c-0.047 0.71343 0.089 1.5599 0.3757 2.4406 0.2868 0.88074 0.7244 1.794 1.2418 2.6331s1.1134 1.6016 1.6971 2.201c0.5837 0.59934 1.1533 1.0333 1.6219 1.258 0.4684 0.22465 0.8338 0.23848 1.0357 0.052 0.202-0.18649 0.2389-0.57382 0.093-1.0998-0.1458-0.52599-0.4752-1.19-0.9585-1.8945-0.4832-0.70456-1.1204-1.448-1.8421-2.1232-0.7218-0.6752-1.5273-1.28-2.3258-1.7257-0.7986-0.4457-1.5886-0.73016-2.2821-0.80651-0.6935-0.0764-1.2884 0.0569-1.7225 0.39257s-0.7057 0.87425-0.7944 1.5563c-0.089 0.68206 0.01 1.5069 0.2584 2.3786 0.252 0.87169 0.6607 1.7886 1.159 2.6433s1.0851 1.6451 1.6705 2.2807c0.5854 0.63561 1.1678 1.1143 1.6583 1.3863 0.4906 0.272 0.8873 0.3357 1.126 0.19514 0.2385-0.14055 0.3172-0.48597 0.2131-0.97947-0.1043-0.4935-0.3924-1.1346-0.8402-1.8287-0.4477-0.69407-1.055-1.4396-1.7566-2.1291-0.7015-0.6895-1.4965-1.3208-2.2955-1.8018-0.799-0.481-1.6005-0.80947-2.315-0.93286s-1.34-0.04-1.8102 0.24925c-0.4701 0.28929-0.7832 0.78518-0.9134 1.4337-0.1303 0.6485-0.077 1.4492 0.1391 2.309 0.2157 0.85983 0.5938 1.7773 1.0708 2.6449 0.4769 0.86763 1.0519 1.6833 1.6366 2.3532 0.5846 0.66993 1.1773 1.1919 1.6878 1.5106 0.5105 0.31865 0.9368 0.43229 1.2108 0.33853 0.274-0.0938 0.3938-0.39575 0.3312-0.85468-0.063-0.45894-0.309-1.0745-0.7199-1.7553-0.4109-0.68082-0.9867-1.4254-1.6659-2.1264s-1.4611-1.3563-2.2581-1.8706-1.6076-0.88528-2.3409-1.0549c-0.7333-0.16966-1.3874-0.13623-1.8923 0.10595-0.5049 0.24217-0.8586 0.69394-1.0304 1.3068-0.1718 0.61296-0.1604 1.3868 0.018 2.2319 0.1785 0.84514 0.5241 1.7602 0.9776 2.638 0.4536 0.87772 1.0144 1.716 1.5957 2.4182 0.5814 0.70212 1.1818 1.2658 1.71 1.6303 0.5282 0.3645 0.9822 0.52801 1.2902 0.48161s0.4682-0.30346 0.4469-0.72586c-0.021-0.42242-0.2251-1.0099-0.5982-1.6746-0.373-0.66475-0.9155-1.4054-1.5703-2.1151-0.6547-0.70968-1.4212-1.3862-2.2137-1.9316s-1.6095-0.95725-2.3594-1.1723c-0.7498-0.21502-1.4306-0.2313-1.9688-0.0368s-0.9319 0.60071-1.1449 1.1762c-0.213 0.57547-0.2441 1.32-0.1041 2.1478s0.4516 1.7374 0.8797 2.6224c0.4282 0.88495 0.9723 1.7432 1.5479 2.4753 0.5756 0.73208 1.1812 1.3358 1.7248 1.7451s1.0233 0.62238 1.3638 0.62391c0.3405 2e-3 0.5401-0.20948 0.5599-0.59352 0.02-0.38404-0.1413-0.941-0.4755-1.587s-0.8418-1.3798-1.4702-2.0953-1.3771-1.4106-2.1626-1.9848c-0.7855-0.57418-1.6064-1.0252-2.3705-1.2844s-1.4695-0.3249-2.0394-0.17849c-0.5699 0.14643-1.0024 0.506-1.2563 1.0422-0.254 0.53624-0.3279 1.2491-0.2272 2.0568 0.1008 0.80765 0.3767 1.709 0.7775 2.5983 0.4009 0.8893 0.926 1.7646 1.4934 2.5244 0.5674 0.75972 1.1756 1.4016 1.7323 1.8545 0.5566 0.45299 1.0598 0.71513 1.4313 0.76485 0.3714 0.0497 0.6092-0.11411 0.6697-0.45808 0.06-0.34399-0.058-0.86812-0.3523-1.4927-0.2946-0.62463-0.7659-1.3486-1.366-2.067-0.6001-0.71836-1.3287-1.4292-2.1047-2.0298-0.7761-0.60061-1.5983-1.0888-2.3743-1.391-0.776-0.30229-1.5038-0.41675-2.1038-0.3186-0.5999 0.0981-1.0701 0.41007-1.3644 0.90546-0.2942 0.49539-0.4111 1.1743-0.3504 1.9593 0.061 0.785 0.2997 1.675 0.6713 2.5657s0.8756 1.7804 1.4323 2.5654 1.165 1.4629 1.7323 1.9582 1.0919 0.80594 1.4925 0.904c0.4006 0.098 0.6754-0.0177 0.7759-0.32009 0.1005-0.30237 0.025-0.79149-0.229-1.3921-0.2541-0.60068-0.6878-1.3119-1.2579-2.0302-0.5701-0.71837-1.2762-1.4421-2.0404-2.0666-0.7642-0.62457-1.5852-1.1478-2.3707-1.4917-0.7854-0.3439-1.5335-0.50646-2.1617-0.45665-0.6283 0.0498-1.1347 0.31329-1.4687 0.76634-0.3339 0.45305-0.4937 1.0959-0.4737 1.8557 0.02 0.75976 0.2209 1.6355 0.5616 2.5249 0.3408 0.8893 0.8212 1.7903 1.3649 2.598 0.5437 0.80761 1.1494 1.5196 1.7249 2.0558 0.5756 0.53618 1.1192 0.89446 1.5472 1.0408 0.428 0.14635 0.7384 0.0794 0.8782-0.17998 0.1398-0.25936 0.1073-0.71136-0.106-1.2856-0.2133-0.57422-0.6082-1.2698-1.1465-1.9853-0.5384-0.71547-1.22-1.4491-1.97-2.095-0.7499-0.64597-1.5671-1.2021-2.3596-1.586-0.7924-0.38398-1.5584-0.59373-2.213-0.59211-0.6547 2e-3 -1.196 0.216-1.5688 0.62539-0.3728 0.4094-0.5754 1.0142-0.5964 1.7463-0.021 0.73215 0.1404 1.5908 0.4486 2.4758 0.3083 0.88497 0.7631 1.7945 1.2914 2.6222s1.1289 1.5714 1.7102 2.1468c0.5814 0.57541 1.1417 0.98039 1.5951 1.1748s0.798 0.17679 0.9762-0.0383c0.1781-0.2151 0.1883-0.62805 0.016-1.1735-0.172-0.54541-0.5271-1.2225-1.0322-1.9322-0.5051-0.7097-1.1601-1.4503-1.8935-2.115-0.7334-0.66472-1.5442-1.2514-2.3412-1.6737-0.797-0.42232-1.5784-0.67822-2.2575-0.72449-0.679-0.0463-1.2538 0.11855-1.6645 0.48314-0.4106 0.36456-0.6556 0.92936-0.718 1.6315-0.062 0.70218 0.059 1.541 0.3329 2.4188 0.2742 0.87776 0.7015 1.7927 1.2121 2.6378 0.5106 0.8451 1.1035 1.6182 1.6882 2.231 0.5846 0.61287 1.1592 1.0634 1.636 1.3055s0.8539 0.27432 1.0694 0.10442c0.2157-0.16965 0.2679-0.54187 0.1373-1.0562-0.1305-0.51432-0.4449-1.1702-0.9152-1.8712-0.4704-0.70102-1.0968-1.4456-1.8114-2.1264s-1.5165-1.2956-2.3155-1.7544c-0.7991-0.45887-1.5936-0.75963-2.295-0.85333-0.7015-0.0937-1.3078 0.0213-1.7553 0.34002-0.4475 0.31875-0.7344 0.84188-0.8383 1.5118-0.1039 0.66999-0.024 1.4863 0.2149 2.354 0.2388 0.86767 0.6365 1.7851 1.1272 2.6449"
       fill="none"
       stroke="#000"
       stroke-linecap="round" />
    <circle
       id="b"
       cx="68.753"
       cy="57.59"
       r="1.0209" />
    <g
       id="c"
       transform="translate(2075.6 -251.93)">
      <path
         d="m-2006.9 309.5-1e-4 42.514 0.075 47.192"
         fill="none"
         stroke="#000"
         stroke-linecap="round"
         id="path1" />
      <path
         d="m-2011.2 360.36 4.4195-12.018 4.4195 12.018c-2.6093-1.9201-6.1793-1.909-8.839 1e-5z"
         stroke="#000"
         stroke-linecap="round"
         stroke-linejoin="round"
         id="path2" />
    </g>
    <use
       transform="matrix(0.61561724,-0.7742776,0.73366404,0.64969607,-82.087526,15.628757)"
       xlink:href="#c"
       id="use2" />
    <use
       transform="rotate(130 147.29 94.213)"
       xlink:href="#c"
       id="use3" />
    <use
       transform="matrix(-.64279 -.76604 -.76604 .64279 382.89 15.65)"
       xlink:href="#c"
       id="use4" />
    <use
       transform="matrix(-.64279 -.76604 -.76604 .64279 313.83 159.7)"
       xlink:href="#a"
       id="use5" />
    <use
       transform="translate(157.07 2.4762e-5)"
       xlink:href="#b"
       id="use6" />
    <use
       transform="matrix(-.64279 -.76604 -.76604 .64279 471.42 159.68)"
       xlink:href="#a"
       id="use7" />
    <use
       transform="translate(314.66 -.014358)"
       xlink:href="#b"
       id="use8" />
    <use
       id="d"
       transform="translate(314.67 1.2204e-5)"
       xlink:href="#a" />
    <use
       transform="matrix(1 0 0 -1 -66.035 59.372)"
       xlink:href="#d"
       id="use9" />
    <g
       id="f"
       transform="translate(2.3183e-6 1.864)">
      <path
         id="e"
         transform="translate(2075.6 -251.93)"
         d="m-1539.7 322.67c0.7666-0.59997 1.5409-1.0223 2.236-1.1989s1.3092-0.10582 1.7766 0.21552 0.7864 0.89409 0.9297 1.6567c0.1434 0.76263 0.1101 1.7146-0.082 2.7457-0.1918 1.0312-0.5421 2.1398-0.9919 3.1963-0.4499 1.0564-0.9985 2.058-1.5616 2.8896-0.563 0.83164-1.139 1.4906-1.6406 1.9066-0.5016 0.41601-0.9269 0.58693-1.2086 0.50575-0.2816-0.0812-0.4178-0.41543-0.3788-0.94463 0.039-0.52919 0.2543-1.253 0.6302-2.0632 0.376-0.81026 0.9128-1.7053 1.5535-2.5557 0.6407-0.85038 1.3845-1.6536 2.148-2.2927s1.5452-1.1114 2.2574-1.3433c0.7121-0.23192 1.3529-0.22131 1.853 0.0428 0.5002 0.26406 0.858 0.78262 1.0412 1.5011 0.1832 0.71843 0.1906 1.6364 0.035 2.6481-0.1553 1.0117-0.4736 2.1155-0.9 3.1823-0.4264 1.0667-0.9601 2.0939-1.5189 2.9631-0.5587 0.86913-1.1409 1.5774-1.6585 2.0481-0.5175 0.47073-0.9685 0.70169-1.2822 0.6781-0.3137-0.0236-0.4883-0.30289-0.489-0.7868-6e-4 -0.48393 0.1736-1.1722 0.5127-1.9613 0.339-0.78914 0.843-1.6776 1.4593-2.5366 0.6162-0.85904 1.344-1.6862 2.102-2.3614 0.7579-0.67521 1.5447-1.1957 2.2717-1.4818 0.727-0.28606 1.3924-0.33524 1.9239-0.12901 0.5314 0.20623 0.9272 0.6691 1.1499 1.3412 0.2228 0.67206 0.2713 1.5531 0.1534 2.5421-0.1179 0.98898-0.4027 2.0844-0.8037 3.1579-0.401 1.0737-0.9176 2.1232-1.4697 3.027-0.552 0.90385-1.138 1.6592-1.6693 2.1834-0.5312 0.52413-1.006 0.81469-1.3502 0.84913-0.3442 0.0344-0.5562-0.18848-0.5962-0.62503-0.04-0.4365 0.093-1.0864 0.3943-1.8512s0.7711-1.6431 1.361-2.5072c0.5899-0.86422 1.2995-1.7119 2.0495-2.4205 0.7501-0.70852 1.5394-1.275 2.279-1.6137s1.4277-0.44717 1.9889-0.29914 0.9938 0.55392 1.2557 1.1775c0.2618 0.62363 0.3517 1.465 0.2719 2.4281-0.08 0.96307-0.3296 2.0465-0.7034 3.1235-0.3738 1.0771-0.8711 2.1455-1.414 3.0811-0.543 0.93567-1.1303 1.7359-1.673 2.3119-0.5428 0.57604-1.0391 0.92549-1.4122 1.0182-0.3732 0.0928-0.6214-0.0726-0.7003-0.45972-0.079-0.38711 0.013-0.99603 0.2756-1.7334 0.2627-0.73732 0.6969-1.6018 1.2588-2.4677 0.5619-0.86587 1.251-1.7308 1.9908-2.4696 0.7399-0.73888 1.5292-1.3489 2.2791-1.7387s1.4585-0.55678 2.0478-0.46707c0.5893 0.0897 1.0575 0.4375 1.3579 1.0108 0.3004 0.57333 0.4316 1.3724 0.3907 2.3064-0.041 0.93405-0.2547 2.002-0.5996 3.079-0.3449 1.077-0.8206 2.1608-1.3522 3.1253-0.5315 0.96451-1.1177 1.807-1.6695 2.4332-0.5519 0.62622-1.0676 1.0337-1.468 1.1848-0.4005 0.1511-0.6836 0.0443-0.8007-0.29169-0.1171-0.33597-0.067-0.90122 0.157-1.608 0.2236-0.70685 0.6211-1.5541 1.1532-2.4181 0.5321-0.86401 1.1987-1.7426 1.926-2.5088 0.7273-0.76619 1.5143-1.4172 2.2721-1.8562 0.7578-0.43903 1.4848-0.66356 2.1005-0.63217 0.6156 0.0314 1.1181 0.32028 1.4563 0.84164s0.5106 1.2755 0.509 2.1776c0 0.90208-0.1779 1.951-0.4923 3.0244-0.3144 1.0734-0.7666 2.169-1.2844 3.1594-0.5179 0.99026-1.1004 1.8724-1.659 2.5469s-1.0916 1.139-1.5175 1.3483c-0.4258 0.20929-0.7426 0.16173-0.8971-0.12147-0.1544-0.28319-0.1451-0.80243 0.039-1.4758s0.5437-1.4999 1.0446-2.3586c0.5008-0.85867 1.1428-1.7473 1.8553-2.5377s1.4945-1.4796 2.2579-1.966c0.7634-0.48634 1.5065-0.7672 2.1467-0.79384 0.6401-0.0266 1.1754 0.20265 1.5506 0.67054 0.3751 0.46789 0.5886 1.1748 0.6267 2.042 0.038 0.86721-0.1 1.8938-0.3823 2.96-0.2824 1.0663-0.7089 2.1703-1.2109 3.1832-0.502 1.0128-1.0783 1.9318-1.6413 2.6526-0.563 0.72083-1.111 1.2409-1.5603 1.508-0.4494 0.2671-0.7983 0.27939-0.9892 0.0504-0.191-0.22903-0.2224-0.69999-0.078-1.3371 0.1443-0.63713 0.4651-1.4396 0.9333-2.2895 0.4681-0.84983 1.0835-1.745 1.779-2.5563 0.6955-0.81128 1.4702-1.536 2.2367-2.0675 0.7666-0.53154 1.5235-0.8673 2.1862-0.95149 0.6627-0.0842 1.2293 0.0851 1.6404 0.49813 0.4111 0.41309 0.6652 1.0707 0.7432 1.9003 0.078 0.82959-0.021 1.8304-0.2698 2.8861-0.2489 1.0557-0.648 2.1644-1.1319 3.1966-0.4839 1.0321-1.0517 1.9849-1.6166 2.7498-0.565 0.76485-1.1256 1.3391-1.5965 1.6634-0.4709 0.32433-0.8502 0.39681-1.0766 0.22313-0.2264-0.17367-0.2981-0.59421-0.1939-1.1924 0.1043-0.59818 0.3856-1.3734 0.8197-2.2109 0.434-0.83758 1.021-1.7357 1.6974-2.5646 0.6763-0.82889 1.4412-1.586 2.2086-2.1604 0.7674-0.57443 1.5357-0.96353 2.2189-1.1046 0.6832-0.14106 1.2794-0.0321 1.7254 0.32512 0.4459 0.35722 0.74 0.96344 0.858 1.7528 0.1181 0.78935 0.059 1.7613-0.1552 2.803-0.2143 1.0418-0.584 2.1516-1.0477 3.1997-0.4637 1.048-1.0205 2.0317-1.5851 2.8383-0.5645 0.80655-1.1353 1.4333-1.6257 1.8141-0.4904 0.38078-0.8985 0.51356-1.1591 0.39627-0.2606-0.11731-0.3721-0.48558-0.3078-1.0423 0.064-0.55672 0.3053-1.3014 0.7042-2.1233 0.3988-0.82191 0.9556-1.7193 1.6107-2.5624 0.6552-0.84312 1.4079-1.6295 2.1737-2.2443 0.7657-0.61485 1.543-1.0555 2.2446-1.2525 0.7017-0.19703 1.3257-0.14834 1.8053 0.15207s0.8128 0.85356 0.9709 1.6002c0.158 0.74668 0.1396 1.6865-0.039 2.7109-0.1785 1.0244-0.5173 2.1317-0.9588 3.1924-0.4414 1.0606-0.9849 2.0719-1.5466 2.9177-0.5618 0.84568-1.1403 1.523-1.6481 1.9592-0.5077 0.43623-0.9426 0.62924-1.2362 0.5691-0.2936-0.0601-0.4439-0.37441-0.4196-0.88724 0.024-0.51285 0.2248-1.2239 0.5873-2.0268s0.8875-1.696 1.5194-2.5499c0.632-0.85398 1.3701-1.6664 2.1319-2.319 0.7617-0.65267 1.5456-1.1429 2.2635-1.3948s1.3679-0.2633 1.8797-0.0204c0.5118 0.24291 0.8836 0.7412 1.0814 1.4429 0.1977 0.70166 0.2202 1.6064 0.078 2.6102-0.1417 1.0037-0.4479 2.1049-0.8651 3.1747-0.4173 1.0697-0.9451 2.1054-1.5016 2.9876-0.5565 0.88218-1.1405 1.608-1.6633 2.0985-0.5229 0.49048-0.9828 0.74336-1.3079 0.74101-0.325-2e-3 -0.5135-0.26111-0.5286-0.72787-0.015-0.46674 0.144-1.1413 0.4693-1.9219 0.3252-0.78057 0.8169-1.6657 1.4236-2.527 0.6068-0.86132 1.3282-1.6964 2.0835-2.3842 0.7554-0.68776 1.5434-1.2254 2.2753-1.531s1.4058-0.37654 1.9484-0.19163c0.5426 0.1849 0.9519 0.62701 1.1891 1.2815 0.2371 0.6545 0.3008 1.5214 0.1968 2.5012-0.104 0.97984-0.3761 2.0712-0.7674 3.1466-0.3912 1.0754-0.901 2.1321-1.45 3.048-0.5489 0.91586-1.1357 1.688-1.6715 2.2313-0.5357 0.54337-1.0186 0.85559-1.3736 0.9114-0.3551 0.0558-0.5804-0.14613-0.6348-0.5647-0.054-0.41858 0.064-1.0538 0.3508-1.8089 0.2872-0.7551 0.744-1.6287 1.3239-2.4939 0.5798-0.86522 1.2821-1.7197 2.0287-2.4396s1.5362-1.3028 2.2798-1.6604c0.7437-0.35762 1.4395-0.48768 2.0113-0.36103 0.5717 0.12663 1.0175 0.51133 1.2935 1.1167 0.2761 0.60537 0.3811 1.4315 0.3156 2.3843-0.066 0.9528-0.3024 2.0309-0.6657 3.1082-0.3634 1.0774-0.8531 2.1519-1.3921 3.0985-0.539 0.94661-1.1262 1.7626-1.6726 2.3573-0.5463 0.59464-1.05 0.96551-1.4334 1.0797-0.3833 0.11416-0.6445-0.0298-0.7375-0.3984-0.093-0.36852-0.016-0.96173 0.2321-1.6882 0.2484-0.7265 0.6693-1.585 1.2204-2.4506 0.5512-0.8656 1.2322-1.7359 1.9677-2.4852 0.7356-0.74925 1.5243-1.3747 2.2774-1.7827 0.753-0.40803 1.4687-0.59625 2.0679-0.52801 0.5991 0.0683 1.08 0.39456 1.3944 0.94902 0.3144 0.55447 0.4607 1.3373 0.4341 2.26-0.026 0.92266-0.2266 1.984-0.5605 3.0601s-0.8013 2.1646-1.3281 3.139c-0.5268 0.97432-1.1119 1.8317-1.6664 2.4759-0.5546 0.64417-1.077 1.0727-1.4869 1.2452-0.41 0.17248-0.7057 0.0873-0.8366-0.22948-0.1309-0.31677-0.095-0.86541 0.1136-1.5603 0.2092-0.69487 0.5929-1.5349 1.1137-2.3974 0.5209-0.86245 1.1786-1.7451 1.9008-2.5205 0.7221-0.7754 1.5075-1.4408 2.2677-1.8974 0.7601-0.45662 1.4933-0.70197 2.1182-0.69191 0.6248 0.0101 1.1395 0.27714 1.4914 0.77905 0.3518 0.50192 0.5393 1.2391 0.5523 2.1286 0.013 0.88961-0.1495 1.9307-0.4523 3.0019s-0.7458 2.1703-1.2581 3.1692c-0.5123 0.99892-1.0928 1.8949-1.6533 2.5867-0.5605 0.69175-1.0992 1.1768-1.5339 1.4073-0.4347 0.23055-0.7635 0.20489-0.9314-0.0586-0.168-0.26348-0.1737-0.76524 0-1.4256 0.1695-0.66042 0.5151-1.4785 1.0041-2.3343 0.489-0.85583 1.1214-1.7473 1.8279-2.5457 0.7066-0.79841 1.4862-1.501 2.251-2.0042 0.7649-0.50316 1.5133-0.80432 2.1619-0.85215 0.6487-0.0478 1.1957 0.15948 1.5841 0.60741 0.3885 0.44793 0.6169 1.137 0.6696 1.9907 0.053 0.8537-0.071 1.8712-0.3413 2.934-0.2702 1.0628-0.6869 2.169-1.1825 3.1893-0.4956 1.0203-1.0691 1.952-1.6331 2.6892-0.564 0.73724-1.1169 1.2774-1.5743 1.5656-0.4575 0.28817-0.8177 0.32268-1.0218 0.11364-0.2042-0.20875-0.2504-0.66155-0.1208-1.2847s0.436-1.416 0.8918-2.2617c0.4558-0.84575 1.0609-1.7424 1.7497-2.5605 0.6887-0.81814 1.4601-1.555 2.2272-2.1026 0.7672-0.54754 1.5285-0.90305 2.199-1.0082 0.6704-0.10516 1.2481 0.042 1.6722 0.43473 0.424 0.39273 0.6927 1.0317 0.7855 1.8468 0.093 0.81511 0.01 1.8057-0.228 2.8567-0.2364 1.051-0.6249 2.1606-1.1016 3.1988"
         fill="none"
         stroke="#000"
         stroke-linecap="round" />
      <use
         transform="matrix(1 0 0 -1 -62.539 209.85)"
         xlink:href="#e"
         id="use10" />
    </g>
    <use
       transform="rotate(180 535.75 72.36)"
       xlink:href="#f"
       id="use11" />
    <use
       transform="translate(466.91 14.765)"
       xlink:href="#b"
       id="use12" />
    <g
       font-family="DejaVu Sans"
       font-size="17px"
       id="g15">
      <text
         x="62"
         y="163"
         id="text12">a)</text>
      <text
         x="220"
         y="163"
         id="text13">b)</text>
      <text
         x="378"
         y="163"
         id="text14">c)</text>
      <text
         x="530"
         y="163"
         id="text15">d)</text>
    </g>
  </g>
</svg>
