<?xml version="1.0" encoding="UTF-8" standalone="no"?>
<!-- Created with Inkscape (http://www.inkscape.org/) -->
<svg
   xmlns:svg="http://www.w3.org/2000/svg"
   xmlns="http://www.w3.org/2000/svg"
   version="1.0"
   width="720"
   height="680"
   id="svg2447">
  <defs
     id="defs2450">
    <marker
       refX="0"
       refY="0"
       orient="auto"
       style="overflow:visible"
       id="Arrow2Mstart">
      <path
         d="M 8.7185878,4.0337352 L -2.2072895,0.016013256 L 8.7185884,-4.0017078 C 6.97309,-1.6296469 6.9831476,1.6157441 8.7185878,4.0337352 z "
         transform="scale(0.6,0.6)"
         style="font-size:12px;fill-rule:evenodd;stroke-width:0.625;stroke-linejoin:round"
         id="path3457" />
    </marker>
    <marker
       refX="0"
       refY="0"
       orient="auto"
       style="overflow:visible"
       id="Arrow2Mend">
      <path
         d="M 8.7185878,4.0337352 L -2.2072895,0.016013256 L 8.7185884,-4.0017078 C 6.97309,-1.6296469 6.9831476,1.6157441 8.7185878,4.0337352 z "
         transform="scale(-0.6,-0.6)"
         style="font-size:12px;fill-rule:evenodd;stroke-width:0.625;stroke-linejoin:round"
         id="path3460" />
    </marker>
    <marker
       refX="0"
       refY="0"
       orient="auto"
       style="overflow:visible"
       id="Arrow1Lend">
      <path
         d="M 0,0 L 5,-5 L -12.5,0 L 5,5 L 0,0 z "
         transform="matrix(-0.8,0,0,-0.8,-10,0)"
         style="fill-rule:evenodd;stroke:#000000;stroke-width:1pt;marker-start:none"
         id="path3436" />
    </marker>
  </defs>
  <g
     id="layer1" />
  <g
     id="layer3">
    <g
       transform="translate(-5.6082554,-5.319519)"
       id="g4343">
      <g
         transform="translate(-24,-12)"
         id="g3686">
        <g
           style="fill:#000000;fill-opacity:1;stroke:none"
           id="g3646">
          <path
             d="M 76.84375,23.84375 L 69.4375,43.90625 C 71.219456,42.627305 73.274247,41.848601 75.34375,41.59375 L 75.34375,652.4375 L 722.625,653.40625 C 722.37036,655.46869 721.60144,657.47256 720.3125,659.21875 L 740.40625,651.875 L 720.34375,644.46875 C 721.61963,646.25201 722.37296,648.27458 722.625,650.34375 L 78.375,649.375 L 78.375,41.59375 C 80.442504,41.843646 82.466879,42.617123 84.21875,43.90625 L 76.84375,23.84375 z "
             style="fill:#000000;fill-opacity:1;fill-rule:evenodd;stroke:none;stroke-width:3.06076717;stroke-linecap:butt;stroke-linejoin:miter;stroke-miterlimit:4;stroke-opacity:1"
             id="path2459" />
        </g>
        <g
           style="opacity:0.5;fill:#000000;fill-opacity:1;stroke:none;stroke-opacity:1"
           id="g3676">
          <path
             d="M 119.3125,101.65625 L 119.3125,110.65625 L 122.3125,110.65625 L 122.3125,101.65625 L 119.3125,101.65625 z M 256.34375,101.65625 L 256.34375,110.65625 L 259.34375,110.65625 L 259.34375,101.65625 L 256.34375,101.65625 z M 427.0625,101.65625 L 427.0625,110.65625 L 430.0625,110.65625 L 430.0625,101.65625 L 427.0625,101.65625 z M 654.09375,101.65625 L 654.09375,110.65625 L 657.09375,110.65625 L 657.09375,101.65625 L 654.09375,101.65625 z M 119.3125,119.65625 L 119.3125,128.65625 L 122.3125,128.65625 L 122.3125,119.65625 L 119.3125,119.65625 z M 256.34375,119.65625 L 256.34375,128.65625 L 259.34375,128.65625 L 259.34375,119.65625 L 256.34375,119.65625 z M 427.0625,119.65625 L 427.0625,128.65625 L 430.0625,128.65625 L 430.0625,119.65625 L 427.0625,119.65625 z M 654.09375,119.65625 L 654.09375,128.65625 L 657.09375,128.65625 L 657.09375,119.65625 L 654.09375,119.65625 z M 119.3125,137.65625 L 119.3125,146.65625 L 122.3125,146.65625 L 122.3125,137.65625 L 119.3125,137.65625 z M 256.34375,137.65625 L 256.34375,146.65625 L 259.34375,146.65625 L 259.34375,137.65625 L 256.34375,137.65625 z M 427.0625,137.65625 L 427.0625,146.65625 L 430.0625,146.65625 L 430.0625,137.65625 L 427.0625,137.65625 z M 654.09375,137.65625 L 654.09375,146.65625 L 657.09375,146.65625 L 657.09375,137.65625 L 654.09375,137.65625 z M 119.3125,155.65625 L 119.3125,164.65625 L 122.3125,164.65625 L 122.3125,155.65625 L 119.3125,155.65625 z M 256.34375,155.65625 L 256.34375,164.65625 L 259.34375,164.65625 L 259.34375,155.65625 L 256.34375,155.65625 z M 427.0625,155.65625 L 427.0625,164.65625 L 430.0625,164.65625 L 430.0625,155.65625 L 427.0625,155.65625 z M 654.09375,155.65625 L 654.09375,164.65625 L 657.09375,164.65625 L 657.09375,155.65625 L 654.09375,155.65625 z M 119.3125,173.65625 L 119.3125,182.65625 L 122.3125,182.65625 L 122.3125,173.65625 L 119.3125,173.65625 z M 256.34375,173.65625 L 256.34375,182.65625 L 259.34375,182.65625 L 259.34375,173.65625 L 256.34375,173.65625 z M 427.0625,173.65625 L 427.0625,182.65625 L 430.0625,182.65625 L 430.0625,173.65625 L 427.0625,173.65625 z M 654.09375,173.65625 L 654.09375,182.65625 L 657.09375,182.65625 L 657.09375,173.65625 L 654.09375,173.65625 z M 119.3125,191.65625 L 119.3125,200.65625 L 122.3125,200.65625 L 122.3125,191.65625 L 119.3125,191.65625 z M 256.34375,191.65625 L 256.34375,200.65625 L 259.34375,200.65625 L 259.34375,191.65625 L 256.34375,191.65625 z M 427.0625,191.65625 L 427.0625,200.65625 L 430.0625,200.65625 L 430.0625,191.65625 L 427.0625,191.65625 z M 654.09375,191.65625 L 654.09375,200.65625 L 657.09375,200.65625 L 657.09375,191.65625 L 654.09375,191.65625 z M 119.3125,209.65625 L 119.3125,218.65625 L 122.3125,218.65625 L 122.3125,209.65625 L 119.3125,209.65625 z M 256.34375,209.65625 L 256.34375,218.65625 L 259.34375,218.65625 L 259.34375,209.65625 L 256.34375,209.65625 z M 427.0625,209.65625 L 427.0625,218.65625 L 430.0625,218.65625 L 430.0625,209.65625 L 427.0625,209.65625 z M 654.09375,209.65625 L 654.09375,218.65625 L 657.09375,218.65625 L 657.09375,209.65625 L 654.09375,209.65625 z M 119.3125,227.65625 L 119.3125,236.65625 L 122.3125,236.65625 L 122.3125,227.65625 L 119.3125,227.65625 z M 256.34375,227.65625 L 256.34375,236.65625 L 259.34375,236.65625 L 259.34375,227.65625 L 256.34375,227.65625 z M 427.0625,227.65625 L 427.0625,236.65625 L 430.0625,236.65625 L 430.0625,227.65625 L 427.0625,227.65625 z M 654.09375,227.65625 L 654.09375,236.65625 L 657.09375,236.65625 L 657.09375,227.65625 L 654.09375,227.65625 z M 119.3125,245.65625 L 119.3125,254.65625 L 122.3125,254.65625 L 122.3125,245.65625 L 119.3125,245.65625 z M 256.34375,245.65625 L 256.34375,254.65625 L 259.34375,254.65625 L 259.34375,245.65625 L 256.34375,245.65625 z M 427.0625,245.65625 L 427.0625,254.65625 L 430.0625,254.65625 L 430.0625,245.65625 L 427.0625,245.65625 z M 654.09375,245.65625 L 654.09375,254.65625 L 657.09375,254.65625 L 657.09375,245.65625 L 654.09375,245.65625 z M 119.3125,263.65625 L 119.3125,272.65625 L 122.3125,272.65625 L 122.3125,263.65625 L 119.3125,263.65625 z M 256.34375,263.65625 L 256.34375,272.65625 L 259.34375,272.65625 L 259.34375,263.65625 L 256.34375,263.65625 z M 427.0625,263.65625 L 427.0625,272.65625 L 430.0625,272.65625 L 430.0625,263.65625 L 427.0625,263.65625 z M 654.09375,263.65625 L 654.09375,272.65625 L 657.09375,272.65625 L 657.09375,263.65625 L 654.09375,263.65625 z M 119.3125,281.65625 L 119.3125,290.65625 L 122.3125,290.65625 L 122.3125,281.65625 L 119.3125,281.65625 z M 256.34375,281.65625 L 256.34375,290.65625 L 259.34375,290.65625 L 259.34375,281.65625 L 256.34375,281.65625 z M 427.0625,281.65625 L 427.0625,290.65625 L 430.0625,290.65625 L 430.0625,281.65625 L 427.0625,281.65625 z M 654.09375,281.65625 L 654.09375,290.65625 L 657.09375,290.65625 L 657.09375,281.65625 L 654.09375,281.65625 z M 119.3125,299.65625 L 119.3125,308.65625 L 122.3125,308.65625 L 122.3125,299.65625 L 119.3125,299.65625 z M 256.34375,299.65625 L 256.34375,308.65625 L 259.34375,308.65625 L 259.34375,299.65625 L 256.34375,299.65625 z M 427.0625,299.65625 L 427.0625,308.65625 L 430.0625,308.65625 L 430.0625,299.65625 L 427.0625,299.65625 z M 654.09375,299.65625 L 654.09375,308.65625 L 657.09375,308.65625 L 657.09375,299.65625 L 654.09375,299.65625 z M 119.3125,317.65625 L 119.3125,326.65625 L 122.3125,326.65625 L 122.3125,317.65625 L 119.3125,317.65625 z M 256.34375,317.65625 L 256.34375,326.65625 L 259.34375,326.65625 L 259.34375,317.65625 L 256.34375,317.65625 z M 427.0625,317.65625 L 427.0625,326.65625 L 430.0625,326.65625 L 430.0625,317.65625 L 427.0625,317.65625 z M 654.09375,317.65625 L 654.09375,326.65625 L 657.09375,326.65625 L 657.09375,317.65625 L 654.09375,317.65625 z M 119.3125,335.65625 L 119.3125,344.65625 L 122.3125,344.65625 L 122.3125,335.65625 L 119.3125,335.65625 z M 256.34375,335.65625 L 256.34375,344.65625 L 259.34375,344.65625 L 259.34375,335.65625 L 256.34375,335.65625 z M 427.0625,335.65625 L 427.0625,344.65625 L 430.0625,344.65625 L 430.0625,335.65625 L 427.0625,335.65625 z M 654.09375,335.65625 L 654.09375,344.65625 L 657.09375,344.65625 L 657.09375,335.65625 L 654.09375,335.65625 z M 119.3125,353.65625 L 119.3125,362.65625 L 122.3125,362.65625 L 122.3125,353.65625 L 119.3125,353.65625 z M 256.34375,353.65625 L 256.34375,362.65625 L 259.34375,362.65625 L 259.34375,353.65625 L 256.34375,353.65625 z M 427.0625,353.65625 L 427.0625,362.65625 L 430.0625,362.65625 L 430.0625,353.65625 L 427.0625,353.65625 z M 654.09375,353.65625 L 654.09375,362.65625 L 657.09375,362.65625 L 657.09375,353.65625 L 654.09375,353.65625 z M 119.3125,371.65625 L 119.3125,380.65625 L 122.3125,380.65625 L 122.3125,371.65625 L 119.3125,371.65625 z M 256.34375,371.65625 L 256.34375,380.65625 L 259.34375,380.65625 L 259.34375,371.65625 L 256.34375,371.65625 z M 427.0625,371.65625 L 427.0625,380.65625 L 430.0625,380.65625 L 430.0625,371.65625 L 427.0625,371.65625 z M 654.09375,371.65625 L 654.09375,380.65625 L 657.09375,380.65625 L 657.09375,371.65625 L 654.09375,371.65625 z M 119.3125,389.65625 L 119.3125,398.65625 L 122.3125,398.65625 L 122.3125,389.65625 L 119.3125,389.65625 z M 256.34375,389.65625 L 256.34375,398.65625 L 259.34375,398.65625 L 259.34375,389.65625 L 256.34375,389.65625 z M 427.0625,389.65625 L 427.0625,398.65625 L 430.0625,398.65625 L 430.0625,389.65625 L 427.0625,389.65625 z M 654.09375,389.65625 L 654.09375,398.65625 L 657.09375,398.65625 L 657.09375,389.65625 L 654.09375,389.65625 z M 119.3125,407.65625 L 119.3125,416.65625 L 122.3125,416.65625 L 122.3125,407.65625 L 119.3125,407.65625 z M 256.34375,407.65625 L 256.34375,416.65625 L 259.34375,416.65625 L 259.34375,407.65625 L 256.34375,407.65625 z M 427.0625,407.65625 L 427.0625,416.65625 L 430.0625,416.65625 L 430.0625,407.65625 L 427.0625,407.65625 z M 654.09375,407.65625 L 654.09375,416.65625 L 657.09375,416.65625 L 657.09375,407.65625 L 654.09375,407.65625 z M 119.3125,425.65625 L 119.3125,434.65625 L 122.3125,434.65625 L 122.3125,425.65625 L 119.3125,425.65625 z M 256.34375,425.65625 L 256.34375,434.65625 L 259.34375,434.65625 L 259.34375,425.65625 L 256.34375,425.65625 z M 427.0625,425.65625 L 427.0625,434.65625 L 430.0625,434.65625 L 430.0625,425.65625 L 427.0625,425.65625 z M 654.09375,425.65625 L 654.09375,434.65625 L 657.09375,434.65625 L 657.09375,425.65625 L 654.09375,425.65625 z M 119.3125,443.65625 L 119.3125,452.65625 L 122.3125,452.65625 L 122.3125,443.65625 L 119.3125,443.65625 z M 256.34375,443.65625 L 256.34375,452.65625 L 259.34375,452.65625 L 259.34375,443.65625 L 256.34375,443.65625 z M 427.0625,443.65625 L 427.0625,452.65625 L 430.0625,452.65625 L 430.0625,443.65625 L 427.0625,443.65625 z M 654.09375,443.65625 L 654.09375,452.65625 L 657.09375,452.65625 L 657.09375,443.65625 L 654.09375,443.65625 z M 119.3125,461.65625 L 119.3125,470.65625 L 122.3125,470.65625 L 122.3125,461.65625 L 119.3125,461.65625 z M 256.34375,461.65625 L 256.34375,470.65625 L 259.34375,470.65625 L 259.34375,461.65625 L 256.34375,461.65625 z M 427.0625,461.65625 L 427.0625,470.65625 L 430.0625,470.65625 L 430.0625,461.65625 L 427.0625,461.65625 z M 654.09375,461.65625 L 654.09375,470.65625 L 657.09375,470.65625 L 657.09375,461.65625 L 654.09375,461.65625 z M 119.3125,479.65625 L 119.3125,488.65625 L 122.3125,488.65625 L 122.3125,479.65625 L 119.3125,479.65625 z M 256.34375,479.65625 L 256.34375,488.65625 L 259.34375,488.65625 L 259.34375,479.65625 L 256.34375,479.65625 z M 427.0625,479.65625 L 427.0625,488.65625 L 430.0625,488.65625 L 430.0625,479.65625 L 427.0625,479.65625 z M 654.09375,479.65625 L 654.09375,488.65625 L 657.09375,488.65625 L 657.09375,479.65625 L 654.09375,479.65625 z M 119.3125,497.65625 L 119.3125,506.65625 L 122.3125,506.65625 L 122.3125,497.65625 L 119.3125,497.65625 z M 256.34375,497.65625 L 256.34375,506.65625 L 259.34375,506.65625 L 259.34375,497.65625 L 256.34375,497.65625 z M 427.0625,497.65625 L 427.0625,506.65625 L 430.0625,506.65625 L 430.0625,497.65625 L 427.0625,497.65625 z M 654.09375,497.65625 L 654.09375,506.65625 L 657.09375,506.65625 L 657.09375,497.65625 L 654.09375,497.65625 z M 119.3125,515.65625 L 119.3125,524.65625 L 122.3125,524.65625 L 122.3125,515.65625 L 119.3125,515.65625 z M 256.34375,515.65625 L 256.34375,524.65625 L 259.34375,524.65625 L 259.34375,515.65625 L 256.34375,515.65625 z M 427.0625,515.65625 L 427.0625,524.65625 L 430.0625,524.65625 L 430.0625,515.65625 L 427.0625,515.65625 z M 654.09375,515.65625 L 654.09375,524.65625 L 657.09375,524.65625 L 657.09375,515.65625 L 654.09375,515.65625 z M 119.3125,533.65625 L 119.3125,542.65625 L 122.3125,542.65625 L 122.3125,533.65625 L 119.3125,533.65625 z M 256.34375,533.65625 L 256.34375,542.65625 L 259.34375,542.65625 L 259.34375,533.65625 L 256.34375,533.65625 z M 427.0625,533.65625 L 427.0625,542.65625 L 430.0625,542.65625 L 430.0625,533.65625 L 427.0625,533.65625 z M 654.09375,533.65625 L 654.09375,542.65625 L 657.09375,542.65625 L 657.09375,533.65625 L 654.09375,533.65625 z M 119.3125,551.65625 L 119.3125,560.65625 L 122.3125,560.65625 L 122.3125,551.65625 L 119.3125,551.65625 z M 256.34375,551.65625 L 256.34375,560.65625 L 259.34375,560.65625 L 259.34375,551.65625 L 256.34375,551.65625 z M 427.0625,551.65625 L 427.0625,560.65625 L 430.0625,560.65625 L 430.0625,551.65625 L 427.0625,551.65625 z M 654.09375,551.65625 L 654.09375,560.65625 L 657.09375,560.65625 L 657.09375,551.65625 L 654.09375,551.65625 z M 119.3125,569.65625 L 119.3125,578.65625 L 122.3125,578.65625 L 122.3125,569.65625 L 119.3125,569.65625 z M 256.34375,569.65625 L 256.34375,578.65625 L 259.34375,578.65625 L 259.34375,569.65625 L 256.34375,569.65625 z M 427.0625,569.65625 L 427.0625,578.65625 L 430.0625,578.65625 L 430.0625,569.65625 L 427.0625,569.65625 z M 654.09375,569.65625 L 654.09375,578.65625 L 657.09375,578.65625 L 657.09375,569.65625 L 654.09375,569.65625 z M 119.3125,587.65625 L 119.3125,596.65625 L 122.3125,596.65625 L 122.3125,587.65625 L 119.3125,587.65625 z M 256.34375,587.65625 L 256.34375,596.65625 L 259.34375,596.65625 L 259.34375,587.65625 L 256.34375,587.65625 z M 427.0625,587.65625 L 427.0625,596.65625 L 430.0625,596.65625 L 430.0625,587.65625 L 427.0625,587.65625 z M 654.09375,587.65625 L 654.09375,596.65625 L 657.09375,596.65625 L 657.09375,587.65625 L 654.09375,587.65625 z M 119.3125,605.65625 L 119.3125,614.65625 L 122.3125,614.65625 L 122.3125,605.65625 L 119.3125,605.65625 z M 256.34375,605.65625 L 256.34375,614.65625 L 259.34375,614.65625 L 259.34375,605.65625 L 256.34375,605.65625 z M 427.0625,605.65625 L 427.0625,614.65625 L 430.0625,614.65625 L 430.0625,605.65625 L 427.0625,605.65625 z M 654.09375,605.65625 L 654.09375,614.65625 L 657.09375,614.65625 L 657.09375,605.65625 L 654.09375,605.65625 z M 119.3125,623.65625 L 119.3125,632.65625 L 122.3125,632.65625 L 122.3125,623.65625 L 119.3125,623.65625 z M 256.34375,623.65625 L 256.34375,632.65625 L 259.34375,632.65625 L 259.34375,623.65625 L 256.34375,623.65625 z M 427.0625,623.65625 L 427.0625,632.65625 L 430.0625,632.65625 L 430.0625,623.65625 L 427.0625,623.65625 z M 654.09375,623.65625 L 654.09375,632.65625 L 657.09375,632.65625 L 657.09375,623.65625 L 654.09375,623.65625 z M 119.3125,641.65625 L 119.3125,650.125 L 122.3125,650.125 L 122.3125,641.65625 L 119.3125,641.65625 z M 256.34375,641.65625 L 256.34375,650.125 L 259.34375,650.125 L 259.34375,641.65625 L 256.34375,641.65625 z M 427.0625,641.65625 L 427.0625,650.125 L 430.0625,650.125 L 430.0625,641.65625 L 427.0625,641.65625 z M 654.09375,641.65625 L 654.09375,650.125 L 657.09375,650.125 L 657.09375,641.65625 L 654.09375,641.65625 z "
             style="fill:#000000;fill-opacity:1;fill-rule:evenodd;stroke:none;stroke-width:3;stroke-linecap:butt;stroke-linejoin:miter;stroke-miterlimit:4;stroke-dasharray:9, 9;stroke-dashoffset:0;stroke-opacity:1"
             id="path3657" />
        </g>
      </g>
      <path
         d="M 59.423077,639.08355 C 59.698938,628.05929 60.858657,583.9941 63.928837,547.84951 C 67.284826,508.34016 73.568407,485.26313 91.80252,471.89838 C 109.58068,458.86781 135.98867,456.69676 164.90053,454.97745 C 205.16533,452.58301 388.32797,464.08455 416.4095,299.63793 C 421.34361,270.74355 425.43643,240.5616 446.94998,225.57588 C 464.54133,213.32226 478.53774,209.90809 526.25597,206.84868 C 573.9742,203.78928 622.24973,201.6005 632.61419,188.06814 C 642.97864,174.53578 659.22328,129.56904 666.39788,104.98408"
         style="fill:none;fill-opacity:1;fill-rule:evenodd;stroke:#000000;stroke-width:3;stroke-linecap:butt;stroke-linejoin:miter;stroke-miterlimit:4;stroke-dasharray:none;stroke-opacity:1"
         id="path3692" />
      <text
         x="-466.91406"
         y="36.083698"
         transform="matrix(0,-1,1,0,0,0)"
         style="font-size:12px;font-style:normal;font-weight:normal;fill:#000000;fill-opacity:1;stroke:none;stroke-width:1px;stroke-linecap:butt;stroke-linejoin:miter;stroke-opacity:1;font-family:Verdana"
         id="text2198"
         xml:space="preserve"><tspan
           x="-466.91406"
           y="36.083698"
           style="font-size:28px;font-family:Verdana"
           id="tspan2200">Anzahl Elektronen-Ionen-Paare</tspan></text>
      <text
         x="-343.34375"
         y="82.234383"
         transform="matrix(0,-1,1,0,0,0)"
         style="font-size:12px;font-style:normal;font-weight:normal;fill:#000000;fill-opacity:1;stroke:none;stroke-width:1px;stroke-linecap:butt;stroke-linejoin:miter;stroke-opacity:1;font-family:Verdana"
         id="text2202"
         xml:space="preserve"><tspan
           x="-343.34375"
           y="82.234383"
           style="font-size:24px;font-family:Verdana"
           id="tspan2204">Rekombination</tspan></text>
      <text
         x="-342.77344"
         y="171.63672"
         transform="matrix(0,-1,1,0,0,0)"
         style="font-size:12px;font-style:normal;font-weight:normal;fill:#000000;fill-opacity:1;stroke:none;stroke-width:1px;stroke-linecap:butt;stroke-linejoin:miter;stroke-opacity:1;font-family:Verdana"
         id="text2206"
         xml:space="preserve"><tspan
           x="-342.77344"
           y="171.63672"
           style="font-size:24px;font-family:Verdana"
           id="tspan2208">Ionisationskammer</tspan></text>
      <text
         x="-343.34375"
         y="324.23438"
         transform="matrix(0,-1,1,0,0,0)"
         style="font-size:12px;font-style:normal;font-weight:normal;fill:#000000;fill-opacity:1;stroke:none;stroke-width:1px;stroke-linecap:butt;stroke-linejoin:miter;stroke-opacity:1;font-family:Verdana"
         id="text2210"
         xml:space="preserve"><tspan
           x="-343.34375"
           y="324.23438"
           style="font-size:24px;font-family:Verdana"
           id="tspan2212">Proportionalbereich</tspan></text>
      <text
         x="427.73846"
         y="120.63672"
         style="font-size:12px;font-style:normal;font-weight:normal;fill:#000000;fill-opacity:1;stroke:none;stroke-width:1px;stroke-linecap:butt;stroke-linejoin:miter;stroke-opacity:1;font-family:Verdana"
         id="text2214"
         xml:space="preserve"><tspan
           x="427.73846"
           y="120.63672"
           style="font-size:24px;font-family:Verdana"
           id="tspan2216">Plateaubereich</tspan></text>
      <text
         x="-348.58865"
         y="687.41986"
         transform="matrix(0,-1,1,0,0,0)"
         style="font-size:12px;font-style:normal;font-weight:normal;fill:#000000;fill-opacity:1;stroke:none;stroke-width:1px;stroke-linecap:butt;stroke-linejoin:miter;stroke-opacity:1;font-family:Verdana"
         id="text2218"
         xml:space="preserve"><tspan
           x="-348.58865"
           y="687.41986"
           style="font-size:24px;font-family:Verdana"
           id="tspan2220">Gasentladung</tspan></text>
      <text
         x="424.27734"
         y="673.01208"
         style="font-size:12px;font-style:normal;font-weight:normal;fill:#000000;fill-opacity:1;stroke:none;stroke-width:1px;stroke-linecap:butt;stroke-linejoin:miter;stroke-opacity:1;font-family:Verdana"
         id="text2222"
         xml:space="preserve"><tspan
           x="424.27734"
           y="673.01208"
           style="font-size:28px;font-family:Verdana"
           id="tspan2224">Zählrohrspannung</tspan></text>
    </g>
  </g>
</svg>
