<?xml version="1.0" encoding="utf-8" standalone="no"?>
<!DOCTYPE svg PUBLIC "-//W3C//DTD SVG 1.1//EN"
  "http://www.w3.org/Graphics/SVG/1.1/DTD/svg11.dtd">
<svg xmlns:xlink="http://www.w3.org/1999/xlink" width="460.8pt" height="345.6pt" viewBox="0 0 460.8 345.6" xmlns="http://www.w3.org/2000/svg" version="1.1">
 <metadata>
  <rdf:RDF xmlns:dc="http://purl.org/dc/elements/1.1/" xmlns:cc="http://creativecommons.org/ns#" xmlns:rdf="http://www.w3.org/1999/02/22-rdf-syntax-ns#">
   <cc:Work>
    <dc:type rdf:resource="http://purl.org/dc/dcmitype/StillImage"/>
    <dc:date>2024-04-17T15:54:53.926895</dc:date>
    <dc:format>image/svg+xml</dc:format>
    <dc:creator>
     <cc:Agent>
      <dc:title>Matplotlib v3.8.0, https://matplotlib.org/</dc:title>
     </cc:Agent>
    </dc:creator>
   </cc:Work>
  </rdf:RDF>
 </metadata>
 <defs>
  <style type="text/css">*{stroke-linejoin: round; stroke-linecap: butt}</style>
 </defs>
 <g id="figure_1">
  <g id="patch_1">
   <path d="M 0 345.6 
L 460.8 345.6 
L 460.8 0 
L 0 0 
z
" style="fill: #ffffff"/>
  </g>
  <g id="axes_1">
   <g id="patch_2">
    <path d="M 57.6 119.740235 
L 414.72 119.740235 
L 414.72 41.472 
L 57.6 41.472 
z
" style="fill: #ffffff"/>
   </g>
   <g id="matplotlib.axis_1">
    <g id="xtick_1">
     <g id="line2d_1">
      <defs>
       <path id="m37641a2dd2" d="M 0 0 
L 0 3.5 
" style="stroke: #000000; stroke-width: 0.8"/>
      </defs>
      <g>
       <use xlink:href="#m37641a2dd2" x="108.617143" y="119.740235" style="stroke: #000000; stroke-width: 0.8"/>
      </g>
     </g>
    </g>
    <g id="xtick_2">
     <g id="line2d_2">
      <g>
       <use xlink:href="#m37641a2dd2" x="165.302857" y="119.740235" style="stroke: #000000; stroke-width: 0.8"/>
      </g>
     </g>
    </g>
    <g id="xtick_3">
     <g id="line2d_3">
      <g>
       <use xlink:href="#m37641a2dd2" x="221.988571" y="119.740235" style="stroke: #000000; stroke-width: 0.8"/>
      </g>
     </g>
    </g>
    <g id="xtick_4">
     <g id="line2d_4">
      <g>
       <use xlink:href="#m37641a2dd2" x="278.674286" y="119.740235" style="stroke: #000000; stroke-width: 0.8"/>
      </g>
     </g>
    </g>
    <g id="xtick_5">
     <g id="line2d_5">
      <g>
       <use xlink:href="#m37641a2dd2" x="335.36" y="119.740235" style="stroke: #000000; stroke-width: 0.8"/>
      </g>
     </g>
    </g>
    <g id="xtick_6">
     <g id="line2d_6">
      <g>
       <use xlink:href="#m37641a2dd2" x="392.045714" y="119.740235" style="stroke: #000000; stroke-width: 0.8"/>
      </g>
     </g>
    </g>
   </g>
   <g id="matplotlib.axis_2">
    <g id="ytick_1">
     <g id="line2d_7">
      <defs>
       <path id="m35f486f790" d="M 0 0 
L -3.5 0 
" style="stroke: #000000; stroke-width: 0.8"/>
      </defs>
      <g>
       <use xlink:href="#m35f486f790" x="57.6" y="116.182588" style="stroke: #000000; stroke-width: 0.8"/>
      </g>
     </g>
     <g id="text_1">
      <!-- 0.0 -->
      <g transform="translate(34.696875 119.981807) scale(0.1 -0.1)">
       <defs>
        <path id="DejaVuSans-30" d="M 2034 4250 
Q 1547 4250 1301 3770 
Q 1056 3291 1056 2328 
Q 1056 1369 1301 889 
Q 1547 409 2034 409 
Q 2525 409 2770 889 
Q 3016 1369 3016 2328 
Q 3016 3291 2770 3770 
Q 2525 4250 2034 4250 
z
M 2034 4750 
Q 2819 4750 3233 4129 
Q 3647 3509 3647 2328 
Q 3647 1150 3233 529 
Q 2819 -91 2034 -91 
Q 1250 -91 836 529 
Q 422 1150 422 2328 
Q 422 3509 836 4129 
Q 1250 4750 2034 4750 
z
" transform="scale(0.015625)"/>
        <path id="DejaVuSans-2e" d="M 684 794 
L 1344 794 
L 1344 0 
L 684 0 
L 684 794 
z
" transform="scale(0.015625)"/>
       </defs>
       <use xlink:href="#DejaVuSans-30"/>
       <use xlink:href="#DejaVuSans-2e" x="63.623047"/>
       <use xlink:href="#DejaVuSans-30" x="95.410156"/>
      </g>
     </g>
    </g>
    <g id="ytick_2">
     <g id="line2d_8">
      <g>
       <use xlink:href="#m35f486f790" x="57.6" y="84.16361" style="stroke: #000000; stroke-width: 0.8"/>
      </g>
     </g>
     <g id="text_2">
      <!-- 0.1 -->
      <g transform="translate(34.696875 87.962828) scale(0.1 -0.1)">
       <defs>
        <path id="DejaVuSans-31" d="M 794 531 
L 1825 531 
L 1825 4091 
L 703 3866 
L 703 4441 
L 1819 4666 
L 2450 4666 
L 2450 531 
L 3481 531 
L 3481 0 
L 794 0 
L 794 531 
z
" transform="scale(0.015625)"/>
       </defs>
       <use xlink:href="#DejaVuSans-30"/>
       <use xlink:href="#DejaVuSans-2e" x="63.623047"/>
       <use xlink:href="#DejaVuSans-31" x="95.410156"/>
      </g>
     </g>
    </g>
    <g id="ytick_3">
     <g id="line2d_9">
      <g>
       <use xlink:href="#m35f486f790" x="57.6" y="52.144631" style="stroke: #000000; stroke-width: 0.8"/>
      </g>
     </g>
     <g id="text_3">
      <!-- 0.2 -->
      <g transform="translate(34.696875 55.94385) scale(0.1 -0.1)">
       <defs>
        <path id="DejaVuSans-32" d="M 1228 531 
L 3431 531 
L 3431 0 
L 469 0 
L 469 531 
Q 828 903 1448 1529 
Q 2069 2156 2228 2338 
Q 2531 2678 2651 2914 
Q 2772 3150 2772 3378 
Q 2772 3750 2511 3984 
Q 2250 4219 1831 4219 
Q 1534 4219 1204 4116 
Q 875 4013 500 3803 
L 500 4441 
Q 881 4594 1212 4672 
Q 1544 4750 1819 4750 
Q 2544 4750 2975 4387 
Q 3406 4025 3406 3419 
Q 3406 3131 3298 2873 
Q 3191 2616 2906 2266 
Q 2828 2175 2409 1742 
Q 1991 1309 1228 531 
z
" transform="scale(0.015625)"/>
       </defs>
       <use xlink:href="#DejaVuSans-30"/>
       <use xlink:href="#DejaVuSans-2e" x="63.623047"/>
       <use xlink:href="#DejaVuSans-32" x="95.410156"/>
      </g>
     </g>
    </g>
   </g>
   <g id="line2d_10">
    <path d="M 57.6 116.182588 
L 111.579099 116.087946 
L 114.796396 115.771291 
L 118.013694 115.233908 
L 121.230991 114.479171 
L 124.448288 113.511816 
L 128.023063 112.19504 
L 131.597838 110.633503 
L 135.172613 108.839305 
L 139.104865 106.613607 
L 143.394595 103.908303 
L 147.684324 100.943078 
L 152.689009 97.199406 
L 158.408649 92.616041 
L 165.200721 86.871888 
L 189.151712 66.330071 
L 194.513874 62.162887 
L 199.161081 58.808727 
L 203.450811 55.964863 
L 207.740541 53.395853 
L 211.672793 51.306912 
L 215.247568 49.645744 
L 218.822342 48.224464 
L 222.397117 47.054083 
L 225.614414 46.222797 
L 228.831712 45.607329 
L 232.049009 45.211543 
L 235.266306 45.037922 
L 238.483604 45.087557 
L 241.700901 45.360135 
L 244.918198 45.853947 
L 248.135495 46.565893 
L 251.352793 47.491503 
L 254.927568 48.763442 
L 258.502342 50.282105 
L 262.077117 52.035725 
L 266.009369 54.219814 
L 269.941622 56.65125 
L 274.231351 59.558984 
L 278.878559 62.972873 
L 284.240721 67.195756 
L 290.675315 72.564793 
L 300.327207 80.952765 
L 311.766486 90.830875 
L 318.201081 96.080941 
L 323.563243 100.164976 
L 328.21045 103.43129 
L 332.50018 106.182092 
L 336.432432 108.453739 
L 340.364685 110.464337 
L 343.939459 112.049715 
L 347.514234 113.391458 
L 351.089009 114.479171 
L 354.306306 115.233908 
L 357.523604 115.771291 
L 360.740901 116.087946 
L 363.958198 116.182588 
L 414.72 116.182588 
L 414.72 116.182588 
" clip-path="url(#p6d1259c93f)" style="fill: none; stroke: #1f77b4; stroke-width: 1.5; stroke-linecap: square"/>
   </g>
   <g id="patch_3">
    <path d="M 57.6 119.740235 
L 57.6 41.472 
" style="fill: none; stroke: #000000; stroke-width: 0.8; stroke-linejoin: miter; stroke-linecap: square"/>
   </g>
   <g id="patch_4">
    <path d="M 414.72 119.740235 
L 414.72 41.472 
" style="fill: none; stroke: #000000; stroke-width: 0.8; stroke-linejoin: miter; stroke-linecap: square"/>
   </g>
   <g id="patch_5">
    <path d="M 57.6 119.740235 
L 414.72 119.740235 
" style="fill: none; stroke: #000000; stroke-width: 0.8; stroke-linejoin: miter; stroke-linecap: square"/>
   </g>
   <g id="patch_6">
    <path d="M 57.6 41.472 
L 414.72 41.472 
" style="fill: none; stroke: #000000; stroke-width: 0.8; stroke-linejoin: miter; stroke-linecap: square"/>
   </g>
  </g>
  <g id="axes_2">
   <g id="patch_7">
    <path d="M 57.6 213.662118 
L 414.72 213.662118 
L 414.72 135.393882 
L 57.6 135.393882 
z
" style="fill: #ffffff"/>
   </g>
   <g id="matplotlib.axis_3">
    <g id="xtick_7">
     <g id="line2d_11">
      <g>
       <use xlink:href="#m37641a2dd2" x="108.617143" y="213.662118" style="stroke: #000000; stroke-width: 0.8"/>
      </g>
     </g>
    </g>
    <g id="xtick_8">
     <g id="line2d_12">
      <g>
       <use xlink:href="#m37641a2dd2" x="165.302857" y="213.662118" style="stroke: #000000; stroke-width: 0.8"/>
      </g>
     </g>
    </g>
    <g id="xtick_9">
     <g id="line2d_13">
      <g>
       <use xlink:href="#m37641a2dd2" x="221.988571" y="213.662118" style="stroke: #000000; stroke-width: 0.8"/>
      </g>
     </g>
    </g>
    <g id="xtick_10">
     <g id="line2d_14">
      <g>
       <use xlink:href="#m37641a2dd2" x="278.674286" y="213.662118" style="stroke: #000000; stroke-width: 0.8"/>
      </g>
     </g>
    </g>
    <g id="xtick_11">
     <g id="line2d_15">
      <g>
       <use xlink:href="#m37641a2dd2" x="335.36" y="213.662118" style="stroke: #000000; stroke-width: 0.8"/>
      </g>
     </g>
    </g>
    <g id="xtick_12">
     <g id="line2d_16">
      <g>
       <use xlink:href="#m37641a2dd2" x="392.045714" y="213.662118" style="stroke: #000000; stroke-width: 0.8"/>
      </g>
     </g>
    </g>
   </g>
   <g id="matplotlib.axis_4">
    <g id="ytick_4">
     <g id="line2d_17">
      <g>
       <use xlink:href="#m35f486f790" x="57.6" y="210.104471" style="stroke: #000000; stroke-width: 0.8"/>
      </g>
     </g>
     <g id="text_4">
      <!-- 0.0 -->
      <g transform="translate(34.696875 213.903689) scale(0.1 -0.1)">
       <use xlink:href="#DejaVuSans-30"/>
       <use xlink:href="#DejaVuSans-2e" x="63.623047"/>
       <use xlink:href="#DejaVuSans-30" x="95.410156"/>
      </g>
     </g>
    </g>
    <g id="ytick_5">
     <g id="line2d_18">
      <g>
       <use xlink:href="#m35f486f790" x="57.6" y="178.085619" style="stroke: #000000; stroke-width: 0.8"/>
      </g>
     </g>
     <g id="text_5">
      <!-- 0.1 -->
      <g transform="translate(34.696875 181.884837) scale(0.1 -0.1)">
       <use xlink:href="#DejaVuSans-30"/>
       <use xlink:href="#DejaVuSans-2e" x="63.623047"/>
       <use xlink:href="#DejaVuSans-31" x="95.410156"/>
      </g>
     </g>
    </g>
    <g id="ytick_6">
     <g id="line2d_19">
      <g>
       <use xlink:href="#m35f486f790" x="57.6" y="146.066767" style="stroke: #000000; stroke-width: 0.8"/>
      </g>
     </g>
     <g id="text_6">
      <!-- 0.2 -->
      <g transform="translate(34.696875 149.865985) scale(0.1 -0.1)">
       <use xlink:href="#DejaVuSans-30"/>
       <use xlink:href="#DejaVuSans-2e" x="63.623047"/>
       <use xlink:href="#DejaVuSans-32" x="95.410156"/>
      </g>
     </g>
    </g>
   </g>
   <g id="line2d_20">
    <path d="M 57.6 210.104471 
L 110.149189 210.003192 
L 111.936577 209.629856 
L 113.723964 208.984542 
L 115.511351 208.07225 
L 117.298739 206.900048 
L 119.086126 205.477018 
L 121.230991 203.453947 
L 123.375856 201.108226 
L 125.878198 197.998852 
L 128.380541 194.533256 
L 131.24036 190.204076 
L 134.815135 184.36644 
L 140.177297 175.098526 
L 147.326847 162.792127 
L 150.901622 157.089653 
L 153.761441 152.908108 
L 156.263784 149.598054 
L 158.766126 146.666365 
L 160.910991 144.488535 
L 163.055856 142.645775 
L 164.843243 141.381044 
L 166.630631 140.373144 
L 168.418018 139.629885 
L 170.205405 139.157025 
L 171.992793 138.958228 
L 173.78018 139.035035 
L 175.567568 139.386851 
L 177.354955 140.010949 
L 179.142342 140.902493 
L 180.92973 142.054577 
L 182.717117 143.458273 
L 184.861982 145.459391 
L 187.006847 147.784749 
L 189.509189 150.872678 
L 192.011532 154.319628 
L 194.871351 158.631287 
L 198.446126 164.453199 
L 203.450811 173.085128 
L 210.957838 186.031175 
L 214.532613 191.751331 
L 217.392432 195.951842 
L 219.894775 199.281692 
L 222.397117 202.235851 
L 224.541982 204.434812 
L 226.686847 206.300182 
L 228.474234 207.584703 
L 230.261622 208.613091 
L 232.049009 209.377379 
L 233.836396 209.871645 
L 235.623784 210.092059 
L 237.411171 210.036913 
L 239.198559 209.706634 
L 240.985946 209.103782 
L 242.773333 208.233027 
L 244.560721 207.101117 
L 246.348108 205.716822 
L 248.492973 203.737753 
L 250.637838 201.43287 
L 253.14018 198.366533 
L 255.642523 194.938394 
L 258.502342 190.644463 
L 262.077117 184.838552 
L 267.081802 176.216703 
L 274.946306 162.665471 
L 278.521081 156.972757 
L 281.380901 152.801642 
L 283.883243 149.502452 
L 286.385586 146.583079 
L 288.53045 144.416819 
L 290.675315 142.586428 
L 292.462703 141.332518 
L 294.25009 140.335814 
L 296.037477 139.60404 
L 297.824865 139.142865 
L 299.612252 138.955864 
L 301.39964 139.044484 
L 303.187027 139.40804 
L 304.974414 140.043714 
L 306.761802 140.946581 
L 308.549189 142.109646 
L 310.336577 143.523896 
L 312.481441 145.537 
L 314.626306 147.873479 
L 317.128649 150.973124 
L 319.630991 154.430265 
L 322.490811 158.751506 
L 326.065586 164.582029 
L 331.427748 173.84555 
L 338.577297 186.158135 
L 342.152072 191.868681 
L 345.011892 196.058872 
L 347.514234 199.377944 
L 350.016577 202.319863 
L 352.161441 204.507311 
L 354.306306 206.36036 
L 356.093694 207.634094 
L 357.881081 208.651313 
L 359.668468 209.404135 
L 361.455856 209.886728 
L 363.243243 210.095352 
L 367.89045 210.104471 
L 414.72 210.104471 
L 414.72 210.104471 
" clip-path="url(#p7e9bd8b65a)" style="fill: none; stroke: #1f77b4; stroke-width: 1.5; stroke-linecap: square"/>
   </g>
   <g id="patch_8">
    <path d="M 57.6 213.662118 
L 57.6 135.393882 
" style="fill: none; stroke: #000000; stroke-width: 0.8; stroke-linejoin: miter; stroke-linecap: square"/>
   </g>
   <g id="patch_9">
    <path d="M 414.72 213.662118 
L 414.72 135.393882 
" style="fill: none; stroke: #000000; stroke-width: 0.8; stroke-linejoin: miter; stroke-linecap: square"/>
   </g>
   <g id="patch_10">
    <path d="M 57.6 213.662118 
L 414.72 213.662118 
" style="fill: none; stroke: #000000; stroke-width: 0.8; stroke-linejoin: miter; stroke-linecap: square"/>
   </g>
   <g id="patch_11">
    <path d="M 57.6 135.393882 
L 414.72 135.393882 
" style="fill: none; stroke: #000000; stroke-width: 0.8; stroke-linejoin: miter; stroke-linecap: square"/>
   </g>
  </g>
  <g id="axes_3">
   <g id="patch_12">
    <path d="M 57.6 307.584 
L 414.72 307.584 
L 414.72 229.315765 
L 57.6 229.315765 
z
" style="fill: #ffffff"/>
   </g>
   <g id="matplotlib.axis_5">
    <g id="xtick_13">
     <g id="line2d_21">
      <g>
       <use xlink:href="#m37641a2dd2" x="108.617143" y="307.584" style="stroke: #000000; stroke-width: 0.8"/>
      </g>
     </g>
     <g id="text_7">
      <!-- 0 -->
      <g transform="translate(105.435893 322.182437) scale(0.1 -0.1)">
       <use xlink:href="#DejaVuSans-30"/>
      </g>
     </g>
    </g>
    <g id="xtick_14">
     <g id="line2d_22">
      <g>
       <use xlink:href="#m37641a2dd2" x="165.302857" y="307.584" style="stroke: #000000; stroke-width: 0.8"/>
      </g>
     </g>
     <g id="text_8">
      <!-- 2 -->
      <g transform="translate(162.121607 322.182437) scale(0.1 -0.1)">
       <use xlink:href="#DejaVuSans-32"/>
      </g>
     </g>
    </g>
    <g id="xtick_15">
     <g id="line2d_23">
      <g>
       <use xlink:href="#m37641a2dd2" x="221.988571" y="307.584" style="stroke: #000000; stroke-width: 0.8"/>
      </g>
     </g>
     <g id="text_9">
      <!-- 4 -->
      <g transform="translate(218.807321 322.182437) scale(0.1 -0.1)">
       <defs>
        <path id="DejaVuSans-34" d="M 2419 4116 
L 825 1625 
L 2419 1625 
L 2419 4116 
z
M 2253 4666 
L 3047 4666 
L 3047 1625 
L 3713 1625 
L 3713 1100 
L 3047 1100 
L 3047 0 
L 2419 0 
L 2419 1100 
L 313 1100 
L 313 1709 
L 2253 4666 
z
" transform="scale(0.015625)"/>
       </defs>
       <use xlink:href="#DejaVuSans-34"/>
      </g>
     </g>
    </g>
    <g id="xtick_16">
     <g id="line2d_24">
      <g>
       <use xlink:href="#m37641a2dd2" x="278.674286" y="307.584" style="stroke: #000000; stroke-width: 0.8"/>
      </g>
     </g>
     <g id="text_10">
      <!-- 6 -->
      <g transform="translate(275.493036 322.182437) scale(0.1 -0.1)">
       <defs>
        <path id="DejaVuSans-36" d="M 2113 2584 
Q 1688 2584 1439 2293 
Q 1191 2003 1191 1497 
Q 1191 994 1439 701 
Q 1688 409 2113 409 
Q 2538 409 2786 701 
Q 3034 994 3034 1497 
Q 3034 2003 2786 2293 
Q 2538 2584 2113 2584 
z
M 3366 4563 
L 3366 3988 
Q 3128 4100 2886 4159 
Q 2644 4219 2406 4219 
Q 1781 4219 1451 3797 
Q 1122 3375 1075 2522 
Q 1259 2794 1537 2939 
Q 1816 3084 2150 3084 
Q 2853 3084 3261 2657 
Q 3669 2231 3669 1497 
Q 3669 778 3244 343 
Q 2819 -91 2113 -91 
Q 1303 -91 875 529 
Q 447 1150 447 2328 
Q 447 3434 972 4092 
Q 1497 4750 2381 4750 
Q 2619 4750 2861 4703 
Q 3103 4656 3366 4563 
z
" transform="scale(0.015625)"/>
       </defs>
       <use xlink:href="#DejaVuSans-36"/>
      </g>
     </g>
    </g>
    <g id="xtick_17">
     <g id="line2d_25">
      <g>
       <use xlink:href="#m37641a2dd2" x="335.36" y="307.584" style="stroke: #000000; stroke-width: 0.8"/>
      </g>
     </g>
     <g id="text_11">
      <!-- 8 -->
      <g transform="translate(332.17875 322.182437) scale(0.1 -0.1)">
       <defs>
        <path id="DejaVuSans-38" d="M 2034 2216 
Q 1584 2216 1326 1975 
Q 1069 1734 1069 1313 
Q 1069 891 1326 650 
Q 1584 409 2034 409 
Q 2484 409 2743 651 
Q 3003 894 3003 1313 
Q 3003 1734 2745 1975 
Q 2488 2216 2034 2216 
z
M 1403 2484 
Q 997 2584 770 2862 
Q 544 3141 544 3541 
Q 544 4100 942 4425 
Q 1341 4750 2034 4750 
Q 2731 4750 3128 4425 
Q 3525 4100 3525 3541 
Q 3525 3141 3298 2862 
Q 3072 2584 2669 2484 
Q 3125 2378 3379 2068 
Q 3634 1759 3634 1313 
Q 3634 634 3220 271 
Q 2806 -91 2034 -91 
Q 1263 -91 848 271 
Q 434 634 434 1313 
Q 434 1759 690 2068 
Q 947 2378 1403 2484 
z
M 1172 3481 
Q 1172 3119 1398 2916 
Q 1625 2713 2034 2713 
Q 2441 2713 2670 2916 
Q 2900 3119 2900 3481 
Q 2900 3844 2670 4047 
Q 2441 4250 2034 4250 
Q 1625 4250 1398 4047 
Q 1172 3844 1172 3481 
z
" transform="scale(0.015625)"/>
       </defs>
       <use xlink:href="#DejaVuSans-38"/>
      </g>
     </g>
    </g>
    <g id="xtick_18">
     <g id="line2d_26">
      <g>
       <use xlink:href="#m37641a2dd2" x="392.045714" y="307.584" style="stroke: #000000; stroke-width: 0.8"/>
      </g>
     </g>
     <g id="text_12">
      <!-- 10 -->
      <g transform="translate(385.683214 322.182437) scale(0.1 -0.1)">
       <use xlink:href="#DejaVuSans-31"/>
       <use xlink:href="#DejaVuSans-30" x="63.623047"/>
      </g>
     </g>
    </g>
   </g>
   <g id="matplotlib.axis_6">
    <g id="ytick_7">
     <g id="line2d_27">
      <g>
       <use xlink:href="#m35f486f790" x="57.6" y="304.026353" style="stroke: #000000; stroke-width: 0.8"/>
      </g>
     </g>
     <g id="text_13">
      <!-- 0.0 -->
      <g transform="translate(34.696875 307.825572) scale(0.1 -0.1)">
       <use xlink:href="#DejaVuSans-30"/>
       <use xlink:href="#DejaVuSans-2e" x="63.623047"/>
       <use xlink:href="#DejaVuSans-30" x="95.410156"/>
      </g>
     </g>
    </g>
    <g id="ytick_8">
     <g id="line2d_28">
      <g>
       <use xlink:href="#m35f486f790" x="57.6" y="272.006817" style="stroke: #000000; stroke-width: 0.8"/>
      </g>
     </g>
     <g id="text_14">
      <!-- 0.1 -->
      <g transform="translate(34.696875 275.806036) scale(0.1 -0.1)">
       <use xlink:href="#DejaVuSans-30"/>
       <use xlink:href="#DejaVuSans-2e" x="63.623047"/>
       <use xlink:href="#DejaVuSans-31" x="95.410156"/>
      </g>
     </g>
    </g>
    <g id="ytick_9">
     <g id="line2d_29">
      <g>
       <use xlink:href="#m35f486f790" x="57.6" y="239.987281" style="stroke: #000000; stroke-width: 0.8"/>
      </g>
     </g>
     <g id="text_15">
      <!-- 0.2 -->
      <g transform="translate(34.696875 243.7865) scale(0.1 -0.1)">
       <use xlink:href="#DejaVuSans-30"/>
       <use xlink:href="#DejaVuSans-2e" x="63.623047"/>
       <use xlink:href="#DejaVuSans-32" x="95.410156"/>
      </g>
     </g>
    </g>
   </g>
   <g id="line2d_30">
    <path d="M 57.6 304.026353 
L 109.434234 303.961522 
L 110.506667 303.680117 
L 111.579099 303.177573 
L 112.651532 302.457042 
L 114.081441 301.165256 
L 115.511351 299.508543 
L 116.941261 297.505383 
L 118.728649 294.548629 
L 120.516036 291.137234 
L 122.660901 286.527602 
L 125.163243 280.585685 
L 128.738018 271.432809 
L 134.815135 255.746355 
L 137.317477 249.852868 
L 139.462342 245.298874 
L 141.24973 241.942762 
L 143.037117 239.048376 
L 144.467027 237.099486 
L 145.896937 235.50028 
L 147.326847 234.268595 
L 148.399279 233.594441 
L 149.471712 233.139065 
L 150.544144 232.905325 
L 151.616577 232.894688 
L 152.689009 233.107222 
L 153.761441 233.541591 
L 154.833874 234.19507 
L 155.906306 235.063557 
L 157.336216 236.546383 
L 158.766126 238.385062 
L 160.196036 240.559086 
L 161.983423 243.710915 
L 163.770811 247.29367 
L 165.915676 252.073462 
L 168.775495 259.062829 
L 173.78018 272.10116 
L 177.712432 282.087173 
L 180.214775 287.896176 
L 182.35964 292.354529 
L 184.147027 295.616362 
L 185.934414 298.404955 
L 187.364324 300.262153 
L 188.794234 301.764499 
L 190.224144 302.895233 
L 191.296577 303.491667 
L 192.369009 303.868144 
L 193.441441 304.0223 
L 194.513874 303.953168 
L 195.586306 303.661182 
L 196.658739 303.148174 
L 197.731171 302.417365 
L 199.161081 301.112273 
L 200.590991 299.442845 
L 202.020901 297.427703 
L 203.808288 294.457205 
L 205.595676 291.033658 
L 207.740541 286.411841 
L 210.242883 280.459395 
L 213.817658 271.299003 
L 219.894775 255.621038 
L 222.397117 249.738544 
L 224.541982 245.197093 
L 226.329369 241.853398 
L 228.116757 238.972986 
L 229.546667 237.036233 
L 230.976577 235.449869 
L 232.406486 234.231589 
L 233.478919 233.567768 
L 234.551351 233.122892 
L 235.623784 232.899754 
L 236.696216 232.899754 
L 237.768649 233.122892 
L 238.841081 233.567768 
L 239.913514 234.231589 
L 240.985946 235.110189 
L 242.415856 236.606033 
L 243.845766 238.457065 
L 245.275676 240.642638 
L 247.063063 243.807579 
L 248.85045 247.401763 
L 250.995315 252.192769 
L 253.855135 259.192396 
L 258.85982 272.234682 
L 262.792072 282.211077 
L 265.294414 288.008462 
L 267.439279 292.453791 
L 269.226667 295.702855 
L 271.014054 298.477171 
L 272.443964 300.32203 
L 273.873874 301.811368 
L 275.303784 302.928573 
L 276.376216 303.514606 
L 277.448649 303.880539 
L 278.521081 304.024073 
L 279.593514 303.944308 
L 280.665946 303.641744 
L 281.738378 303.118281 
L 282.810811 302.377205 
L 284.240721 301.058825 
L 285.670631 299.376706 
L 287.100541 297.34961 
L 288.887928 294.36541 
L 290.675315 290.92976 
L 292.82018 286.295825 
L 295.322523 280.332934 
L 298.897297 271.165157 
L 304.974414 255.495904 
L 307.476757 249.624487 
L 309.621622 245.095644 
L 311.409009 241.764412 
L 313.196396 238.898015 
L 314.626306 236.973426 
L 316.056216 235.399928 
L 317.486126 234.19507 
L 318.558559 233.541591 
L 319.630991 233.107222 
L 320.703423 232.894688 
L 321.775856 232.905325 
L 322.848288 233.139065 
L 323.920721 233.594441 
L 324.993153 234.268595 
L 326.065586 235.157296 
L 327.495495 236.666137 
L 328.925405 238.529495 
L 330.355315 240.726586 
L 332.142703 243.904595 
L 334.287568 248.277167 
L 336.78991 254.009184 
L 340.007207 262.072937 
L 348.586667 284.045136 
L 351.089009 289.658445 
L 353.233874 293.900928 
L 355.021261 296.952997 
L 356.451171 299.039424 
L 357.881081 300.784636 
L 359.310991 302.169166 
L 360.383423 302.961421 
L 361.455856 303.537046 
L 362.528288 303.892429 
L 363.600721 304.02534 
L 402.923243 304.026353 
L 414.72 304.026353 
L 414.72 304.026353 
" clip-path="url(#p3c8d7bc392)" style="fill: none; stroke: #1f77b4; stroke-width: 1.5; stroke-linecap: square"/>
   </g>
   <g id="patch_13">
    <path d="M 57.6 307.584 
L 57.6 229.315765 
" style="fill: none; stroke: #000000; stroke-width: 0.8; stroke-linejoin: miter; stroke-linecap: square"/>
   </g>
   <g id="patch_14">
    <path d="M 414.72 307.584 
L 414.72 229.315765 
" style="fill: none; stroke: #000000; stroke-width: 0.8; stroke-linejoin: miter; stroke-linecap: square"/>
   </g>
   <g id="patch_15">
    <path d="M 57.6 307.584 
L 414.72 307.584 
" style="fill: none; stroke: #000000; stroke-width: 0.8; stroke-linejoin: miter; stroke-linecap: square"/>
   </g>
   <g id="patch_16">
    <path d="M 57.6 229.315765 
L 414.72 229.315765 
" style="fill: none; stroke: #000000; stroke-width: 0.8; stroke-linejoin: miter; stroke-linecap: square"/>
   </g>
  </g>
  <g id="text_16">
   <!-- $x$ in $[cm]$ -->
   <g transform="translate(203.7 339.648375) scale(0.12 -0.12)">
    <defs>
     <path id="DejaVuSans-Oblique-78" d="M 3841 3500 
L 2234 1784 
L 3219 0 
L 2559 0 
L 1819 1388 
L 531 0 
L -166 0 
L 1556 1844 
L 641 3500 
L 1300 3500 
L 1972 2234 
L 3144 3500 
L 3841 3500 
z
" transform="scale(0.015625)"/>
     <path id="DejaVuSans-20" transform="scale(0.015625)"/>
     <path id="DejaVuSans-69" d="M 603 3500 
L 1178 3500 
L 1178 0 
L 603 0 
L 603 3500 
z
M 603 4863 
L 1178 4863 
L 1178 4134 
L 603 4134 
L 603 4863 
z
" transform="scale(0.015625)"/>
     <path id="DejaVuSans-6e" d="M 3513 2113 
L 3513 0 
L 2938 0 
L 2938 2094 
Q 2938 2591 2744 2837 
Q 2550 3084 2163 3084 
Q 1697 3084 1428 2787 
Q 1159 2491 1159 1978 
L 1159 0 
L 581 0 
L 581 3500 
L 1159 3500 
L 1159 2956 
Q 1366 3272 1645 3428 
Q 1925 3584 2291 3584 
Q 2894 3584 3203 3211 
Q 3513 2838 3513 2113 
z
" transform="scale(0.015625)"/>
     <path id="DejaVuSans-5b" d="M 550 4863 
L 1875 4863 
L 1875 4416 
L 1125 4416 
L 1125 -397 
L 1875 -397 
L 1875 -844 
L 550 -844 
L 550 4863 
z
" transform="scale(0.015625)"/>
     <path id="DejaVuSans-Oblique-63" d="M 3431 3366 
L 3316 2797 
Q 3109 2947 2876 3022 
Q 2644 3097 2394 3097 
Q 2119 3097 1870 3000 
Q 1622 2903 1453 2725 
Q 1184 2453 1037 2087 
Q 891 1722 891 1331 
Q 891 859 1127 628 
Q 1363 397 1844 397 
Q 2081 397 2348 469 
Q 2616 541 2906 684 
L 2797 116 
Q 2547 13 2283 -39 
Q 2019 -91 1741 -91 
Q 1044 -91 669 257 
Q 294 606 294 1253 
Q 294 1797 489 2255 
Q 684 2713 1069 3078 
Q 1331 3328 1684 3456 
Q 2038 3584 2456 3584 
Q 2700 3584 2940 3529 
Q 3181 3475 3431 3366 
z
" transform="scale(0.015625)"/>
     <path id="DejaVuSans-Oblique-6d" d="M 5747 2113 
L 5338 0 
L 4763 0 
L 5166 2094 
Q 5191 2228 5203 2325 
Q 5216 2422 5216 2491 
Q 5216 2772 5059 2928 
Q 4903 3084 4622 3084 
Q 4203 3084 3875 2770 
Q 3547 2456 3450 1953 
L 3066 0 
L 2491 0 
L 2900 2094 
Q 2925 2209 2937 2307 
Q 2950 2406 2950 2484 
Q 2950 2769 2794 2926 
Q 2638 3084 2363 3084 
Q 1938 3084 1609 2770 
Q 1281 2456 1184 1953 
L 800 0 
L 225 0 
L 909 3500 
L 1484 3500 
L 1375 2956 
Q 1609 3263 1923 3423 
Q 2238 3584 2597 3584 
Q 2978 3584 3223 3384 
Q 3469 3184 3519 2828 
Q 3781 3197 4126 3390 
Q 4472 3584 4856 3584 
Q 5306 3584 5551 3325 
Q 5797 3066 5797 2591 
Q 5797 2488 5784 2364 
Q 5772 2241 5747 2113 
z
" transform="scale(0.015625)"/>
     <path id="DejaVuSans-5d" d="M 1947 4863 
L 1947 -844 
L 622 -844 
L 622 -397 
L 1369 -397 
L 1369 4416 
L 622 4416 
L 622 4863 
L 1947 4863 
z
" transform="scale(0.015625)"/>
    </defs>
    <use xlink:href="#DejaVuSans-Oblique-78" transform="translate(0 0.015625)"/>
    <use xlink:href="#DejaVuSans-20" transform="translate(59.179688 0.015625)"/>
    <use xlink:href="#DejaVuSans-69" transform="translate(90.966797 0.015625)"/>
    <use xlink:href="#DejaVuSans-6e" transform="translate(118.75 0.015625)"/>
    <use xlink:href="#DejaVuSans-20" transform="translate(182.128906 0.015625)"/>
    <use xlink:href="#DejaVuSans-5b" transform="translate(213.916016 0.015625)"/>
    <use xlink:href="#DejaVuSans-Oblique-63" transform="translate(252.929688 0.015625)"/>
    <use xlink:href="#DejaVuSans-Oblique-6d" transform="translate(307.910156 0.015625)"/>
    <use xlink:href="#DejaVuSans-5d" transform="translate(405.322266 0.015625)"/>
   </g>
  </g>
  <g id="text_17">
   <!-- Wahrscheinlichkeitsdichte in $[1/\mathrm{cm}]$ für n=1,2,3 -->
   <g transform="translate(18.334125 316.68) rotate(-90) scale(0.12 -0.12)">
    <defs>
     <path id="DejaVuSans-57" d="M 213 4666 
L 850 4666 
L 1831 722 
L 2809 4666 
L 3519 4666 
L 4500 722 
L 5478 4666 
L 6119 4666 
L 4947 0 
L 4153 0 
L 3169 4050 
L 2175 0 
L 1381 0 
L 213 4666 
z
" transform="scale(0.015625)"/>
     <path id="DejaVuSans-61" d="M 2194 1759 
Q 1497 1759 1228 1600 
Q 959 1441 959 1056 
Q 959 750 1161 570 
Q 1363 391 1709 391 
Q 2188 391 2477 730 
Q 2766 1069 2766 1631 
L 2766 1759 
L 2194 1759 
z
M 3341 1997 
L 3341 0 
L 2766 0 
L 2766 531 
Q 2569 213 2275 61 
Q 1981 -91 1556 -91 
Q 1019 -91 701 211 
Q 384 513 384 1019 
Q 384 1609 779 1909 
Q 1175 2209 1959 2209 
L 2766 2209 
L 2766 2266 
Q 2766 2663 2505 2880 
Q 2244 3097 1772 3097 
Q 1472 3097 1187 3025 
Q 903 2953 641 2809 
L 641 3341 
Q 956 3463 1253 3523 
Q 1550 3584 1831 3584 
Q 2591 3584 2966 3190 
Q 3341 2797 3341 1997 
z
" transform="scale(0.015625)"/>
     <path id="DejaVuSans-68" d="M 3513 2113 
L 3513 0 
L 2938 0 
L 2938 2094 
Q 2938 2591 2744 2837 
Q 2550 3084 2163 3084 
Q 1697 3084 1428 2787 
Q 1159 2491 1159 1978 
L 1159 0 
L 581 0 
L 581 4863 
L 1159 4863 
L 1159 2956 
Q 1366 3272 1645 3428 
Q 1925 3584 2291 3584 
Q 2894 3584 3203 3211 
Q 3513 2838 3513 2113 
z
" transform="scale(0.015625)"/>
     <path id="DejaVuSans-72" d="M 2631 2963 
Q 2534 3019 2420 3045 
Q 2306 3072 2169 3072 
Q 1681 3072 1420 2755 
Q 1159 2438 1159 1844 
L 1159 0 
L 581 0 
L 581 3500 
L 1159 3500 
L 1159 2956 
Q 1341 3275 1631 3429 
Q 1922 3584 2338 3584 
Q 2397 3584 2469 3576 
Q 2541 3569 2628 3553 
L 2631 2963 
z
" transform="scale(0.015625)"/>
     <path id="DejaVuSans-73" d="M 2834 3397 
L 2834 2853 
Q 2591 2978 2328 3040 
Q 2066 3103 1784 3103 
Q 1356 3103 1142 2972 
Q 928 2841 928 2578 
Q 928 2378 1081 2264 
Q 1234 2150 1697 2047 
L 1894 2003 
Q 2506 1872 2764 1633 
Q 3022 1394 3022 966 
Q 3022 478 2636 193 
Q 2250 -91 1575 -91 
Q 1294 -91 989 -36 
Q 684 19 347 128 
L 347 722 
Q 666 556 975 473 
Q 1284 391 1588 391 
Q 1994 391 2212 530 
Q 2431 669 2431 922 
Q 2431 1156 2273 1281 
Q 2116 1406 1581 1522 
L 1381 1569 
Q 847 1681 609 1914 
Q 372 2147 372 2553 
Q 372 3047 722 3315 
Q 1072 3584 1716 3584 
Q 2034 3584 2315 3537 
Q 2597 3491 2834 3397 
z
" transform="scale(0.015625)"/>
     <path id="DejaVuSans-63" d="M 3122 3366 
L 3122 2828 
Q 2878 2963 2633 3030 
Q 2388 3097 2138 3097 
Q 1578 3097 1268 2742 
Q 959 2388 959 1747 
Q 959 1106 1268 751 
Q 1578 397 2138 397 
Q 2388 397 2633 464 
Q 2878 531 3122 666 
L 3122 134 
Q 2881 22 2623 -34 
Q 2366 -91 2075 -91 
Q 1284 -91 818 406 
Q 353 903 353 1747 
Q 353 2603 823 3093 
Q 1294 3584 2113 3584 
Q 2378 3584 2631 3529 
Q 2884 3475 3122 3366 
z
" transform="scale(0.015625)"/>
     <path id="DejaVuSans-65" d="M 3597 1894 
L 3597 1613 
L 953 1613 
Q 991 1019 1311 708 
Q 1631 397 2203 397 
Q 2534 397 2845 478 
Q 3156 559 3463 722 
L 3463 178 
Q 3153 47 2828 -22 
Q 2503 -91 2169 -91 
Q 1331 -91 842 396 
Q 353 884 353 1716 
Q 353 2575 817 3079 
Q 1281 3584 2069 3584 
Q 2775 3584 3186 3129 
Q 3597 2675 3597 1894 
z
M 3022 2063 
Q 3016 2534 2758 2815 
Q 2500 3097 2075 3097 
Q 1594 3097 1305 2825 
Q 1016 2553 972 2059 
L 3022 2063 
z
" transform="scale(0.015625)"/>
     <path id="DejaVuSans-6c" d="M 603 4863 
L 1178 4863 
L 1178 0 
L 603 0 
L 603 4863 
z
" transform="scale(0.015625)"/>
     <path id="DejaVuSans-6b" d="M 581 4863 
L 1159 4863 
L 1159 1991 
L 2875 3500 
L 3609 3500 
L 1753 1863 
L 3688 0 
L 2938 0 
L 1159 1709 
L 1159 0 
L 581 0 
L 581 4863 
z
" transform="scale(0.015625)"/>
     <path id="DejaVuSans-74" d="M 1172 4494 
L 1172 3500 
L 2356 3500 
L 2356 3053 
L 1172 3053 
L 1172 1153 
Q 1172 725 1289 603 
Q 1406 481 1766 481 
L 2356 481 
L 2356 0 
L 1766 0 
Q 1100 0 847 248 
Q 594 497 594 1153 
L 594 3053 
L 172 3053 
L 172 3500 
L 594 3500 
L 594 4494 
L 1172 4494 
z
" transform="scale(0.015625)"/>
     <path id="DejaVuSans-64" d="M 2906 2969 
L 2906 4863 
L 3481 4863 
L 3481 0 
L 2906 0 
L 2906 525 
Q 2725 213 2448 61 
Q 2172 -91 1784 -91 
Q 1150 -91 751 415 
Q 353 922 353 1747 
Q 353 2572 751 3078 
Q 1150 3584 1784 3584 
Q 2172 3584 2448 3432 
Q 2725 3281 2906 2969 
z
M 947 1747 
Q 947 1113 1208 752 
Q 1469 391 1925 391 
Q 2381 391 2643 752 
Q 2906 1113 2906 1747 
Q 2906 2381 2643 2742 
Q 2381 3103 1925 3103 
Q 1469 3103 1208 2742 
Q 947 2381 947 1747 
z
" transform="scale(0.015625)"/>
     <path id="DejaVuSans-2f" d="M 1625 4666 
L 2156 4666 
L 531 -594 
L 0 -594 
L 1625 4666 
z
" transform="scale(0.015625)"/>
     <path id="DejaVuSans-6d" d="M 3328 2828 
Q 3544 3216 3844 3400 
Q 4144 3584 4550 3584 
Q 5097 3584 5394 3201 
Q 5691 2819 5691 2113 
L 5691 0 
L 5113 0 
L 5113 2094 
Q 5113 2597 4934 2840 
Q 4756 3084 4391 3084 
Q 3944 3084 3684 2787 
Q 3425 2491 3425 1978 
L 3425 0 
L 2847 0 
L 2847 2094 
Q 2847 2600 2669 2842 
Q 2491 3084 2119 3084 
Q 1678 3084 1418 2786 
Q 1159 2488 1159 1978 
L 1159 0 
L 581 0 
L 581 3500 
L 1159 3500 
L 1159 2956 
Q 1356 3278 1631 3431 
Q 1906 3584 2284 3584 
Q 2666 3584 2933 3390 
Q 3200 3197 3328 2828 
z
" transform="scale(0.015625)"/>
     <path id="DejaVuSans-66" d="M 2375 4863 
L 2375 4384 
L 1825 4384 
Q 1516 4384 1395 4259 
Q 1275 4134 1275 3809 
L 1275 3500 
L 2222 3500 
L 2222 3053 
L 1275 3053 
L 1275 0 
L 697 0 
L 697 3053 
L 147 3053 
L 147 3500 
L 697 3500 
L 697 3744 
Q 697 4328 969 4595 
Q 1241 4863 1831 4863 
L 2375 4863 
z
" transform="scale(0.015625)"/>
     <path id="DejaVuSans-fc" d="M 544 1381 
L 544 3500 
L 1119 3500 
L 1119 1403 
Q 1119 906 1312 657 
Q 1506 409 1894 409 
Q 2359 409 2629 706 
Q 2900 1003 2900 1516 
L 2900 3500 
L 3475 3500 
L 3475 0 
L 2900 0 
L 2900 538 
Q 2691 219 2414 64 
Q 2138 -91 1772 -91 
Q 1169 -91 856 284 
Q 544 659 544 1381 
z
M 1991 3584 
L 1991 3584 
z
M 2278 4850 
L 2913 4850 
L 2913 4219 
L 2278 4219 
L 2278 4850 
z
M 1056 4850 
L 1691 4850 
L 1691 4219 
L 1056 4219 
L 1056 4850 
z
" transform="scale(0.015625)"/>
     <path id="DejaVuSans-3d" d="M 678 2906 
L 4684 2906 
L 4684 2381 
L 678 2381 
L 678 2906 
z
M 678 1631 
L 4684 1631 
L 4684 1100 
L 678 1100 
L 678 1631 
z
" transform="scale(0.015625)"/>
     <path id="DejaVuSans-2c" d="M 750 794 
L 1409 794 
L 1409 256 
L 897 -744 
L 494 -744 
L 750 256 
L 750 794 
z
" transform="scale(0.015625)"/>
     <path id="DejaVuSans-33" d="M 2597 2516 
Q 3050 2419 3304 2112 
Q 3559 1806 3559 1356 
Q 3559 666 3084 287 
Q 2609 -91 1734 -91 
Q 1441 -91 1130 -33 
Q 819 25 488 141 
L 488 750 
Q 750 597 1062 519 
Q 1375 441 1716 441 
Q 2309 441 2620 675 
Q 2931 909 2931 1356 
Q 2931 1769 2642 2001 
Q 2353 2234 1838 2234 
L 1294 2234 
L 1294 2753 
L 1863 2753 
Q 2328 2753 2575 2939 
Q 2822 3125 2822 3475 
Q 2822 3834 2567 4026 
Q 2313 4219 1838 4219 
Q 1578 4219 1281 4162 
Q 984 4106 628 3988 
L 628 4550 
Q 988 4650 1302 4700 
Q 1616 4750 1894 4750 
Q 2613 4750 3031 4423 
Q 3450 4097 3450 3541 
Q 3450 3153 3228 2886 
Q 3006 2619 2597 2516 
z
" transform="scale(0.015625)"/>
    </defs>
    <use xlink:href="#DejaVuSans-57" transform="translate(0 0.015625)"/>
    <use xlink:href="#DejaVuSans-61" transform="translate(98.876953 0.015625)"/>
    <use xlink:href="#DejaVuSans-68" transform="translate(160.15625 0.015625)"/>
    <use xlink:href="#DejaVuSans-72" transform="translate(223.535156 0.015625)"/>
    <use xlink:href="#DejaVuSans-73" transform="translate(264.648438 0.015625)"/>
    <use xlink:href="#DejaVuSans-63" transform="translate(316.748047 0.015625)"/>
    <use xlink:href="#DejaVuSans-68" transform="translate(371.728516 0.015625)"/>
    <use xlink:href="#DejaVuSans-65" transform="translate(435.107422 0.015625)"/>
    <use xlink:href="#DejaVuSans-69" transform="translate(496.630859 0.015625)"/>
    <use xlink:href="#DejaVuSans-6e" transform="translate(524.414062 0.015625)"/>
    <use xlink:href="#DejaVuSans-6c" transform="translate(587.792969 0.015625)"/>
    <use xlink:href="#DejaVuSans-69" transform="translate(615.576172 0.015625)"/>
    <use xlink:href="#DejaVuSans-63" transform="translate(643.359375 0.015625)"/>
    <use xlink:href="#DejaVuSans-68" transform="translate(698.339844 0.015625)"/>
    <use xlink:href="#DejaVuSans-6b" transform="translate(761.71875 0.015625)"/>
    <use xlink:href="#DejaVuSans-65" transform="translate(819.628906 0.015625)"/>
    <use xlink:href="#DejaVuSans-69" transform="translate(881.152344 0.015625)"/>
    <use xlink:href="#DejaVuSans-74" transform="translate(908.935547 0.015625)"/>
    <use xlink:href="#DejaVuSans-73" transform="translate(948.144531 0.015625)"/>
    <use xlink:href="#DejaVuSans-64" transform="translate(1000.244141 0.015625)"/>
    <use xlink:href="#DejaVuSans-69" transform="translate(1063.720703 0.015625)"/>
    <use xlink:href="#DejaVuSans-63" transform="translate(1091.503906 0.015625)"/>
    <use xlink:href="#DejaVuSans-68" transform="translate(1146.484375 0.015625)"/>
    <use xlink:href="#DejaVuSans-74" transform="translate(1209.863281 0.015625)"/>
    <use xlink:href="#DejaVuSans-65" transform="translate(1249.072266 0.015625)"/>
    <use xlink:href="#DejaVuSans-20" transform="translate(1310.595703 0.015625)"/>
    <use xlink:href="#DejaVuSans-69" transform="translate(1342.382812 0.015625)"/>
    <use xlink:href="#DejaVuSans-6e" transform="translate(1370.166016 0.015625)"/>
    <use xlink:href="#DejaVuSans-20" transform="translate(1433.544922 0.015625)"/>
    <use xlink:href="#DejaVuSans-5b" transform="translate(1465.332031 0.015625)"/>
    <use xlink:href="#DejaVuSans-31" transform="translate(1504.345703 0.015625)"/>
    <use xlink:href="#DejaVuSans-2f" transform="translate(1567.96875 0.015625)"/>
    <use xlink:href="#DejaVuSans-63" transform="translate(1601.660156 0.015625)"/>
    <use xlink:href="#DejaVuSans-6d" transform="translate(1656.640625 0.015625)"/>
    <use xlink:href="#DejaVuSans-5d" transform="translate(1754.052734 0.015625)"/>
    <use xlink:href="#DejaVuSans-20" transform="translate(1793.066406 0.015625)"/>
    <use xlink:href="#DejaVuSans-66" transform="translate(1824.853516 0.015625)"/>
    <use xlink:href="#DejaVuSans-fc" transform="translate(1860.058594 0.015625)"/>
    <use xlink:href="#DejaVuSans-72" transform="translate(1923.4375 0.015625)"/>
    <use xlink:href="#DejaVuSans-20" transform="translate(1964.550781 0.015625)"/>
    <use xlink:href="#DejaVuSans-6e" transform="translate(1996.337891 0.015625)"/>
    <use xlink:href="#DejaVuSans-3d" transform="translate(2059.716797 0.015625)"/>
    <use xlink:href="#DejaVuSans-31" transform="translate(2143.505859 0.015625)"/>
    <use xlink:href="#DejaVuSans-2c" transform="translate(2207.128906 0.015625)"/>
    <use xlink:href="#DejaVuSans-32" transform="translate(2238.916016 0.015625)"/>
    <use xlink:href="#DejaVuSans-2c" transform="translate(2302.539062 0.015625)"/>
    <use xlink:href="#DejaVuSans-33" transform="translate(2334.326172 0.015625)"/>
   </g>
  </g>
 </g>
 <defs>
  <clipPath id="p6d1259c93f">
   <rect x="57.6" y="41.472" width="357.12" height="78.268235"/>
  </clipPath>
  <clipPath id="p7e9bd8b65a">
   <rect x="57.6" y="135.393882" width="357.12" height="78.268235"/>
  </clipPath>
  <clipPath id="p3c8d7bc392">
   <rect x="57.6" y="229.315765" width="357.12" height="78.268235"/>
  </clipPath>
 </defs>
</svg>
