<?xml version="1.0" encoding="utf-8" standalone="no"?>
<!DOCTYPE svg PUBLIC "-//W3C//DTD SVG 1.1//EN"
  "http://www.w3.org/Graphics/SVG/1.1/DTD/svg11.dtd">
<svg xmlns:xlink="http://www.w3.org/1999/xlink" width="576pt" height="432pt" viewBox="0 0 576 432" xmlns="http://www.w3.org/2000/svg" version="1.1">
 <metadata>
  <rdf:RDF xmlns:dc="http://purl.org/dc/elements/1.1/" xmlns:cc="http://creativecommons.org/ns#" xmlns:rdf="http://www.w3.org/1999/02/22-rdf-syntax-ns#">
   <cc:Work>
    <dc:type rdf:resource="http://purl.org/dc/dcmitype/StillImage"/>
    <dc:date>2024-10-29T21:47:25.246613</dc:date>
    <dc:format>image/svg+xml</dc:format>
    <dc:creator>
     <cc:Agent>
      <dc:title>Matplotlib v3.8.4, https://matplotlib.org/</dc:title>
     </cc:Agent>
    </dc:creator>
   </cc:Work>
  </rdf:RDF>
 </metadata>
 <defs>
  <style type="text/css">*{stroke-linejoin: round; stroke-linecap: butt}</style>
 </defs>
 <g id="figure_1">
  <g id="patch_1">
   <path d="M 0 432 
L 576 432 
L 576 0 
L 0 0 
z
" style="fill: #ffffff"/>
  </g>
  <g id="axes_1">
   <g id="patch_2">
    <path d="M 58.7 375.496 
L 517.3 375.496 
L 517.3 10.8 
L 58.7 10.8 
z
" style="fill: #ffffff"/>
   </g>
   <g id="matplotlib.axis_1">
    <g id="xtick_1">
     <g id="line2d_1">
      <path d="M 79.545455 375.496 
L 79.545455 10.8 
" clip-path="url(#pe0d99f9a79)" style="fill: none; stroke: #a6a6a6; stroke-width: 0.8; stroke-linecap: square"/>
     </g>
     <g id="line2d_2">
      <defs>
       <path id="mcc874703c7" d="M 0 0 
L 0 3.5 
" style="stroke: #000000; stroke-width: 0.8"/>
      </defs>
      <g>
       <use xlink:href="#mcc874703c7" x="79.545455" y="375.496" style="stroke: #000000; stroke-width: 0.8"/>
      </g>
     </g>
     <g id="text_1">
      <!-- $\mathdefault{10^{-1}}$ -->
      <g transform="translate(60.745455 394.6535) scale(0.16 -0.16)">
       <defs>
        <path id="DejaVuSans-31" d="M 794 531 
L 1825 531 
L 1825 4091 
L 703 3866 
L 703 4441 
L 1819 4666 
L 2450 4666 
L 2450 531 
L 3481 531 
L 3481 0 
L 794 0 
L 794 531 
z
" transform="scale(0.015625)"/>
        <path id="DejaVuSans-30" d="M 2034 4250 
Q 1547 4250 1301 3770 
Q 1056 3291 1056 2328 
Q 1056 1369 1301 889 
Q 1547 409 2034 409 
Q 2525 409 2770 889 
Q 3016 1369 3016 2328 
Q 3016 3291 2770 3770 
Q 2525 4250 2034 4250 
z
M 2034 4750 
Q 2819 4750 3233 4129 
Q 3647 3509 3647 2328 
Q 3647 1150 3233 529 
Q 2819 -91 2034 -91 
Q 1250 -91 836 529 
Q 422 1150 422 2328 
Q 422 3509 836 4129 
Q 1250 4750 2034 4750 
z
" transform="scale(0.015625)"/>
        <path id="DejaVuSans-2212" d="M 678 2272 
L 4684 2272 
L 4684 1741 
L 678 1741 
L 678 2272 
z
" transform="scale(0.015625)"/>
       </defs>
       <use xlink:href="#DejaVuSans-31" transform="translate(0 0.684375)"/>
       <use xlink:href="#DejaVuSans-30" transform="translate(63.623047 0.684375)"/>
       <use xlink:href="#DejaVuSans-2212" transform="translate(128.203125 38.965625) scale(0.7)"/>
       <use xlink:href="#DejaVuSans-31" transform="translate(186.855469 38.965625) scale(0.7)"/>
      </g>
     </g>
    </g>
    <g id="xtick_2">
     <g id="line2d_3">
      <path d="M 218.515152 375.496 
L 218.515152 10.8 
" clip-path="url(#pe0d99f9a79)" style="fill: none; stroke: #a6a6a6; stroke-width: 0.8; stroke-linecap: square"/>
     </g>
     <g id="line2d_4">
      <g>
       <use xlink:href="#mcc874703c7" x="218.515152" y="375.496" style="stroke: #000000; stroke-width: 0.8"/>
      </g>
     </g>
     <g id="text_2">
      <!-- $\mathdefault{10^{0}}$ -->
      <g transform="translate(204.435152 394.6535) scale(0.16 -0.16)">
       <use xlink:href="#DejaVuSans-31" transform="translate(0 0.765625)"/>
       <use xlink:href="#DejaVuSans-30" transform="translate(63.623047 0.765625)"/>
       <use xlink:href="#DejaVuSans-30" transform="translate(128.203125 39.046875) scale(0.7)"/>
      </g>
     </g>
    </g>
    <g id="xtick_3">
     <g id="line2d_5">
      <path d="M 357.484848 375.496 
L 357.484848 10.8 
" clip-path="url(#pe0d99f9a79)" style="fill: none; stroke: #a6a6a6; stroke-width: 0.8; stroke-linecap: square"/>
     </g>
     <g id="line2d_6">
      <g>
       <use xlink:href="#mcc874703c7" x="357.484848" y="375.496" style="stroke: #000000; stroke-width: 0.8"/>
      </g>
     </g>
     <g id="text_3">
      <!-- $\mathdefault{10^{1}}$ -->
      <g transform="translate(343.404848 394.6535) scale(0.16 -0.16)">
       <use xlink:href="#DejaVuSans-31" transform="translate(0 0.684375)"/>
       <use xlink:href="#DejaVuSans-30" transform="translate(63.623047 0.684375)"/>
       <use xlink:href="#DejaVuSans-31" transform="translate(128.203125 38.965625) scale(0.7)"/>
      </g>
     </g>
    </g>
    <g id="xtick_4">
     <g id="line2d_7">
      <path d="M 496.454545 375.496 
L 496.454545 10.8 
" clip-path="url(#pe0d99f9a79)" style="fill: none; stroke: #a6a6a6; stroke-width: 0.8; stroke-linecap: square"/>
     </g>
     <g id="line2d_8">
      <g>
       <use xlink:href="#mcc874703c7" x="496.454545" y="375.496" style="stroke: #000000; stroke-width: 0.8"/>
      </g>
     </g>
     <g id="text_4">
      <!-- $\mathdefault{10^{2}}$ -->
      <g transform="translate(482.374545 394.6535) scale(0.16 -0.16)">
       <defs>
        <path id="DejaVuSans-32" d="M 1228 531 
L 3431 531 
L 3431 0 
L 469 0 
L 469 531 
Q 828 903 1448 1529 
Q 2069 2156 2228 2338 
Q 2531 2678 2651 2914 
Q 2772 3150 2772 3378 
Q 2772 3750 2511 3984 
Q 2250 4219 1831 4219 
Q 1534 4219 1204 4116 
Q 875 4013 500 3803 
L 500 4441 
Q 881 4594 1212 4672 
Q 1544 4750 1819 4750 
Q 2544 4750 2975 4387 
Q 3406 4025 3406 3419 
Q 3406 3131 3298 2873 
Q 3191 2616 2906 2266 
Q 2828 2175 2409 1742 
Q 1991 1309 1228 531 
z
" transform="scale(0.015625)"/>
       </defs>
       <use xlink:href="#DejaVuSans-31" transform="translate(0 0.765625)"/>
       <use xlink:href="#DejaVuSans-30" transform="translate(63.623047 0.765625)"/>
       <use xlink:href="#DejaVuSans-32" transform="translate(128.203125 39.046875) scale(0.7)"/>
      </g>
     </g>
    </g>
    <g id="xtick_5">
     <g id="line2d_9">
      <path d="M 66.077899 375.496 
L 66.077899 10.8 
" clip-path="url(#pe0d99f9a79)" style="fill: none; stroke: #a6a6a6; stroke-width: 0.8; stroke-linecap: square"/>
     </g>
     <g id="line2d_10">
      <defs>
       <path id="m05648418e4" d="M 0 0 
L 0 2 
" style="stroke: #000000; stroke-width: 0.6"/>
      </defs>
      <g>
       <use xlink:href="#m05648418e4" x="66.077899" y="375.496" style="stroke: #000000; stroke-width: 0.6"/>
      </g>
     </g>
    </g>
    <g id="xtick_6">
     <g id="line2d_11">
      <path d="M 73.18655 375.496 
L 73.18655 10.8 
" clip-path="url(#pe0d99f9a79)" style="fill: none; stroke: #a6a6a6; stroke-width: 0.8; stroke-linecap: square"/>
     </g>
     <g id="line2d_12">
      <g>
       <use xlink:href="#m05648418e4" x="73.18655" y="375.496" style="stroke: #000000; stroke-width: 0.6"/>
      </g>
     </g>
    </g>
    <g id="xtick_7">
     <g id="line2d_13">
      <path d="M 121.379502 375.496 
L 121.379502 10.8 
" clip-path="url(#pe0d99f9a79)" style="fill: none; stroke: #a6a6a6; stroke-width: 0.8; stroke-linecap: square"/>
     </g>
     <g id="line2d_14">
      <g>
       <use xlink:href="#m05648418e4" x="121.379502" y="375.496" style="stroke: #000000; stroke-width: 0.6"/>
      </g>
     </g>
    </g>
    <g id="xtick_8">
     <g id="line2d_15">
      <path d="M 145.850851 375.496 
L 145.850851 10.8 
" clip-path="url(#pe0d99f9a79)" style="fill: none; stroke: #a6a6a6; stroke-width: 0.8; stroke-linecap: square"/>
     </g>
     <g id="line2d_16">
      <g>
       <use xlink:href="#m05648418e4" x="145.850851" y="375.496" style="stroke: #000000; stroke-width: 0.6"/>
      </g>
     </g>
    </g>
    <g id="xtick_9">
     <g id="line2d_17">
      <path d="M 163.213549 375.496 
L 163.213549 10.8 
" clip-path="url(#pe0d99f9a79)" style="fill: none; stroke: #a6a6a6; stroke-width: 0.8; stroke-linecap: square"/>
     </g>
     <g id="line2d_18">
      <g>
       <use xlink:href="#m05648418e4" x="163.213549" y="375.496" style="stroke: #000000; stroke-width: 0.6"/>
      </g>
     </g>
    </g>
    <g id="xtick_10">
     <g id="line2d_19">
      <path d="M 176.681104 375.496 
L 176.681104 10.8 
" clip-path="url(#pe0d99f9a79)" style="fill: none; stroke: #a6a6a6; stroke-width: 0.8; stroke-linecap: square"/>
     </g>
     <g id="line2d_20">
      <g>
       <use xlink:href="#m05648418e4" x="176.681104" y="375.496" style="stroke: #000000; stroke-width: 0.6"/>
      </g>
     </g>
    </g>
    <g id="xtick_11">
     <g id="line2d_21">
      <path d="M 187.684898 375.496 
L 187.684898 10.8 
" clip-path="url(#pe0d99f9a79)" style="fill: none; stroke: #a6a6a6; stroke-width: 0.8; stroke-linecap: square"/>
     </g>
     <g id="line2d_22">
      <g>
       <use xlink:href="#m05648418e4" x="187.684898" y="375.496" style="stroke: #000000; stroke-width: 0.6"/>
      </g>
     </g>
    </g>
    <g id="xtick_12">
     <g id="line2d_23">
      <path d="M 196.988473 375.496 
L 196.988473 10.8 
" clip-path="url(#pe0d99f9a79)" style="fill: none; stroke: #a6a6a6; stroke-width: 0.8; stroke-linecap: square"/>
     </g>
     <g id="line2d_24">
      <g>
       <use xlink:href="#m05648418e4" x="196.988473" y="375.496" style="stroke: #000000; stroke-width: 0.6"/>
      </g>
     </g>
    </g>
    <g id="xtick_13">
     <g id="line2d_25">
      <path d="M 205.047596 375.496 
L 205.047596 10.8 
" clip-path="url(#pe0d99f9a79)" style="fill: none; stroke: #a6a6a6; stroke-width: 0.8; stroke-linecap: square"/>
     </g>
     <g id="line2d_26">
      <g>
       <use xlink:href="#m05648418e4" x="205.047596" y="375.496" style="stroke: #000000; stroke-width: 0.6"/>
      </g>
     </g>
    </g>
    <g id="xtick_14">
     <g id="line2d_27">
      <path d="M 212.156247 375.496 
L 212.156247 10.8 
" clip-path="url(#pe0d99f9a79)" style="fill: none; stroke: #a6a6a6; stroke-width: 0.8; stroke-linecap: square"/>
     </g>
     <g id="line2d_28">
      <g>
       <use xlink:href="#m05648418e4" x="212.156247" y="375.496" style="stroke: #000000; stroke-width: 0.6"/>
      </g>
     </g>
    </g>
    <g id="xtick_15">
     <g id="line2d_29">
      <path d="M 260.349199 375.496 
L 260.349199 10.8 
" clip-path="url(#pe0d99f9a79)" style="fill: none; stroke: #a6a6a6; stroke-width: 0.8; stroke-linecap: square"/>
     </g>
     <g id="line2d_30">
      <g>
       <use xlink:href="#m05648418e4" x="260.349199" y="375.496" style="stroke: #000000; stroke-width: 0.6"/>
      </g>
     </g>
    </g>
    <g id="xtick_16">
     <g id="line2d_31">
      <path d="M 284.820548 375.496 
L 284.820548 10.8 
" clip-path="url(#pe0d99f9a79)" style="fill: none; stroke: #a6a6a6; stroke-width: 0.8; stroke-linecap: square"/>
     </g>
     <g id="line2d_32">
      <g>
       <use xlink:href="#m05648418e4" x="284.820548" y="375.496" style="stroke: #000000; stroke-width: 0.6"/>
      </g>
     </g>
    </g>
    <g id="xtick_17">
     <g id="line2d_33">
      <path d="M 302.183246 375.496 
L 302.183246 10.8 
" clip-path="url(#pe0d99f9a79)" style="fill: none; stroke: #a6a6a6; stroke-width: 0.8; stroke-linecap: square"/>
     </g>
     <g id="line2d_34">
      <g>
       <use xlink:href="#m05648418e4" x="302.183246" y="375.496" style="stroke: #000000; stroke-width: 0.6"/>
      </g>
     </g>
    </g>
    <g id="xtick_18">
     <g id="line2d_35">
      <path d="M 315.650801 375.496 
L 315.650801 10.8 
" clip-path="url(#pe0d99f9a79)" style="fill: none; stroke: #a6a6a6; stroke-width: 0.8; stroke-linecap: square"/>
     </g>
     <g id="line2d_36">
      <g>
       <use xlink:href="#m05648418e4" x="315.650801" y="375.496" style="stroke: #000000; stroke-width: 0.6"/>
      </g>
     </g>
    </g>
    <g id="xtick_19">
     <g id="line2d_37">
      <path d="M 326.654595 375.496 
L 326.654595 10.8 
" clip-path="url(#pe0d99f9a79)" style="fill: none; stroke: #a6a6a6; stroke-width: 0.8; stroke-linecap: square"/>
     </g>
     <g id="line2d_38">
      <g>
       <use xlink:href="#m05648418e4" x="326.654595" y="375.496" style="stroke: #000000; stroke-width: 0.6"/>
      </g>
     </g>
    </g>
    <g id="xtick_20">
     <g id="line2d_39">
      <path d="M 335.95817 375.496 
L 335.95817 10.8 
" clip-path="url(#pe0d99f9a79)" style="fill: none; stroke: #a6a6a6; stroke-width: 0.8; stroke-linecap: square"/>
     </g>
     <g id="line2d_40">
      <g>
       <use xlink:href="#m05648418e4" x="335.95817" y="375.496" style="stroke: #000000; stroke-width: 0.6"/>
      </g>
     </g>
    </g>
    <g id="xtick_21">
     <g id="line2d_41">
      <path d="M 344.017293 375.496 
L 344.017293 10.8 
" clip-path="url(#pe0d99f9a79)" style="fill: none; stroke: #a6a6a6; stroke-width: 0.8; stroke-linecap: square"/>
     </g>
     <g id="line2d_42">
      <g>
       <use xlink:href="#m05648418e4" x="344.017293" y="375.496" style="stroke: #000000; stroke-width: 0.6"/>
      </g>
     </g>
    </g>
    <g id="xtick_22">
     <g id="line2d_43">
      <path d="M 351.125944 375.496 
L 351.125944 10.8 
" clip-path="url(#pe0d99f9a79)" style="fill: none; stroke: #a6a6a6; stroke-width: 0.8; stroke-linecap: square"/>
     </g>
     <g id="line2d_44">
      <g>
       <use xlink:href="#m05648418e4" x="351.125944" y="375.496" style="stroke: #000000; stroke-width: 0.6"/>
      </g>
     </g>
    </g>
    <g id="xtick_23">
     <g id="line2d_45">
      <path d="M 399.318896 375.496 
L 399.318896 10.8 
" clip-path="url(#pe0d99f9a79)" style="fill: none; stroke: #a6a6a6; stroke-width: 0.8; stroke-linecap: square"/>
     </g>
     <g id="line2d_46">
      <g>
       <use xlink:href="#m05648418e4" x="399.318896" y="375.496" style="stroke: #000000; stroke-width: 0.6"/>
      </g>
     </g>
    </g>
    <g id="xtick_24">
     <g id="line2d_47">
      <path d="M 423.790245 375.496 
L 423.790245 10.8 
" clip-path="url(#pe0d99f9a79)" style="fill: none; stroke: #a6a6a6; stroke-width: 0.8; stroke-linecap: square"/>
     </g>
     <g id="line2d_48">
      <g>
       <use xlink:href="#m05648418e4" x="423.790245" y="375.496" style="stroke: #000000; stroke-width: 0.6"/>
      </g>
     </g>
    </g>
    <g id="xtick_25">
     <g id="line2d_49">
      <path d="M 441.152943 375.496 
L 441.152943 10.8 
" clip-path="url(#pe0d99f9a79)" style="fill: none; stroke: #a6a6a6; stroke-width: 0.8; stroke-linecap: square"/>
     </g>
     <g id="line2d_50">
      <g>
       <use xlink:href="#m05648418e4" x="441.152943" y="375.496" style="stroke: #000000; stroke-width: 0.6"/>
      </g>
     </g>
    </g>
    <g id="xtick_26">
     <g id="line2d_51">
      <path d="M 454.620498 375.496 
L 454.620498 10.8 
" clip-path="url(#pe0d99f9a79)" style="fill: none; stroke: #a6a6a6; stroke-width: 0.8; stroke-linecap: square"/>
     </g>
     <g id="line2d_52">
      <g>
       <use xlink:href="#m05648418e4" x="454.620498" y="375.496" style="stroke: #000000; stroke-width: 0.6"/>
      </g>
     </g>
    </g>
    <g id="xtick_27">
     <g id="line2d_53">
      <path d="M 465.624292 375.496 
L 465.624292 10.8 
" clip-path="url(#pe0d99f9a79)" style="fill: none; stroke: #a6a6a6; stroke-width: 0.8; stroke-linecap: square"/>
     </g>
     <g id="line2d_54">
      <g>
       <use xlink:href="#m05648418e4" x="465.624292" y="375.496" style="stroke: #000000; stroke-width: 0.6"/>
      </g>
     </g>
    </g>
    <g id="xtick_28">
     <g id="line2d_55">
      <path d="M 474.927867 375.496 
L 474.927867 10.8 
" clip-path="url(#pe0d99f9a79)" style="fill: none; stroke: #a6a6a6; stroke-width: 0.8; stroke-linecap: square"/>
     </g>
     <g id="line2d_56">
      <g>
       <use xlink:href="#m05648418e4" x="474.927867" y="375.496" style="stroke: #000000; stroke-width: 0.6"/>
      </g>
     </g>
    </g>
    <g id="xtick_29">
     <g id="line2d_57">
      <path d="M 482.98699 375.496 
L 482.98699 10.8 
" clip-path="url(#pe0d99f9a79)" style="fill: none; stroke: #a6a6a6; stroke-width: 0.8; stroke-linecap: square"/>
     </g>
     <g id="line2d_58">
      <g>
       <use xlink:href="#m05648418e4" x="482.98699" y="375.496" style="stroke: #000000; stroke-width: 0.6"/>
      </g>
     </g>
    </g>
    <g id="xtick_30">
     <g id="line2d_59">
      <path d="M 490.095641 375.496 
L 490.095641 10.8 
" clip-path="url(#pe0d99f9a79)" style="fill: none; stroke: #a6a6a6; stroke-width: 0.8; stroke-linecap: square"/>
     </g>
     <g id="line2d_60">
      <g>
       <use xlink:href="#m05648418e4" x="490.095641" y="375.496" style="stroke: #000000; stroke-width: 0.6"/>
      </g>
     </g>
    </g>
    <g id="text_5">
     <!-- Momentum p [GeV] -->
     <g transform="translate(209.41875 414.1385) scale(0.16 -0.16)">
      <defs>
       <path id="DejaVuSans-4d" d="M 628 4666 
L 1569 4666 
L 2759 1491 
L 3956 4666 
L 4897 4666 
L 4897 0 
L 4281 0 
L 4281 4097 
L 3078 897 
L 2444 897 
L 1241 4097 
L 1241 0 
L 628 0 
L 628 4666 
z
" transform="scale(0.015625)"/>
       <path id="DejaVuSans-6f" d="M 1959 3097 
Q 1497 3097 1228 2736 
Q 959 2375 959 1747 
Q 959 1119 1226 758 
Q 1494 397 1959 397 
Q 2419 397 2687 759 
Q 2956 1122 2956 1747 
Q 2956 2369 2687 2733 
Q 2419 3097 1959 3097 
z
M 1959 3584 
Q 2709 3584 3137 3096 
Q 3566 2609 3566 1747 
Q 3566 888 3137 398 
Q 2709 -91 1959 -91 
Q 1206 -91 779 398 
Q 353 888 353 1747 
Q 353 2609 779 3096 
Q 1206 3584 1959 3584 
z
" transform="scale(0.015625)"/>
       <path id="DejaVuSans-6d" d="M 3328 2828 
Q 3544 3216 3844 3400 
Q 4144 3584 4550 3584 
Q 5097 3584 5394 3201 
Q 5691 2819 5691 2113 
L 5691 0 
L 5113 0 
L 5113 2094 
Q 5113 2597 4934 2840 
Q 4756 3084 4391 3084 
Q 3944 3084 3684 2787 
Q 3425 2491 3425 1978 
L 3425 0 
L 2847 0 
L 2847 2094 
Q 2847 2600 2669 2842 
Q 2491 3084 2119 3084 
Q 1678 3084 1418 2786 
Q 1159 2488 1159 1978 
L 1159 0 
L 581 0 
L 581 3500 
L 1159 3500 
L 1159 2956 
Q 1356 3278 1631 3431 
Q 1906 3584 2284 3584 
Q 2666 3584 2933 3390 
Q 3200 3197 3328 2828 
z
" transform="scale(0.015625)"/>
       <path id="DejaVuSans-65" d="M 3597 1894 
L 3597 1613 
L 953 1613 
Q 991 1019 1311 708 
Q 1631 397 2203 397 
Q 2534 397 2845 478 
Q 3156 559 3463 722 
L 3463 178 
Q 3153 47 2828 -22 
Q 2503 -91 2169 -91 
Q 1331 -91 842 396 
Q 353 884 353 1716 
Q 353 2575 817 3079 
Q 1281 3584 2069 3584 
Q 2775 3584 3186 3129 
Q 3597 2675 3597 1894 
z
M 3022 2063 
Q 3016 2534 2758 2815 
Q 2500 3097 2075 3097 
Q 1594 3097 1305 2825 
Q 1016 2553 972 2059 
L 3022 2063 
z
" transform="scale(0.015625)"/>
       <path id="DejaVuSans-6e" d="M 3513 2113 
L 3513 0 
L 2938 0 
L 2938 2094 
Q 2938 2591 2744 2837 
Q 2550 3084 2163 3084 
Q 1697 3084 1428 2787 
Q 1159 2491 1159 1978 
L 1159 0 
L 581 0 
L 581 3500 
L 1159 3500 
L 1159 2956 
Q 1366 3272 1645 3428 
Q 1925 3584 2291 3584 
Q 2894 3584 3203 3211 
Q 3513 2838 3513 2113 
z
" transform="scale(0.015625)"/>
       <path id="DejaVuSans-74" d="M 1172 4494 
L 1172 3500 
L 2356 3500 
L 2356 3053 
L 1172 3053 
L 1172 1153 
Q 1172 725 1289 603 
Q 1406 481 1766 481 
L 2356 481 
L 2356 0 
L 1766 0 
Q 1100 0 847 248 
Q 594 497 594 1153 
L 594 3053 
L 172 3053 
L 172 3500 
L 594 3500 
L 594 4494 
L 1172 4494 
z
" transform="scale(0.015625)"/>
       <path id="DejaVuSans-75" d="M 544 1381 
L 544 3500 
L 1119 3500 
L 1119 1403 
Q 1119 906 1312 657 
Q 1506 409 1894 409 
Q 2359 409 2629 706 
Q 2900 1003 2900 1516 
L 2900 3500 
L 3475 3500 
L 3475 0 
L 2900 0 
L 2900 538 
Q 2691 219 2414 64 
Q 2138 -91 1772 -91 
Q 1169 -91 856 284 
Q 544 659 544 1381 
z
M 1991 3584 
L 1991 3584 
z
" transform="scale(0.015625)"/>
       <path id="DejaVuSans-20" transform="scale(0.015625)"/>
       <path id="DejaVuSans-70" d="M 1159 525 
L 1159 -1331 
L 581 -1331 
L 581 3500 
L 1159 3500 
L 1159 2969 
Q 1341 3281 1617 3432 
Q 1894 3584 2278 3584 
Q 2916 3584 3314 3078 
Q 3713 2572 3713 1747 
Q 3713 922 3314 415 
Q 2916 -91 2278 -91 
Q 1894 -91 1617 61 
Q 1341 213 1159 525 
z
M 3116 1747 
Q 3116 2381 2855 2742 
Q 2594 3103 2138 3103 
Q 1681 3103 1420 2742 
Q 1159 2381 1159 1747 
Q 1159 1113 1420 752 
Q 1681 391 2138 391 
Q 2594 391 2855 752 
Q 3116 1113 3116 1747 
z
" transform="scale(0.015625)"/>
       <path id="DejaVuSans-5b" d="M 550 4863 
L 1875 4863 
L 1875 4416 
L 1125 4416 
L 1125 -397 
L 1875 -397 
L 1875 -844 
L 550 -844 
L 550 4863 
z
" transform="scale(0.015625)"/>
       <path id="DejaVuSans-47" d="M 3809 666 
L 3809 1919 
L 2778 1919 
L 2778 2438 
L 4434 2438 
L 4434 434 
Q 4069 175 3628 42 
Q 3188 -91 2688 -91 
Q 1594 -91 976 548 
Q 359 1188 359 2328 
Q 359 3472 976 4111 
Q 1594 4750 2688 4750 
Q 3144 4750 3555 4637 
Q 3966 4525 4313 4306 
L 4313 3634 
Q 3963 3931 3569 4081 
Q 3175 4231 2741 4231 
Q 1884 4231 1454 3753 
Q 1025 3275 1025 2328 
Q 1025 1384 1454 906 
Q 1884 428 2741 428 
Q 3075 428 3337 486 
Q 3600 544 3809 666 
z
" transform="scale(0.015625)"/>
       <path id="DejaVuSans-56" d="M 1831 0 
L 50 4666 
L 709 4666 
L 2188 738 
L 3669 4666 
L 4325 4666 
L 2547 0 
L 1831 0 
z
" transform="scale(0.015625)"/>
       <path id="DejaVuSans-5d" d="M 1947 4863 
L 1947 -844 
L 622 -844 
L 622 -397 
L 1369 -397 
L 1369 4416 
L 622 4416 
L 622 4863 
L 1947 4863 
z
" transform="scale(0.015625)"/>
      </defs>
      <use xlink:href="#DejaVuSans-4d"/>
      <use xlink:href="#DejaVuSans-6f" x="86.279297"/>
      <use xlink:href="#DejaVuSans-6d" x="147.460938"/>
      <use xlink:href="#DejaVuSans-65" x="244.873047"/>
      <use xlink:href="#DejaVuSans-6e" x="306.396484"/>
      <use xlink:href="#DejaVuSans-74" x="369.775391"/>
      <use xlink:href="#DejaVuSans-75" x="408.984375"/>
      <use xlink:href="#DejaVuSans-6d" x="472.363281"/>
      <use xlink:href="#DejaVuSans-20" x="569.775391"/>
      <use xlink:href="#DejaVuSans-70" x="601.5625"/>
      <use xlink:href="#DejaVuSans-20" x="665.039062"/>
      <use xlink:href="#DejaVuSans-5b" x="696.826172"/>
      <use xlink:href="#DejaVuSans-47" x="735.839844"/>
      <use xlink:href="#DejaVuSans-65" x="813.330078"/>
      <use xlink:href="#DejaVuSans-56" x="874.853516"/>
      <use xlink:href="#DejaVuSans-5d" x="943.261719"/>
     </g>
    </g>
   </g>
   <g id="matplotlib.axis_2">
    <g id="ytick_1">
     <g id="line2d_61">
      <path d="M 58.7 374.034054 
L 517.3 374.034054 
" clip-path="url(#pe0d99f9a79)" style="fill: none; stroke: #a6a6a6; stroke-width: 0.8; stroke-linecap: square"/>
     </g>
     <g id="line2d_62">
      <defs>
       <path id="mec27af8742" d="M 0 0 
L -3.5 0 
" style="stroke: #000000; stroke-width: 0.8"/>
      </defs>
      <g>
       <use xlink:href="#mec27af8742" x="58.7" y="374.034054" style="stroke: #000000; stroke-width: 0.8"/>
      </g>
     </g>
     <g id="text_6">
      <!-- 10 -->
      <g transform="translate(31.34 380.112804) scale(0.16 -0.16)">
       <use xlink:href="#DejaVuSans-31"/>
       <use xlink:href="#DejaVuSans-30" x="63.623047"/>
      </g>
     </g>
    </g>
    <g id="ytick_2">
     <g id="line2d_63">
      <path d="M 58.7 317.105885 
L 517.3 317.105885 
" clip-path="url(#pe0d99f9a79)" style="fill: none; stroke: #a6a6a6; stroke-width: 0.8; stroke-linecap: square"/>
     </g>
     <g id="line2d_64">
      <g>
       <use xlink:href="#mec27af8742" x="58.7" y="317.105885" style="stroke: #000000; stroke-width: 0.8"/>
      </g>
     </g>
     <g id="text_7">
      <!-- 15 -->
      <g transform="translate(31.34 323.184635) scale(0.16 -0.16)">
       <defs>
        <path id="DejaVuSans-35" d="M 691 4666 
L 3169 4666 
L 3169 4134 
L 1269 4134 
L 1269 2991 
Q 1406 3038 1543 3061 
Q 1681 3084 1819 3084 
Q 2600 3084 3056 2656 
Q 3513 2228 3513 1497 
Q 3513 744 3044 326 
Q 2575 -91 1722 -91 
Q 1428 -91 1123 -41 
Q 819 9 494 109 
L 494 744 
Q 775 591 1075 516 
Q 1375 441 1709 441 
Q 2250 441 2565 725 
Q 2881 1009 2881 1497 
Q 2881 1984 2565 2268 
Q 2250 2553 1709 2553 
Q 1456 2553 1204 2497 
Q 953 2441 691 2322 
L 691 4666 
z
" transform="scale(0.015625)"/>
       </defs>
       <use xlink:href="#DejaVuSans-31"/>
       <use xlink:href="#DejaVuSans-35" x="63.623047"/>
      </g>
     </g>
    </g>
    <g id="ytick_3">
     <g id="line2d_65">
      <path d="M 58.7 260.177716 
L 517.3 260.177716 
" clip-path="url(#pe0d99f9a79)" style="fill: none; stroke: #a6a6a6; stroke-width: 0.8; stroke-linecap: square"/>
     </g>
     <g id="line2d_66">
      <g>
       <use xlink:href="#mec27af8742" x="58.7" y="260.177716" style="stroke: #000000; stroke-width: 0.8"/>
      </g>
     </g>
     <g id="text_8">
      <!-- 20 -->
      <g transform="translate(31.34 266.256466) scale(0.16 -0.16)">
       <use xlink:href="#DejaVuSans-32"/>
       <use xlink:href="#DejaVuSans-30" x="63.623047"/>
      </g>
     </g>
    </g>
    <g id="ytick_4">
     <g id="line2d_67">
      <path d="M 58.7 203.249547 
L 517.3 203.249547 
" clip-path="url(#pe0d99f9a79)" style="fill: none; stroke: #a6a6a6; stroke-width: 0.8; stroke-linecap: square"/>
     </g>
     <g id="line2d_68">
      <g>
       <use xlink:href="#mec27af8742" x="58.7" y="203.249547" style="stroke: #000000; stroke-width: 0.8"/>
      </g>
     </g>
     <g id="text_9">
      <!-- 25 -->
      <g transform="translate(31.34 209.328297) scale(0.16 -0.16)">
       <use xlink:href="#DejaVuSans-32"/>
       <use xlink:href="#DejaVuSans-35" x="63.623047"/>
      </g>
     </g>
    </g>
    <g id="ytick_5">
     <g id="line2d_69">
      <path d="M 58.7 146.321378 
L 517.3 146.321378 
" clip-path="url(#pe0d99f9a79)" style="fill: none; stroke: #a6a6a6; stroke-width: 0.8; stroke-linecap: square"/>
     </g>
     <g id="line2d_70">
      <g>
       <use xlink:href="#mec27af8742" x="58.7" y="146.321378" style="stroke: #000000; stroke-width: 0.8"/>
      </g>
     </g>
     <g id="text_10">
      <!-- 30 -->
      <g transform="translate(31.34 152.400128) scale(0.16 -0.16)">
       <defs>
        <path id="DejaVuSans-33" d="M 2597 2516 
Q 3050 2419 3304 2112 
Q 3559 1806 3559 1356 
Q 3559 666 3084 287 
Q 2609 -91 1734 -91 
Q 1441 -91 1130 -33 
Q 819 25 488 141 
L 488 750 
Q 750 597 1062 519 
Q 1375 441 1716 441 
Q 2309 441 2620 675 
Q 2931 909 2931 1356 
Q 2931 1769 2642 2001 
Q 2353 2234 1838 2234 
L 1294 2234 
L 1294 2753 
L 1863 2753 
Q 2328 2753 2575 2939 
Q 2822 3125 2822 3475 
Q 2822 3834 2567 4026 
Q 2313 4219 1838 4219 
Q 1578 4219 1281 4162 
Q 984 4106 628 3988 
L 628 4550 
Q 988 4650 1302 4700 
Q 1616 4750 1894 4750 
Q 2613 4750 3031 4423 
Q 3450 4097 3450 3541 
Q 3450 3153 3228 2886 
Q 3006 2619 2597 2516 
z
" transform="scale(0.015625)"/>
       </defs>
       <use xlink:href="#DejaVuSans-33"/>
       <use xlink:href="#DejaVuSans-30" x="63.623047"/>
      </g>
     </g>
    </g>
    <g id="ytick_6">
     <g id="line2d_71">
      <path d="M 58.7 89.393209 
L 517.3 89.393209 
" clip-path="url(#pe0d99f9a79)" style="fill: none; stroke: #a6a6a6; stroke-width: 0.8; stroke-linecap: square"/>
     </g>
     <g id="line2d_72">
      <g>
       <use xlink:href="#mec27af8742" x="58.7" y="89.393209" style="stroke: #000000; stroke-width: 0.8"/>
      </g>
     </g>
     <g id="text_11">
      <!-- 35 -->
      <g transform="translate(31.34 95.471959) scale(0.16 -0.16)">
       <use xlink:href="#DejaVuSans-33"/>
       <use xlink:href="#DejaVuSans-35" x="63.623047"/>
      </g>
     </g>
    </g>
    <g id="ytick_7">
     <g id="line2d_73">
      <path d="M 58.7 32.46504 
L 517.3 32.46504 
" clip-path="url(#pe0d99f9a79)" style="fill: none; stroke: #a6a6a6; stroke-width: 0.8; stroke-linecap: square"/>
     </g>
     <g id="line2d_74">
      <g>
       <use xlink:href="#mec27af8742" x="58.7" y="32.46504" style="stroke: #000000; stroke-width: 0.8"/>
      </g>
     </g>
     <g id="text_12">
      <!-- 40 -->
      <g transform="translate(31.34 38.54379) scale(0.16 -0.16)">
       <defs>
        <path id="DejaVuSans-34" d="M 2419 4116 
L 825 1625 
L 2419 1625 
L 2419 4116 
z
M 2253 4666 
L 3047 4666 
L 3047 1625 
L 3713 1625 
L 3713 1100 
L 3047 1100 
L 3047 0 
L 2419 0 
L 2419 1100 
L 313 1100 
L 313 1709 
L 2253 4666 
z
" transform="scale(0.015625)"/>
       </defs>
       <use xlink:href="#DejaVuSans-34"/>
       <use xlink:href="#DejaVuSans-30" x="63.623047"/>
      </g>
     </g>
    </g>
    <g id="text_13">
     <!-- Energy loss in 50 um Si in keV -->
     <g transform="translate(24.0125 314.07425) rotate(-90) scale(0.16 -0.16)">
      <defs>
       <path id="DejaVuSans-45" d="M 628 4666 
L 3578 4666 
L 3578 4134 
L 1259 4134 
L 1259 2753 
L 3481 2753 
L 3481 2222 
L 1259 2222 
L 1259 531 
L 3634 531 
L 3634 0 
L 628 0 
L 628 4666 
z
" transform="scale(0.015625)"/>
       <path id="DejaVuSans-72" d="M 2631 2963 
Q 2534 3019 2420 3045 
Q 2306 3072 2169 3072 
Q 1681 3072 1420 2755 
Q 1159 2438 1159 1844 
L 1159 0 
L 581 0 
L 581 3500 
L 1159 3500 
L 1159 2956 
Q 1341 3275 1631 3429 
Q 1922 3584 2338 3584 
Q 2397 3584 2469 3576 
Q 2541 3569 2628 3553 
L 2631 2963 
z
" transform="scale(0.015625)"/>
       <path id="DejaVuSans-67" d="M 2906 1791 
Q 2906 2416 2648 2759 
Q 2391 3103 1925 3103 
Q 1463 3103 1205 2759 
Q 947 2416 947 1791 
Q 947 1169 1205 825 
Q 1463 481 1925 481 
Q 2391 481 2648 825 
Q 2906 1169 2906 1791 
z
M 3481 434 
Q 3481 -459 3084 -895 
Q 2688 -1331 1869 -1331 
Q 1566 -1331 1297 -1286 
Q 1028 -1241 775 -1147 
L 775 -588 
Q 1028 -725 1275 -790 
Q 1522 -856 1778 -856 
Q 2344 -856 2625 -561 
Q 2906 -266 2906 331 
L 2906 616 
Q 2728 306 2450 153 
Q 2172 0 1784 0 
Q 1141 0 747 490 
Q 353 981 353 1791 
Q 353 2603 747 3093 
Q 1141 3584 1784 3584 
Q 2172 3584 2450 3431 
Q 2728 3278 2906 2969 
L 2906 3500 
L 3481 3500 
L 3481 434 
z
" transform="scale(0.015625)"/>
       <path id="DejaVuSans-79" d="M 2059 -325 
Q 1816 -950 1584 -1140 
Q 1353 -1331 966 -1331 
L 506 -1331 
L 506 -850 
L 844 -850 
Q 1081 -850 1212 -737 
Q 1344 -625 1503 -206 
L 1606 56 
L 191 3500 
L 800 3500 
L 1894 763 
L 2988 3500 
L 3597 3500 
L 2059 -325 
z
" transform="scale(0.015625)"/>
       <path id="DejaVuSans-6c" d="M 603 4863 
L 1178 4863 
L 1178 0 
L 603 0 
L 603 4863 
z
" transform="scale(0.015625)"/>
       <path id="DejaVuSans-73" d="M 2834 3397 
L 2834 2853 
Q 2591 2978 2328 3040 
Q 2066 3103 1784 3103 
Q 1356 3103 1142 2972 
Q 928 2841 928 2578 
Q 928 2378 1081 2264 
Q 1234 2150 1697 2047 
L 1894 2003 
Q 2506 1872 2764 1633 
Q 3022 1394 3022 966 
Q 3022 478 2636 193 
Q 2250 -91 1575 -91 
Q 1294 -91 989 -36 
Q 684 19 347 128 
L 347 722 
Q 666 556 975 473 
Q 1284 391 1588 391 
Q 1994 391 2212 530 
Q 2431 669 2431 922 
Q 2431 1156 2273 1281 
Q 2116 1406 1581 1522 
L 1381 1569 
Q 847 1681 609 1914 
Q 372 2147 372 2553 
Q 372 3047 722 3315 
Q 1072 3584 1716 3584 
Q 2034 3584 2315 3537 
Q 2597 3491 2834 3397 
z
" transform="scale(0.015625)"/>
       <path id="DejaVuSans-69" d="M 603 3500 
L 1178 3500 
L 1178 0 
L 603 0 
L 603 3500 
z
M 603 4863 
L 1178 4863 
L 1178 4134 
L 603 4134 
L 603 4863 
z
" transform="scale(0.015625)"/>
       <path id="DejaVuSans-53" d="M 3425 4513 
L 3425 3897 
Q 3066 4069 2747 4153 
Q 2428 4238 2131 4238 
Q 1616 4238 1336 4038 
Q 1056 3838 1056 3469 
Q 1056 3159 1242 3001 
Q 1428 2844 1947 2747 
L 2328 2669 
Q 3034 2534 3370 2195 
Q 3706 1856 3706 1288 
Q 3706 609 3251 259 
Q 2797 -91 1919 -91 
Q 1588 -91 1214 -16 
Q 841 59 441 206 
L 441 856 
Q 825 641 1194 531 
Q 1563 422 1919 422 
Q 2459 422 2753 634 
Q 3047 847 3047 1241 
Q 3047 1584 2836 1778 
Q 2625 1972 2144 2069 
L 1759 2144 
Q 1053 2284 737 2584 
Q 422 2884 422 3419 
Q 422 4038 858 4394 
Q 1294 4750 2059 4750 
Q 2388 4750 2728 4690 
Q 3069 4631 3425 4513 
z
" transform="scale(0.015625)"/>
       <path id="DejaVuSans-6b" d="M 581 4863 
L 1159 4863 
L 1159 1991 
L 2875 3500 
L 3609 3500 
L 1753 1863 
L 3688 0 
L 2938 0 
L 1159 1709 
L 1159 0 
L 581 0 
L 581 4863 
z
" transform="scale(0.015625)"/>
      </defs>
      <use xlink:href="#DejaVuSans-45"/>
      <use xlink:href="#DejaVuSans-6e" x="63.183594"/>
      <use xlink:href="#DejaVuSans-65" x="126.5625"/>
      <use xlink:href="#DejaVuSans-72" x="188.085938"/>
      <use xlink:href="#DejaVuSans-67" x="227.449219"/>
      <use xlink:href="#DejaVuSans-79" x="290.925781"/>
      <use xlink:href="#DejaVuSans-20" x="350.105469"/>
      <use xlink:href="#DejaVuSans-6c" x="381.892578"/>
      <use xlink:href="#DejaVuSans-6f" x="409.675781"/>
      <use xlink:href="#DejaVuSans-73" x="470.857422"/>
      <use xlink:href="#DejaVuSans-73" x="522.957031"/>
      <use xlink:href="#DejaVuSans-20" x="575.056641"/>
      <use xlink:href="#DejaVuSans-69" x="606.84375"/>
      <use xlink:href="#DejaVuSans-6e" x="634.626953"/>
      <use xlink:href="#DejaVuSans-20" x="698.005859"/>
      <use xlink:href="#DejaVuSans-35" x="729.792969"/>
      <use xlink:href="#DejaVuSans-30" x="793.416016"/>
      <use xlink:href="#DejaVuSans-20" x="857.039062"/>
      <use xlink:href="#DejaVuSans-75" x="888.826172"/>
      <use xlink:href="#DejaVuSans-6d" x="952.205078"/>
      <use xlink:href="#DejaVuSans-20" x="1049.617188"/>
      <use xlink:href="#DejaVuSans-53" x="1081.404297"/>
      <use xlink:href="#DejaVuSans-69" x="1144.880859"/>
      <use xlink:href="#DejaVuSans-20" x="1172.664062"/>
      <use xlink:href="#DejaVuSans-69" x="1204.451172"/>
      <use xlink:href="#DejaVuSans-6e" x="1232.234375"/>
      <use xlink:href="#DejaVuSans-20" x="1295.613281"/>
      <use xlink:href="#DejaVuSans-6b" x="1327.400391"/>
      <use xlink:href="#DejaVuSans-65" x="1381.685547"/>
      <use xlink:href="#DejaVuSans-56" x="1443.208984"/>
     </g>
    </g>
   </g>
   <g id="line2d_75">
    <path d="M 79.545455 27.377091 
L 82.466739 51.247881 
L 85.388024 73.056197 
L 88.309309 92.962683 
L 90.813268 108.624606 
L 93.317226 123.085556 
L 95.821185 136.426811 
L 98.325143 148.724322 
L 100.829102 160.049047 
L 103.33306 170.467261 
L 105.837019 180.040857 
L 108.340977 188.827619 
L 110.844936 196.881488 
L 113.348894 204.252804 
L 115.852853 210.98854 
L 118.356811 217.132519 
L 120.86077 222.725618 
L 123.364728 227.805957 
L 125.868687 232.409082 
L 128.372645 236.568132 
L 130.876604 240.313997 
L 133.380562 243.675467 
L 135.884521 246.679368 
L 138.388479 249.350698 
L 140.892438 251.71274 
L 143.396396 253.787185 
L 145.900355 255.594233 
L 148.404313 257.152693 
L 150.908272 258.480079 
L 153.829557 259.758334 
L 156.750842 260.768183 
L 159.672127 261.531663 
L 162.593412 262.06904 
L 165.514697 262.398944 
L 168.853308 262.543837 
L 172.191919 262.463432 
L 175.947857 262.130015 
L 179.703795 261.565515 
L 183.877059 260.696924 
L 188.050323 259.603074 
L 192.640914 258.171181 
L 197.648831 256.371099 
L 203.074074 254.180049 
L 208.916644 251.582759 
L 215.593867 248.36302 
L 223.105742 244.479941 
L 231.45227 239.909339 
L 241.050778 234.399101 
L 252.735918 227.426298 
L 267.759669 218.18203 
L 289.460642 204.540094 
L 342.878424 170.879894 
L 365.41405 156.996476 
L 385.863045 144.660052 
L 405.477386 133.08701 
L 425.091728 121.774172 
L 445.123396 110.478546 
L 466.407043 98.735728 
L 489.777323 86.103631 
L 496.454545 82.537369 
L 496.454545 82.537369 
" clip-path="url(#pe0d99f9a79)" style="fill: none; stroke: #000000; stroke-width: 2; stroke-linecap: square"/>
   </g>
   <g id="line2d_76">
    <path d="M 79.545455 27.377091 
L 82.466739 51.247881 
L 85.388024 73.056197 
L 88.309309 92.962683 
L 90.813268 108.624606 
L 93.317226 123.085556 
L 95.821185 136.426811 
L 98.325143 148.724322 
L 100.829102 160.049047 
L 103.33306 170.467261 
L 105.837019 180.040857 
L 108.340977 188.827619 
L 110.844936 196.881488 
L 113.348894 204.252804 
L 115.852853 210.98854 
L 118.356811 217.132519 
L 120.86077 222.725618 
L 123.364728 227.805957 
L 125.868687 232.409082 
L 127.537993 235.229172 
L 127.955319 237.489363 
L 130.459277 241.324557 
L 132.963236 244.787297 
L 135.467194 247.903695 
L 137.971153 250.69816 
L 140.475111 253.193503 
L 142.97907 255.41103 
L 145.483028 257.370641 
L 148.404313 259.355582 
L 151.325598 261.042067 
L 154.246883 262.455332 
L 157.168168 263.618637 
L 160.089453 264.553412 
L 163.428064 265.367136 
L 166.766676 265.93506 
L 170.105287 266.281704 
L 173.861225 266.434847 
L 177.617163 266.364743 
L 181.790427 266.056197 
L 186.381017 265.47247 
L 190.971608 264.668386 
L 196.396851 263.47776 
L 202.239421 261.953859 
L 208.916644 259.965545 
L 216.428519 257.484989 
L 225.192374 254.352421 
L 236.460187 250.07574 
L 253.570571 243.311944 
L 286.956684 230.093279 
L 304.067067 223.58799 
L 319.508145 217.954925 
L 334.114569 212.858933 
L 348.303667 208.137491 
L 362.492765 203.647373 
L 376.681864 199.389259 
L 390.870962 195.359292 
L 405.477386 191.440361 
L 420.501138 187.638105 
L 436.359541 183.854663 
L 453.469924 180.006248 
L 472.249613 176.017008 
L 493.533261 171.728916 
L 496.454545 171.155886 
L 496.454545 171.155886 
" clip-path="url(#pe0d99f9a79)" style="fill: none; stroke-dasharray: 7.4,3.2; stroke-dashoffset: 0; stroke: #ff0000; stroke-width: 2"/>
   </g>
   <g id="line2d_77">
    <path d="M 79.545455 94.513317 
L 82.049413 113.863271 
L 84.553372 131.725807 
L 87.05733 148.209761 
L 89.561289 163.416065 
L 92.065247 177.438322 
L 94.569206 190.363326 
L 97.073164 202.271557 
L 99.577123 213.237635 
L 102.081081 223.330744 
L 104.58504 232.615024 
L 107.088998 241.149935 
L 109.592957 248.990595 
L 112.096915 256.188098 
L 114.600874 262.789801 
L 117.104832 268.839598 
L 119.608791 274.37817 
L 122.112749 279.443219 
L 124.616708 284.069684 
L 127.120666 288.289942 
L 127.537993 288.955966 
L 127.955319 291.196582 
L 130.876604 295.536536 
L 133.797889 299.442405 
L 136.719174 302.951742 
L 139.640459 306.09903 
L 142.561744 308.915924 
L 145.483028 311.431472 
L 148.404313 313.67232 
L 151.325598 315.662904 
L 154.66421 317.660063 
L 158.002821 319.390009 
L 161.341432 320.880303 
L 165.09737 322.301368 
L 168.853308 323.482495 
L 173.026572 324.547953 
L 177.199836 325.386846 
L 181.790427 326.084166 
L 186.798344 326.615629 
L 192.223587 326.965876 
L 198.483483 327.132677 
L 205.578033 327.07976 
L 213.507235 326.79193 
L 223.105742 326.217044 
L 236.042861 325.202754 
L 261.082446 322.957338 
L 285.704705 320.845469 
L 304.90172 319.422888 
L 323.264082 318.283025 
L 342.043771 317.341173 
L 361.658113 316.582476 
L 382.94176 315.988075 
L 406.312039 315.562821 
L 433.855583 315.293256 
L 470.162981 315.177637 
L 496.454545 315.169479 
L 496.454545 315.169479 
" clip-path="url(#pe0d99f9a79)" style="fill: none; stroke-dasharray: 2,3.3; stroke-dashoffset: 0; stroke: #006400; stroke-width: 2"/>
   </g>
   <g id="line2d_78">
    <path d="M 79.545455 169.767991 
L 82.049413 186.222246 
L 84.553372 201.342222 
L 87.05733 215.232867 
L 89.561289 227.990746 
L 92.065247 239.704711 
L 94.569206 250.456521 
L 97.073164 260.32141 
L 99.577123 269.368613 
L 102.081081 277.661846 
L 104.58504 285.259751 
L 107.088998 292.216306 
L 109.592957 298.581201 
L 112.096915 304.40018 
L 114.600874 309.715368 
L 117.104832 314.565553 
L 119.608791 318.986464 
L 122.112749 323.011014 
L 124.616708 326.669528 
L 127.120666 329.989954 
L 127.537993 330.512327 
L 127.955319 332.611048 
L 130.876604 336.005291 
L 133.797889 339.044227 
L 136.719174 341.75946 
L 139.640459 344.179878 
L 142.561744 346.331891 
L 145.900355 348.493543 
L 149.238966 350.368825 
L 152.577578 351.987286 
L 155.916189 353.375592 
L 159.672127 354.692201 
L 163.428064 355.77865 
L 167.601329 356.749073 
L 172.191919 357.56687 
L 176.78251 358.160486 
L 181.790427 358.591699 
L 187.632997 358.857736 
L 193.892893 358.913559 
L 200.987442 358.752976 
L 209.33397 358.337348 
L 219.767131 357.582536 
L 234.373555 356.277406 
L 286.122031 351.469202 
L 304.484393 350.080697 
L 322.429429 348.944629 
L 340.791792 348.003438 
L 360.406133 347.226067 
L 381.272454 346.625955 
L 404.642734 346.184052 
L 431.768951 345.903704 
L 467.241696 345.7774 
L 496.454545 345.765991 
L 496.454545 345.765991 
" clip-path="url(#pe0d99f9a79)" style="fill: none; stroke: #0000ff; stroke-width: 2; stroke-linecap: square"/>
   </g>
   <g id="line2d_79">
    <path d="M 79.545455 345.813264 
L 496.454545 345.813264 
L 496.454545 345.813264 
" clip-path="url(#pe0d99f9a79)" style="fill: none; stroke: #808080; stroke-width: 2; stroke-linecap: square"/>
   </g>
   <g id="line2d_80">
    <path d="M 192.223587 358.918909 
" clip-path="url(#pe0d99f9a79)" style="fill: none; stroke: #1f77b4; stroke-width: 1.5; stroke-linecap: square"/>
    <defs>
     <path id="meeb1af3b87" d="M 0 3 
C 0.795609 3 1.55874 2.683901 2.12132 2.12132 
C 2.683901 1.55874 3 0.795609 3 0 
C 3 -0.795609 2.683901 -1.55874 2.12132 -2.12132 
C 1.55874 -2.683901 0.795609 -3 0 -3 
C -0.795609 -3 -1.55874 -2.683901 -2.12132 -2.12132 
C -2.683901 -1.55874 -3 -0.795609 -3 0 
C -3 0.795609 -2.683901 1.55874 -2.12132 2.12132 
C -1.55874 2.683901 -0.795609 3 0 3 
z
" style="stroke: #1f77b4"/>
    </defs>
    <g clip-path="url(#pe0d99f9a79)">
     <use xlink:href="#meeb1af3b87" x="192.223587" y="358.918909" style="fill: #1f77b4; stroke: #1f77b4"/>
    </g>
   </g>
   <g id="patch_3">
    <path d="M 58.7 375.496 
L 58.7 10.8 
" style="fill: none; stroke: #000000; stroke-width: 0.8; stroke-linejoin: miter; stroke-linecap: square"/>
   </g>
   <g id="patch_4">
    <path d="M 517.3 375.496 
L 517.3 10.8 
" style="fill: none; stroke: #000000; stroke-width: 0.8; stroke-linejoin: miter; stroke-linecap: square"/>
   </g>
   <g id="patch_5">
    <path d="M 58.7 375.496 
L 517.3 375.496 
" style="fill: none; stroke: #000000; stroke-width: 0.8; stroke-linejoin: miter; stroke-linecap: square"/>
   </g>
   <g id="patch_6">
    <path d="M 58.7 10.8 
L 517.3 10.8 
" style="fill: none; stroke: #000000; stroke-width: 0.8; stroke-linejoin: miter; stroke-linecap: square"/>
   </g>
   <g id="legend_1">
    <g id="patch_7">
     <path d="M 210.653906 106.86875 
L 365.346094 106.86875 
Q 367.346094 106.86875 367.346094 104.86875 
L 367.346094 17.8 
Q 367.346094 15.8 365.346094 15.8 
L 210.653906 15.8 
Q 208.653906 15.8 208.653906 17.8 
L 208.653906 104.86875 
Q 208.653906 106.86875 210.653906 106.86875 
z
" style="fill: #ffffff; opacity: 0.8; stroke: #cccccc; stroke-linejoin: miter"/>
    </g>
    <g id="line2d_81">
     <path d="M 212.653906 23.898438 
L 222.653906 23.898438 
L 232.653906 23.898438 
" style="fill: none; stroke: #000000; stroke-width: 2; stroke-linecap: square"/>
    </g>
    <g id="text_14">
     <!-- Bethe no correction -->
     <g transform="translate(240.653906 27.398438) scale(0.1 -0.1)">
      <defs>
       <path id="DejaVuSans-42" d="M 1259 2228 
L 1259 519 
L 2272 519 
Q 2781 519 3026 730 
Q 3272 941 3272 1375 
Q 3272 1813 3026 2020 
Q 2781 2228 2272 2228 
L 1259 2228 
z
M 1259 4147 
L 1259 2741 
L 2194 2741 
Q 2656 2741 2882 2914 
Q 3109 3088 3109 3444 
Q 3109 3797 2882 3972 
Q 2656 4147 2194 4147 
L 1259 4147 
z
M 628 4666 
L 2241 4666 
Q 2963 4666 3353 4366 
Q 3744 4066 3744 3513 
Q 3744 3084 3544 2831 
Q 3344 2578 2956 2516 
Q 3422 2416 3680 2098 
Q 3938 1781 3938 1306 
Q 3938 681 3513 340 
Q 3088 0 2303 0 
L 628 0 
L 628 4666 
z
" transform="scale(0.015625)"/>
       <path id="DejaVuSans-68" d="M 3513 2113 
L 3513 0 
L 2938 0 
L 2938 2094 
Q 2938 2591 2744 2837 
Q 2550 3084 2163 3084 
Q 1697 3084 1428 2787 
Q 1159 2491 1159 1978 
L 1159 0 
L 581 0 
L 581 4863 
L 1159 4863 
L 1159 2956 
Q 1366 3272 1645 3428 
Q 1925 3584 2291 3584 
Q 2894 3584 3203 3211 
Q 3513 2838 3513 2113 
z
" transform="scale(0.015625)"/>
       <path id="DejaVuSans-63" d="M 3122 3366 
L 3122 2828 
Q 2878 2963 2633 3030 
Q 2388 3097 2138 3097 
Q 1578 3097 1268 2742 
Q 959 2388 959 1747 
Q 959 1106 1268 751 
Q 1578 397 2138 397 
Q 2388 397 2633 464 
Q 2878 531 3122 666 
L 3122 134 
Q 2881 22 2623 -34 
Q 2366 -91 2075 -91 
Q 1284 -91 818 406 
Q 353 903 353 1747 
Q 353 2603 823 3093 
Q 1294 3584 2113 3584 
Q 2378 3584 2631 3529 
Q 2884 3475 3122 3366 
z
" transform="scale(0.015625)"/>
      </defs>
      <use xlink:href="#DejaVuSans-42"/>
      <use xlink:href="#DejaVuSans-65" x="68.603516"/>
      <use xlink:href="#DejaVuSans-74" x="130.126953"/>
      <use xlink:href="#DejaVuSans-68" x="169.335938"/>
      <use xlink:href="#DejaVuSans-65" x="232.714844"/>
      <use xlink:href="#DejaVuSans-20" x="294.238281"/>
      <use xlink:href="#DejaVuSans-6e" x="326.025391"/>
      <use xlink:href="#DejaVuSans-6f" x="389.404297"/>
      <use xlink:href="#DejaVuSans-20" x="450.585938"/>
      <use xlink:href="#DejaVuSans-63" x="482.373047"/>
      <use xlink:href="#DejaVuSans-6f" x="537.353516"/>
      <use xlink:href="#DejaVuSans-72" x="598.535156"/>
      <use xlink:href="#DejaVuSans-72" x="637.898438"/>
      <use xlink:href="#DejaVuSans-65" x="676.761719"/>
      <use xlink:href="#DejaVuSans-63" x="738.285156"/>
      <use xlink:href="#DejaVuSans-74" x="793.265625"/>
      <use xlink:href="#DejaVuSans-69" x="832.474609"/>
      <use xlink:href="#DejaVuSans-6f" x="860.257812"/>
      <use xlink:href="#DejaVuSans-6e" x="921.439453"/>
     </g>
    </g>
    <g id="line2d_82">
     <path d="M 212.653906 38.576563 
L 222.653906 38.576563 
L 232.653906 38.576563 
" style="fill: none; stroke-dasharray: 7.4,3.2; stroke-dashoffset: 0; stroke: #ff0000; stroke-width: 2"/>
    </g>
    <g id="text_15">
     <!-- Bethe density correction -->
     <g transform="translate(240.653906 42.076563) scale(0.1 -0.1)">
      <defs>
       <path id="DejaVuSans-64" d="M 2906 2969 
L 2906 4863 
L 3481 4863 
L 3481 0 
L 2906 0 
L 2906 525 
Q 2725 213 2448 61 
Q 2172 -91 1784 -91 
Q 1150 -91 751 415 
Q 353 922 353 1747 
Q 353 2572 751 3078 
Q 1150 3584 1784 3584 
Q 2172 3584 2448 3432 
Q 2725 3281 2906 2969 
z
M 947 1747 
Q 947 1113 1208 752 
Q 1469 391 1925 391 
Q 2381 391 2643 752 
Q 2906 1113 2906 1747 
Q 2906 2381 2643 2742 
Q 2381 3103 1925 3103 
Q 1469 3103 1208 2742 
Q 947 2381 947 1747 
z
" transform="scale(0.015625)"/>
      </defs>
      <use xlink:href="#DejaVuSans-42"/>
      <use xlink:href="#DejaVuSans-65" x="68.603516"/>
      <use xlink:href="#DejaVuSans-74" x="130.126953"/>
      <use xlink:href="#DejaVuSans-68" x="169.335938"/>
      <use xlink:href="#DejaVuSans-65" x="232.714844"/>
      <use xlink:href="#DejaVuSans-20" x="294.238281"/>
      <use xlink:href="#DejaVuSans-64" x="326.025391"/>
      <use xlink:href="#DejaVuSans-65" x="389.501953"/>
      <use xlink:href="#DejaVuSans-6e" x="451.025391"/>
      <use xlink:href="#DejaVuSans-73" x="514.404297"/>
      <use xlink:href="#DejaVuSans-69" x="566.503906"/>
      <use xlink:href="#DejaVuSans-74" x="594.287109"/>
      <use xlink:href="#DejaVuSans-79" x="633.496094"/>
      <use xlink:href="#DejaVuSans-20" x="692.675781"/>
      <use xlink:href="#DejaVuSans-63" x="724.462891"/>
      <use xlink:href="#DejaVuSans-6f" x="779.443359"/>
      <use xlink:href="#DejaVuSans-72" x="840.625"/>
      <use xlink:href="#DejaVuSans-72" x="879.988281"/>
      <use xlink:href="#DejaVuSans-65" x="918.851562"/>
      <use xlink:href="#DejaVuSans-63" x="980.375"/>
      <use xlink:href="#DejaVuSans-74" x="1035.355469"/>
      <use xlink:href="#DejaVuSans-69" x="1074.564453"/>
      <use xlink:href="#DejaVuSans-6f" x="1102.347656"/>
      <use xlink:href="#DejaVuSans-6e" x="1163.529297"/>
     </g>
    </g>
    <g id="line2d_83">
     <path d="M 212.653906 53.254687 
L 222.653906 53.254687 
L 232.653906 53.254687 
" style="fill: none; stroke-dasharray: 2,3.3; stroke-dashoffset: 0; stroke: #006400; stroke-width: 2"/>
    </g>
    <g id="text_16">
     <!-- Bethe Tcut = 60 keV -->
     <g transform="translate(240.653906 56.754687) scale(0.1 -0.1)">
      <defs>
       <path id="DejaVuSans-54" d="M -19 4666 
L 3928 4666 
L 3928 4134 
L 2272 4134 
L 2272 0 
L 1638 0 
L 1638 4134 
L -19 4134 
L -19 4666 
z
" transform="scale(0.015625)"/>
       <path id="DejaVuSans-3d" d="M 678 2906 
L 4684 2906 
L 4684 2381 
L 678 2381 
L 678 2906 
z
M 678 1631 
L 4684 1631 
L 4684 1100 
L 678 1100 
L 678 1631 
z
" transform="scale(0.015625)"/>
       <path id="DejaVuSans-36" d="M 2113 2584 
Q 1688 2584 1439 2293 
Q 1191 2003 1191 1497 
Q 1191 994 1439 701 
Q 1688 409 2113 409 
Q 2538 409 2786 701 
Q 3034 994 3034 1497 
Q 3034 2003 2786 2293 
Q 2538 2584 2113 2584 
z
M 3366 4563 
L 3366 3988 
Q 3128 4100 2886 4159 
Q 2644 4219 2406 4219 
Q 1781 4219 1451 3797 
Q 1122 3375 1075 2522 
Q 1259 2794 1537 2939 
Q 1816 3084 2150 3084 
Q 2853 3084 3261 2657 
Q 3669 2231 3669 1497 
Q 3669 778 3244 343 
Q 2819 -91 2113 -91 
Q 1303 -91 875 529 
Q 447 1150 447 2328 
Q 447 3434 972 4092 
Q 1497 4750 2381 4750 
Q 2619 4750 2861 4703 
Q 3103 4656 3366 4563 
z
" transform="scale(0.015625)"/>
      </defs>
      <use xlink:href="#DejaVuSans-42"/>
      <use xlink:href="#DejaVuSans-65" x="68.603516"/>
      <use xlink:href="#DejaVuSans-74" x="130.126953"/>
      <use xlink:href="#DejaVuSans-68" x="169.335938"/>
      <use xlink:href="#DejaVuSans-65" x="232.714844"/>
      <use xlink:href="#DejaVuSans-20" x="294.238281"/>
      <use xlink:href="#DejaVuSans-54" x="326.025391"/>
      <use xlink:href="#DejaVuSans-63" x="370.109375"/>
      <use xlink:href="#DejaVuSans-75" x="425.089844"/>
      <use xlink:href="#DejaVuSans-74" x="488.46875"/>
      <use xlink:href="#DejaVuSans-20" x="527.677734"/>
      <use xlink:href="#DejaVuSans-3d" x="559.464844"/>
      <use xlink:href="#DejaVuSans-20" x="643.253906"/>
      <use xlink:href="#DejaVuSans-36" x="675.041016"/>
      <use xlink:href="#DejaVuSans-30" x="738.664062"/>
      <use xlink:href="#DejaVuSans-20" x="802.287109"/>
      <use xlink:href="#DejaVuSans-6b" x="834.074219"/>
      <use xlink:href="#DejaVuSans-65" x="888.359375"/>
      <use xlink:href="#DejaVuSans-56" x="949.882812"/>
     </g>
    </g>
    <g id="line2d_84">
     <path d="M 212.653906 67.932813 
L 222.653906 67.932813 
L 232.653906 67.932813 
" style="fill: none; stroke: #0000ff; stroke-width: 2; stroke-linecap: square"/>
    </g>
    <g id="text_17">
     <!-- MPV Landau -->
     <g transform="translate(240.653906 71.432813) scale(0.1 -0.1)">
      <defs>
       <path id="DejaVuSans-50" d="M 1259 4147 
L 1259 2394 
L 2053 2394 
Q 2494 2394 2734 2622 
Q 2975 2850 2975 3272 
Q 2975 3691 2734 3919 
Q 2494 4147 2053 4147 
L 1259 4147 
z
M 628 4666 
L 2053 4666 
Q 2838 4666 3239 4311 
Q 3641 3956 3641 3272 
Q 3641 2581 3239 2228 
Q 2838 1875 2053 1875 
L 1259 1875 
L 1259 0 
L 628 0 
L 628 4666 
z
" transform="scale(0.015625)"/>
       <path id="DejaVuSans-4c" d="M 628 4666 
L 1259 4666 
L 1259 531 
L 3531 531 
L 3531 0 
L 628 0 
L 628 4666 
z
" transform="scale(0.015625)"/>
       <path id="DejaVuSans-61" d="M 2194 1759 
Q 1497 1759 1228 1600 
Q 959 1441 959 1056 
Q 959 750 1161 570 
Q 1363 391 1709 391 
Q 2188 391 2477 730 
Q 2766 1069 2766 1631 
L 2766 1759 
L 2194 1759 
z
M 3341 1997 
L 3341 0 
L 2766 0 
L 2766 531 
Q 2569 213 2275 61 
Q 1981 -91 1556 -91 
Q 1019 -91 701 211 
Q 384 513 384 1019 
Q 384 1609 779 1909 
Q 1175 2209 1959 2209 
L 2766 2209 
L 2766 2266 
Q 2766 2663 2505 2880 
Q 2244 3097 1772 3097 
Q 1472 3097 1187 3025 
Q 903 2953 641 2809 
L 641 3341 
Q 956 3463 1253 3523 
Q 1550 3584 1831 3584 
Q 2591 3584 2966 3190 
Q 3341 2797 3341 1997 
z
" transform="scale(0.015625)"/>
      </defs>
      <use xlink:href="#DejaVuSans-4d"/>
      <use xlink:href="#DejaVuSans-50" x="86.279297"/>
      <use xlink:href="#DejaVuSans-56" x="146.582031"/>
      <use xlink:href="#DejaVuSans-20" x="214.990234"/>
      <use xlink:href="#DejaVuSans-4c" x="246.777344"/>
      <use xlink:href="#DejaVuSans-61" x="302.490234"/>
      <use xlink:href="#DejaVuSans-6e" x="363.769531"/>
      <use xlink:href="#DejaVuSans-64" x="427.148438"/>
      <use xlink:href="#DejaVuSans-61" x="490.625"/>
      <use xlink:href="#DejaVuSans-75" x="551.904297"/>
     </g>
    </g>
    <g id="line2d_85">
     <path d="M 212.653906 82.610937 
L 222.653906 82.610937 
L 232.653906 82.610937 
" style="fill: none; stroke: #808080; stroke-width: 2; stroke-linecap: square"/>
    </g>
    <g id="text_18">
     <!-- MPV Landau Limit -->
     <g transform="translate(240.653906 86.110937) scale(0.1 -0.1)">
      <use xlink:href="#DejaVuSans-4d"/>
      <use xlink:href="#DejaVuSans-50" x="86.279297"/>
      <use xlink:href="#DejaVuSans-56" x="146.582031"/>
      <use xlink:href="#DejaVuSans-20" x="214.990234"/>
      <use xlink:href="#DejaVuSans-4c" x="246.777344"/>
      <use xlink:href="#DejaVuSans-61" x="302.490234"/>
      <use xlink:href="#DejaVuSans-6e" x="363.769531"/>
      <use xlink:href="#DejaVuSans-64" x="427.148438"/>
      <use xlink:href="#DejaVuSans-61" x="490.625"/>
      <use xlink:href="#DejaVuSans-75" x="551.904297"/>
      <use xlink:href="#DejaVuSans-20" x="615.283203"/>
      <use xlink:href="#DejaVuSans-4c" x="647.070312"/>
      <use xlink:href="#DejaVuSans-69" x="702.783203"/>
      <use xlink:href="#DejaVuSans-6d" x="730.566406"/>
      <use xlink:href="#DejaVuSans-69" x="827.978516"/>
      <use xlink:href="#DejaVuSans-74" x="855.761719"/>
     </g>
    </g>
    <g id="line2d_86">
     <path d="M 212.653906 97.289062 
L 222.653906 97.289062 
L 232.653906 97.289062 
" style="fill: none; stroke: #1f77b4; stroke-width: 1.5; stroke-linecap: square"/>
     <g>
      <use xlink:href="#meeb1af3b87" x="222.653906" y="97.289062" style="fill: #1f77b4; stroke: #1f77b4"/>
     </g>
    </g>
    <g id="text_19">
     <!-- MPV of MIP = 11.33 keV -->
     <g transform="translate(240.653906 100.789062) scale(0.1 -0.1)">
      <defs>
       <path id="DejaVuSans-66" d="M 2375 4863 
L 2375 4384 
L 1825 4384 
Q 1516 4384 1395 4259 
Q 1275 4134 1275 3809 
L 1275 3500 
L 2222 3500 
L 2222 3053 
L 1275 3053 
L 1275 0 
L 697 0 
L 697 3053 
L 147 3053 
L 147 3500 
L 697 3500 
L 697 3744 
Q 697 4328 969 4595 
Q 1241 4863 1831 4863 
L 2375 4863 
z
" transform="scale(0.015625)"/>
       <path id="DejaVuSans-49" d="M 628 4666 
L 1259 4666 
L 1259 0 
L 628 0 
L 628 4666 
z
" transform="scale(0.015625)"/>
       <path id="DejaVuSans-2e" d="M 684 794 
L 1344 794 
L 1344 0 
L 684 0 
L 684 794 
z
" transform="scale(0.015625)"/>
      </defs>
      <use xlink:href="#DejaVuSans-4d"/>
      <use xlink:href="#DejaVuSans-50" x="86.279297"/>
      <use xlink:href="#DejaVuSans-56" x="146.582031"/>
      <use xlink:href="#DejaVuSans-20" x="214.990234"/>
      <use xlink:href="#DejaVuSans-6f" x="246.777344"/>
      <use xlink:href="#DejaVuSans-66" x="307.958984"/>
      <use xlink:href="#DejaVuSans-20" x="343.164062"/>
      <use xlink:href="#DejaVuSans-4d" x="374.951172"/>
      <use xlink:href="#DejaVuSans-49" x="461.230469"/>
      <use xlink:href="#DejaVuSans-50" x="490.722656"/>
      <use xlink:href="#DejaVuSans-20" x="551.025391"/>
      <use xlink:href="#DejaVuSans-3d" x="582.8125"/>
      <use xlink:href="#DejaVuSans-20" x="666.601562"/>
      <use xlink:href="#DejaVuSans-31" x="698.388672"/>
      <use xlink:href="#DejaVuSans-31" x="762.011719"/>
      <use xlink:href="#DejaVuSans-2e" x="825.634766"/>
      <use xlink:href="#DejaVuSans-33" x="857.421875"/>
      <use xlink:href="#DejaVuSans-33" x="921.044922"/>
      <use xlink:href="#DejaVuSans-20" x="984.667969"/>
      <use xlink:href="#DejaVuSans-6b" x="1016.455078"/>
      <use xlink:href="#DejaVuSans-65" x="1070.740234"/>
      <use xlink:href="#DejaVuSans-56" x="1132.263672"/>
     </g>
    </g>
   </g>
  </g>
  <g id="axes_2">
   <g id="matplotlib.axis_3">
    <g id="ytick_8">
     <g id="line2d_87">
      <defs>
       <path id="m6b8b2724a7" d="M 0 0 
L 3.5 0 
" style="stroke: #000000; stroke-width: 0.8"/>
      </defs>
      <g>
       <use xlink:href="#m6b8b2724a7" x="517.3" y="329.648503" style="stroke: #000000; stroke-width: 0.8"/>
      </g>
     </g>
     <g id="text_20">
      <!-- 4 -->
      <g transform="translate(524.3 335.727253) scale(0.16 -0.16)">
       <use xlink:href="#DejaVuSans-34"/>
      </g>
     </g>
    </g>
    <g id="ytick_9">
     <g id="line2d_88">
      <g>
       <use xlink:href="#m6b8b2724a7" x="517.3" y="254.625326" style="stroke: #000000; stroke-width: 0.8"/>
      </g>
     </g>
     <g id="text_21">
      <!-- 6 -->
      <g transform="translate(524.3 260.704076) scale(0.16 -0.16)">
       <use xlink:href="#DejaVuSans-36"/>
      </g>
     </g>
    </g>
    <g id="ytick_10">
     <g id="line2d_89">
      <g>
       <use xlink:href="#m6b8b2724a7" x="517.3" y="179.602149" style="stroke: #000000; stroke-width: 0.8"/>
      </g>
     </g>
     <g id="text_22">
      <!-- 8 -->
      <g transform="translate(524.3 185.680899) scale(0.16 -0.16)">
       <defs>
        <path id="DejaVuSans-38" d="M 2034 2216 
Q 1584 2216 1326 1975 
Q 1069 1734 1069 1313 
Q 1069 891 1326 650 
Q 1584 409 2034 409 
Q 2484 409 2743 651 
Q 3003 894 3003 1313 
Q 3003 1734 2745 1975 
Q 2488 2216 2034 2216 
z
M 1403 2484 
Q 997 2584 770 2862 
Q 544 3141 544 3541 
Q 544 4100 942 4425 
Q 1341 4750 2034 4750 
Q 2731 4750 3128 4425 
Q 3525 4100 3525 3541 
Q 3525 3141 3298 2862 
Q 3072 2584 2669 2484 
Q 3125 2378 3379 2068 
Q 3634 1759 3634 1313 
Q 3634 634 3220 271 
Q 2806 -91 2034 -91 
Q 1263 -91 848 271 
Q 434 634 434 1313 
Q 434 1759 690 2068 
Q 947 2378 1403 2484 
z
M 1172 3481 
Q 1172 3119 1398 2916 
Q 1625 2713 2034 2713 
Q 2441 2713 2670 2916 
Q 2900 3119 2900 3481 
Q 2900 3844 2670 4047 
Q 2441 4250 2034 4250 
Q 1625 4250 1398 4047 
Q 1172 3844 1172 3481 
z
" transform="scale(0.015625)"/>
       </defs>
       <use xlink:href="#DejaVuSans-38"/>
      </g>
     </g>
    </g>
    <g id="ytick_11">
     <g id="line2d_90">
      <g>
       <use xlink:href="#m6b8b2724a7" x="517.3" y="104.578971" style="stroke: #000000; stroke-width: 0.8"/>
      </g>
     </g>
     <g id="text_23">
      <!-- 10 -->
      <g transform="translate(524.3 110.657721) scale(0.16 -0.16)">
       <use xlink:href="#DejaVuSans-31"/>
       <use xlink:href="#DejaVuSans-30" x="63.623047"/>
      </g>
     </g>
    </g>
    <g id="ytick_12">
     <g id="line2d_91">
      <g>
       <use xlink:href="#m6b8b2724a7" x="517.3" y="29.555794" style="stroke: #000000; stroke-width: 0.8"/>
      </g>
     </g>
     <g id="text_24">
      <!-- 12 -->
      <g transform="translate(524.3 35.634544) scale(0.16 -0.16)">
       <use xlink:href="#DejaVuSans-31"/>
       <use xlink:href="#DejaVuSans-32" x="63.623047"/>
      </g>
     </g>
    </g>
    <g id="text_25">
     <!-- Signal in 1000 e/h pairs -->
     <g transform="translate(560.8175 287.893) rotate(-90) scale(0.16 -0.16)">
      <defs>
       <path id="DejaVuSans-2f" d="M 1625 4666 
L 2156 4666 
L 531 -594 
L 0 -594 
L 1625 4666 
z
" transform="scale(0.015625)"/>
      </defs>
      <use xlink:href="#DejaVuSans-53"/>
      <use xlink:href="#DejaVuSans-69" x="63.476562"/>
      <use xlink:href="#DejaVuSans-67" x="91.259766"/>
      <use xlink:href="#DejaVuSans-6e" x="154.736328"/>
      <use xlink:href="#DejaVuSans-61" x="218.115234"/>
      <use xlink:href="#DejaVuSans-6c" x="279.394531"/>
      <use xlink:href="#DejaVuSans-20" x="307.177734"/>
      <use xlink:href="#DejaVuSans-69" x="338.964844"/>
      <use xlink:href="#DejaVuSans-6e" x="366.748047"/>
      <use xlink:href="#DejaVuSans-20" x="430.126953"/>
      <use xlink:href="#DejaVuSans-31" x="461.914062"/>
      <use xlink:href="#DejaVuSans-30" x="525.537109"/>
      <use xlink:href="#DejaVuSans-30" x="589.160156"/>
      <use xlink:href="#DejaVuSans-30" x="652.783203"/>
      <use xlink:href="#DejaVuSans-20" x="716.40625"/>
      <use xlink:href="#DejaVuSans-65" x="748.193359"/>
      <use xlink:href="#DejaVuSans-2f" x="809.716797"/>
      <use xlink:href="#DejaVuSans-68" x="843.408203"/>
      <use xlink:href="#DejaVuSans-20" x="906.787109"/>
      <use xlink:href="#DejaVuSans-70" x="938.574219"/>
      <use xlink:href="#DejaVuSans-61" x="1002.050781"/>
      <use xlink:href="#DejaVuSans-69" x="1063.330078"/>
      <use xlink:href="#DejaVuSans-72" x="1091.113281"/>
      <use xlink:href="#DejaVuSans-73" x="1132.226562"/>
     </g>
    </g>
   </g>
   <g id="line2d_92">
    <path d="M 79.545455 188.556118 
L 82.049413 203.614696 
L 84.553372 217.452171 
L 87.05733 230.16459 
L 89.561289 241.840324 
L 92.065247 252.560692 
L 94.569206 262.400515 
L 97.073164 271.428649 
L 99.577123 279.708453 
L 102.081081 287.29824 
L 104.58504 294.251678 
L 107.088998 300.618167 
L 109.592957 306.443181 
L 112.096915 311.768585 
L 114.600874 316.63293 
L 117.104832 321.071714 
L 119.608791 325.117636 
L 122.112749 328.800817 
L 125.034034 332.676301 
L 127.537993 335.665857 
L 127.955319 337.586561 
L 130.876604 340.692899 
L 133.797889 343.474067 
L 136.719174 345.958989 
L 139.640459 348.174104 
L 142.97907 350.406193 
L 146.317681 352.350155 
L 149.656293 354.035571 
L 152.994904 355.489138 
L 156.750842 356.877177 
L 160.50678 358.032984 
L 164.680044 359.078085 
L 168.853308 359.903553 
L 173.443898 360.592727 
L 178.451815 361.121669 
L 183.877059 361.474975 
L 190.136955 361.650745 
L 197.231504 361.612647 
L 205.160706 361.344608 
L 214.759214 360.795148 
L 227.696333 359.813361 
L 251.066612 357.762921 
L 278.192829 355.455568 
L 297.807171 354.012558 
L 316.58686 352.851247 
L 335.783875 351.888684 
L 355.815543 351.11036 
L 377.09919 350.507048 
L 400.886796 350.060288 
L 428.430339 349.773461 
L 463.903085 349.640294 
L 496.454545 349.625681 
L 496.454545 349.625681 
" clip-path="url(#pe0d99f9a79)" style="fill: none; stroke: #0000ff; stroke-width: 2; stroke-linecap: square"/>
   </g>
   <g id="patch_8">
    <path d="M 58.7 375.496 
L 58.7 10.8 
" style="fill: none; stroke: #000000; stroke-width: 0.8; stroke-linejoin: miter; stroke-linecap: square"/>
   </g>
   <g id="patch_9">
    <path d="M 517.3 375.496 
L 517.3 10.8 
" style="fill: none; stroke: #000000; stroke-width: 0.8; stroke-linejoin: miter; stroke-linecap: square"/>
   </g>
   <g id="patch_10">
    <path d="M 58.7 375.496 
L 517.3 375.496 
" style="fill: none; stroke: #000000; stroke-width: 0.8; stroke-linejoin: miter; stroke-linecap: square"/>
   </g>
   <g id="patch_11">
    <path d="M 58.7 10.8 
L 517.3 10.8 
" style="fill: none; stroke: #000000; stroke-width: 0.8; stroke-linejoin: miter; stroke-linecap: square"/>
   </g>
  </g>
 </g>
 <defs>
  <clipPath id="pe0d99f9a79">
   <rect x="58.7" y="10.8" width="458.6" height="364.696"/>
  </clipPath>
 </defs>
</svg>
