<?xml version="1.0" encoding="utf-8" standalone="no"?>
<!DOCTYPE svg PUBLIC "-//W3C//DTD SVG 1.1//EN"
  "http://www.w3.org/Graphics/SVG/1.1/DTD/svg11.dtd">
<svg xmlns:xlink="http://www.w3.org/1999/xlink" width="576pt" height="288pt" viewBox="0 0 576 288" xmlns="http://www.w3.org/2000/svg" version="1.1">
 <metadata>
  <rdf:RDF xmlns:dc="http://purl.org/dc/elements/1.1/" xmlns:cc="http://creativecommons.org/ns#" xmlns:rdf="http://www.w3.org/1999/02/22-rdf-syntax-ns#">
   <cc:Work>
    <dc:type rdf:resource="http://purl.org/dc/dcmitype/StillImage"/>
    <dc:date>2024-05-14T15:52:41.390534</dc:date>
    <dc:format>image/svg+xml</dc:format>
    <dc:creator>
     <cc:Agent>
      <dc:title>Matplotlib v3.8.0, https://matplotlib.org/</dc:title>
     </cc:Agent>
    </dc:creator>
   </cc:Work>
  </rdf:RDF>
 </metadata>
 <defs>
  <style type="text/css">*{stroke-linejoin: round; stroke-linecap: butt}</style>
 </defs>
 <g id="figure_1">
  <g id="patch_1">
   <path d="M 0 288 
L 576 288 
L 576 0 
L 0 0 
z
" style="fill: #ffffff"/>
  </g>
  <g id="axes_1">
   <g id="patch_2">
    <path d="M 73.37 244.024 
L 293.76 244.024 
L 293.76 10.8 
L 73.37 10.8 
z
" style="fill: #ffffff"/>
   </g>
   <g id="patch_3">
    <path d="M 73.842877 244.024 
L 76.042048 244.024 
L 76.042048 243.483047 
L 73.842877 243.483047 
z
" clip-path="url(#p4efeab8191)" style="fill: #1f77b4"/>
   </g>
   <g id="patch_4">
    <path d="M 76.042048 244.024 
L 78.24122 244.024 
L 78.24122 241.603948 
L 76.042048 241.603948 
z
" clip-path="url(#p4efeab8191)" style="fill: #1f77b4"/>
   </g>
   <g id="patch_5">
    <path d="M 78.24122 244.024 
L 80.440391 244.024 
L 80.440391 237.980987 
L 78.24122 237.980987 
z
" clip-path="url(#p4efeab8191)" style="fill: #1f77b4"/>
   </g>
   <g id="patch_6">
    <path d="M 80.440391 244.024 
L 82.639562 244.024 
L 82.639562 232.486045 
L 80.440391 232.486045 
z
" clip-path="url(#p4efeab8191)" style="fill: #1f77b4"/>
   </g>
   <g id="patch_7">
    <path d="M 82.639562 244.024 
L 84.838733 244.024 
L 84.838733 226.065788 
L 82.639562 226.065788 
z
" clip-path="url(#p4efeab8191)" style="fill: #1f77b4"/>
   </g>
   <g id="patch_8">
    <path d="M 84.838733 244.024 
L 87.037904 244.024 
L 87.037904 217.923024 
L 84.838733 217.923024 
z
" clip-path="url(#p4efeab8191)" style="fill: #1f77b4"/>
   </g>
   <g id="patch_9">
    <path d="M 87.037904 244.024 
L 89.237076 244.024 
L 89.237076 209.189482 
L 87.037904 209.189482 
z
" clip-path="url(#p4efeab8191)" style="fill: #1f77b4"/>
   </g>
   <g id="patch_10">
    <path d="M 89.237076 244.024 
L 91.436247 244.024 
L 91.436247 199.018145 
L 89.237076 199.018145 
z
" clip-path="url(#p4efeab8191)" style="fill: #1f77b4"/>
   </g>
   <g id="patch_11">
    <path d="M 91.436247 244.024 
L 93.635418 244.024 
L 93.635418 187.273773 
L 91.436247 187.273773 
z
" clip-path="url(#p4efeab8191)" style="fill: #1f77b4"/>
   </g>
   <g id="patch_12">
    <path d="M 93.635418 244.024 
L 95.834589 244.024 
L 95.834589 174.604088 
L 93.635418 174.604088 
z
" clip-path="url(#p4efeab8191)" style="fill: #1f77b4"/>
   </g>
   <g id="patch_13">
    <path d="M 95.834589 244.024 
L 98.033761 244.024 
L 98.033761 163.550143 
L 95.834589 163.550143 
z
" clip-path="url(#p4efeab8191)" style="fill: #1f77b4"/>
   </g>
   <g id="patch_14">
    <path d="M 98.033761 244.024 
L 100.232932 244.024 
L 100.232932 150.033439 
L 98.033761 150.033439 
z
" clip-path="url(#p4efeab8191)" style="fill: #1f77b4"/>
   </g>
   <g id="patch_15">
    <path d="M 100.232932 244.024 
L 102.432103 244.024 
L 102.432103 137.740997 
L 100.232932 137.740997 
z
" clip-path="url(#p4efeab8191)" style="fill: #1f77b4"/>
   </g>
   <g id="patch_16">
    <path d="M 102.432103 244.024 
L 104.631274 244.024 
L 104.631274 126.039332 
L 102.432103 126.039332 
z
" clip-path="url(#p4efeab8191)" style="fill: #1f77b4"/>
   </g>
   <g id="patch_17">
    <path d="M 104.631274 244.024 
L 106.830445 244.024 
L 106.830445 111.924733 
L 104.631274 111.924733 
z
" clip-path="url(#p4efeab8191)" style="fill: #1f77b4"/>
   </g>
   <g id="patch_18">
    <path d="M 106.830445 244.024 
L 109.029617 244.024 
L 109.029617 99.005924 
L 106.830445 99.005924 
z
" clip-path="url(#p4efeab8191)" style="fill: #1f77b4"/>
   </g>
   <g id="patch_19">
    <path d="M 109.029617 244.024 
L 111.228788 244.024 
L 111.228788 87.524911 
L 109.029617 87.524911 
z
" clip-path="url(#p4efeab8191)" style="fill: #1f77b4"/>
   </g>
   <g id="patch_20">
    <path d="M 111.228788 244.024 
L 113.427959 244.024 
L 113.427959 74.976228 
L 111.228788 74.976228 
z
" clip-path="url(#p4efeab8191)" style="fill: #1f77b4"/>
   </g>
   <g id="patch_21">
    <path d="M 113.427959 244.024 
L 115.62713 244.024 
L 115.62713 67.730307 
L 113.427959 67.730307 
z
" clip-path="url(#p4efeab8191)" style="fill: #1f77b4"/>
   </g>
   <g id="patch_22">
    <path d="M 115.62713 244.024 
L 117.826302 244.024 
L 117.826302 56.498417 
L 115.62713 56.498417 
z
" clip-path="url(#p4efeab8191)" style="fill: #1f77b4"/>
   </g>
   <g id="patch_23">
    <path d="M 117.826302 244.024 
L 120.025473 244.024 
L 120.025473 48.953548 
L 117.826302 48.953548 
z
" clip-path="url(#p4efeab8191)" style="fill: #1f77b4"/>
   </g>
   <g id="patch_24">
    <path d="M 120.025473 244.024 
L 122.224644 244.024 
L 122.224644 41.465622 
L 120.025473 41.465622 
z
" clip-path="url(#p4efeab8191)" style="fill: #1f77b4"/>
   </g>
   <g id="patch_25">
    <path d="M 122.224644 244.024 
L 124.423815 244.024 
L 124.423815 37.493889 
L 122.224644 37.493889 
z
" clip-path="url(#p4efeab8191)" style="fill: #1f77b4"/>
   </g>
   <g id="patch_26">
    <path d="M 124.423815 244.024 
L 126.622987 244.024 
L 126.622987 30.233732 
L 124.423815 30.233732 
z
" clip-path="url(#p4efeab8191)" style="fill: #1f77b4"/>
   </g>
   <g id="patch_27">
    <path d="M 126.622987 244.024 
L 128.822158 244.024 
L 128.822158 27.550321 
L 126.622987 27.550321 
z
" clip-path="url(#p4efeab8191)" style="fill: #1f77b4"/>
   </g>
   <g id="patch_28">
    <path d="M 128.822158 244.024 
L 131.021329 244.024 
L 131.021329 25.237036 
L 128.822158 25.237036 
z
" clip-path="url(#p4efeab8191)" style="fill: #1f77b4"/>
   </g>
   <g id="patch_29">
    <path d="M 131.021329 244.024 
L 133.2205 244.024 
L 133.2205 21.905905 
L 131.021329 21.905905 
z
" clip-path="url(#p4efeab8191)" style="fill: #1f77b4"/>
   </g>
   <g id="patch_30">
    <path d="M 133.2205 244.024 
L 135.419671 244.024 
L 135.419671 24.809968 
L 133.2205 24.809968 
z
" clip-path="url(#p4efeab8191)" style="fill: #1f77b4"/>
   </g>
   <g id="patch_31">
    <path d="M 135.419671 244.024 
L 137.618843 244.024 
L 137.618843 25.45057 
L 135.419671 25.45057 
z
" clip-path="url(#p4efeab8191)" style="fill: #1f77b4"/>
   </g>
   <g id="patch_32">
    <path d="M 137.618843 244.024 
L 139.818014 244.024 
L 139.818014 28.461399 
L 137.618843 28.461399 
z
" clip-path="url(#p4efeab8191)" style="fill: #1f77b4"/>
   </g>
   <g id="patch_33">
    <path d="M 139.818014 244.024 
L 142.017185 244.024 
L 142.017185 31.187517 
L 139.818014 31.187517 
z
" clip-path="url(#p4efeab8191)" style="fill: #1f77b4"/>
   </g>
   <g id="patch_34">
    <path d="M 142.017185 244.024 
L 144.216356 244.024 
L 144.216356 38.426321 
L 142.017185 38.426321 
z
" clip-path="url(#p4efeab8191)" style="fill: #1f77b4"/>
   </g>
   <g id="patch_35">
    <path d="M 144.216356 244.024 
L 146.415528 244.024 
L 146.415528 44.262917 
L 144.216356 44.262917 
z
" clip-path="url(#p4efeab8191)" style="fill: #1f77b4"/>
   </g>
   <g id="patch_36">
    <path d="M 146.415528 244.024 
L 148.614699 244.024 
L 148.614699 51.046182 
L 146.415528 51.046182 
z
" clip-path="url(#p4efeab8191)" style="fill: #1f77b4"/>
   </g>
   <g id="patch_37">
    <path d="M 148.614699 244.024 
L 150.81387 244.024 
L 150.81387 56.562477 
L 148.614699 56.562477 
z
" clip-path="url(#p4efeab8191)" style="fill: #1f77b4"/>
   </g>
   <g id="patch_38">
    <path d="M 150.81387 244.024 
L 153.013041 244.024 
L 153.013041 64.847598 
L 150.81387 64.847598 
z
" clip-path="url(#p4efeab8191)" style="fill: #1f77b4"/>
   </g>
   <g id="patch_39">
    <path d="M 153.013041 244.024 
L 155.212213 244.024 
L 155.212213 71.360385 
L 153.013041 71.360385 
z
" clip-path="url(#p4efeab8191)" style="fill: #1f77b4"/>
   </g>
   <g id="patch_40">
    <path d="M 155.212213 244.024 
L 157.411384 244.024 
L 157.411384 80.307461 
L 155.212213 80.307461 
z
" clip-path="url(#p4efeab8191)" style="fill: #1f77b4"/>
   </g>
   <g id="patch_41">
    <path d="M 157.411384 244.024 
L 159.610555 244.024 
L 159.610555 88.058746 
L 157.411384 88.058746 
z
" clip-path="url(#p4efeab8191)" style="fill: #1f77b4"/>
   </g>
   <g id="patch_42">
    <path d="M 159.610555 244.024 
L 161.809726 244.024 
L 161.809726 98.180259 
L 159.610555 98.180259 
z
" clip-path="url(#p4efeab8191)" style="fill: #1f77b4"/>
   </g>
   <g id="patch_43">
    <path d="M 161.809726 244.024 
L 164.008897 244.024 
L 164.008897 102.878008 
L 161.809726 102.878008 
z
" clip-path="url(#p4efeab8191)" style="fill: #1f77b4"/>
   </g>
   <g id="patch_44">
    <path d="M 164.008897 244.024 
L 166.208069 244.024 
L 166.208069 113.113406 
L 164.008897 113.113406 
z
" clip-path="url(#p4efeab8191)" style="fill: #1f77b4"/>
   </g>
   <g id="patch_45">
    <path d="M 166.208069 244.024 
L 168.40724 244.024 
L 168.40724 124.715421 
L 166.208069 124.715421 
z
" clip-path="url(#p4efeab8191)" style="fill: #1f77b4"/>
   </g>
   <g id="patch_46">
    <path d="M 168.40724 244.024 
L 170.606411 244.024 
L 170.606411 132.338586 
L 168.40724 132.338586 
z
" clip-path="url(#p4efeab8191)" style="fill: #1f77b4"/>
   </g>
   <g id="patch_47">
    <path d="M 170.606411 244.024 
L 172.805582 244.024 
L 172.805582 139.385209 
L 170.606411 139.385209 
z
" clip-path="url(#p4efeab8191)" style="fill: #1f77b4"/>
   </g>
   <g id="patch_48">
    <path d="M 172.805582 244.024 
L 175.004754 244.024 
L 175.004754 147.207672 
L 172.805582 147.207672 
z
" clip-path="url(#p4efeab8191)" style="fill: #1f77b4"/>
   </g>
   <g id="patch_49">
    <path d="M 175.004754 244.024 
L 177.203925 244.024 
L 177.203925 155.400261 
L 175.004754 155.400261 
z
" clip-path="url(#p4efeab8191)" style="fill: #1f77b4"/>
   </g>
   <g id="patch_50">
    <path d="M 177.203925 244.024 
L 179.403096 244.024 
L 179.403096 162.980719 
L 177.203925 162.980719 
z
" clip-path="url(#p4efeab8191)" style="fill: #1f77b4"/>
   </g>
   <g id="patch_51">
    <path d="M 179.403096 244.024 
L 181.602267 244.024 
L 181.602267 169.521978 
L 179.403096 169.521978 
z
" clip-path="url(#p4efeab8191)" style="fill: #1f77b4"/>
   </g>
   <g id="patch_52">
    <path d="M 181.602267 244.024 
L 183.801439 244.024 
L 183.801439 177.109554 
L 181.602267 177.109554 
z
" clip-path="url(#p4efeab8191)" style="fill: #1f77b4"/>
   </g>
   <g id="patch_53">
    <path d="M 183.801439 244.024 
L 186.00061 244.024 
L 186.00061 182.789559 
L 183.801439 182.789559 
z
" clip-path="url(#p4efeab8191)" style="fill: #1f77b4"/>
   </g>
   <g id="patch_54">
    <path d="M 186.00061 244.024 
L 188.199781 244.024 
L 188.199781 187.750666 
L 186.00061 187.750666 
z
" clip-path="url(#p4efeab8191)" style="fill: #1f77b4"/>
   </g>
   <g id="patch_55">
    <path d="M 188.199781 244.024 
L 190.398952 244.024 
L 190.398952 193.544556 
L 188.199781 193.544556 
z
" clip-path="url(#p4efeab8191)" style="fill: #1f77b4"/>
   </g>
   <g id="patch_56">
    <path d="M 190.398952 244.024 
L 192.598123 244.024 
L 192.598123 200.868773 
L 190.398952 200.868773 
z
" clip-path="url(#p4efeab8191)" style="fill: #1f77b4"/>
   </g>
   <g id="patch_57">
    <path d="M 192.598123 244.024 
L 194.797295 244.024 
L 194.797295 204.313789 
L 192.598123 204.313789 
z
" clip-path="url(#p4efeab8191)" style="fill: #1f77b4"/>
   </g>
   <g id="patch_58">
    <path d="M 194.797295 244.024 
L 196.996466 244.024 
L 196.996466 208.057752 
L 194.797295 208.057752 
z
" clip-path="url(#p4efeab8191)" style="fill: #1f77b4"/>
   </g>
   <g id="patch_59">
    <path d="M 196.996466 244.024 
L 199.195637 244.024 
L 199.195637 212.719912 
L 196.996466 212.719912 
z
" clip-path="url(#p4efeab8191)" style="fill: #1f77b4"/>
   </g>
   <g id="patch_60">
    <path d="M 199.195637 244.024 
L 201.394808 244.024 
L 201.394808 216.150692 
L 199.195637 216.150692 
z
" clip-path="url(#p4efeab8191)" style="fill: #1f77b4"/>
   </g>
   <g id="patch_61">
    <path d="M 201.394808 244.024 
L 203.59398 244.024 
L 203.59398 219.894655 
L 201.394808 219.894655 
z
" clip-path="url(#p4efeab8191)" style="fill: #1f77b4"/>
   </g>
   <g id="patch_62">
    <path d="M 203.59398 244.024 
L 205.793151 244.024 
L 205.793151 223.076312 
L 203.59398 223.076312 
z
" clip-path="url(#p4efeab8191)" style="fill: #1f77b4"/>
   </g>
   <g id="patch_63">
    <path d="M 205.793151 244.024 
L 207.992322 244.024 
L 207.992322 225.617367 
L 205.793151 225.617367 
z
" clip-path="url(#p4efeab8191)" style="fill: #1f77b4"/>
   </g>
   <g id="patch_64">
    <path d="M 207.992322 244.024 
L 210.191493 244.024 
L 210.191493 227.909299 
L 207.992322 227.909299 
z
" clip-path="url(#p4efeab8191)" style="fill: #1f77b4"/>
   </g>
   <g id="patch_65">
    <path d="M 210.191493 244.024 
L 212.390665 244.024 
L 212.390665 229.638924 
L 210.191493 229.638924 
z
" clip-path="url(#p4efeab8191)" style="fill: #1f77b4"/>
   </g>
   <g id="patch_66">
    <path d="M 212.390665 244.024 
L 214.589836 244.024 
L 214.589836 232.087448 
L 212.390665 232.087448 
z
" clip-path="url(#p4efeab8191)" style="fill: #1f77b4"/>
   </g>
   <g id="patch_67">
    <path d="M 214.589836 244.024 
L 216.789007 244.024 
L 216.789007 233.788602 
L 214.589836 233.788602 
z
" clip-path="url(#p4efeab8191)" style="fill: #1f77b4"/>
   </g>
   <g id="patch_68">
    <path d="M 216.789007 244.024 
L 218.988178 244.024 
L 218.988178 234.621385 
L 216.789007 234.621385 
z
" clip-path="url(#p4efeab8191)" style="fill: #1f77b4"/>
   </g>
   <g id="patch_69">
    <path d="M 218.988178 244.024 
L 221.187349 244.024 
L 221.187349 236.336775 
L 218.988178 236.336775 
z
" clip-path="url(#p4efeab8191)" style="fill: #1f77b4"/>
   </g>
   <g id="patch_70">
    <path d="M 221.187349 244.024 
L 223.386521 244.024 
L 223.386521 237.091262 
L 221.187349 237.091262 
z
" clip-path="url(#p4efeab8191)" style="fill: #1f77b4"/>
   </g>
   <g id="patch_71">
    <path d="M 223.386521 244.024 
L 225.585692 244.024 
L 225.585692 238.215874 
L 223.386521 238.215874 
z
" clip-path="url(#p4efeab8191)" style="fill: #1f77b4"/>
   </g>
   <g id="patch_72">
    <path d="M 225.585692 244.024 
L 227.784863 244.024 
L 227.784863 239.283545 
L 225.585692 239.283545 
z
" clip-path="url(#p4efeab8191)" style="fill: #1f77b4"/>
   </g>
   <g id="patch_73">
    <path d="M 227.784863 244.024 
L 229.984034 244.024 
L 229.984034 239.959736 
L 227.784863 239.959736 
z
" clip-path="url(#p4efeab8191)" style="fill: #1f77b4"/>
   </g>
   <g id="patch_74">
    <path d="M 229.984034 244.024 
L 232.183206 244.024 
L 232.183206 240.578984 
L 229.984034 240.578984 
z
" clip-path="url(#p4efeab8191)" style="fill: #1f77b4"/>
   </g>
   <g id="patch_75">
    <path d="M 232.183206 244.024 
L 234.382377 244.024 
L 234.382377 241.169762 
L 232.183206 241.169762 
z
" clip-path="url(#p4efeab8191)" style="fill: #1f77b4"/>
   </g>
   <g id="patch_76">
    <path d="M 234.382377 244.024 
L 236.581548 244.024 
L 236.581548 241.561241 
L 234.382377 241.561241 
z
" clip-path="url(#p4efeab8191)" style="fill: #1f77b4"/>
   </g>
   <g id="patch_77">
    <path d="M 236.581548 244.024 
L 238.780719 244.024 
L 238.780719 241.845953 
L 236.581548 241.845953 
z
" clip-path="url(#p4efeab8191)" style="fill: #1f77b4"/>
   </g>
   <g id="patch_78">
    <path d="M 238.780719 244.024 
L 240.97989 244.024 
L 240.97989 242.173372 
L 238.780719 242.173372 
z
" clip-path="url(#p4efeab8191)" style="fill: #1f77b4"/>
   </g>
   <g id="patch_79">
    <path d="M 240.97989 244.024 
L 243.179062 244.024 
L 243.179062 242.493673 
L 240.97989 242.493673 
z
" clip-path="url(#p4efeab8191)" style="fill: #1f77b4"/>
   </g>
   <g id="patch_80">
    <path d="M 243.179062 244.024 
L 245.378233 244.024 
L 245.378233 242.813974 
L 243.179062 242.813974 
z
" clip-path="url(#p4efeab8191)" style="fill: #1f77b4"/>
   </g>
   <g id="patch_81">
    <path d="M 245.378233 244.024 
L 247.577404 244.024 
L 247.577404 243.063097 
L 245.378233 243.063097 
z
" clip-path="url(#p4efeab8191)" style="fill: #1f77b4"/>
   </g>
   <g id="patch_82">
    <path d="M 247.577404 244.024 
L 249.776575 244.024 
L 249.776575 243.233924 
L 247.577404 243.233924 
z
" clip-path="url(#p4efeab8191)" style="fill: #1f77b4"/>
   </g>
   <g id="patch_83">
    <path d="M 249.776575 244.024 
L 251.975747 244.024 
L 251.975747 243.319338 
L 249.776575 243.319338 
z
" clip-path="url(#p4efeab8191)" style="fill: #1f77b4"/>
   </g>
   <g id="patch_84">
    <path d="M 251.975747 244.024 
L 254.174918 244.024 
L 254.174918 243.475929 
L 251.975747 243.475929 
z
" clip-path="url(#p4efeab8191)" style="fill: #1f77b4"/>
   </g>
   <g id="patch_85">
    <path d="M 254.174918 244.024 
L 256.374089 244.024 
L 256.374089 243.561343 
L 254.174918 243.561343 
z
" clip-path="url(#p4efeab8191)" style="fill: #1f77b4"/>
   </g>
   <g id="patch_86">
    <path d="M 256.374089 244.024 
L 258.57326 244.024 
L 258.57326 243.660992 
L 256.374089 243.660992 
z
" clip-path="url(#p4efeab8191)" style="fill: #1f77b4"/>
   </g>
   <g id="patch_87">
    <path d="M 258.57326 244.024 
L 260.772432 244.024 
L 260.772432 243.803348 
L 258.57326 243.803348 
z
" clip-path="url(#p4efeab8191)" style="fill: #1f77b4"/>
   </g>
   <g id="patch_88">
    <path d="M 260.772432 244.024 
L 262.971603 244.024 
L 262.971603 243.79623 
L 260.772432 243.79623 
z
" clip-path="url(#p4efeab8191)" style="fill: #1f77b4"/>
   </g>
   <g id="patch_89">
    <path d="M 262.971603 244.024 
L 265.170774 244.024 
L 265.170774 243.79623 
L 262.971603 243.79623 
z
" clip-path="url(#p4efeab8191)" style="fill: #1f77b4"/>
   </g>
   <g id="patch_90">
    <path d="M 265.170774 244.024 
L 267.369945 244.024 
L 267.369945 243.803348 
L 265.170774 243.803348 
z
" clip-path="url(#p4efeab8191)" style="fill: #1f77b4"/>
   </g>
   <g id="patch_91">
    <path d="M 267.369945 244.024 
L 269.569116 244.024 
L 269.569116 243.89588 
L 267.369945 243.89588 
z
" clip-path="url(#p4efeab8191)" style="fill: #1f77b4"/>
   </g>
   <g id="patch_92">
    <path d="M 269.569116 244.024 
L 271.768288 244.024 
L 271.768288 243.910115 
L 269.569116 243.910115 
z
" clip-path="url(#p4efeab8191)" style="fill: #1f77b4"/>
   </g>
   <g id="patch_93">
    <path d="M 271.768288 244.024 
L 273.967459 244.024 
L 273.967459 243.952822 
L 271.768288 243.952822 
z
" clip-path="url(#p4efeab8191)" style="fill: #1f77b4"/>
   </g>
   <g id="patch_94">
    <path d="M 273.967459 244.024 
L 276.16663 244.024 
L 276.16663 243.952822 
L 273.967459 243.952822 
z
" clip-path="url(#p4efeab8191)" style="fill: #1f77b4"/>
   </g>
   <g id="patch_95">
    <path d="M 276.16663 244.024 
L 278.365801 244.024 
L 278.365801 243.981293 
L 276.16663 243.981293 
z
" clip-path="url(#p4efeab8191)" style="fill: #1f77b4"/>
   </g>
   <g id="patch_96">
    <path d="M 278.365801 244.024 
L 280.564973 244.024 
L 280.564973 243.981293 
L 278.365801 243.981293 
z
" clip-path="url(#p4efeab8191)" style="fill: #1f77b4"/>
   </g>
   <g id="patch_97">
    <path d="M 280.564973 244.024 
L 282.764144 244.024 
L 282.764144 243.952822 
L 280.564973 243.952822 
z
" clip-path="url(#p4efeab8191)" style="fill: #1f77b4"/>
   </g>
   <g id="patch_98">
    <path d="M 282.764144 244.024 
L 284.963315 244.024 
L 284.963315 244.009764 
L 282.764144 244.009764 
z
" clip-path="url(#p4efeab8191)" style="fill: #1f77b4"/>
   </g>
   <g id="patch_99">
    <path d="M 284.963315 244.024 
L 287.162486 244.024 
L 287.162486 244.002647 
L 284.963315 244.002647 
z
" clip-path="url(#p4efeab8191)" style="fill: #1f77b4"/>
   </g>
   <g id="patch_100">
    <path d="M 287.162486 244.024 
L 289.361658 244.024 
L 289.361658 244.002647 
L 287.162486 244.002647 
z
" clip-path="url(#p4efeab8191)" style="fill: #1f77b4"/>
   </g>
   <g id="patch_101">
    <path d="M 289.361658 244.024 
L 291.560829 244.024 
L 291.560829 243.988411 
L 289.361658 243.988411 
z
" clip-path="url(#p4efeab8191)" style="fill: #1f77b4"/>
   </g>
   <g id="patch_102">
    <path d="M 291.560829 244.024 
L 293.76 244.024 
L 293.76 243.995529 
L 291.560829 243.995529 
z
" clip-path="url(#p4efeab8191)" style="fill: #1f77b4"/>
   </g>
   <g id="matplotlib.axis_1">
    <g id="xtick_1">
     <g id="line2d_1">
      <defs>
       <path id="mbe90674627" d="M 0 0 
L 0 3.5 
" style="stroke: #000000; stroke-width: 0.8"/>
      </defs>
      <g>
       <use xlink:href="#mbe90674627" x="73.37" y="244.024" style="stroke: #000000; stroke-width: 0.8"/>
      </g>
     </g>
     <g id="text_1">
      <!-- 0 -->
      <g transform="translate(70.18875 258.622437) scale(0.1 -0.1)">
       <defs>
        <path id="DejaVuSans-30" d="M 2034 4250 
Q 1547 4250 1301 3770 
Q 1056 3291 1056 2328 
Q 1056 1369 1301 889 
Q 1547 409 2034 409 
Q 2525 409 2770 889 
Q 3016 1369 3016 2328 
Q 3016 3291 2770 3770 
Q 2525 4250 2034 4250 
z
M 2034 4750 
Q 2819 4750 3233 4129 
Q 3647 3509 3647 2328 
Q 3647 1150 3233 529 
Q 2819 -91 2034 -91 
Q 1250 -91 836 529 
Q 422 1150 422 2328 
Q 422 3509 836 4129 
Q 1250 4750 2034 4750 
z
" transform="scale(0.015625)"/>
       </defs>
       <use xlink:href="#DejaVuSans-30"/>
      </g>
     </g>
    </g>
    <g id="xtick_2">
     <g id="line2d_2">
      <g>
       <use xlink:href="#mbe90674627" x="106.662766" y="244.024" style="stroke: #000000; stroke-width: 0.8"/>
      </g>
     </g>
     <g id="text_2">
      <!-- 250 -->
      <g transform="translate(97.119016 258.622437) scale(0.1 -0.1)">
       <defs>
        <path id="DejaVuSans-32" d="M 1228 531 
L 3431 531 
L 3431 0 
L 469 0 
L 469 531 
Q 828 903 1448 1529 
Q 2069 2156 2228 2338 
Q 2531 2678 2651 2914 
Q 2772 3150 2772 3378 
Q 2772 3750 2511 3984 
Q 2250 4219 1831 4219 
Q 1534 4219 1204 4116 
Q 875 4013 500 3803 
L 500 4441 
Q 881 4594 1212 4672 
Q 1544 4750 1819 4750 
Q 2544 4750 2975 4387 
Q 3406 4025 3406 3419 
Q 3406 3131 3298 2873 
Q 3191 2616 2906 2266 
Q 2828 2175 2409 1742 
Q 1991 1309 1228 531 
z
" transform="scale(0.015625)"/>
        <path id="DejaVuSans-35" d="M 691 4666 
L 3169 4666 
L 3169 4134 
L 1269 4134 
L 1269 2991 
Q 1406 3038 1543 3061 
Q 1681 3084 1819 3084 
Q 2600 3084 3056 2656 
Q 3513 2228 3513 1497 
Q 3513 744 3044 326 
Q 2575 -91 1722 -91 
Q 1428 -91 1123 -41 
Q 819 9 494 109 
L 494 744 
Q 775 591 1075 516 
Q 1375 441 1709 441 
Q 2250 441 2565 725 
Q 2881 1009 2881 1497 
Q 2881 1984 2565 2268 
Q 2250 2553 1709 2553 
Q 1456 2553 1204 2497 
Q 953 2441 691 2322 
L 691 4666 
z
" transform="scale(0.015625)"/>
       </defs>
       <use xlink:href="#DejaVuSans-32"/>
       <use xlink:href="#DejaVuSans-35" x="63.623047"/>
       <use xlink:href="#DejaVuSans-30" x="127.246094"/>
      </g>
     </g>
    </g>
    <g id="xtick_3">
     <g id="line2d_3">
      <g>
       <use xlink:href="#mbe90674627" x="139.955533" y="244.024" style="stroke: #000000; stroke-width: 0.8"/>
      </g>
     </g>
     <g id="text_3">
      <!-- 500 -->
      <g transform="translate(130.411783 258.622437) scale(0.1 -0.1)">
       <use xlink:href="#DejaVuSans-35"/>
       <use xlink:href="#DejaVuSans-30" x="63.623047"/>
       <use xlink:href="#DejaVuSans-30" x="127.246094"/>
      </g>
     </g>
    </g>
    <g id="xtick_4">
     <g id="line2d_4">
      <g>
       <use xlink:href="#mbe90674627" x="173.248299" y="244.024" style="stroke: #000000; stroke-width: 0.8"/>
      </g>
     </g>
     <g id="text_4">
      <!-- 750 -->
      <g transform="translate(163.704549 258.622437) scale(0.1 -0.1)">
       <defs>
        <path id="DejaVuSans-37" d="M 525 4666 
L 3525 4666 
L 3525 4397 
L 1831 0 
L 1172 0 
L 2766 4134 
L 525 4134 
L 525 4666 
z
" transform="scale(0.015625)"/>
       </defs>
       <use xlink:href="#DejaVuSans-37"/>
       <use xlink:href="#DejaVuSans-35" x="63.623047"/>
       <use xlink:href="#DejaVuSans-30" x="127.246094"/>
      </g>
     </g>
    </g>
    <g id="xtick_5">
     <g id="line2d_5">
      <g>
       <use xlink:href="#mbe90674627" x="206.541066" y="244.024" style="stroke: #000000; stroke-width: 0.8"/>
      </g>
     </g>
     <g id="text_5">
      <!-- 1000 -->
      <g transform="translate(193.816066 258.622437) scale(0.1 -0.1)">
       <defs>
        <path id="DejaVuSans-31" d="M 794 531 
L 1825 531 
L 1825 4091 
L 703 3866 
L 703 4441 
L 1819 4666 
L 2450 4666 
L 2450 531 
L 3481 531 
L 3481 0 
L 794 0 
L 794 531 
z
" transform="scale(0.015625)"/>
       </defs>
       <use xlink:href="#DejaVuSans-31"/>
       <use xlink:href="#DejaVuSans-30" x="63.623047"/>
       <use xlink:href="#DejaVuSans-30" x="127.246094"/>
       <use xlink:href="#DejaVuSans-30" x="190.869141"/>
      </g>
     </g>
    </g>
    <g id="xtick_6">
     <g id="line2d_6">
      <g>
       <use xlink:href="#mbe90674627" x="239.833832" y="244.024" style="stroke: #000000; stroke-width: 0.8"/>
      </g>
     </g>
     <g id="text_6">
      <!-- 1250 -->
      <g transform="translate(227.108832 258.622437) scale(0.1 -0.1)">
       <use xlink:href="#DejaVuSans-31"/>
       <use xlink:href="#DejaVuSans-32" x="63.623047"/>
       <use xlink:href="#DejaVuSans-35" x="127.246094"/>
       <use xlink:href="#DejaVuSans-30" x="190.869141"/>
      </g>
     </g>
    </g>
    <g id="xtick_7">
     <g id="line2d_7">
      <g>
       <use xlink:href="#mbe90674627" x="273.126599" y="244.024" style="stroke: #000000; stroke-width: 0.8"/>
      </g>
     </g>
     <g id="text_7">
      <!-- 1500 -->
      <g transform="translate(260.401599 258.622437) scale(0.1 -0.1)">
       <use xlink:href="#DejaVuSans-31"/>
       <use xlink:href="#DejaVuSans-35" x="63.623047"/>
       <use xlink:href="#DejaVuSans-30" x="127.246094"/>
       <use xlink:href="#DejaVuSans-30" x="190.869141"/>
      </g>
     </g>
    </g>
    <g id="text_8">
     <!-- $v_x$ in [m/s] -->
     <g transform="translate(157.565 272.300563) scale(0.1 -0.1)">
      <defs>
       <path id="DejaVuSans-Oblique-76" d="M 459 3500 
L 1069 3500 
L 1581 525 
L 3256 3500 
L 3866 3500 
L 1875 0 
L 1100 0 
L 459 3500 
z
" transform="scale(0.015625)"/>
       <path id="DejaVuSans-Oblique-78" d="M 3841 3500 
L 2234 1784 
L 3219 0 
L 2559 0 
L 1819 1388 
L 531 0 
L -166 0 
L 1556 1844 
L 641 3500 
L 1300 3500 
L 1972 2234 
L 3144 3500 
L 3841 3500 
z
" transform="scale(0.015625)"/>
       <path id="DejaVuSans-20" transform="scale(0.015625)"/>
       <path id="DejaVuSans-69" d="M 603 3500 
L 1178 3500 
L 1178 0 
L 603 0 
L 603 3500 
z
M 603 4863 
L 1178 4863 
L 1178 4134 
L 603 4134 
L 603 4863 
z
" transform="scale(0.015625)"/>
       <path id="DejaVuSans-6e" d="M 3513 2113 
L 3513 0 
L 2938 0 
L 2938 2094 
Q 2938 2591 2744 2837 
Q 2550 3084 2163 3084 
Q 1697 3084 1428 2787 
Q 1159 2491 1159 1978 
L 1159 0 
L 581 0 
L 581 3500 
L 1159 3500 
L 1159 2956 
Q 1366 3272 1645 3428 
Q 1925 3584 2291 3584 
Q 2894 3584 3203 3211 
Q 3513 2838 3513 2113 
z
" transform="scale(0.015625)"/>
       <path id="DejaVuSans-5b" d="M 550 4863 
L 1875 4863 
L 1875 4416 
L 1125 4416 
L 1125 -397 
L 1875 -397 
L 1875 -844 
L 550 -844 
L 550 4863 
z
" transform="scale(0.015625)"/>
       <path id="DejaVuSans-6d" d="M 3328 2828 
Q 3544 3216 3844 3400 
Q 4144 3584 4550 3584 
Q 5097 3584 5394 3201 
Q 5691 2819 5691 2113 
L 5691 0 
L 5113 0 
L 5113 2094 
Q 5113 2597 4934 2840 
Q 4756 3084 4391 3084 
Q 3944 3084 3684 2787 
Q 3425 2491 3425 1978 
L 3425 0 
L 2847 0 
L 2847 2094 
Q 2847 2600 2669 2842 
Q 2491 3084 2119 3084 
Q 1678 3084 1418 2786 
Q 1159 2488 1159 1978 
L 1159 0 
L 581 0 
L 581 3500 
L 1159 3500 
L 1159 2956 
Q 1356 3278 1631 3431 
Q 1906 3584 2284 3584 
Q 2666 3584 2933 3390 
Q 3200 3197 3328 2828 
z
" transform="scale(0.015625)"/>
       <path id="DejaVuSans-2f" d="M 1625 4666 
L 2156 4666 
L 531 -594 
L 0 -594 
L 1625 4666 
z
" transform="scale(0.015625)"/>
       <path id="DejaVuSans-73" d="M 2834 3397 
L 2834 2853 
Q 2591 2978 2328 3040 
Q 2066 3103 1784 3103 
Q 1356 3103 1142 2972 
Q 928 2841 928 2578 
Q 928 2378 1081 2264 
Q 1234 2150 1697 2047 
L 1894 2003 
Q 2506 1872 2764 1633 
Q 3022 1394 3022 966 
Q 3022 478 2636 193 
Q 2250 -91 1575 -91 
Q 1294 -91 989 -36 
Q 684 19 347 128 
L 347 722 
Q 666 556 975 473 
Q 1284 391 1588 391 
Q 1994 391 2212 530 
Q 2431 669 2431 922 
Q 2431 1156 2273 1281 
Q 2116 1406 1581 1522 
L 1381 1569 
Q 847 1681 609 1914 
Q 372 2147 372 2553 
Q 372 3047 722 3315 
Q 1072 3584 1716 3584 
Q 2034 3584 2315 3537 
Q 2597 3491 2834 3397 
z
" transform="scale(0.015625)"/>
       <path id="DejaVuSans-5d" d="M 1947 4863 
L 1947 -844 
L 622 -844 
L 622 -397 
L 1369 -397 
L 1369 4416 
L 622 4416 
L 622 4863 
L 1947 4863 
z
" transform="scale(0.015625)"/>
      </defs>
      <use xlink:href="#DejaVuSans-Oblique-76" transform="translate(0 0.015625)"/>
      <use xlink:href="#DejaVuSans-Oblique-78" transform="translate(59.179688 -16.390625) scale(0.7)"/>
      <use xlink:href="#DejaVuSans-20" transform="translate(103.339844 0.015625)"/>
      <use xlink:href="#DejaVuSans-69" transform="translate(135.126953 0.015625)"/>
      <use xlink:href="#DejaVuSans-6e" transform="translate(162.910156 0.015625)"/>
      <use xlink:href="#DejaVuSans-20" transform="translate(226.289062 0.015625)"/>
      <use xlink:href="#DejaVuSans-5b" transform="translate(258.076172 0.015625)"/>
      <use xlink:href="#DejaVuSans-6d" transform="translate(297.089844 0.015625)"/>
      <use xlink:href="#DejaVuSans-2f" transform="translate(394.501953 0.015625)"/>
      <use xlink:href="#DejaVuSans-73" transform="translate(428.193359 0.015625)"/>
      <use xlink:href="#DejaVuSans-5d" transform="translate(480.292969 0.015625)"/>
     </g>
    </g>
   </g>
   <g id="matplotlib.axis_2">
    <g id="ytick_1">
     <g id="line2d_8">
      <defs>
       <path id="mdfaf888fea" d="M 0 0 
L -3.5 0 
" style="stroke: #000000; stroke-width: 0.8"/>
      </defs>
      <g>
       <use xlink:href="#mdfaf888fea" x="73.37" y="244.024" style="stroke: #000000; stroke-width: 0.8"/>
      </g>
     </g>
     <g id="text_9">
      <!-- 0.00000 -->
      <g transform="translate(25.016875 247.823219) scale(0.1 -0.1)">
       <defs>
        <path id="DejaVuSans-2e" d="M 684 794 
L 1344 794 
L 1344 0 
L 684 0 
L 684 794 
z
" transform="scale(0.015625)"/>
       </defs>
       <use xlink:href="#DejaVuSans-30"/>
       <use xlink:href="#DejaVuSans-2e" x="63.623047"/>
       <use xlink:href="#DejaVuSans-30" x="95.410156"/>
       <use xlink:href="#DejaVuSans-30" x="159.033203"/>
       <use xlink:href="#DejaVuSans-30" x="222.65625"/>
       <use xlink:href="#DejaVuSans-30" x="286.279297"/>
       <use xlink:href="#DejaVuSans-30" x="349.902344"/>
      </g>
     </g>
    </g>
    <g id="ytick_2">
     <g id="line2d_9">
      <g>
       <use xlink:href="#mdfaf888fea" x="73.37" y="214.638369" style="stroke: #000000; stroke-width: 0.8"/>
      </g>
     </g>
     <g id="text_10">
      <!-- 0.00025 -->
      <g transform="translate(25.016875 218.437588) scale(0.1 -0.1)">
       <use xlink:href="#DejaVuSans-30"/>
       <use xlink:href="#DejaVuSans-2e" x="63.623047"/>
       <use xlink:href="#DejaVuSans-30" x="95.410156"/>
       <use xlink:href="#DejaVuSans-30" x="159.033203"/>
       <use xlink:href="#DejaVuSans-30" x="222.65625"/>
       <use xlink:href="#DejaVuSans-32" x="286.279297"/>
       <use xlink:href="#DejaVuSans-35" x="349.902344"/>
      </g>
     </g>
    </g>
    <g id="ytick_3">
     <g id="line2d_10">
      <g>
       <use xlink:href="#mdfaf888fea" x="73.37" y="185.252739" style="stroke: #000000; stroke-width: 0.8"/>
      </g>
     </g>
     <g id="text_11">
      <!-- 0.00050 -->
      <g transform="translate(25.016875 189.051958) scale(0.1 -0.1)">
       <use xlink:href="#DejaVuSans-30"/>
       <use xlink:href="#DejaVuSans-2e" x="63.623047"/>
       <use xlink:href="#DejaVuSans-30" x="95.410156"/>
       <use xlink:href="#DejaVuSans-30" x="159.033203"/>
       <use xlink:href="#DejaVuSans-30" x="222.65625"/>
       <use xlink:href="#DejaVuSans-35" x="286.279297"/>
       <use xlink:href="#DejaVuSans-30" x="349.902344"/>
      </g>
     </g>
    </g>
    <g id="ytick_4">
     <g id="line2d_11">
      <g>
       <use xlink:href="#mdfaf888fea" x="73.37" y="155.867108" style="stroke: #000000; stroke-width: 0.8"/>
      </g>
     </g>
     <g id="text_12">
      <!-- 0.00075 -->
      <g transform="translate(25.016875 159.666327) scale(0.1 -0.1)">
       <use xlink:href="#DejaVuSans-30"/>
       <use xlink:href="#DejaVuSans-2e" x="63.623047"/>
       <use xlink:href="#DejaVuSans-30" x="95.410156"/>
       <use xlink:href="#DejaVuSans-30" x="159.033203"/>
       <use xlink:href="#DejaVuSans-30" x="222.65625"/>
       <use xlink:href="#DejaVuSans-37" x="286.279297"/>
       <use xlink:href="#DejaVuSans-35" x="349.902344"/>
      </g>
     </g>
    </g>
    <g id="ytick_5">
     <g id="line2d_12">
      <g>
       <use xlink:href="#mdfaf888fea" x="73.37" y="126.481478" style="stroke: #000000; stroke-width: 0.8"/>
      </g>
     </g>
     <g id="text_13">
      <!-- 0.00100 -->
      <g transform="translate(25.016875 130.280696) scale(0.1 -0.1)">
       <use xlink:href="#DejaVuSans-30"/>
       <use xlink:href="#DejaVuSans-2e" x="63.623047"/>
       <use xlink:href="#DejaVuSans-30" x="95.410156"/>
       <use xlink:href="#DejaVuSans-30" x="159.033203"/>
       <use xlink:href="#DejaVuSans-31" x="222.65625"/>
       <use xlink:href="#DejaVuSans-30" x="286.279297"/>
       <use xlink:href="#DejaVuSans-30" x="349.902344"/>
      </g>
     </g>
    </g>
    <g id="ytick_6">
     <g id="line2d_13">
      <g>
       <use xlink:href="#mdfaf888fea" x="73.37" y="97.095847" style="stroke: #000000; stroke-width: 0.8"/>
      </g>
     </g>
     <g id="text_14">
      <!-- 0.00125 -->
      <g transform="translate(25.016875 100.895066) scale(0.1 -0.1)">
       <use xlink:href="#DejaVuSans-30"/>
       <use xlink:href="#DejaVuSans-2e" x="63.623047"/>
       <use xlink:href="#DejaVuSans-30" x="95.410156"/>
       <use xlink:href="#DejaVuSans-30" x="159.033203"/>
       <use xlink:href="#DejaVuSans-31" x="222.65625"/>
       <use xlink:href="#DejaVuSans-32" x="286.279297"/>
       <use xlink:href="#DejaVuSans-35" x="349.902344"/>
      </g>
     </g>
    </g>
    <g id="ytick_7">
     <g id="line2d_14">
      <g>
       <use xlink:href="#mdfaf888fea" x="73.37" y="67.710217" style="stroke: #000000; stroke-width: 0.8"/>
      </g>
     </g>
     <g id="text_15">
      <!-- 0.00150 -->
      <g transform="translate(25.016875 71.509435) scale(0.1 -0.1)">
       <use xlink:href="#DejaVuSans-30"/>
       <use xlink:href="#DejaVuSans-2e" x="63.623047"/>
       <use xlink:href="#DejaVuSans-30" x="95.410156"/>
       <use xlink:href="#DejaVuSans-30" x="159.033203"/>
       <use xlink:href="#DejaVuSans-31" x="222.65625"/>
       <use xlink:href="#DejaVuSans-35" x="286.279297"/>
       <use xlink:href="#DejaVuSans-30" x="349.902344"/>
      </g>
     </g>
    </g>
    <g id="ytick_8">
     <g id="line2d_15">
      <g>
       <use xlink:href="#mdfaf888fea" x="73.37" y="38.324586" style="stroke: #000000; stroke-width: 0.8"/>
      </g>
     </g>
     <g id="text_16">
      <!-- 0.00175 -->
      <g transform="translate(25.016875 42.123805) scale(0.1 -0.1)">
       <use xlink:href="#DejaVuSans-30"/>
       <use xlink:href="#DejaVuSans-2e" x="63.623047"/>
       <use xlink:href="#DejaVuSans-30" x="95.410156"/>
       <use xlink:href="#DejaVuSans-30" x="159.033203"/>
       <use xlink:href="#DejaVuSans-31" x="222.65625"/>
       <use xlink:href="#DejaVuSans-37" x="286.279297"/>
       <use xlink:href="#DejaVuSans-35" x="349.902344"/>
      </g>
     </g>
    </g>
    <g id="text_17">
     <!-- Wahrscheinlichkeitsdichte -->
     <g transform="translate(18.937188 192.440906) rotate(-90) scale(0.1 -0.1)">
      <defs>
       <path id="DejaVuSans-57" d="M 213 4666 
L 850 4666 
L 1831 722 
L 2809 4666 
L 3519 4666 
L 4500 722 
L 5478 4666 
L 6119 4666 
L 4947 0 
L 4153 0 
L 3169 4050 
L 2175 0 
L 1381 0 
L 213 4666 
z
" transform="scale(0.015625)"/>
       <path id="DejaVuSans-61" d="M 2194 1759 
Q 1497 1759 1228 1600 
Q 959 1441 959 1056 
Q 959 750 1161 570 
Q 1363 391 1709 391 
Q 2188 391 2477 730 
Q 2766 1069 2766 1631 
L 2766 1759 
L 2194 1759 
z
M 3341 1997 
L 3341 0 
L 2766 0 
L 2766 531 
Q 2569 213 2275 61 
Q 1981 -91 1556 -91 
Q 1019 -91 701 211 
Q 384 513 384 1019 
Q 384 1609 779 1909 
Q 1175 2209 1959 2209 
L 2766 2209 
L 2766 2266 
Q 2766 2663 2505 2880 
Q 2244 3097 1772 3097 
Q 1472 3097 1187 3025 
Q 903 2953 641 2809 
L 641 3341 
Q 956 3463 1253 3523 
Q 1550 3584 1831 3584 
Q 2591 3584 2966 3190 
Q 3341 2797 3341 1997 
z
" transform="scale(0.015625)"/>
       <path id="DejaVuSans-68" d="M 3513 2113 
L 3513 0 
L 2938 0 
L 2938 2094 
Q 2938 2591 2744 2837 
Q 2550 3084 2163 3084 
Q 1697 3084 1428 2787 
Q 1159 2491 1159 1978 
L 1159 0 
L 581 0 
L 581 4863 
L 1159 4863 
L 1159 2956 
Q 1366 3272 1645 3428 
Q 1925 3584 2291 3584 
Q 2894 3584 3203 3211 
Q 3513 2838 3513 2113 
z
" transform="scale(0.015625)"/>
       <path id="DejaVuSans-72" d="M 2631 2963 
Q 2534 3019 2420 3045 
Q 2306 3072 2169 3072 
Q 1681 3072 1420 2755 
Q 1159 2438 1159 1844 
L 1159 0 
L 581 0 
L 581 3500 
L 1159 3500 
L 1159 2956 
Q 1341 3275 1631 3429 
Q 1922 3584 2338 3584 
Q 2397 3584 2469 3576 
Q 2541 3569 2628 3553 
L 2631 2963 
z
" transform="scale(0.015625)"/>
       <path id="DejaVuSans-63" d="M 3122 3366 
L 3122 2828 
Q 2878 2963 2633 3030 
Q 2388 3097 2138 3097 
Q 1578 3097 1268 2742 
Q 959 2388 959 1747 
Q 959 1106 1268 751 
Q 1578 397 2138 397 
Q 2388 397 2633 464 
Q 2878 531 3122 666 
L 3122 134 
Q 2881 22 2623 -34 
Q 2366 -91 2075 -91 
Q 1284 -91 818 406 
Q 353 903 353 1747 
Q 353 2603 823 3093 
Q 1294 3584 2113 3584 
Q 2378 3584 2631 3529 
Q 2884 3475 3122 3366 
z
" transform="scale(0.015625)"/>
       <path id="DejaVuSans-65" d="M 3597 1894 
L 3597 1613 
L 953 1613 
Q 991 1019 1311 708 
Q 1631 397 2203 397 
Q 2534 397 2845 478 
Q 3156 559 3463 722 
L 3463 178 
Q 3153 47 2828 -22 
Q 2503 -91 2169 -91 
Q 1331 -91 842 396 
Q 353 884 353 1716 
Q 353 2575 817 3079 
Q 1281 3584 2069 3584 
Q 2775 3584 3186 3129 
Q 3597 2675 3597 1894 
z
M 3022 2063 
Q 3016 2534 2758 2815 
Q 2500 3097 2075 3097 
Q 1594 3097 1305 2825 
Q 1016 2553 972 2059 
L 3022 2063 
z
" transform="scale(0.015625)"/>
       <path id="DejaVuSans-6c" d="M 603 4863 
L 1178 4863 
L 1178 0 
L 603 0 
L 603 4863 
z
" transform="scale(0.015625)"/>
       <path id="DejaVuSans-6b" d="M 581 4863 
L 1159 4863 
L 1159 1991 
L 2875 3500 
L 3609 3500 
L 1753 1863 
L 3688 0 
L 2938 0 
L 1159 1709 
L 1159 0 
L 581 0 
L 581 4863 
z
" transform="scale(0.015625)"/>
       <path id="DejaVuSans-74" d="M 1172 4494 
L 1172 3500 
L 2356 3500 
L 2356 3053 
L 1172 3053 
L 1172 1153 
Q 1172 725 1289 603 
Q 1406 481 1766 481 
L 2356 481 
L 2356 0 
L 1766 0 
Q 1100 0 847 248 
Q 594 497 594 1153 
L 594 3053 
L 172 3053 
L 172 3500 
L 594 3500 
L 594 4494 
L 1172 4494 
z
" transform="scale(0.015625)"/>
       <path id="DejaVuSans-64" d="M 2906 2969 
L 2906 4863 
L 3481 4863 
L 3481 0 
L 2906 0 
L 2906 525 
Q 2725 213 2448 61 
Q 2172 -91 1784 -91 
Q 1150 -91 751 415 
Q 353 922 353 1747 
Q 353 2572 751 3078 
Q 1150 3584 1784 3584 
Q 2172 3584 2448 3432 
Q 2725 3281 2906 2969 
z
M 947 1747 
Q 947 1113 1208 752 
Q 1469 391 1925 391 
Q 2381 391 2643 752 
Q 2906 1113 2906 1747 
Q 2906 2381 2643 2742 
Q 2381 3103 1925 3103 
Q 1469 3103 1208 2742 
Q 947 2381 947 1747 
z
" transform="scale(0.015625)"/>
      </defs>
      <use xlink:href="#DejaVuSans-57"/>
      <use xlink:href="#DejaVuSans-61" x="92.501953"/>
      <use xlink:href="#DejaVuSans-68" x="153.78125"/>
      <use xlink:href="#DejaVuSans-72" x="217.160156"/>
      <use xlink:href="#DejaVuSans-73" x="258.273438"/>
      <use xlink:href="#DejaVuSans-63" x="310.373047"/>
      <use xlink:href="#DejaVuSans-68" x="365.353516"/>
      <use xlink:href="#DejaVuSans-65" x="428.732422"/>
      <use xlink:href="#DejaVuSans-69" x="490.255859"/>
      <use xlink:href="#DejaVuSans-6e" x="518.039062"/>
      <use xlink:href="#DejaVuSans-6c" x="581.417969"/>
      <use xlink:href="#DejaVuSans-69" x="609.201172"/>
      <use xlink:href="#DejaVuSans-63" x="636.984375"/>
      <use xlink:href="#DejaVuSans-68" x="691.964844"/>
      <use xlink:href="#DejaVuSans-6b" x="755.34375"/>
      <use xlink:href="#DejaVuSans-65" x="809.628906"/>
      <use xlink:href="#DejaVuSans-69" x="871.152344"/>
      <use xlink:href="#DejaVuSans-74" x="898.935547"/>
      <use xlink:href="#DejaVuSans-73" x="938.144531"/>
      <use xlink:href="#DejaVuSans-64" x="990.244141"/>
      <use xlink:href="#DejaVuSans-69" x="1053.720703"/>
      <use xlink:href="#DejaVuSans-63" x="1081.503906"/>
      <use xlink:href="#DejaVuSans-68" x="1136.484375"/>
      <use xlink:href="#DejaVuSans-74" x="1199.863281"/>
      <use xlink:href="#DejaVuSans-65" x="1239.072266"/>
     </g>
    </g>
   </g>
   <g id="patch_103">
    <path d="M 73.37 244.024 
L 73.37 10.8 
" style="fill: none; stroke: #000000; stroke-width: 0.8; stroke-linejoin: miter; stroke-linecap: square"/>
   </g>
   <g id="patch_104">
    <path d="M 293.76 244.024 
L 293.76 10.8 
" style="fill: none; stroke: #000000; stroke-width: 0.8; stroke-linejoin: miter; stroke-linecap: square"/>
   </g>
   <g id="patch_105">
    <path d="M 73.37 244.024 
L 293.76 244.024 
" style="fill: none; stroke: #000000; stroke-width: 0.8; stroke-linejoin: miter; stroke-linecap: square"/>
   </g>
   <g id="patch_106">
    <path d="M 73.37 10.8 
L 293.76 10.8 
" style="fill: none; stroke: #000000; stroke-width: 0.8; stroke-linejoin: miter; stroke-linecap: square"/>
   </g>
  </g>
  <g id="axes_2">
   <g id="patch_107">
    <path d="M 344.81 244.024 
L 565.2 244.024 
L 565.2 10.8 
L 344.81 10.8 
z
" style="fill: #ffffff"/>
   </g>
   <g id="patch_108">
    <path d="M 346.558112 244.024 
L 347.651321 244.024 
L 347.651321 240.265211 
L 346.558112 240.265211 
z
" clip-path="url(#p7d19007c2b)" style="fill: #1f77b4"/>
   </g>
   <g id="patch_109">
    <path d="M 347.651321 244.024 
L 348.744531 244.024 
L 348.744531 213.243872 
L 347.651321 213.243872 
z
" clip-path="url(#p7d19007c2b)" style="fill: #1f77b4"/>
   </g>
   <g id="patch_110">
    <path d="M 348.744531 244.024 
L 349.83774 244.024 
L 349.83774 161.906016 
L 348.744531 161.906016 
z
" clip-path="url(#p7d19007c2b)" style="fill: #1f77b4"/>
   </g>
   <g id="patch_111">
    <path d="M 349.83774 244.024 
L 350.93095 244.024 
L 350.93095 105.131629 
L 349.83774 105.131629 
z
" clip-path="url(#p7d19007c2b)" style="fill: #1f77b4"/>
   </g>
   <g id="patch_112">
    <path d="M 350.93095 244.024 
L 352.024159 244.024 
L 352.024159 60.875784 
L 350.93095 60.875784 
z
" clip-path="url(#p7d19007c2b)" style="fill: #1f77b4"/>
   </g>
   <g id="patch_113">
    <path d="M 352.024159 244.024 
L 353.117368 244.024 
L 353.117368 36.107568 
L 352.024159 36.107568 
z
" clip-path="url(#p7d19007c2b)" style="fill: #1f77b4"/>
   </g>
   <g id="patch_114">
    <path d="M 353.117368 244.024 
L 354.210578 244.024 
L 354.210578 24.965634 
L 353.117368 24.965634 
z
" clip-path="url(#p7d19007c2b)" style="fill: #1f77b4"/>
   </g>
   <g id="patch_115">
    <path d="M 354.210578 244.024 
L 355.303787 244.024 
L 355.303787 21.905905 
L 354.210578 21.905905 
z
" clip-path="url(#p7d19007c2b)" style="fill: #1f77b4"/>
   </g>
   <g id="patch_116">
    <path d="M 355.303787 244.024 
L 356.396997 244.024 
L 356.396997 26.589604 
L 355.303787 26.589604 
z
" clip-path="url(#p7d19007c2b)" style="fill: #1f77b4"/>
   </g>
   <g id="patch_117">
    <path d="M 356.396997 244.024 
L 357.490206 244.024 
L 357.490206 35.591339 
L 356.396997 35.591339 
z
" clip-path="url(#p7d19007c2b)" style="fill: #1f77b4"/>
   </g>
   <g id="patch_118">
    <path d="M 357.490206 244.024 
L 358.583416 244.024 
L 358.583416 45.539494 
L 357.490206 45.539494 
z
" clip-path="url(#p7d19007c2b)" style="fill: #1f77b4"/>
   </g>
   <g id="patch_119">
    <path d="M 358.583416 244.024 
L 359.676625 244.024 
L 359.676625 56.971806 
L 358.583416 56.971806 
z
" clip-path="url(#p7d19007c2b)" style="fill: #1f77b4"/>
   </g>
   <g id="patch_120">
    <path d="M 359.676625 244.024 
L 360.769834 244.024 
L 360.769834 70.044219 
L 359.676625 70.044219 
z
" clip-path="url(#p7d19007c2b)" style="fill: #1f77b4"/>
   </g>
   <g id="patch_121">
    <path d="M 360.769834 244.024 
L 361.863044 244.024 
L 361.863044 79.857939 
L 360.769834 79.857939 
z
" clip-path="url(#p7d19007c2b)" style="fill: #1f77b4"/>
   </g>
   <g id="patch_122">
    <path d="M 361.863044 244.024 
L 362.956253 244.024 
L 362.956253 90.935343 
L 361.863044 90.935343 
z
" clip-path="url(#p7d19007c2b)" style="fill: #1f77b4"/>
   </g>
   <g id="patch_123">
    <path d="M 362.956253 244.024 
L 364.049463 244.024 
L 364.049463 99.931702 
L 362.956253 99.931702 
z
" clip-path="url(#p7d19007c2b)" style="fill: #1f77b4"/>
   </g>
   <g id="patch_124">
    <path d="M 364.049463 244.024 
L 365.142672 244.024 
L 365.142672 110.13797 
L 364.049463 110.13797 
z
" clip-path="url(#p7d19007c2b)" style="fill: #1f77b4"/>
   </g>
   <g id="patch_125">
    <path d="M 365.142672 244.024 
L 366.235882 244.024 
L 366.235882 119.166593 
L 365.142672 119.166593 
z
" clip-path="url(#p7d19007c2b)" style="fill: #1f77b4"/>
   </g>
   <g id="patch_126">
    <path d="M 366.235882 244.024 
L 367.329091 244.024 
L 367.329091 127.52842 
L 366.235882 127.52842 
z
" clip-path="url(#p7d19007c2b)" style="fill: #1f77b4"/>
   </g>
   <g id="patch_127">
    <path d="M 367.329091 244.024 
L 368.422301 244.024 
L 368.422301 135.55685 
L 367.329091 135.55685 
z
" clip-path="url(#p7d19007c2b)" style="fill: #1f77b4"/>
   </g>
   <g id="patch_128">
    <path d="M 368.422301 244.024 
L 369.51551 244.024 
L 369.51551 141.525743 
L 368.422301 141.525743 
z
" clip-path="url(#p7d19007c2b)" style="fill: #1f77b4"/>
   </g>
   <g id="patch_129">
    <path d="M 369.51551 244.024 
L 370.608719 244.024 
L 370.608719 149.317568 
L 369.51551 149.317568 
z
" clip-path="url(#p7d19007c2b)" style="fill: #1f77b4"/>
   </g>
   <g id="patch_130">
    <path d="M 370.608719 244.024 
L 371.701929 244.024 
L 371.701929 155.442405 
L 370.608719 155.442405 
z
" clip-path="url(#p7d19007c2b)" style="fill: #1f77b4"/>
   </g>
   <g id="patch_131">
    <path d="M 371.701929 244.024 
L 372.795138 244.024 
L 372.795138 160.308934 
L 371.701929 160.308934 
z
" clip-path="url(#p7d19007c2b)" style="fill: #1f77b4"/>
   </g>
   <g id="patch_132">
    <path d="M 372.795138 244.024 
L 373.888348 244.024 
L 373.888348 166.541319 
L 372.795138 166.541319 
z
" clip-path="url(#p7d19007c2b)" style="fill: #1f77b4"/>
   </g>
   <g id="patch_133">
    <path d="M 373.888348 244.024 
L 374.981557 244.024 
L 374.981557 170.934639 
L 373.888348 170.934639 
z
" clip-path="url(#p7d19007c2b)" style="fill: #1f77b4"/>
   </g>
   <g id="patch_134">
    <path d="M 374.981557 244.024 
L 376.074767 244.024 
L 376.074767 174.843995 
L 374.981557 174.843995 
z
" clip-path="url(#p7d19007c2b)" style="fill: #1f77b4"/>
   </g>
   <g id="patch_135">
    <path d="M 376.074767 244.024 
L 377.167976 244.024 
L 377.167976 178.764105 
L 376.074767 178.764105 
z
" clip-path="url(#p7d19007c2b)" style="fill: #1f77b4"/>
   </g>
   <g id="patch_136">
    <path d="M 377.167976 244.024 
L 378.261186 244.024 
L 378.261186 183.453182 
L 377.167976 183.453182 
z
" clip-path="url(#p7d19007c2b)" style="fill: #1f77b4"/>
   </g>
   <g id="patch_137">
    <path d="M 378.261186 244.024 
L 379.354395 244.024 
L 379.354395 186.35159 
L 378.261186 186.35159 
z
" clip-path="url(#p7d19007c2b)" style="fill: #1f77b4"/>
   </g>
   <g id="patch_138">
    <path d="M 379.354395 244.024 
L 380.447604 244.024 
L 380.447604 190.787929 
L 379.354395 190.787929 
z
" clip-path="url(#p7d19007c2b)" style="fill: #1f77b4"/>
   </g>
   <g id="patch_139">
    <path d="M 380.447604 244.024 
L 381.540814 244.024 
L 381.540814 192.589352 
L 380.447604 192.589352 
z
" clip-path="url(#p7d19007c2b)" style="fill: #1f77b4"/>
   </g>
   <g id="patch_140">
    <path d="M 381.540814 244.024 
L 382.634023 244.024 
L 382.634023 194.756436 
L 381.540814 194.756436 
z
" clip-path="url(#p7d19007c2b)" style="fill: #1f77b4"/>
   </g>
   <g id="patch_141">
    <path d="M 382.634023 244.024 
L 383.727233 244.024 
L 383.727233 198.531358 
L 382.634023 198.531358 
z
" clip-path="url(#p7d19007c2b)" style="fill: #1f77b4"/>
   </g>
   <g id="patch_142">
    <path d="M 383.727233 244.024 
L 384.820442 244.024 
L 384.820442 200.214478 
L 383.727233 200.214478 
z
" clip-path="url(#p7d19007c2b)" style="fill: #1f77b4"/>
   </g>
   <g id="patch_143">
    <path d="M 384.820442 244.024 
L 385.913652 244.024 
L 385.913652 202.128825 
L 384.820442 202.128825 
z
" clip-path="url(#p7d19007c2b)" style="fill: #1f77b4"/>
   </g>
   <g id="patch_144">
    <path d="M 385.913652 244.024 
L 387.006861 244.024 
L 387.006861 204.865912 
L 385.913652 204.865912 
z
" clip-path="url(#p7d19007c2b)" style="fill: #1f77b4"/>
   </g>
   <g id="patch_145">
    <path d="M 387.006861 244.024 
L 388.100071 244.024 
L 388.100071 206.629693 
L 387.006861 206.629693 
z
" clip-path="url(#p7d19007c2b)" style="fill: #1f77b4"/>
   </g>
   <g id="patch_146">
    <path d="M 388.100071 244.024 
L 389.19328 244.024 
L 389.19328 208.291304 
L 388.100071 208.291304 
z
" clip-path="url(#p7d19007c2b)" style="fill: #1f77b4"/>
   </g>
   <g id="patch_147">
    <path d="M 389.19328 244.024 
L 390.286489 244.024 
L 390.286489 209.399044 
L 389.19328 209.399044 
z
" clip-path="url(#p7d19007c2b)" style="fill: #1f77b4"/>
   </g>
   <g id="patch_148">
    <path d="M 390.286489 244.024 
L 391.379699 244.024 
L 391.379699 211.146693 
L 390.286489 211.146693 
z
" clip-path="url(#p7d19007c2b)" style="fill: #1f77b4"/>
   </g>
   <g id="patch_149">
    <path d="M 391.379699 244.024 
L 392.472908 244.024 
L 392.472908 213.512741 
L 391.379699 213.512741 
z
" clip-path="url(#p7d19007c2b)" style="fill: #1f77b4"/>
   </g>
   <g id="patch_150">
    <path d="M 392.472908 244.024 
L 393.566118 244.024 
L 393.566118 214.738784 
L 392.472908 214.738784 
z
" clip-path="url(#p7d19007c2b)" style="fill: #1f77b4"/>
   </g>
   <g id="patch_151">
    <path d="M 393.566118 244.024 
L 394.659327 244.024 
L 394.659327 215.921807 
L 393.566118 215.921807 
z
" clip-path="url(#p7d19007c2b)" style="fill: #1f77b4"/>
   </g>
   <g id="patch_152">
    <path d="M 394.659327 244.024 
L 395.752537 244.024 
L 395.752537 217.513512 
L 394.659327 217.513512 
z
" clip-path="url(#p7d19007c2b)" style="fill: #1f77b4"/>
   </g>
   <g id="patch_153">
    <path d="M 395.752537 244.024 
L 396.845746 244.024 
L 396.845746 218.357761 
L 395.752537 218.357761 
z
" clip-path="url(#p7d19007c2b)" style="fill: #1f77b4"/>
   </g>
   <g id="patch_154">
    <path d="M 396.845746 244.024 
L 397.938955 244.024 
L 397.938955 218.830971 
L 396.845746 218.830971 
z
" clip-path="url(#p7d19007c2b)" style="fill: #1f77b4"/>
   </g>
   <g id="patch_155">
    <path d="M 397.938955 244.024 
L 399.032165 244.024 
L 399.032165 219.707484 
L 397.938955 219.707484 
z
" clip-path="url(#p7d19007c2b)" style="fill: #1f77b4"/>
   </g>
   <g id="patch_156">
    <path d="M 399.032165 244.024 
L 400.125374 244.024 
L 400.125374 220.960413 
L 399.032165 220.960413 
z
" clip-path="url(#p7d19007c2b)" style="fill: #1f77b4"/>
   </g>
   <g id="patch_157">
    <path d="M 400.125374 244.024 
L 401.218584 244.024 
L 401.218584 222.234853 
L 400.125374 222.234853 
z
" clip-path="url(#p7d19007c2b)" style="fill: #1f77b4"/>
   </g>
   <g id="patch_158">
    <path d="M 401.218584 244.024 
L 402.311793 244.024 
L 402.311793 222.310136 
L 401.218584 222.310136 
z
" clip-path="url(#p7d19007c2b)" style="fill: #1f77b4"/>
   </g>
   <g id="patch_159">
    <path d="M 402.311793 244.024 
L 403.405003 244.024 
L 403.405003 223.638349 
L 402.311793 223.638349 
z
" clip-path="url(#p7d19007c2b)" style="fill: #1f77b4"/>
   </g>
   <g id="patch_160">
    <path d="M 403.405003 244.024 
L 404.498212 244.024 
L 404.498212 224.794486 
L 403.405003 224.794486 
z
" clip-path="url(#p7d19007c2b)" style="fill: #1f77b4"/>
   </g>
   <g id="patch_161">
    <path d="M 404.498212 244.024 
L 405.591422 244.024 
L 405.591422 225.246186 
L 404.498212 225.246186 
z
" clip-path="url(#p7d19007c2b)" style="fill: #1f77b4"/>
   </g>
   <g id="patch_162">
    <path d="M 405.591422 244.024 
L 406.684631 244.024 
L 406.684631 226.230247 
L 405.591422 226.230247 
z
" clip-path="url(#p7d19007c2b)" style="fill: #1f77b4"/>
   </g>
   <g id="patch_163">
    <path d="M 406.684631 244.024 
L 407.77784 244.024 
L 407.77784 226.536757 
L 406.684631 226.536757 
z
" clip-path="url(#p7d19007c2b)" style="fill: #1f77b4"/>
   </g>
   <g id="patch_164">
    <path d="M 407.77784 244.024 
L 408.87105 244.024 
L 408.87105 227.096005 
L 407.77784 227.096005 
z
" clip-path="url(#p7d19007c2b)" style="fill: #1f77b4"/>
   </g>
   <g id="patch_165">
    <path d="M 408.87105 244.024 
L 409.964259 244.024 
L 409.964259 227.214307 
L 408.87105 227.214307 
z
" clip-path="url(#p7d19007c2b)" style="fill: #1f77b4"/>
   </g>
   <g id="patch_166">
    <path d="M 409.964259 244.024 
L 411.057469 244.024 
L 411.057469 228.467237 
L 409.964259 228.467237 
z
" clip-path="url(#p7d19007c2b)" style="fill: #1f77b4"/>
   </g>
   <g id="patch_167">
    <path d="M 411.057469 244.024 
L 412.150678 244.024 
L 412.150678 228.693087 
L 411.057469 228.693087 
z
" clip-path="url(#p7d19007c2b)" style="fill: #1f77b4"/>
   </g>
   <g id="patch_168">
    <path d="M 412.150678 244.024 
L 413.243888 244.024 
L 413.243888 229.822337 
L 412.150678 229.822337 
z
" clip-path="url(#p7d19007c2b)" style="fill: #1f77b4"/>
   </g>
   <g id="patch_169">
    <path d="M 413.243888 244.024 
L 414.337097 244.024 
L 414.337097 229.956772 
L 413.243888 229.956772 
z
" clip-path="url(#p7d19007c2b)" style="fill: #1f77b4"/>
   </g>
   <g id="patch_170">
    <path d="M 414.337097 244.024 
L 415.430307 244.024 
L 415.430307 229.752431 
L 414.337097 229.752431 
z
" clip-path="url(#p7d19007c2b)" style="fill: #1f77b4"/>
   </g>
   <g id="patch_171">
    <path d="M 415.430307 244.024 
L 416.523516 244.024 
L 416.523516 230.870926 
L 415.430307 230.870926 
z
" clip-path="url(#p7d19007c2b)" style="fill: #1f77b4"/>
   </g>
   <g id="patch_172">
    <path d="M 416.523516 244.024 
L 417.616725 244.024 
L 417.616725 231.365645 
L 416.523516 231.365645 
z
" clip-path="url(#p7d19007c2b)" style="fill: #1f77b4"/>
   </g>
   <g id="patch_173">
    <path d="M 417.616725 244.024 
L 418.709935 244.024 
L 418.709935 231.822723 
L 417.616725 231.822723 
z
" clip-path="url(#p7d19007c2b)" style="fill: #1f77b4"/>
   </g>
   <g id="patch_174">
    <path d="M 418.709935 244.024 
L 419.803144 244.024 
L 419.803144 232.021686 
L 418.709935 232.021686 
z
" clip-path="url(#p7d19007c2b)" style="fill: #1f77b4"/>
   </g>
   <g id="patch_175">
    <path d="M 419.803144 244.024 
L 420.896354 244.024 
L 420.896354 232.500273 
L 419.803144 232.500273 
z
" clip-path="url(#p7d19007c2b)" style="fill: #1f77b4"/>
   </g>
   <g id="patch_176">
    <path d="M 420.896354 244.024 
L 421.989563 244.024 
L 421.989563 232.790651 
L 420.896354 232.790651 
z
" clip-path="url(#p7d19007c2b)" style="fill: #1f77b4"/>
   </g>
   <g id="patch_177">
    <path d="M 421.989563 244.024 
L 423.082773 244.024 
L 423.082773 233.086407 
L 421.989563 233.086407 
z
" clip-path="url(#p7d19007c2b)" style="fill: #1f77b4"/>
   </g>
   <g id="patch_178">
    <path d="M 423.082773 244.024 
L 424.175982 244.024 
L 424.175982 233.441314 
L 423.082773 233.441314 
z
" clip-path="url(#p7d19007c2b)" style="fill: #1f77b4"/>
   </g>
   <g id="patch_179">
    <path d="M 424.175982 244.024 
L 425.269192 244.024 
L 425.269192 233.952166 
L 424.175982 233.952166 
z
" clip-path="url(#p7d19007c2b)" style="fill: #1f77b4"/>
   </g>
   <g id="patch_180">
    <path d="M 425.269192 244.024 
L 426.362401 244.024 
L 426.362401 233.979052 
L 425.269192 233.979052 
z
" clip-path="url(#p7d19007c2b)" style="fill: #1f77b4"/>
   </g>
   <g id="patch_181">
    <path d="M 426.362401 244.024 
L 427.45561 244.024 
L 427.45561 234.55981 
L 426.362401 234.55981 
z
" clip-path="url(#p7d19007c2b)" style="fill: #1f77b4"/>
   </g>
   <g id="patch_182">
    <path d="M 427.45561 244.024 
L 428.54882 244.024 
L 428.54882 234.532923 
L 427.45561 234.532923 
z
" clip-path="url(#p7d19007c2b)" style="fill: #1f77b4"/>
   </g>
   <g id="patch_183">
    <path d="M 428.54882 244.024 
L 429.642029 244.024 
L 429.642029 234.979245 
L 428.54882 234.979245 
z
" clip-path="url(#p7d19007c2b)" style="fill: #1f77b4"/>
   </g>
   <g id="patch_184">
    <path d="M 429.642029 244.024 
L 430.735239 244.024 
L 430.735239 235.000755 
L 429.642029 235.000755 
z
" clip-path="url(#p7d19007c2b)" style="fill: #1f77b4"/>
   </g>
   <g id="patch_185">
    <path d="M 430.735239 244.024 
L 431.828448 244.024 
L 431.828448 235.629908 
L 430.735239 235.629908 
z
" clip-path="url(#p7d19007c2b)" style="fill: #1f77b4"/>
   </g>
   <g id="patch_186">
    <path d="M 431.828448 244.024 
L 432.921658 244.024 
L 432.921658 235.613776 
L 431.828448 235.613776 
z
" clip-path="url(#p7d19007c2b)" style="fill: #1f77b4"/>
   </g>
   <g id="patch_187">
    <path d="M 432.921658 244.024 
L 434.014867 244.024 
L 434.014867 235.888023 
L 432.921658 235.888023 
z
" clip-path="url(#p7d19007c2b)" style="fill: #1f77b4"/>
   </g>
   <g id="patch_188">
    <path d="M 434.014867 244.024 
L 435.108076 244.024 
L 435.108076 235.775098 
L 434.014867 235.775098 
z
" clip-path="url(#p7d19007c2b)" style="fill: #1f77b4"/>
   </g>
   <g id="patch_189">
    <path d="M 435.108076 244.024 
L 436.201286 244.024 
L 436.201286 236.549441 
L 435.108076 236.549441 
z
" clip-path="url(#p7d19007c2b)" style="fill: #1f77b4"/>
   </g>
   <g id="patch_190">
    <path d="M 436.201286 244.024 
L 437.294495 244.024 
L 437.294495 236.700007 
L 436.201286 236.700007 
z
" clip-path="url(#p7d19007c2b)" style="fill: #1f77b4"/>
   </g>
   <g id="patch_191">
    <path d="M 437.294495 244.024 
L 438.387705 244.024 
L 438.387705 236.802177 
L 437.294495 236.802177 
z
" clip-path="url(#p7d19007c2b)" style="fill: #1f77b4"/>
   </g>
   <g id="patch_192">
    <path d="M 438.387705 244.024 
L 439.480914 244.024 
L 439.480914 237.189349 
L 438.387705 237.189349 
z
" clip-path="url(#p7d19007c2b)" style="fill: #1f77b4"/>
   </g>
   <g id="patch_193">
    <path d="M 439.480914 244.024 
L 440.574124 244.024 
L 440.574124 237.065669 
L 439.480914 237.065669 
z
" clip-path="url(#p7d19007c2b)" style="fill: #1f77b4"/>
   </g>
   <g id="patch_194">
    <path d="M 440.574124 244.024 
L 441.667333 244.024 
L 441.667333 237.425954 
L 440.574124 237.425954 
z
" clip-path="url(#p7d19007c2b)" style="fill: #1f77b4"/>
   </g>
   <g id="patch_195">
    <path d="M 441.667333 244.024 
L 442.760543 244.024 
L 442.760543 237.786238 
L 441.667333 237.786238 
z
" clip-path="url(#p7d19007c2b)" style="fill: #1f77b4"/>
   </g>
   <g id="patch_196">
    <path d="M 442.760543 244.024 
L 443.853752 244.024 
L 443.853752 237.786238 
L 442.760543 237.786238 
z
" clip-path="url(#p7d19007c2b)" style="fill: #1f77b4"/>
   </g>
   <g id="patch_197">
    <path d="M 443.853752 244.024 
L 444.946961 244.024 
L 444.946961 237.796993 
L 443.853752 237.796993 
z
" clip-path="url(#p7d19007c2b)" style="fill: #1f77b4"/>
   </g>
   <g id="patch_198">
    <path d="M 444.946961 244.024 
L 446.040171 244.024 
L 446.040171 237.952937 
L 444.946961 237.952937 
z
" clip-path="url(#p7d19007c2b)" style="fill: #1f77b4"/>
   </g>
   <g id="patch_199">
    <path d="M 446.040171 244.024 
L 447.13338 244.024 
L 447.13338 238.135768 
L 446.040171 238.135768 
z
" clip-path="url(#p7d19007c2b)" style="fill: #1f77b4"/>
   </g>
   <g id="patch_200">
    <path d="M 447.13338 244.024 
L 448.22659 244.024 
L 448.22659 238.372373 
L 447.13338 238.372373 
z
" clip-path="url(#p7d19007c2b)" style="fill: #1f77b4"/>
   </g>
   <g id="patch_201">
    <path d="M 448.22659 244.024 
L 449.319799 244.024 
L 449.319799 238.608977 
L 448.22659 238.608977 
z
" clip-path="url(#p7d19007c2b)" style="fill: #1f77b4"/>
   </g>
   <g id="patch_202">
    <path d="M 449.319799 244.024 
L 450.413009 244.024 
L 450.413009 238.356241 
L 449.319799 238.356241 
z
" clip-path="url(#p7d19007c2b)" style="fill: #1f77b4"/>
   </g>
   <g id="patch_203">
    <path d="M 450.413009 244.024 
L 451.506218 244.024 
L 451.506218 238.700393 
L 450.413009 238.700393 
z
" clip-path="url(#p7d19007c2b)" style="fill: #1f77b4"/>
   </g>
   <g id="patch_204">
    <path d="M 451.506218 244.024 
L 452.599428 244.024 
L 452.599428 238.980017 
L 451.506218 238.980017 
z
" clip-path="url(#p7d19007c2b)" style="fill: #1f77b4"/>
   </g>
   <g id="patch_205">
    <path d="M 452.599428 244.024 
L 453.692637 244.024 
L 453.692637 238.775676 
L 452.599428 238.775676 
z
" clip-path="url(#p7d19007c2b)" style="fill: #1f77b4"/>
   </g>
   <g id="patch_206">
    <path d="M 453.692637 244.024 
L 454.785846 244.024 
L 454.785846 238.883224 
L 453.692637 238.883224 
z
" clip-path="url(#p7d19007c2b)" style="fill: #1f77b4"/>
   </g>
   <g id="patch_207">
    <path d="M 454.785846 244.024 
L 455.879056 244.024 
L 455.879056 239.017658 
L 454.785846 239.017658 
z
" clip-path="url(#p7d19007c2b)" style="fill: #1f77b4"/>
   </g>
   <g id="patch_208">
    <path d="M 455.879056 244.024 
L 456.972265 244.024 
L 456.972265 239.114451 
L 455.879056 239.114451 
z
" clip-path="url(#p7d19007c2b)" style="fill: #1f77b4"/>
   </g>
   <g id="patch_209">
    <path d="M 456.972265 244.024 
L 458.065475 244.024 
L 458.065475 239.221999 
L 456.972265 239.221999 
z
" clip-path="url(#p7d19007c2b)" style="fill: #1f77b4"/>
   </g>
   <g id="patch_210">
    <path d="M 458.065475 244.024 
L 459.158684 244.024 
L 459.158684 239.410207 
L 458.065475 239.410207 
z
" clip-path="url(#p7d19007c2b)" style="fill: #1f77b4"/>
   </g>
   <g id="patch_211">
    <path d="M 459.158684 244.024 
L 460.251894 244.024 
L 460.251894 239.426339 
L 459.158684 239.426339 
z
" clip-path="url(#p7d19007c2b)" style="fill: #1f77b4"/>
   </g>
   <g id="patch_212">
    <path d="M 460.251894 244.024 
L 461.345103 244.024 
L 461.345103 239.469358 
L 460.251894 239.469358 
z
" clip-path="url(#p7d19007c2b)" style="fill: #1f77b4"/>
   </g>
   <g id="patch_213">
    <path d="M 461.345103 244.024 
L 462.438313 244.024 
L 462.438313 239.603793 
L 461.345103 239.603793 
z
" clip-path="url(#p7d19007c2b)" style="fill: #1f77b4"/>
   </g>
   <g id="patch_214">
    <path d="M 462.438313 244.024 
L 463.531522 244.024 
L 463.531522 239.738227 
L 462.438313 239.738227 
z
" clip-path="url(#p7d19007c2b)" style="fill: #1f77b4"/>
   </g>
   <g id="patch_215">
    <path d="M 463.531522 244.024 
L 464.624731 244.024 
L 464.624731 239.985587 
L 463.531522 239.985587 
z
" clip-path="url(#p7d19007c2b)" style="fill: #1f77b4"/>
   </g>
   <g id="patch_216">
    <path d="M 464.624731 244.024 
L 465.717941 244.024 
L 465.717941 239.861907 
L 464.624731 239.861907 
z
" clip-path="url(#p7d19007c2b)" style="fill: #1f77b4"/>
   </g>
   <g id="patch_217">
    <path d="M 465.717941 244.024 
L 466.81115 244.024 
L 466.81115 239.985587 
L 465.717941 239.985587 
z
" clip-path="url(#p7d19007c2b)" style="fill: #1f77b4"/>
   </g>
   <g id="patch_218">
    <path d="M 466.81115 244.024 
L 467.90436 244.024 
L 467.90436 239.969455 
L 466.81115 239.969455 
z
" clip-path="url(#p7d19007c2b)" style="fill: #1f77b4"/>
   </g>
   <g id="patch_219">
    <path d="M 467.90436 244.024 
L 468.997569 244.024 
L 468.997569 240.216814 
L 467.90436 240.216814 
z
" clip-path="url(#p7d19007c2b)" style="fill: #1f77b4"/>
   </g>
   <g id="patch_220">
    <path d="M 468.997569 244.024 
L 470.090779 244.024 
L 470.090779 240.464174 
L 468.997569 240.464174 
z
" clip-path="url(#p7d19007c2b)" style="fill: #1f77b4"/>
   </g>
   <g id="patch_221">
    <path d="M 470.090779 244.024 
L 471.183988 244.024 
L 471.183988 240.28672 
L 470.090779 240.28672 
z
" clip-path="url(#p7d19007c2b)" style="fill: #1f77b4"/>
   </g>
   <g id="patch_222">
    <path d="M 471.183988 244.024 
L 472.277197 244.024 
L 472.277197 240.620118 
L 471.183988 240.620118 
z
" clip-path="url(#p7d19007c2b)" style="fill: #1f77b4"/>
   </g>
   <g id="patch_223">
    <path d="M 472.277197 244.024 
L 473.370407 244.024 
L 473.370407 240.302852 
L 472.277197 240.302852 
z
" clip-path="url(#p7d19007c2b)" style="fill: #1f77b4"/>
   </g>
   <g id="patch_224">
    <path d="M 473.370407 244.024 
L 474.463616 244.024 
L 474.463616 240.517948 
L 473.370407 240.517948 
z
" clip-path="url(#p7d19007c2b)" style="fill: #1f77b4"/>
   </g>
   <g id="patch_225">
    <path d="M 474.463616 244.024 
L 475.556826 244.024 
L 475.556826 240.845968 
L 474.463616 240.845968 
z
" clip-path="url(#p7d19007c2b)" style="fill: #1f77b4"/>
   </g>
   <g id="patch_226">
    <path d="M 475.556826 244.024 
L 476.650035 244.024 
L 476.650035 240.749175 
L 475.556826 240.749175 
z
" clip-path="url(#p7d19007c2b)" style="fill: #1f77b4"/>
   </g>
   <g id="patch_227">
    <path d="M 476.650035 244.024 
L 477.743245 244.024 
L 477.743245 240.765307 
L 476.650035 240.765307 
z
" clip-path="url(#p7d19007c2b)" style="fill: #1f77b4"/>
   </g>
   <g id="patch_228">
    <path d="M 477.743245 244.024 
L 478.836454 244.024 
L 478.836454 240.743798 
L 477.743245 240.743798 
z
" clip-path="url(#p7d19007c2b)" style="fill: #1f77b4"/>
   </g>
   <g id="patch_229">
    <path d="M 478.836454 244.024 
L 479.929664 244.024 
L 479.929664 241.007289 
L 478.836454 241.007289 
z
" clip-path="url(#p7d19007c2b)" style="fill: #1f77b4"/>
   </g>
   <g id="patch_230">
    <path d="M 479.929664 244.024 
L 481.022873 244.024 
L 481.022873 240.797571 
L 479.929664 240.797571 
z
" clip-path="url(#p7d19007c2b)" style="fill: #1f77b4"/>
   </g>
   <g id="patch_231">
    <path d="M 481.022873 244.024 
L 482.116082 244.024 
L 482.116082 240.845968 
L 481.022873 240.845968 
z
" clip-path="url(#p7d19007c2b)" style="fill: #1f77b4"/>
   </g>
   <g id="patch_232">
    <path d="M 482.116082 244.024 
L 483.209292 244.024 
L 483.209292 240.781439 
L 482.116082 240.781439 
z
" clip-path="url(#p7d19007c2b)" style="fill: #1f77b4"/>
   </g>
   <g id="patch_233">
    <path d="M 483.209292 244.024 
L 484.302501 244.024 
L 484.302501 241.082573 
L 483.209292 241.082573 
z
" clip-path="url(#p7d19007c2b)" style="fill: #1f77b4"/>
   </g>
   <g id="patch_234">
    <path d="M 484.302501 244.024 
L 485.395711 244.024 
L 485.395711 241.120214 
L 484.302501 241.120214 
z
" clip-path="url(#p7d19007c2b)" style="fill: #1f77b4"/>
   </g>
   <g id="patch_235">
    <path d="M 485.395711 244.024 
L 486.48892 244.024 
L 486.48892 241.200875 
L 485.395711 241.200875 
z
" clip-path="url(#p7d19007c2b)" style="fill: #1f77b4"/>
   </g>
   <g id="patch_236">
    <path d="M 486.48892 244.024 
L 487.58213 244.024 
L 487.58213 241.168611 
L 486.48892 241.168611 
z
" clip-path="url(#p7d19007c2b)" style="fill: #1f77b4"/>
   </g>
   <g id="patch_237">
    <path d="M 487.58213 244.024 
L 488.675339 244.024 
L 488.675339 241.281536 
L 487.58213 241.281536 
z
" clip-path="url(#p7d19007c2b)" style="fill: #1f77b4"/>
   </g>
   <g id="patch_238">
    <path d="M 488.675339 244.024 
L 489.768549 244.024 
L 489.768549 241.41597 
L 488.675339 241.41597 
z
" clip-path="url(#p7d19007c2b)" style="fill: #1f77b4"/>
   </g>
   <g id="patch_239">
    <path d="M 489.768549 244.024 
L 490.861758 244.024 
L 490.861758 241.464367 
L 489.768549 241.464367 
z
" clip-path="url(#p7d19007c2b)" style="fill: #1f77b4"/>
   </g>
   <g id="patch_240">
    <path d="M 490.861758 244.024 
L 491.954967 244.024 
L 491.954967 241.480499 
L 490.861758 241.480499 
z
" clip-path="url(#p7d19007c2b)" style="fill: #1f77b4"/>
   </g>
   <g id="patch_241">
    <path d="M 491.954967 244.024 
L 493.048177 244.024 
L 493.048177 241.469744 
L 491.954967 241.469744 
z
" clip-path="url(#p7d19007c2b)" style="fill: #1f77b4"/>
   </g>
   <g id="patch_242">
    <path d="M 493.048177 244.024 
L 494.141386 244.024 
L 494.141386 241.448235 
L 493.048177 241.448235 
z
" clip-path="url(#p7d19007c2b)" style="fill: #1f77b4"/>
   </g>
   <g id="patch_243">
    <path d="M 494.141386 244.024 
L 495.234596 244.024 
L 495.234596 241.496631 
L 494.141386 241.496631 
z
" clip-path="url(#p7d19007c2b)" style="fill: #1f77b4"/>
   </g>
   <g id="patch_244">
    <path d="M 495.234596 244.024 
L 496.327805 244.024 
L 496.327805 241.679462 
L 495.234596 241.679462 
z
" clip-path="url(#p7d19007c2b)" style="fill: #1f77b4"/>
   </g>
   <g id="patch_245">
    <path d="M 496.327805 244.024 
L 497.421015 244.024 
L 497.421015 241.614933 
L 496.327805 241.614933 
z
" clip-path="url(#p7d19007c2b)" style="fill: #1f77b4"/>
   </g>
   <g id="patch_246">
    <path d="M 497.421015 244.024 
L 498.514224 244.024 
L 498.514224 241.66333 
L 497.421015 241.66333 
z
" clip-path="url(#p7d19007c2b)" style="fill: #1f77b4"/>
   </g>
   <g id="patch_247">
    <path d="M 498.514224 244.024 
L 499.607434 244.024 
L 499.607434 241.776255 
L 498.514224 241.776255 
z
" clip-path="url(#p7d19007c2b)" style="fill: #1f77b4"/>
   </g>
   <g id="patch_248">
    <path d="M 499.607434 244.024 
L 500.700643 244.024 
L 500.700643 241.88918 
L 499.607434 241.88918 
z
" clip-path="url(#p7d19007c2b)" style="fill: #1f77b4"/>
   </g>
   <g id="patch_249">
    <path d="M 500.700643 244.024 
L 501.793852 244.024 
L 501.793852 241.846161 
L 500.700643 241.846161 
z
" clip-path="url(#p7d19007c2b)" style="fill: #1f77b4"/>
   </g>
   <g id="patch_250">
    <path d="M 501.793852 244.024 
L 502.887062 244.024 
L 502.887062 241.873048 
L 501.793852 241.873048 
z
" clip-path="url(#p7d19007c2b)" style="fill: #1f77b4"/>
   </g>
   <g id="patch_251">
    <path d="M 502.887062 244.024 
L 503.980271 244.024 
L 503.980271 241.803142 
L 502.887062 241.803142 
z
" clip-path="url(#p7d19007c2b)" style="fill: #1f77b4"/>
   </g>
   <g id="patch_252">
    <path d="M 503.980271 244.024 
L 505.073481 244.024 
L 505.073481 242.045124 
L 503.980271 242.045124 
z
" clip-path="url(#p7d19007c2b)" style="fill: #1f77b4"/>
   </g>
   <g id="patch_253">
    <path d="M 505.073481 244.024 
L 506.16669 244.024 
L 506.16669 241.910689 
L 505.073481 241.910689 
z
" clip-path="url(#p7d19007c2b)" style="fill: #1f77b4"/>
   </g>
   <g id="patch_254">
    <path d="M 506.16669 244.024 
L 507.2599 244.024 
L 507.2599 242.179558 
L 506.16669 242.179558 
z
" clip-path="url(#p7d19007c2b)" style="fill: #1f77b4"/>
   </g>
   <g id="patch_255">
    <path d="M 507.2599 244.024 
L 508.353109 244.024 
L 508.353109 242.098898 
L 507.2599 242.098898 
z
" clip-path="url(#p7d19007c2b)" style="fill: #1f77b4"/>
   </g>
   <g id="patch_256">
    <path d="M 508.353109 244.024 
L 509.446318 244.024 
L 509.446318 241.905312 
L 508.353109 241.905312 
z
" clip-path="url(#p7d19007c2b)" style="fill: #1f77b4"/>
   </g>
   <g id="patch_257">
    <path d="M 509.446318 244.024 
L 510.539528 244.024 
L 510.539528 242.055879 
L 509.446318 242.055879 
z
" clip-path="url(#p7d19007c2b)" style="fill: #1f77b4"/>
   </g>
   <g id="patch_258">
    <path d="M 510.539528 244.024 
L 511.632737 244.024 
L 511.632737 242.072011 
L 510.539528 242.072011 
z
" clip-path="url(#p7d19007c2b)" style="fill: #1f77b4"/>
   </g>
   <g id="patch_259">
    <path d="M 511.632737 244.024 
L 512.725947 244.024 
L 512.725947 242.206445 
L 511.632737 242.206445 
z
" clip-path="url(#p7d19007c2b)" style="fill: #1f77b4"/>
   </g>
   <g id="patch_260">
    <path d="M 512.725947 244.024 
L 513.819156 244.024 
L 513.819156 242.201068 
L 512.725947 242.201068 
z
" clip-path="url(#p7d19007c2b)" style="fill: #1f77b4"/>
   </g>
   <g id="patch_261">
    <path d="M 513.819156 244.024 
L 514.912366 244.024 
L 514.912366 242.152671 
L 513.819156 242.152671 
z
" clip-path="url(#p7d19007c2b)" style="fill: #1f77b4"/>
   </g>
   <g id="patch_262">
    <path d="M 514.912366 244.024 
L 516.005575 244.024 
L 516.005575 242.281729 
L 514.912366 242.281729 
z
" clip-path="url(#p7d19007c2b)" style="fill: #1f77b4"/>
   </g>
   <g id="patch_263">
    <path d="M 516.005575 244.024 
L 517.098785 244.024 
L 517.098785 242.23871 
L 516.005575 242.23871 
z
" clip-path="url(#p7d19007c2b)" style="fill: #1f77b4"/>
   </g>
   <g id="patch_264">
    <path d="M 517.098785 244.024 
L 518.191994 244.024 
L 518.191994 242.244087 
L 517.098785 242.244087 
z
" clip-path="url(#p7d19007c2b)" style="fill: #1f77b4"/>
   </g>
   <g id="patch_265">
    <path d="M 518.191994 244.024 
L 519.285203 244.024 
L 519.285203 242.281729 
L 518.191994 242.281729 
z
" clip-path="url(#p7d19007c2b)" style="fill: #1f77b4"/>
   </g>
   <g id="patch_266">
    <path d="M 519.285203 244.024 
L 520.378413 244.024 
L 520.378413 242.254842 
L 519.285203 242.254842 
z
" clip-path="url(#p7d19007c2b)" style="fill: #1f77b4"/>
   </g>
   <g id="patch_267">
    <path d="M 520.378413 244.024 
L 521.471622 244.024 
L 521.471622 242.260219 
L 520.378413 242.260219 
z
" clip-path="url(#p7d19007c2b)" style="fill: #1f77b4"/>
   </g>
   <g id="patch_268">
    <path d="M 521.471622 244.024 
L 522.564832 244.024 
L 522.564832 242.351635 
L 521.471622 242.351635 
z
" clip-path="url(#p7d19007c2b)" style="fill: #1f77b4"/>
   </g>
   <g id="patch_269">
    <path d="M 522.564832 244.024 
L 523.658041 244.024 
L 523.658041 242.292483 
L 522.564832 242.292483 
z
" clip-path="url(#p7d19007c2b)" style="fill: #1f77b4"/>
   </g>
   <g id="patch_270">
    <path d="M 523.658041 244.024 
L 524.751251 244.024 
L 524.751251 242.297861 
L 523.658041 242.297861 
z
" clip-path="url(#p7d19007c2b)" style="fill: #1f77b4"/>
   </g>
   <g id="patch_271">
    <path d="M 524.751251 244.024 
L 525.84446 244.024 
L 525.84446 242.459182 
L 524.751251 242.459182 
z
" clip-path="url(#p7d19007c2b)" style="fill: #1f77b4"/>
   </g>
   <g id="patch_272">
    <path d="M 525.84446 244.024 
L 526.93767 244.024 
L 526.93767 242.42154 
L 525.84446 242.42154 
z
" clip-path="url(#p7d19007c2b)" style="fill: #1f77b4"/>
   </g>
   <g id="patch_273">
    <path d="M 526.93767 244.024 
L 528.030879 244.024 
L 528.030879 242.426918 
L 526.93767 242.426918 
z
" clip-path="url(#p7d19007c2b)" style="fill: #1f77b4"/>
   </g>
   <g id="patch_274">
    <path d="M 528.030879 244.024 
L 529.124088 244.024 
L 529.124088 242.502201 
L 528.030879 242.502201 
z
" clip-path="url(#p7d19007c2b)" style="fill: #1f77b4"/>
   </g>
   <g id="patch_275">
    <path d="M 529.124088 244.024 
L 530.217298 244.024 
L 530.217298 242.529088 
L 529.124088 242.529088 
z
" clip-path="url(#p7d19007c2b)" style="fill: #1f77b4"/>
   </g>
   <g id="patch_276">
    <path d="M 530.217298 244.024 
L 531.310507 244.024 
L 531.310507 242.609749 
L 530.217298 242.609749 
z
" clip-path="url(#p7d19007c2b)" style="fill: #1f77b4"/>
   </g>
   <g id="patch_277">
    <path d="M 531.310507 244.024 
L 532.403717 244.024 
L 532.403717 242.631258 
L 531.310507 242.631258 
z
" clip-path="url(#p7d19007c2b)" style="fill: #1f77b4"/>
   </g>
   <g id="patch_278">
    <path d="M 532.403717 244.024 
L 533.496926 244.024 
L 533.496926 242.56673 
L 532.403717 242.56673 
z
" clip-path="url(#p7d19007c2b)" style="fill: #1f77b4"/>
   </g>
   <g id="patch_279">
    <path d="M 533.496926 244.024 
L 534.590136 244.024 
L 534.590136 242.539843 
L 533.496926 242.539843 
z
" clip-path="url(#p7d19007c2b)" style="fill: #1f77b4"/>
   </g>
   <g id="patch_280">
    <path d="M 534.590136 244.024 
L 535.683345 244.024 
L 535.683345 242.577485 
L 534.590136 242.577485 
z
" clip-path="url(#p7d19007c2b)" style="fill: #1f77b4"/>
   </g>
   <g id="patch_281">
    <path d="M 535.683345 244.024 
L 536.776555 244.024 
L 536.776555 242.679655 
L 535.683345 242.679655 
z
" clip-path="url(#p7d19007c2b)" style="fill: #1f77b4"/>
   </g>
   <g id="patch_282">
    <path d="M 536.776555 244.024 
L 537.869764 244.024 
L 537.869764 242.636636 
L 536.776555 242.636636 
z
" clip-path="url(#p7d19007c2b)" style="fill: #1f77b4"/>
   </g>
   <g id="patch_283">
    <path d="M 537.869764 244.024 
L 538.962973 244.024 
L 538.962973 242.754938 
L 537.869764 242.754938 
z
" clip-path="url(#p7d19007c2b)" style="fill: #1f77b4"/>
   </g>
   <g id="patch_284">
    <path d="M 538.962973 244.024 
L 540.056183 244.024 
L 540.056183 242.685032 
L 538.962973 242.685032 
z
" clip-path="url(#p7d19007c2b)" style="fill: #1f77b4"/>
   </g>
   <g id="patch_285">
    <path d="M 540.056183 244.024 
L 541.149392 244.024 
L 541.149392 242.54522 
L 540.056183 242.54522 
z
" clip-path="url(#p7d19007c2b)" style="fill: #1f77b4"/>
   </g>
   <g id="patch_286">
    <path d="M 541.149392 244.024 
L 542.242602 244.024 
L 542.242602 242.706542 
L 541.149392 242.706542 
z
" clip-path="url(#p7d19007c2b)" style="fill: #1f77b4"/>
   </g>
   <g id="patch_287">
    <path d="M 542.242602 244.024 
L 543.335811 244.024 
L 543.335811 242.79258 
L 542.242602 242.79258 
z
" clip-path="url(#p7d19007c2b)" style="fill: #1f77b4"/>
   </g>
   <g id="patch_288">
    <path d="M 543.335811 244.024 
L 544.429021 244.024 
L 544.429021 242.797957 
L 543.335811 242.797957 
z
" clip-path="url(#p7d19007c2b)" style="fill: #1f77b4"/>
   </g>
   <g id="patch_289">
    <path d="M 544.429021 244.024 
L 545.52223 244.024 
L 545.52223 242.744183 
L 544.429021 242.744183 
z
" clip-path="url(#p7d19007c2b)" style="fill: #1f77b4"/>
   </g>
   <g id="patch_290">
    <path d="M 545.52223 244.024 
L 546.615439 244.024 
L 546.615439 242.749561 
L 545.52223 242.749561 
z
" clip-path="url(#p7d19007c2b)" style="fill: #1f77b4"/>
   </g>
   <g id="patch_291">
    <path d="M 546.615439 244.024 
L 547.708649 244.024 
L 547.708649 242.765693 
L 546.615439 242.765693 
z
" clip-path="url(#p7d19007c2b)" style="fill: #1f77b4"/>
   </g>
   <g id="patch_292">
    <path d="M 547.708649 244.024 
L 548.801858 244.024 
L 548.801858 242.706542 
L 547.708649 242.706542 
z
" clip-path="url(#p7d19007c2b)" style="fill: #1f77b4"/>
   </g>
   <g id="patch_293">
    <path d="M 548.801858 244.024 
L 549.895068 244.024 
L 549.895068 242.986165 
L 548.801858 242.986165 
z
" clip-path="url(#p7d19007c2b)" style="fill: #1f77b4"/>
   </g>
   <g id="patch_294">
    <path d="M 549.895068 244.024 
L 550.988277 244.024 
L 550.988277 242.79258 
L 549.895068 242.79258 
z
" clip-path="url(#p7d19007c2b)" style="fill: #1f77b4"/>
   </g>
   <g id="patch_295">
    <path d="M 550.988277 244.024 
L 552.081487 244.024 
L 552.081487 242.851731 
L 550.988277 242.851731 
z
" clip-path="url(#p7d19007c2b)" style="fill: #1f77b4"/>
   </g>
   <g id="patch_296">
    <path d="M 552.081487 244.024 
L 553.174696 244.024 
L 553.174696 242.91626 
L 552.081487 242.91626 
z
" clip-path="url(#p7d19007c2b)" style="fill: #1f77b4"/>
   </g>
   <g id="patch_297">
    <path d="M 553.174696 244.024 
L 554.267906 244.024 
L 554.267906 242.953901 
L 553.174696 242.953901 
z
" clip-path="url(#p7d19007c2b)" style="fill: #1f77b4"/>
   </g>
   <g id="patch_298">
    <path d="M 554.267906 244.024 
L 555.361115 244.024 
L 555.361115 243.01843 
L 554.267906 243.01843 
z
" clip-path="url(#p7d19007c2b)" style="fill: #1f77b4"/>
   </g>
   <g id="patch_299">
    <path d="M 555.361115 244.024 
L 556.454324 244.024 
L 556.454324 243.002298 
L 555.361115 243.002298 
z
" clip-path="url(#p7d19007c2b)" style="fill: #1f77b4"/>
   </g>
   <g id="patch_300">
    <path d="M 556.454324 244.024 
L 557.547534 244.024 
L 557.547534 242.87324 
L 556.454324 242.87324 
z
" clip-path="url(#p7d19007c2b)" style="fill: #1f77b4"/>
   </g>
   <g id="patch_301">
    <path d="M 557.547534 244.024 
L 558.640743 244.024 
L 558.640743 242.964656 
L 557.547534 242.964656 
z
" clip-path="url(#p7d19007c2b)" style="fill: #1f77b4"/>
   </g>
   <g id="patch_302">
    <path d="M 558.640743 244.024 
L 559.733953 244.024 
L 559.733953 243.077581 
L 558.640743 243.077581 
z
" clip-path="url(#p7d19007c2b)" style="fill: #1f77b4"/>
   </g>
   <g id="patch_303">
    <path d="M 559.733953 244.024 
L 560.827162 244.024 
L 560.827162 243.013052 
L 559.733953 243.013052 
z
" clip-path="url(#p7d19007c2b)" style="fill: #1f77b4"/>
   </g>
   <g id="patch_304">
    <path d="M 560.827162 244.024 
L 561.920372 244.024 
L 561.920372 242.937769 
L 560.827162 242.937769 
z
" clip-path="url(#p7d19007c2b)" style="fill: #1f77b4"/>
   </g>
   <g id="patch_305">
    <path d="M 561.920372 244.024 
L 563.013581 244.024 
L 563.013581 243.01843 
L 561.920372 243.01843 
z
" clip-path="url(#p7d19007c2b)" style="fill: #1f77b4"/>
   </g>
   <g id="patch_306">
    <path d="M 563.013581 244.024 
L 564.106791 244.024 
L 564.106791 242.932392 
L 563.013581 242.932392 
z
" clip-path="url(#p7d19007c2b)" style="fill: #1f77b4"/>
   </g>
   <g id="patch_307">
    <path d="M 564.106791 244.024 
L 565.2 244.024 
L 565.2 242.959279 
L 564.106791 242.959279 
z
" clip-path="url(#p7d19007c2b)" style="fill: #1f77b4"/>
   </g>
   <g id="matplotlib.axis_3">
    <g id="xtick_8">
     <g id="line2d_16">
      <g>
       <use xlink:href="#mbe90674627" x="344.81" y="244.024" style="stroke: #000000; stroke-width: 0.8"/>
      </g>
     </g>
     <g id="text_18">
      <!-- 0.000 -->
      <g transform="translate(330.495938 258.622437) scale(0.1 -0.1)">
       <use xlink:href="#DejaVuSans-30"/>
       <use xlink:href="#DejaVuSans-2e" x="63.623047"/>
       <use xlink:href="#DejaVuSans-30" x="95.410156"/>
       <use xlink:href="#DejaVuSans-30" x="159.033203"/>
       <use xlink:href="#DejaVuSans-30" x="222.65625"/>
      </g>
     </g>
    </g>
    <g id="xtick_9">
     <g id="line2d_17">
      <g>
       <use xlink:href="#mbe90674627" x="399.907739" y="244.024" style="stroke: #000000; stroke-width: 0.8"/>
      </g>
     </g>
     <g id="text_19">
      <!-- 0.005 -->
      <g transform="translate(385.593676 258.622437) scale(0.1 -0.1)">
       <use xlink:href="#DejaVuSans-30"/>
       <use xlink:href="#DejaVuSans-2e" x="63.623047"/>
       <use xlink:href="#DejaVuSans-30" x="95.410156"/>
       <use xlink:href="#DejaVuSans-30" x="159.033203"/>
       <use xlink:href="#DejaVuSans-35" x="222.65625"/>
      </g>
     </g>
    </g>
    <g id="xtick_10">
     <g id="line2d_18">
      <g>
       <use xlink:href="#mbe90674627" x="455.005478" y="244.024" style="stroke: #000000; stroke-width: 0.8"/>
      </g>
     </g>
     <g id="text_20">
      <!-- 0.010 -->
      <g transform="translate(440.691415 258.622437) scale(0.1 -0.1)">
       <use xlink:href="#DejaVuSans-30"/>
       <use xlink:href="#DejaVuSans-2e" x="63.623047"/>
       <use xlink:href="#DejaVuSans-30" x="95.410156"/>
       <use xlink:href="#DejaVuSans-31" x="159.033203"/>
       <use xlink:href="#DejaVuSans-30" x="222.65625"/>
      </g>
     </g>
    </g>
    <g id="xtick_11">
     <g id="line2d_19">
      <g>
       <use xlink:href="#mbe90674627" x="510.103217" y="244.024" style="stroke: #000000; stroke-width: 0.8"/>
      </g>
     </g>
     <g id="text_21">
      <!-- 0.015 -->
      <g transform="translate(495.789154 258.622437) scale(0.1 -0.1)">
       <use xlink:href="#DejaVuSans-30"/>
       <use xlink:href="#DejaVuSans-2e" x="63.623047"/>
       <use xlink:href="#DejaVuSans-30" x="95.410156"/>
       <use xlink:href="#DejaVuSans-31" x="159.033203"/>
       <use xlink:href="#DejaVuSans-35" x="222.65625"/>
      </g>
     </g>
    </g>
    <g id="text_22">
     <!-- $z$ in [m] -->
     <g transform="translate(435.855 272.300563) scale(0.1 -0.1)">
      <defs>
       <path id="DejaVuSans-Oblique-7a" d="M 744 3500 
L 3475 3500 
L 3372 2975 
L 738 459 
L 2913 459 
L 2822 0 
L -19 0 
L 84 525 
L 2719 3041 
L 653 3041 
L 744 3500 
z
" transform="scale(0.015625)"/>
      </defs>
      <use xlink:href="#DejaVuSans-Oblique-7a" transform="translate(0 0.015625)"/>
      <use xlink:href="#DejaVuSans-20" transform="translate(52.490234 0.015625)"/>
      <use xlink:href="#DejaVuSans-69" transform="translate(84.277344 0.015625)"/>
      <use xlink:href="#DejaVuSans-6e" transform="translate(112.060547 0.015625)"/>
      <use xlink:href="#DejaVuSans-20" transform="translate(175.439453 0.015625)"/>
      <use xlink:href="#DejaVuSans-5b" transform="translate(207.226562 0.015625)"/>
      <use xlink:href="#DejaVuSans-6d" transform="translate(246.240234 0.015625)"/>
      <use xlink:href="#DejaVuSans-5d" transform="translate(343.652344 0.015625)"/>
     </g>
    </g>
   </g>
   <g id="matplotlib.axis_4">
    <g id="ytick_9">
     <g id="line2d_20">
      <g>
       <use xlink:href="#mdfaf888fea" x="344.81" y="244.024" style="stroke: #000000; stroke-width: 0.8"/>
      </g>
     </g>
     <g id="text_23">
      <!-- 0 -->
      <g transform="translate(331.4475 247.823219) scale(0.1 -0.1)">
       <use xlink:href="#DejaVuSans-30"/>
      </g>
     </g>
    </g>
    <g id="ytick_10">
     <g id="line2d_21">
      <g>
       <use xlink:href="#mdfaf888fea" x="344.81" y="218.039239" style="stroke: #000000; stroke-width: 0.8"/>
      </g>
     </g>
     <g id="text_24">
      <!-- 50 -->
      <g transform="translate(325.085 221.838458) scale(0.1 -0.1)">
       <use xlink:href="#DejaVuSans-35"/>
       <use xlink:href="#DejaVuSans-30" x="63.623047"/>
      </g>
     </g>
    </g>
    <g id="ytick_11">
     <g id="line2d_22">
      <g>
       <use xlink:href="#mdfaf888fea" x="344.81" y="192.054478" style="stroke: #000000; stroke-width: 0.8"/>
      </g>
     </g>
     <g id="text_25">
      <!-- 100 -->
      <g transform="translate(318.7225 195.853697) scale(0.1 -0.1)">
       <use xlink:href="#DejaVuSans-31"/>
       <use xlink:href="#DejaVuSans-30" x="63.623047"/>
       <use xlink:href="#DejaVuSans-30" x="127.246094"/>
      </g>
     </g>
    </g>
    <g id="ytick_12">
     <g id="line2d_23">
      <g>
       <use xlink:href="#mdfaf888fea" x="344.81" y="166.069718" style="stroke: #000000; stroke-width: 0.8"/>
      </g>
     </g>
     <g id="text_26">
      <!-- 150 -->
      <g transform="translate(318.7225 169.868936) scale(0.1 -0.1)">
       <use xlink:href="#DejaVuSans-31"/>
       <use xlink:href="#DejaVuSans-35" x="63.623047"/>
       <use xlink:href="#DejaVuSans-30" x="127.246094"/>
      </g>
     </g>
    </g>
    <g id="ytick_13">
     <g id="line2d_24">
      <g>
       <use xlink:href="#mdfaf888fea" x="344.81" y="140.084957" style="stroke: #000000; stroke-width: 0.8"/>
      </g>
     </g>
     <g id="text_27">
      <!-- 200 -->
      <g transform="translate(318.7225 143.884175) scale(0.1 -0.1)">
       <use xlink:href="#DejaVuSans-32"/>
       <use xlink:href="#DejaVuSans-30" x="63.623047"/>
       <use xlink:href="#DejaVuSans-30" x="127.246094"/>
      </g>
     </g>
    </g>
    <g id="ytick_14">
     <g id="line2d_25">
      <g>
       <use xlink:href="#mdfaf888fea" x="344.81" y="114.100196" style="stroke: #000000; stroke-width: 0.8"/>
      </g>
     </g>
     <g id="text_28">
      <!-- 250 -->
      <g transform="translate(318.7225 117.899415) scale(0.1 -0.1)">
       <use xlink:href="#DejaVuSans-32"/>
       <use xlink:href="#DejaVuSans-35" x="63.623047"/>
       <use xlink:href="#DejaVuSans-30" x="127.246094"/>
      </g>
     </g>
    </g>
    <g id="ytick_15">
     <g id="line2d_26">
      <g>
       <use xlink:href="#mdfaf888fea" x="344.81" y="88.115435" style="stroke: #000000; stroke-width: 0.8"/>
      </g>
     </g>
     <g id="text_29">
      <!-- 300 -->
      <g transform="translate(318.7225 91.914654) scale(0.1 -0.1)">
       <defs>
        <path id="DejaVuSans-33" d="M 2597 2516 
Q 3050 2419 3304 2112 
Q 3559 1806 3559 1356 
Q 3559 666 3084 287 
Q 2609 -91 1734 -91 
Q 1441 -91 1130 -33 
Q 819 25 488 141 
L 488 750 
Q 750 597 1062 519 
Q 1375 441 1716 441 
Q 2309 441 2620 675 
Q 2931 909 2931 1356 
Q 2931 1769 2642 2001 
Q 2353 2234 1838 2234 
L 1294 2234 
L 1294 2753 
L 1863 2753 
Q 2328 2753 2575 2939 
Q 2822 3125 2822 3475 
Q 2822 3834 2567 4026 
Q 2313 4219 1838 4219 
Q 1578 4219 1281 4162 
Q 984 4106 628 3988 
L 628 4550 
Q 988 4650 1302 4700 
Q 1616 4750 1894 4750 
Q 2613 4750 3031 4423 
Q 3450 4097 3450 3541 
Q 3450 3153 3228 2886 
Q 3006 2619 2597 2516 
z
" transform="scale(0.015625)"/>
       </defs>
       <use xlink:href="#DejaVuSans-33"/>
       <use xlink:href="#DejaVuSans-30" x="63.623047"/>
       <use xlink:href="#DejaVuSans-30" x="127.246094"/>
      </g>
     </g>
    </g>
    <g id="ytick_16">
     <g id="line2d_27">
      <g>
       <use xlink:href="#mdfaf888fea" x="344.81" y="62.130674" style="stroke: #000000; stroke-width: 0.8"/>
      </g>
     </g>
     <g id="text_30">
      <!-- 350 -->
      <g transform="translate(318.7225 65.929893) scale(0.1 -0.1)">
       <use xlink:href="#DejaVuSans-33"/>
       <use xlink:href="#DejaVuSans-35" x="63.623047"/>
       <use xlink:href="#DejaVuSans-30" x="127.246094"/>
      </g>
     </g>
    </g>
    <g id="ytick_17">
     <g id="line2d_28">
      <g>
       <use xlink:href="#mdfaf888fea" x="344.81" y="36.145913" style="stroke: #000000; stroke-width: 0.8"/>
      </g>
     </g>
     <g id="text_31">
      <!-- 400 -->
      <g transform="translate(318.7225 39.945132) scale(0.1 -0.1)">
       <defs>
        <path id="DejaVuSans-34" d="M 2419 4116 
L 825 1625 
L 2419 1625 
L 2419 4116 
z
M 2253 4666 
L 3047 4666 
L 3047 1625 
L 3713 1625 
L 3713 1100 
L 3047 1100 
L 3047 0 
L 2419 0 
L 2419 1100 
L 313 1100 
L 313 1709 
L 2253 4666 
z
" transform="scale(0.015625)"/>
       </defs>
       <use xlink:href="#DejaVuSans-34"/>
       <use xlink:href="#DejaVuSans-30" x="63.623047"/>
       <use xlink:href="#DejaVuSans-30" x="127.246094"/>
      </g>
     </g>
    </g>
    <g id="text_32">
     <!-- Wahrscheinlichkeitsdichte -->
     <g transform="translate(312.642813 192.440906) rotate(-90) scale(0.1 -0.1)">
      <use xlink:href="#DejaVuSans-57"/>
      <use xlink:href="#DejaVuSans-61" x="92.501953"/>
      <use xlink:href="#DejaVuSans-68" x="153.78125"/>
      <use xlink:href="#DejaVuSans-72" x="217.160156"/>
      <use xlink:href="#DejaVuSans-73" x="258.273438"/>
      <use xlink:href="#DejaVuSans-63" x="310.373047"/>
      <use xlink:href="#DejaVuSans-68" x="365.353516"/>
      <use xlink:href="#DejaVuSans-65" x="428.732422"/>
      <use xlink:href="#DejaVuSans-69" x="490.255859"/>
      <use xlink:href="#DejaVuSans-6e" x="518.039062"/>
      <use xlink:href="#DejaVuSans-6c" x="581.417969"/>
      <use xlink:href="#DejaVuSans-69" x="609.201172"/>
      <use xlink:href="#DejaVuSans-63" x="636.984375"/>
      <use xlink:href="#DejaVuSans-68" x="691.964844"/>
      <use xlink:href="#DejaVuSans-6b" x="755.34375"/>
      <use xlink:href="#DejaVuSans-65" x="809.628906"/>
      <use xlink:href="#DejaVuSans-69" x="871.152344"/>
      <use xlink:href="#DejaVuSans-74" x="898.935547"/>
      <use xlink:href="#DejaVuSans-73" x="938.144531"/>
      <use xlink:href="#DejaVuSans-64" x="990.244141"/>
      <use xlink:href="#DejaVuSans-69" x="1053.720703"/>
      <use xlink:href="#DejaVuSans-63" x="1081.503906"/>
      <use xlink:href="#DejaVuSans-68" x="1136.484375"/>
      <use xlink:href="#DejaVuSans-74" x="1199.863281"/>
      <use xlink:href="#DejaVuSans-65" x="1239.072266"/>
     </g>
    </g>
   </g>
   <g id="patch_308">
    <path d="M 344.81 244.024 
L 344.81 10.8 
" style="fill: none; stroke: #000000; stroke-width: 0.8; stroke-linejoin: miter; stroke-linecap: square"/>
   </g>
   <g id="patch_309">
    <path d="M 565.2 244.024 
L 565.2 10.8 
" style="fill: none; stroke: #000000; stroke-width: 0.8; stroke-linejoin: miter; stroke-linecap: square"/>
   </g>
   <g id="patch_310">
    <path d="M 344.81 244.024 
L 565.2 244.024 
" style="fill: none; stroke: #000000; stroke-width: 0.8; stroke-linejoin: miter; stroke-linecap: square"/>
   </g>
   <g id="patch_311">
    <path d="M 344.81 10.8 
L 565.2 10.8 
" style="fill: none; stroke: #000000; stroke-width: 0.8; stroke-linejoin: miter; stroke-linecap: square"/>
   </g>
  </g>
 </g>
 <defs>
  <clipPath id="p4efeab8191">
   <rect x="73.37" y="10.8" width="220.39" height="233.224"/>
  </clipPath>
  <clipPath id="p7d19007c2b">
   <rect x="344.81" y="10.8" width="220.39" height="233.224"/>
  </clipPath>
 </defs>
</svg>
