<?xml version="1.0" encoding="utf-8" standalone="no"?>
<!DOCTYPE svg PUBLIC "-//W3C//DTD SVG 1.1//EN"
  "http://www.w3.org/Graphics/SVG/1.1/DTD/svg11.dtd">
<svg xmlns:xlink="http://www.w3.org/1999/xlink" width="460.8pt" height="345.6pt" viewBox="0 0 460.8 345.6" xmlns="http://www.w3.org/2000/svg" version="1.1">
 <metadata>
  <rdf:RDF xmlns:dc="http://purl.org/dc/elements/1.1/" xmlns:cc="http://creativecommons.org/ns#" xmlns:rdf="http://www.w3.org/1999/02/22-rdf-syntax-ns#">
   <cc:Work>
    <dc:type rdf:resource="http://purl.org/dc/dcmitype/StillImage"/>
    <dc:date>2024-06-06T19:37:27.682446</dc:date>
    <dc:format>image/svg+xml</dc:format>
    <dc:creator>
     <cc:Agent>
      <dc:title>Matplotlib v3.8.0, https://matplotlib.org/</dc:title>
     </cc:Agent>
    </dc:creator>
   </cc:Work>
  </rdf:RDF>
 </metadata>
 <defs>
  <style type="text/css">*{stroke-linejoin: round; stroke-linecap: butt}</style>
 </defs>
 <g id="figure_1">
  <g id="patch_1">
   <path d="M 0 345.6 
L 460.8 345.6 
L 460.8 0 
L 0 0 
z
" style="fill: #ffffff"/>
  </g>
  <g id="axes_1">
   <g id="patch_2">
    <path d="M 58.628 149.71 
L 450 149.71 
L 450 10.8 
L 58.628 10.8 
z
" style="fill: #ffffff"/>
   </g>
   <g id="PathCollection_1">
    <defs>
     <path id="m0471c293b9" d="M 0 3 
C 0.795609 3 1.55874 2.683901 2.12132 2.12132 
C 2.683901 1.55874 3 0.795609 3 0 
C 3 -0.795609 2.683901 -1.55874 2.12132 -2.12132 
C 1.55874 -2.683901 0.795609 -3 0 -3 
C -0.795609 -3 -1.55874 -2.683901 -2.12132 -2.12132 
C -2.683901 -1.55874 -3 -0.795609 -3 0 
C -3 0.795609 -2.683901 1.55874 -2.12132 2.12132 
C -1.55874 2.683901 -0.795609 3 0 3 
z
" style="stroke: #1f77b4"/>
    </defs>
    <g clip-path="url(#pe0f232d63a)">
     <use xlink:href="#m0471c293b9" x="76.417636" y="17.114091" style="fill: #1f77b4; stroke: #1f77b4"/>
     <use xlink:href="#m0471c293b9" x="89.124519" y="40.204951" style="fill: #1f77b4; stroke: #1f77b4"/>
     <use xlink:href="#m0471c293b9" x="101.831403" y="54.579542" style="fill: #1f77b4; stroke: #1f77b4"/>
     <use xlink:href="#m0471c293b9" x="114.538286" y="65.127307" style="fill: #1f77b4; stroke: #1f77b4"/>
     <use xlink:href="#m0471c293b9" x="127.245169" y="73.483228" style="fill: #1f77b4; stroke: #1f77b4"/>
     <use xlink:href="#m0471c293b9" x="139.952052" y="80.410085" style="fill: #1f77b4; stroke: #1f77b4"/>
     <use xlink:href="#m0471c293b9" x="152.658935" y="86.32881" style="fill: #1f77b4; stroke: #1f77b4"/>
     <use xlink:href="#m0471c293b9" x="165.365818" y="91.497224" style="fill: #1f77b4; stroke: #1f77b4"/>
     <use xlink:href="#m0471c293b9" x="178.072701" y="96.085022" style="fill: #1f77b4; stroke: #1f77b4"/>
     <use xlink:href="#m0471c293b9" x="190.779584" y="100.209968" style="fill: #1f77b4; stroke: #1f77b4"/>
     <use xlink:href="#m0471c293b9" x="203.486468" y="103.957187" style="fill: #1f77b4; stroke: #1f77b4"/>
     <use xlink:href="#m0471c293b9" x="216.193351" y="107.390237" style="fill: #1f77b4; stroke: #1f77b4"/>
     <use xlink:href="#m0471c293b9" x="228.900234" y="110.557843" style="fill: #1f77b4; stroke: #1f77b4"/>
     <use xlink:href="#m0471c293b9" x="241.607117" y="113.498187" style="fill: #1f77b4; stroke: #1f77b4"/>
     <use xlink:href="#m0471c293b9" x="254.314" y="116.241754" style="fill: #1f77b4; stroke: #1f77b4"/>
     <use xlink:href="#m0471c293b9" x="267.020883" y="118.813269" style="fill: #1f77b4; stroke: #1f77b4"/>
     <use xlink:href="#m0471c293b9" x="279.727766" y="121.233068" style="fill: #1f77b4; stroke: #1f77b4"/>
     <use xlink:href="#m0471c293b9" x="292.434649" y="123.518076" style="fill: #1f77b4; stroke: #1f77b4"/>
     <use xlink:href="#m0471c293b9" x="305.141532" y="125.682534" style="fill: #1f77b4; stroke: #1f77b4"/>
     <use xlink:href="#m0471c293b9" x="317.848416" y="127.738538" style="fill: #1f77b4; stroke: #1f77b4"/>
     <use xlink:href="#m0471c293b9" x="330.555299" y="129.696447" style="fill: #1f77b4; stroke: #1f77b4"/>
     <use xlink:href="#m0471c293b9" x="343.262182" y="131.565203" style="fill: #1f77b4; stroke: #1f77b4"/>
     <use xlink:href="#m0471c293b9" x="355.969065" y="133.352577" style="fill: #1f77b4; stroke: #1f77b4"/>
     <use xlink:href="#m0471c293b9" x="368.675948" y="135.065368" style="fill: #1f77b4; stroke: #1f77b4"/>
     <use xlink:href="#m0471c293b9" x="381.382831" y="136.709553" style="fill: #1f77b4; stroke: #1f77b4"/>
     <use xlink:href="#m0471c293b9" x="394.089714" y="138.290421" style="fill: #1f77b4; stroke: #1f77b4"/>
     <use xlink:href="#m0471c293b9" x="406.796597" y="139.812669" style="fill: #1f77b4; stroke: #1f77b4"/>
     <use xlink:href="#m0471c293b9" x="419.503481" y="141.280493" style="fill: #1f77b4; stroke: #1f77b4"/>
     <use xlink:href="#m0471c293b9" x="432.210364" y="142.697651" style="fill: #1f77b4; stroke: #1f77b4"/>
    </g>
   </g>
   <g id="PathCollection_2">
    <defs>
     <path id="mbcad22ca41" d="M 0 3 
C 0.795609 3 1.55874 2.683901 2.12132 2.12132 
C 2.683901 1.55874 3 0.795609 3 0 
C 3 -0.795609 2.683901 -1.55874 2.12132 -2.12132 
C 1.55874 -2.683901 0.795609 -3 0 -3 
C -0.795609 -3 -1.55874 -2.683901 -2.12132 -2.12132 
C -2.683901 -1.55874 -3 -0.795609 -3 0 
C -3 0.795609 -2.683901 1.55874 -2.12132 2.12132 
C -1.55874 2.683901 -0.795609 3 0 3 
z
" style="stroke: #ff7f0e"/>
    </defs>
    <g clip-path="url(#pe0f232d63a)">
     <use xlink:href="#mbcad22ca41" x="76.417636" y="32.156737" style="fill: #ff7f0e; stroke: #ff7f0e"/>
     <use xlink:href="#mbcad22ca41" x="89.124519" y="48.812116" style="fill: #ff7f0e; stroke: #ff7f0e"/>
     <use xlink:href="#mbcad22ca41" x="101.831403" y="60.629296" style="fill: #ff7f0e; stroke: #ff7f0e"/>
     <use xlink:href="#mbcad22ca41" x="114.538286" y="69.795412" style="fill: #ff7f0e; stroke: #ff7f0e"/>
     <use xlink:href="#mbcad22ca41" x="127.245169" y="77.284675" style="fill: #ff7f0e; stroke: #ff7f0e"/>
     <use xlink:href="#mbcad22ca41" x="139.952052" y="83.616756" style="fill: #ff7f0e; stroke: #ff7f0e"/>
     <use xlink:href="#mbcad22ca41" x="152.658935" y="89.101854" style="fill: #ff7f0e; stroke: #ff7f0e"/>
     <use xlink:href="#mbcad22ca41" x="165.365818" y="93.940054" style="fill: #ff7f0e; stroke: #ff7f0e"/>
     <use xlink:href="#mbcad22ca41" x="178.072701" y="98.267971" style="fill: #ff7f0e; stroke: #ff7f0e"/>
     <use xlink:href="#mbcad22ca41" x="190.779584" y="102.183048" style="fill: #ff7f0e; stroke: #ff7f0e"/>
     <use xlink:href="#mbcad22ca41" x="203.486468" y="105.757234" style="fill: #ff7f0e; stroke: #ff7f0e"/>
     <use xlink:href="#mbcad22ca41" x="216.193351" y="109.045166" style="fill: #ff7f0e; stroke: #ff7f0e"/>
     <use xlink:href="#mbcad22ca41" x="228.900234" y="112.089315" style="fill: #ff7f0e; stroke: #ff7f0e"/>
     <use xlink:href="#mbcad22ca41" x="241.607117" y="114.92335" style="fill: #ff7f0e; stroke: #ff7f0e"/>
     <use xlink:href="#mbcad22ca41" x="254.314" y="117.574413" style="fill: #ff7f0e; stroke: #ff7f0e"/>
     <use xlink:href="#mbcad22ca41" x="267.020883" y="120.064704" style="fill: #ff7f0e; stroke: #ff7f0e"/>
     <use xlink:href="#mbcad22ca41" x="279.727766" y="122.412613" style="fill: #ff7f0e; stroke: #ff7f0e"/>
     <use xlink:href="#mbcad22ca41" x="292.434649" y="124.633544" style="fill: #ff7f0e; stroke: #ff7f0e"/>
     <use xlink:href="#mbcad22ca41" x="305.141532" y="126.74053" style="fill: #ff7f0e; stroke: #ff7f0e"/>
     <use xlink:href="#mbcad22ca41" x="317.848416" y="128.744694" style="fill: #ff7f0e; stroke: #ff7f0e"/>
     <use xlink:href="#mbcad22ca41" x="330.555299" y="130.655607" style="fill: #ff7f0e; stroke: #ff7f0e"/>
     <use xlink:href="#mbcad22ca41" x="343.262182" y="132.481562" style="fill: #ff7f0e; stroke: #ff7f0e"/>
     <use xlink:href="#mbcad22ca41" x="355.969065" y="134.229792" style="fill: #ff7f0e; stroke: #ff7f0e"/>
     <use xlink:href="#mbcad22ca41" x="368.675948" y="135.906647" style="fill: #ff7f0e; stroke: #ff7f0e"/>
     <use xlink:href="#mbcad22ca41" x="381.382831" y="137.517724" style="fill: #ff7f0e; stroke: #ff7f0e"/>
     <use xlink:href="#mbcad22ca41" x="394.089714" y="139.067992" style="fill: #ff7f0e; stroke: #ff7f0e"/>
     <use xlink:href="#mbcad22ca41" x="406.796597" y="140.561874" style="fill: #ff7f0e; stroke: #ff7f0e"/>
     <use xlink:href="#mbcad22ca41" x="419.503481" y="142.003328" style="fill: #ff7f0e; stroke: #ff7f0e"/>
     <use xlink:href="#mbcad22ca41" x="432.210364" y="143.395909" style="fill: #ff7f0e; stroke: #ff7f0e"/>
    </g>
   </g>
   <g id="matplotlib.axis_1">
    <g id="xtick_1">
     <g id="line2d_1">
      <defs>
       <path id="m8b17a872f6" d="M 0 0 
L 0 3.5 
" style="stroke: #000000; stroke-width: 0.8"/>
      </defs>
      <g>
       <use xlink:href="#m8b17a872f6" x="114.538286" y="149.71" style="stroke: #000000; stroke-width: 0.8"/>
      </g>
     </g>
    </g>
    <g id="xtick_2">
     <g id="line2d_2">
      <g>
       <use xlink:href="#m8b17a872f6" x="178.072701" y="149.71" style="stroke: #000000; stroke-width: 0.8"/>
      </g>
     </g>
    </g>
    <g id="xtick_3">
     <g id="line2d_3">
      <g>
       <use xlink:href="#m8b17a872f6" x="241.607117" y="149.71" style="stroke: #000000; stroke-width: 0.8"/>
      </g>
     </g>
    </g>
    <g id="xtick_4">
     <g id="line2d_4">
      <g>
       <use xlink:href="#m8b17a872f6" x="305.141532" y="149.71" style="stroke: #000000; stroke-width: 0.8"/>
      </g>
     </g>
    </g>
    <g id="xtick_5">
     <g id="line2d_5">
      <g>
       <use xlink:href="#m8b17a872f6" x="368.675948" y="149.71" style="stroke: #000000; stroke-width: 0.8"/>
      </g>
     </g>
    </g>
    <g id="xtick_6">
     <g id="line2d_6">
      <g>
       <use xlink:href="#m8b17a872f6" x="432.210364" y="149.71" style="stroke: #000000; stroke-width: 0.8"/>
      </g>
     </g>
    </g>
   </g>
   <g id="matplotlib.axis_2">
    <g id="ytick_1">
     <g id="line2d_7">
      <defs>
       <path id="me367ede7f4" d="M 0 0 
L -3.5 0 
" style="stroke: #000000; stroke-width: 0.8"/>
      </defs>
      <g>
       <use xlink:href="#me367ede7f4" x="58.628" y="143.496961" style="stroke: #000000; stroke-width: 0.8"/>
      </g>
     </g>
     <g id="text_1">
      <!-- $\mathdefault{10^{-3}}$ -->
      <g transform="translate(28.128 147.296179) scale(0.1 -0.1)">
       <defs>
        <path id="DejaVuSans-31" d="M 794 531 
L 1825 531 
L 1825 4091 
L 703 3866 
L 703 4441 
L 1819 4666 
L 2450 4666 
L 2450 531 
L 3481 531 
L 3481 0 
L 794 0 
L 794 531 
z
" transform="scale(0.015625)"/>
        <path id="DejaVuSans-30" d="M 2034 4250 
Q 1547 4250 1301 3770 
Q 1056 3291 1056 2328 
Q 1056 1369 1301 889 
Q 1547 409 2034 409 
Q 2525 409 2770 889 
Q 3016 1369 3016 2328 
Q 3016 3291 2770 3770 
Q 2525 4250 2034 4250 
z
M 2034 4750 
Q 2819 4750 3233 4129 
Q 3647 3509 3647 2328 
Q 3647 1150 3233 529 
Q 2819 -91 2034 -91 
Q 1250 -91 836 529 
Q 422 1150 422 2328 
Q 422 3509 836 4129 
Q 1250 4750 2034 4750 
z
" transform="scale(0.015625)"/>
        <path id="DejaVuSans-2212" d="M 678 2272 
L 4684 2272 
L 4684 1741 
L 678 1741 
L 678 2272 
z
" transform="scale(0.015625)"/>
        <path id="DejaVuSans-33" d="M 2597 2516 
Q 3050 2419 3304 2112 
Q 3559 1806 3559 1356 
Q 3559 666 3084 287 
Q 2609 -91 1734 -91 
Q 1441 -91 1130 -33 
Q 819 25 488 141 
L 488 750 
Q 750 597 1062 519 
Q 1375 441 1716 441 
Q 2309 441 2620 675 
Q 2931 909 2931 1356 
Q 2931 1769 2642 2001 
Q 2353 2234 1838 2234 
L 1294 2234 
L 1294 2753 
L 1863 2753 
Q 2328 2753 2575 2939 
Q 2822 3125 2822 3475 
Q 2822 3834 2567 4026 
Q 2313 4219 1838 4219 
Q 1578 4219 1281 4162 
Q 984 4106 628 3988 
L 628 4550 
Q 988 4650 1302 4700 
Q 1616 4750 1894 4750 
Q 2613 4750 3031 4423 
Q 3450 4097 3450 3541 
Q 3450 3153 3228 2886 
Q 3006 2619 2597 2516 
z
" transform="scale(0.015625)"/>
       </defs>
       <use xlink:href="#DejaVuSans-31" transform="translate(0 0.765625)"/>
       <use xlink:href="#DejaVuSans-30" transform="translate(63.623047 0.765625)"/>
       <use xlink:href="#DejaVuSans-2212" transform="translate(128.203125 39.046875) scale(0.7)"/>
       <use xlink:href="#DejaVuSans-33" transform="translate(186.855469 39.046875) scale(0.7)"/>
      </g>
     </g>
    </g>
    <g id="ytick_2">
     <g id="line2d_8">
      <g>
       <use xlink:href="#me367ede7f4" x="58.628" y="111.96903" style="stroke: #000000; stroke-width: 0.8"/>
      </g>
     </g>
     <g id="text_2">
      <!-- $\mathdefault{10^{-2}}$ -->
      <g transform="translate(28.128 115.768248) scale(0.1 -0.1)">
       <defs>
        <path id="DejaVuSans-32" d="M 1228 531 
L 3431 531 
L 3431 0 
L 469 0 
L 469 531 
Q 828 903 1448 1529 
Q 2069 2156 2228 2338 
Q 2531 2678 2651 2914 
Q 2772 3150 2772 3378 
Q 2772 3750 2511 3984 
Q 2250 4219 1831 4219 
Q 1534 4219 1204 4116 
Q 875 4013 500 3803 
L 500 4441 
Q 881 4594 1212 4672 
Q 1544 4750 1819 4750 
Q 2544 4750 2975 4387 
Q 3406 4025 3406 3419 
Q 3406 3131 3298 2873 
Q 3191 2616 2906 2266 
Q 2828 2175 2409 1742 
Q 1991 1309 1228 531 
z
" transform="scale(0.015625)"/>
       </defs>
       <use xlink:href="#DejaVuSans-31" transform="translate(0 0.765625)"/>
       <use xlink:href="#DejaVuSans-30" transform="translate(63.623047 0.765625)"/>
       <use xlink:href="#DejaVuSans-2212" transform="translate(128.203125 39.046875) scale(0.7)"/>
       <use xlink:href="#DejaVuSans-32" transform="translate(186.855469 39.046875) scale(0.7)"/>
      </g>
     </g>
    </g>
    <g id="ytick_3">
     <g id="line2d_9">
      <g>
       <use xlink:href="#me367ede7f4" x="58.628" y="80.441099" style="stroke: #000000; stroke-width: 0.8"/>
      </g>
     </g>
     <g id="text_3">
      <!-- $\mathdefault{10^{-1}}$ -->
      <g transform="translate(28.128 84.240317) scale(0.1 -0.1)">
       <use xlink:href="#DejaVuSans-31" transform="translate(0 0.684375)"/>
       <use xlink:href="#DejaVuSans-30" transform="translate(63.623047 0.684375)"/>
       <use xlink:href="#DejaVuSans-2212" transform="translate(128.203125 38.965625) scale(0.7)"/>
       <use xlink:href="#DejaVuSans-31" transform="translate(186.855469 38.965625) scale(0.7)"/>
      </g>
     </g>
    </g>
    <g id="ytick_4">
     <g id="line2d_10">
      <g>
       <use xlink:href="#me367ede7f4" x="58.628" y="48.913168" style="stroke: #000000; stroke-width: 0.8"/>
      </g>
     </g>
     <g id="text_4">
      <!-- $\mathdefault{10^{0}}$ -->
      <g transform="translate(34.028 52.712386) scale(0.1 -0.1)">
       <use xlink:href="#DejaVuSans-31" transform="translate(0 0.765625)"/>
       <use xlink:href="#DejaVuSans-30" transform="translate(63.623047 0.765625)"/>
       <use xlink:href="#DejaVuSans-30" transform="translate(128.203125 39.046875) scale(0.7)"/>
      </g>
     </g>
    </g>
    <g id="ytick_5">
     <g id="line2d_11">
      <g>
       <use xlink:href="#me367ede7f4" x="58.628" y="17.385237" style="stroke: #000000; stroke-width: 0.8"/>
      </g>
     </g>
     <g id="text_5">
      <!-- $\mathdefault{10^{1}}$ -->
      <g transform="translate(34.028 21.184455) scale(0.1 -0.1)">
       <use xlink:href="#DejaVuSans-31" transform="translate(0 0.684375)"/>
       <use xlink:href="#DejaVuSans-30" transform="translate(63.623047 0.684375)"/>
       <use xlink:href="#DejaVuSans-31" transform="translate(128.203125 38.965625) scale(0.7)"/>
      </g>
     </g>
    </g>
    <g id="ytick_6">
     <g id="line2d_12">
      <defs>
       <path id="meab28652c3" d="M 0 0 
L -2 0 
" style="stroke: #000000; stroke-width: 0.6"/>
      </defs>
      <g>
       <use xlink:href="#meab28652c3" x="58.628" y="148.380699" style="stroke: #000000; stroke-width: 0.6"/>
      </g>
     </g>
    </g>
    <g id="ytick_7">
     <g id="line2d_13">
      <g>
       <use xlink:href="#meab28652c3" x="58.628" y="146.552333" style="stroke: #000000; stroke-width: 0.6"/>
      </g>
     </g>
    </g>
    <g id="ytick_8">
     <g id="line2d_14">
      <g>
       <use xlink:href="#meab28652c3" x="58.628" y="144.9396" style="stroke: #000000; stroke-width: 0.6"/>
      </g>
     </g>
    </g>
    <g id="ytick_9">
     <g id="line2d_15">
      <g>
       <use xlink:href="#meab28652c3" x="58.628" y="134.006108" style="stroke: #000000; stroke-width: 0.6"/>
      </g>
     </g>
    </g>
    <g id="ytick_10">
     <g id="line2d_16">
      <g>
       <use xlink:href="#meab28652c3" x="58.628" y="128.454315" style="stroke: #000000; stroke-width: 0.6"/>
      </g>
     </g>
    </g>
    <g id="ytick_11">
     <g id="line2d_17">
      <g>
       <use xlink:href="#meab28652c3" x="58.628" y="124.515255" style="stroke: #000000; stroke-width: 0.6"/>
      </g>
     </g>
    </g>
    <g id="ytick_12">
     <g id="line2d_18">
      <g>
       <use xlink:href="#meab28652c3" x="58.628" y="121.459882" style="stroke: #000000; stroke-width: 0.6"/>
      </g>
     </g>
    </g>
    <g id="ytick_13">
     <g id="line2d_19">
      <g>
       <use xlink:href="#meab28652c3" x="58.628" y="118.963462" style="stroke: #000000; stroke-width: 0.6"/>
      </g>
     </g>
    </g>
    <g id="ytick_14">
     <g id="line2d_20">
      <g>
       <use xlink:href="#meab28652c3" x="58.628" y="116.852768" style="stroke: #000000; stroke-width: 0.6"/>
      </g>
     </g>
    </g>
    <g id="ytick_15">
     <g id="line2d_21">
      <g>
       <use xlink:href="#meab28652c3" x="58.628" y="115.024402" style="stroke: #000000; stroke-width: 0.6"/>
      </g>
     </g>
    </g>
    <g id="ytick_16">
     <g id="line2d_22">
      <g>
       <use xlink:href="#meab28652c3" x="58.628" y="113.411669" style="stroke: #000000; stroke-width: 0.6"/>
      </g>
     </g>
    </g>
    <g id="ytick_17">
     <g id="line2d_23">
      <g>
       <use xlink:href="#meab28652c3" x="58.628" y="102.478177" style="stroke: #000000; stroke-width: 0.6"/>
      </g>
     </g>
    </g>
    <g id="ytick_18">
     <g id="line2d_24">
      <g>
       <use xlink:href="#meab28652c3" x="58.628" y="96.926384" style="stroke: #000000; stroke-width: 0.6"/>
      </g>
     </g>
    </g>
    <g id="ytick_19">
     <g id="line2d_25">
      <g>
       <use xlink:href="#meab28652c3" x="58.628" y="92.987324" style="stroke: #000000; stroke-width: 0.6"/>
      </g>
     </g>
    </g>
    <g id="ytick_20">
     <g id="line2d_26">
      <g>
       <use xlink:href="#meab28652c3" x="58.628" y="89.931951" style="stroke: #000000; stroke-width: 0.6"/>
      </g>
     </g>
    </g>
    <g id="ytick_21">
     <g id="line2d_27">
      <g>
       <use xlink:href="#meab28652c3" x="58.628" y="87.435531" style="stroke: #000000; stroke-width: 0.6"/>
      </g>
     </g>
    </g>
    <g id="ytick_22">
     <g id="line2d_28">
      <g>
       <use xlink:href="#meab28652c3" x="58.628" y="85.324837" style="stroke: #000000; stroke-width: 0.6"/>
      </g>
     </g>
    </g>
    <g id="ytick_23">
     <g id="line2d_29">
      <g>
       <use xlink:href="#meab28652c3" x="58.628" y="83.496471" style="stroke: #000000; stroke-width: 0.6"/>
      </g>
     </g>
    </g>
    <g id="ytick_24">
     <g id="line2d_30">
      <g>
       <use xlink:href="#meab28652c3" x="58.628" y="81.883738" style="stroke: #000000; stroke-width: 0.6"/>
      </g>
     </g>
    </g>
    <g id="ytick_25">
     <g id="line2d_31">
      <g>
       <use xlink:href="#meab28652c3" x="58.628" y="70.950246" style="stroke: #000000; stroke-width: 0.6"/>
      </g>
     </g>
    </g>
    <g id="ytick_26">
     <g id="line2d_32">
      <g>
       <use xlink:href="#meab28652c3" x="58.628" y="65.398453" style="stroke: #000000; stroke-width: 0.6"/>
      </g>
     </g>
    </g>
    <g id="ytick_27">
     <g id="line2d_33">
      <g>
       <use xlink:href="#meab28652c3" x="58.628" y="61.459393" style="stroke: #000000; stroke-width: 0.6"/>
      </g>
     </g>
    </g>
    <g id="ytick_28">
     <g id="line2d_34">
      <g>
       <use xlink:href="#meab28652c3" x="58.628" y="58.40402" style="stroke: #000000; stroke-width: 0.6"/>
      </g>
     </g>
    </g>
    <g id="ytick_29">
     <g id="line2d_35">
      <g>
       <use xlink:href="#meab28652c3" x="58.628" y="55.9076" style="stroke: #000000; stroke-width: 0.6"/>
      </g>
     </g>
    </g>
    <g id="ytick_30">
     <g id="line2d_36">
      <g>
       <use xlink:href="#meab28652c3" x="58.628" y="53.796906" style="stroke: #000000; stroke-width: 0.6"/>
      </g>
     </g>
    </g>
    <g id="ytick_31">
     <g id="line2d_37">
      <g>
       <use xlink:href="#meab28652c3" x="58.628" y="51.96854" style="stroke: #000000; stroke-width: 0.6"/>
      </g>
     </g>
    </g>
    <g id="ytick_32">
     <g id="line2d_38">
      <g>
       <use xlink:href="#meab28652c3" x="58.628" y="50.355807" style="stroke: #000000; stroke-width: 0.6"/>
      </g>
     </g>
    </g>
    <g id="ytick_33">
     <g id="line2d_39">
      <g>
       <use xlink:href="#meab28652c3" x="58.628" y="39.422315" style="stroke: #000000; stroke-width: 0.6"/>
      </g>
     </g>
    </g>
    <g id="ytick_34">
     <g id="line2d_40">
      <g>
       <use xlink:href="#meab28652c3" x="58.628" y="33.870522" style="stroke: #000000; stroke-width: 0.6"/>
      </g>
     </g>
    </g>
    <g id="ytick_35">
     <g id="line2d_41">
      <g>
       <use xlink:href="#meab28652c3" x="58.628" y="29.931462" style="stroke: #000000; stroke-width: 0.6"/>
      </g>
     </g>
    </g>
    <g id="ytick_36">
     <g id="line2d_42">
      <g>
       <use xlink:href="#meab28652c3" x="58.628" y="26.876089" style="stroke: #000000; stroke-width: 0.6"/>
      </g>
     </g>
    </g>
    <g id="ytick_37">
     <g id="line2d_43">
      <g>
       <use xlink:href="#meab28652c3" x="58.628" y="24.379669" style="stroke: #000000; stroke-width: 0.6"/>
      </g>
     </g>
    </g>
    <g id="ytick_38">
     <g id="line2d_44">
      <g>
       <use xlink:href="#meab28652c3" x="58.628" y="22.268975" style="stroke: #000000; stroke-width: 0.6"/>
      </g>
     </g>
    </g>
    <g id="ytick_39">
     <g id="line2d_45">
      <g>
       <use xlink:href="#meab28652c3" x="58.628" y="20.440609" style="stroke: #000000; stroke-width: 0.6"/>
      </g>
     </g>
    </g>
    <g id="ytick_40">
     <g id="line2d_46">
      <g>
       <use xlink:href="#meab28652c3" x="58.628" y="18.827876" style="stroke: #000000; stroke-width: 0.6"/>
      </g>
     </g>
    </g>
    <g id="text_6">
     <!-- $E$ in eV -->
     <g transform="translate(22.048313 97.655) rotate(-90) scale(0.1 -0.1)">
      <defs>
       <path id="DejaVuSans-Oblique-45" d="M 1081 4666 
L 4031 4666 
L 3928 4134 
L 1606 4134 
L 1338 2753 
L 3566 2753 
L 3463 2222 
L 1234 2222 
L 909 531 
L 3284 531 
L 3181 0 
L 172 0 
L 1081 4666 
z
" transform="scale(0.015625)"/>
       <path id="DejaVuSans-20" transform="scale(0.015625)"/>
       <path id="DejaVuSans-69" d="M 603 3500 
L 1178 3500 
L 1178 0 
L 603 0 
L 603 3500 
z
M 603 4863 
L 1178 4863 
L 1178 4134 
L 603 4134 
L 603 4863 
z
" transform="scale(0.015625)"/>
       <path id="DejaVuSans-6e" d="M 3513 2113 
L 3513 0 
L 2938 0 
L 2938 2094 
Q 2938 2591 2744 2837 
Q 2550 3084 2163 3084 
Q 1697 3084 1428 2787 
Q 1159 2491 1159 1978 
L 1159 0 
L 581 0 
L 581 3500 
L 1159 3500 
L 1159 2956 
Q 1366 3272 1645 3428 
Q 1925 3584 2291 3584 
Q 2894 3584 3203 3211 
Q 3513 2838 3513 2113 
z
" transform="scale(0.015625)"/>
       <path id="DejaVuSans-65" d="M 3597 1894 
L 3597 1613 
L 953 1613 
Q 991 1019 1311 708 
Q 1631 397 2203 397 
Q 2534 397 2845 478 
Q 3156 559 3463 722 
L 3463 178 
Q 3153 47 2828 -22 
Q 2503 -91 2169 -91 
Q 1331 -91 842 396 
Q 353 884 353 1716 
Q 353 2575 817 3079 
Q 1281 3584 2069 3584 
Q 2775 3584 3186 3129 
Q 3597 2675 3597 1894 
z
M 3022 2063 
Q 3016 2534 2758 2815 
Q 2500 3097 2075 3097 
Q 1594 3097 1305 2825 
Q 1016 2553 972 2059 
L 3022 2063 
z
" transform="scale(0.015625)"/>
       <path id="DejaVuSans-56" d="M 1831 0 
L 50 4666 
L 709 4666 
L 2188 738 
L 3669 4666 
L 4325 4666 
L 2547 0 
L 1831 0 
z
" transform="scale(0.015625)"/>
      </defs>
      <use xlink:href="#DejaVuSans-Oblique-45" transform="translate(0 0.015625)"/>
      <use xlink:href="#DejaVuSans-20" transform="translate(63.183594 0.015625)"/>
      <use xlink:href="#DejaVuSans-69" transform="translate(94.970703 0.015625)"/>
      <use xlink:href="#DejaVuSans-6e" transform="translate(122.753906 0.015625)"/>
      <use xlink:href="#DejaVuSans-20" transform="translate(186.132812 0.015625)"/>
      <use xlink:href="#DejaVuSans-65" transform="translate(217.919922 0.015625)"/>
      <use xlink:href="#DejaVuSans-56" transform="translate(279.443359 0.015625)"/>
     </g>
    </g>
   </g>
   <g id="patch_3">
    <path d="M 58.628 149.71 
L 58.628 10.8 
" style="fill: none; stroke: #000000; stroke-width: 0.8; stroke-linejoin: miter; stroke-linecap: square"/>
   </g>
   <g id="patch_4">
    <path d="M 450 149.71 
L 450 10.8 
" style="fill: none; stroke: #000000; stroke-width: 0.8; stroke-linejoin: miter; stroke-linecap: square"/>
   </g>
   <g id="patch_5">
    <path d="M 58.628 149.71 
L 450 149.71 
" style="fill: none; stroke: #000000; stroke-width: 0.8; stroke-linejoin: miter; stroke-linecap: square"/>
   </g>
   <g id="patch_6">
    <path d="M 58.628 10.8 
L 450 10.8 
" style="fill: none; stroke: #000000; stroke-width: 0.8; stroke-linejoin: miter; stroke-linecap: square"/>
   </g>
   <g id="legend_1">
    <g id="patch_7">
     <path d="M 345.4 48.178125 
L 443 48.178125 
Q 445 48.178125 445 46.178125 
L 445 17.8 
Q 445 15.8 443 15.8 
L 345.4 15.8 
Q 343.4 15.8 343.4 17.8 
L 343.4 46.178125 
Q 343.4 48.178125 345.4 48.178125 
z
" style="fill: #ffffff; opacity: 0.8; stroke: #cccccc; stroke-linejoin: miter"/>
    </g>
    <g id="PathCollection_3">
     <g>
      <use xlink:href="#m0471c293b9" x="357.4" y="24.773438" style="fill: #1f77b4; stroke: #1f77b4"/>
     </g>
    </g>
    <g id="text_7">
     <!-- $\Delta E$ -->
     <g transform="translate(375.4 27.398438) scale(0.1 -0.1)">
      <defs>
       <path id="DejaVuSans-394" d="M 2188 4044 
L 906 525 
L 3472 525 
L 2188 4044 
z
M 50 0 
L 1831 4666 
L 2547 4666 
L 4325 0 
L 50 0 
z
" transform="scale(0.015625)"/>
      </defs>
      <use xlink:href="#DejaVuSans-394" transform="translate(0 0.09375)"/>
      <use xlink:href="#DejaVuSans-Oblique-45" transform="translate(68.408203 0.09375)"/>
     </g>
    </g>
    <g id="PathCollection_4">
     <g>
      <use xlink:href="#mbcad22ca41" x="357.4" y="39.453125" style="fill: #ff7f0e; stroke: #ff7f0e"/>
     </g>
    </g>
    <g id="text_8">
     <!-- $\Delta E$ Näherung -->
     <g transform="translate(375.4 42.078125) scale(0.1 -0.1)">
      <defs>
       <path id="DejaVuSans-4e" d="M 628 4666 
L 1478 4666 
L 3547 763 
L 3547 4666 
L 4159 4666 
L 4159 0 
L 3309 0 
L 1241 3903 
L 1241 0 
L 628 0 
L 628 4666 
z
" transform="scale(0.015625)"/>
       <path id="DejaVuSans-e4" d="M 2194 1759 
Q 1497 1759 1228 1600 
Q 959 1441 959 1056 
Q 959 750 1161 570 
Q 1363 391 1709 391 
Q 2188 391 2477 730 
Q 2766 1069 2766 1631 
L 2766 1759 
L 2194 1759 
z
M 3341 1997 
L 3341 0 
L 2766 0 
L 2766 531 
Q 2569 213 2275 61 
Q 1981 -91 1556 -91 
Q 1019 -91 701 211 
Q 384 513 384 1019 
Q 384 1609 779 1909 
Q 1175 2209 1959 2209 
L 2766 2209 
L 2766 2266 
Q 2766 2663 2505 2880 
Q 2244 3097 1772 3097 
Q 1472 3097 1187 3025 
Q 903 2953 641 2809 
L 641 3341 
Q 956 3463 1253 3523 
Q 1550 3584 1831 3584 
Q 2591 3584 2966 3190 
Q 3341 2797 3341 1997 
z
M 2150 4850 
L 2784 4850 
L 2784 4219 
L 2150 4219 
L 2150 4850 
z
M 928 4850 
L 1563 4850 
L 1563 4219 
L 928 4219 
L 928 4850 
z
" transform="scale(0.015625)"/>
       <path id="DejaVuSans-68" d="M 3513 2113 
L 3513 0 
L 2938 0 
L 2938 2094 
Q 2938 2591 2744 2837 
Q 2550 3084 2163 3084 
Q 1697 3084 1428 2787 
Q 1159 2491 1159 1978 
L 1159 0 
L 581 0 
L 581 4863 
L 1159 4863 
L 1159 2956 
Q 1366 3272 1645 3428 
Q 1925 3584 2291 3584 
Q 2894 3584 3203 3211 
Q 3513 2838 3513 2113 
z
" transform="scale(0.015625)"/>
       <path id="DejaVuSans-72" d="M 2631 2963 
Q 2534 3019 2420 3045 
Q 2306 3072 2169 3072 
Q 1681 3072 1420 2755 
Q 1159 2438 1159 1844 
L 1159 0 
L 581 0 
L 581 3500 
L 1159 3500 
L 1159 2956 
Q 1341 3275 1631 3429 
Q 1922 3584 2338 3584 
Q 2397 3584 2469 3576 
Q 2541 3569 2628 3553 
L 2631 2963 
z
" transform="scale(0.015625)"/>
       <path id="DejaVuSans-75" d="M 544 1381 
L 544 3500 
L 1119 3500 
L 1119 1403 
Q 1119 906 1312 657 
Q 1506 409 1894 409 
Q 2359 409 2629 706 
Q 2900 1003 2900 1516 
L 2900 3500 
L 3475 3500 
L 3475 0 
L 2900 0 
L 2900 538 
Q 2691 219 2414 64 
Q 2138 -91 1772 -91 
Q 1169 -91 856 284 
Q 544 659 544 1381 
z
M 1991 3584 
L 1991 3584 
z
" transform="scale(0.015625)"/>
       <path id="DejaVuSans-67" d="M 2906 1791 
Q 2906 2416 2648 2759 
Q 2391 3103 1925 3103 
Q 1463 3103 1205 2759 
Q 947 2416 947 1791 
Q 947 1169 1205 825 
Q 1463 481 1925 481 
Q 2391 481 2648 825 
Q 2906 1169 2906 1791 
z
M 3481 434 
Q 3481 -459 3084 -895 
Q 2688 -1331 1869 -1331 
Q 1566 -1331 1297 -1286 
Q 1028 -1241 775 -1147 
L 775 -588 
Q 1028 -725 1275 -790 
Q 1522 -856 1778 -856 
Q 2344 -856 2625 -561 
Q 2906 -266 2906 331 
L 2906 616 
Q 2728 306 2450 153 
Q 2172 0 1784 0 
Q 1141 0 747 490 
Q 353 981 353 1791 
Q 353 2603 747 3093 
Q 1141 3584 1784 3584 
Q 2172 3584 2450 3431 
Q 2728 3278 2906 2969 
L 2906 3500 
L 3481 3500 
L 3481 434 
z
" transform="scale(0.015625)"/>
      </defs>
      <use xlink:href="#DejaVuSans-394" transform="translate(0 0.015625)"/>
      <use xlink:href="#DejaVuSans-Oblique-45" transform="translate(68.408203 0.015625)"/>
      <use xlink:href="#DejaVuSans-20" transform="translate(131.591797 0.015625)"/>
      <use xlink:href="#DejaVuSans-4e" transform="translate(163.378906 0.015625)"/>
      <use xlink:href="#DejaVuSans-e4" transform="translate(238.183594 0.015625)"/>
      <use xlink:href="#DejaVuSans-68" transform="translate(299.462891 0.015625)"/>
      <use xlink:href="#DejaVuSans-65" transform="translate(362.841797 0.015625)"/>
      <use xlink:href="#DejaVuSans-72" transform="translate(424.365234 0.015625)"/>
      <use xlink:href="#DejaVuSans-75" transform="translate(465.478516 0.015625)"/>
      <use xlink:href="#DejaVuSans-6e" transform="translate(528.857422 0.015625)"/>
      <use xlink:href="#DejaVuSans-67" transform="translate(592.236328 0.015625)"/>
     </g>
    </g>
   </g>
  </g>
  <g id="axes_2">
   <g id="patch_8">
    <path d="M 58.628 302.92 
L 450 302.92 
L 450 164.01 
L 58.628 164.01 
z
" style="fill: #ffffff"/>
   </g>
   <g id="matplotlib.axis_3">
    <g id="xtick_7">
     <g id="line2d_47">
      <g>
       <use xlink:href="#m8b17a872f6" x="114.538286" y="302.92" style="stroke: #000000; stroke-width: 0.8"/>
      </g>
     </g>
     <g id="text_9">
      <!-- 5 -->
      <g transform="translate(111.357036 317.518437) scale(0.1 -0.1)">
       <defs>
        <path id="DejaVuSans-35" d="M 691 4666 
L 3169 4666 
L 3169 4134 
L 1269 4134 
L 1269 2991 
Q 1406 3038 1543 3061 
Q 1681 3084 1819 3084 
Q 2600 3084 3056 2656 
Q 3513 2228 3513 1497 
Q 3513 744 3044 326 
Q 2575 -91 1722 -91 
Q 1428 -91 1123 -41 
Q 819 9 494 109 
L 494 744 
Q 775 591 1075 516 
Q 1375 441 1709 441 
Q 2250 441 2565 725 
Q 2881 1009 2881 1497 
Q 2881 1984 2565 2268 
Q 2250 2553 1709 2553 
Q 1456 2553 1204 2497 
Q 953 2441 691 2322 
L 691 4666 
z
" transform="scale(0.015625)"/>
       </defs>
       <use xlink:href="#DejaVuSans-35"/>
      </g>
     </g>
    </g>
    <g id="xtick_8">
     <g id="line2d_48">
      <g>
       <use xlink:href="#m8b17a872f6" x="178.072701" y="302.92" style="stroke: #000000; stroke-width: 0.8"/>
      </g>
     </g>
     <g id="text_10">
      <!-- 10 -->
      <g transform="translate(171.710201 317.518437) scale(0.1 -0.1)">
       <use xlink:href="#DejaVuSans-31"/>
       <use xlink:href="#DejaVuSans-30" x="63.623047"/>
      </g>
     </g>
    </g>
    <g id="xtick_9">
     <g id="line2d_49">
      <g>
       <use xlink:href="#m8b17a872f6" x="241.607117" y="302.92" style="stroke: #000000; stroke-width: 0.8"/>
      </g>
     </g>
     <g id="text_11">
      <!-- 15 -->
      <g transform="translate(235.244617 317.518437) scale(0.1 -0.1)">
       <use xlink:href="#DejaVuSans-31"/>
       <use xlink:href="#DejaVuSans-35" x="63.623047"/>
      </g>
     </g>
    </g>
    <g id="xtick_10">
     <g id="line2d_50">
      <g>
       <use xlink:href="#m8b17a872f6" x="305.141532" y="302.92" style="stroke: #000000; stroke-width: 0.8"/>
      </g>
     </g>
     <g id="text_12">
      <!-- 20 -->
      <g transform="translate(298.779032 317.518437) scale(0.1 -0.1)">
       <use xlink:href="#DejaVuSans-32"/>
       <use xlink:href="#DejaVuSans-30" x="63.623047"/>
      </g>
     </g>
    </g>
    <g id="xtick_11">
     <g id="line2d_51">
      <g>
       <use xlink:href="#m8b17a872f6" x="368.675948" y="302.92" style="stroke: #000000; stroke-width: 0.8"/>
      </g>
     </g>
     <g id="text_13">
      <!-- 25 -->
      <g transform="translate(362.313448 317.518437) scale(0.1 -0.1)">
       <use xlink:href="#DejaVuSans-32"/>
       <use xlink:href="#DejaVuSans-35" x="63.623047"/>
      </g>
     </g>
    </g>
    <g id="xtick_12">
     <g id="line2d_52">
      <g>
       <use xlink:href="#m8b17a872f6" x="432.210364" y="302.92" style="stroke: #000000; stroke-width: 0.8"/>
      </g>
     </g>
     <g id="text_14">
      <!-- 30 -->
      <g transform="translate(425.847864 317.518437) scale(0.1 -0.1)">
       <use xlink:href="#DejaVuSans-33"/>
       <use xlink:href="#DejaVuSans-30" x="63.623047"/>
      </g>
     </g>
    </g>
    <g id="text_15">
     <!-- $n$ in 1 -->
     <g transform="translate(240.214 331.196562) scale(0.1 -0.1)">
      <defs>
       <path id="DejaVuSans-Oblique-6e" d="M 3566 2113 
L 3156 0 
L 2578 0 
L 2988 2091 
Q 3016 2238 3031 2350 
Q 3047 2463 3047 2528 
Q 3047 2791 2881 2937 
Q 2716 3084 2419 3084 
Q 1956 3084 1622 2776 
Q 1288 2469 1184 1941 
L 800 0 
L 225 0 
L 903 3500 
L 1478 3500 
L 1363 2950 
Q 1603 3253 1940 3418 
Q 2278 3584 2650 3584 
Q 3113 3584 3367 3334 
Q 3622 3084 3622 2631 
Q 3622 2519 3608 2391 
Q 3594 2263 3566 2113 
z
" transform="scale(0.015625)"/>
      </defs>
      <use xlink:href="#DejaVuSans-Oblique-6e" transform="translate(0 0.015625)"/>
      <use xlink:href="#DejaVuSans-20" transform="translate(63.378906 0.015625)"/>
      <use xlink:href="#DejaVuSans-69" transform="translate(95.166016 0.015625)"/>
      <use xlink:href="#DejaVuSans-6e" transform="translate(122.949219 0.015625)"/>
      <use xlink:href="#DejaVuSans-20" transform="translate(186.328125 0.015625)"/>
      <use xlink:href="#DejaVuSans-31" transform="translate(218.115234 0.015625)"/>
     </g>
    </g>
   </g>
   <g id="matplotlib.axis_4">
    <g id="ytick_41">
     <g id="line2d_53">
      <g>
       <use xlink:href="#me367ede7f4" x="58.628" y="282.960072" style="stroke: #000000; stroke-width: 0.8"/>
      </g>
     </g>
     <g id="text_16">
      <!-- −0.6 -->
      <g transform="translate(27.345188 286.75929) scale(0.1 -0.1)">
       <defs>
        <path id="DejaVuSans-2e" d="M 684 794 
L 1344 794 
L 1344 0 
L 684 0 
L 684 794 
z
" transform="scale(0.015625)"/>
        <path id="DejaVuSans-36" d="M 2113 2584 
Q 1688 2584 1439 2293 
Q 1191 2003 1191 1497 
Q 1191 994 1439 701 
Q 1688 409 2113 409 
Q 2538 409 2786 701 
Q 3034 994 3034 1497 
Q 3034 2003 2786 2293 
Q 2538 2584 2113 2584 
z
M 3366 4563 
L 3366 3988 
Q 3128 4100 2886 4159 
Q 2644 4219 2406 4219 
Q 1781 4219 1451 3797 
Q 1122 3375 1075 2522 
Q 1259 2794 1537 2939 
Q 1816 3084 2150 3084 
Q 2853 3084 3261 2657 
Q 3669 2231 3669 1497 
Q 3669 778 3244 343 
Q 2819 -91 2113 -91 
Q 1303 -91 875 529 
Q 447 1150 447 2328 
Q 447 3434 972 4092 
Q 1497 4750 2381 4750 
Q 2619 4750 2861 4703 
Q 3103 4656 3366 4563 
z
" transform="scale(0.015625)"/>
       </defs>
       <use xlink:href="#DejaVuSans-2212"/>
       <use xlink:href="#DejaVuSans-30" x="83.789062"/>
       <use xlink:href="#DejaVuSans-2e" x="147.412109"/>
       <use xlink:href="#DejaVuSans-36" x="179.199219"/>
      </g>
     </g>
    </g>
    <g id="ytick_42">
     <g id="line2d_54">
      <g>
       <use xlink:href="#me367ede7f4" x="58.628" y="242.022559" style="stroke: #000000; stroke-width: 0.8"/>
      </g>
     </g>
     <g id="text_17">
      <!-- −0.4 -->
      <g transform="translate(27.345188 245.821778) scale(0.1 -0.1)">
       <defs>
        <path id="DejaVuSans-34" d="M 2419 4116 
L 825 1625 
L 2419 1625 
L 2419 4116 
z
M 2253 4666 
L 3047 4666 
L 3047 1625 
L 3713 1625 
L 3713 1100 
L 3047 1100 
L 3047 0 
L 2419 0 
L 2419 1100 
L 313 1100 
L 313 1709 
L 2253 4666 
z
" transform="scale(0.015625)"/>
       </defs>
       <use xlink:href="#DejaVuSans-2212"/>
       <use xlink:href="#DejaVuSans-30" x="83.789062"/>
       <use xlink:href="#DejaVuSans-2e" x="147.412109"/>
       <use xlink:href="#DejaVuSans-34" x="179.199219"/>
      </g>
     </g>
    </g>
    <g id="ytick_43">
     <g id="line2d_55">
      <g>
       <use xlink:href="#me367ede7f4" x="58.628" y="201.085047" style="stroke: #000000; stroke-width: 0.8"/>
      </g>
     </g>
     <g id="text_18">
      <!-- −0.2 -->
      <g transform="translate(27.345188 204.884265) scale(0.1 -0.1)">
       <use xlink:href="#DejaVuSans-2212"/>
       <use xlink:href="#DejaVuSans-30" x="83.789062"/>
       <use xlink:href="#DejaVuSans-2e" x="147.412109"/>
       <use xlink:href="#DejaVuSans-32" x="179.199219"/>
      </g>
     </g>
    </g>
    <g id="text_19">
     <!-- $\Delta_{\text{rel}}$ in 1 -->
     <g transform="translate(21.2655 252.565) rotate(-90) scale(0.1 -0.1)">
      <defs>
       <path id="DejaVuSans-6c" d="M 603 4863 
L 1178 4863 
L 1178 0 
L 603 0 
L 603 4863 
z
" transform="scale(0.015625)"/>
      </defs>
      <use xlink:href="#DejaVuSans-394" transform="translate(0 0.015625)"/>
      <use xlink:href="#DejaVuSans-72" transform="translate(69.365234 -16.390625) scale(0.7)"/>
      <use xlink:href="#DejaVuSans-65" transform="translate(98.144531 -16.390625) scale(0.7)"/>
      <use xlink:href="#DejaVuSans-6c" transform="translate(141.210938 -16.390625) scale(0.7)"/>
      <use xlink:href="#DejaVuSans-20" transform="translate(163.393555 0.015625)"/>
      <use xlink:href="#DejaVuSans-69" transform="translate(195.180664 0.015625)"/>
      <use xlink:href="#DejaVuSans-6e" transform="translate(222.963867 0.015625)"/>
      <use xlink:href="#DejaVuSans-20" transform="translate(286.342773 0.015625)"/>
      <use xlink:href="#DejaVuSans-31" transform="translate(318.129883 0.015625)"/>
     </g>
    </g>
   </g>
   <g id="line2d_56">
    <path d="M 76.417636 296.605909 
L 89.124519 255.668397 
L 101.831403 233.250235 
L 114.538286 219.279497 
L 127.245169 209.768761 
L 139.952052 202.884498 
L 152.658935 197.673587 
L 165.365818 193.593214 
L 178.072701 190.312017 
L 190.779584 187.616428 
L 203.486468 185.362669 
L 216.193351 183.450426 
L 228.900234 181.807594 
L 241.607117 180.381017 
L 254.314 179.130655 
L 267.020883 178.02577 
L 279.727766 177.042381 
L 292.434649 176.161497 
L 305.141532 175.367891 
L 317.848416 174.649208 
L 330.555299 173.995318 
L 343.262182 173.39784 
L 355.969065 172.849776 
L 368.675948 172.345242 
L 381.382831 171.87925 
L 394.089714 171.447546 
L 406.796597 171.046482 
L 419.503481 170.672908 
L 432.210364 170.324091 
" clip-path="url(#pd4bfdd4fd7)" style="fill: none; stroke: #1f77b4; stroke-width: 1.5; stroke-linecap: square"/>
   </g>
   <g id="patch_9">
    <path d="M 58.628 302.92 
L 58.628 164.01 
" style="fill: none; stroke: #000000; stroke-width: 0.8; stroke-linejoin: miter; stroke-linecap: square"/>
   </g>
   <g id="patch_10">
    <path d="M 450 302.92 
L 450 164.01 
" style="fill: none; stroke: #000000; stroke-width: 0.8; stroke-linejoin: miter; stroke-linecap: square"/>
   </g>
   <g id="patch_11">
    <path d="M 58.628 302.92 
L 450 302.92 
" style="fill: none; stroke: #000000; stroke-width: 0.8; stroke-linejoin: miter; stroke-linecap: square"/>
   </g>
   <g id="patch_12">
    <path d="M 58.628 164.01 
L 450 164.01 
" style="fill: none; stroke: #000000; stroke-width: 0.8; stroke-linejoin: miter; stroke-linecap: square"/>
   </g>
  </g>
 </g>
 <defs>
  <clipPath id="pe0f232d63a">
   <rect x="58.628" y="10.8" width="391.372" height="138.91"/>
  </clipPath>
  <clipPath id="pd4bfdd4fd7">
   <rect x="58.628" y="164.01" width="391.372" height="138.91"/>
  </clipPath>
 </defs>
</svg>
